<svg id="eob8frkoto41" xmlns="http://www.w3.org/2000/svg" xmlns:xlink="http://www.w3.org/1999/xlink" viewBox="0 0 151 128" shape-rendering="geometricPrecision" text-rendering="geometricPrecision"><path id="eob8frkoto42" d="M107.855000,50.879600C103.676000,48.790100,97.554100,48.447100,94.205700,50.121300L6.664090,93.892100C3.315690,95.566300,4.001850,98.627400,8.180820,100.717000L42.857500,118.055000C47.036500,120.145000,52.933200,121.341000,56.281600,119.666000L143.822000,75.896000C147.171000,74.221800,146.711000,70.307400,142.532000,68.218000L107.855000,50.879600Z" clip-rule="evenodd" fill="rgb(74,82,90)" fill-rule="evenodd" stroke="none" stroke-width="1"/><path id="eob8frkoto43" d="M105.445000,52.132000C101.549000,50.184000,95.860800,49.868900,92.745600,51.426500L9.921390,92.838600C6.806130,94.396300,5.638130,96.341000,9.526130,98.285000L44.720600,115.882000C48.608600,117.826000,54.296500,118.141000,57.411700,116.584000L140.236000,75.171700C143.351000,73.614100,142.721000,70.770100,138.833000,68.826100L105.445000,52.132000Z" clip-rule="evenodd" fill="rgb(206,228,246)" fill-rule="evenodd" stroke="none" stroke-width="1"/><path id="eob8frkoto44" d="M46.998600,86.218900C43.796300,84.606700,39.106200,84.340500,36.534500,85.626300C33.962800,86.912100,34.477300,89.266200,37.679600,90.878400L60.651600,102.444000C63.853900,104.056000,68.543900,104.322000,71.115600,103.036000C73.687200,101.750000,73.172900,99.396300,69.970600,97.784100L46.998600,86.218900Z" clip-rule="evenodd" fill="rgb(114,170,220)" fill-rule="evenodd" stroke="none" stroke-width="1"/><path id="eob8frkoto45" d="M46.998600,84.149100C43.796300,82.536900,39.106200,82.270700,36.534500,83.556500C33.962800,84.842300,34.477300,87.196400,37.679600,88.808600L60.651600,100.374000C63.853900,101.986000,68.543900,102.252000,71.115600,100.966000C73.687200,99.680500,73.172900,97.326500,69.970600,95.714300L46.998600,84.149100Z" clip-rule="evenodd" fill="rgb(241,89,95)" fill-rule="evenodd" stroke="none" stroke-width="1"/><path id="eob8frkoto46" d="M35.554700,85.656200C35.554700,86.719900,36.506300,87.885400,38.337100,88.802000L61.305900,100.366000C64.509200,101.984000,69.198200,102.244000,71.770200,100.966000C72.872300,100.411000,73.407500,99.664600,73.407500,98.861200L73.407500,100.151000C73.407500,100.943000,72.872300,101.690000,71.770200,102.244000C69.198200,103.534000,64.509200,103.263000,61.305900,101.656000L38.337100,90.091900C36.506300,89.164100,35.554700,88.009900,35.554700,86.935000L35.554700,85.656200Z" clip-rule="evenodd" fill="rgb(247,166,163)" fill-rule="evenodd" stroke="none" stroke-width="1"/><path id="eob8frkoto47" d="M134.289000,72.045000C135.472000,72.045000,136.432000,71.565300,136.432000,70.973700C136.432000,70.382000,135.472000,69.902300,134.289000,69.902300C133.106000,69.902300,132.146000,70.382000,132.146000,70.973700C132.146000,71.565300,133.106000,72.045000,134.289000,72.045000Z" fill="rgb(74,82,90)" stroke="none" stroke-width="1"/><path id="eob8frkoto48" d="M145.757000,72.432100L145.757000,80.015200C145.757000,81.051200,145.213000,81.943600,143.781000,82.661900L56.241100,126.432000C52.892700,128.104000,46.776600,127.764000,42.591500,125.675000L7.920460,108.336000C5.524510,107.139000,4.277340,105.624000,4.277340,104.236000L4.277340,96.652700C4.277340,98.041400,5.524510,99.556200,7.920460,100.753000L42.591500,118.092000C46.776600,120.181000,52.666400,121.374000,56.014800,119.702000L143.554000,75.927600C145.439000,74.987400,145.757000,73.468200,145.757000,72.432100Z" clip-rule="evenodd" fill="rgb(119,129,139)" fill-rule="evenodd" stroke="none" stroke-width="1"/><path id="eob8frkoto49" d="M12.851000,108.866000C11.997500,108.439000,11.305500,107.204000,11.305500,106.106000C11.305500,105.009000,11.997500,104.465000,12.851000,104.892000C13.704600,105.319000,14.396500,106.554000,14.396500,107.652000C14.396500,108.749000,13.704600,109.293000,12.851000,108.866000Z" fill="rgb(74,82,90)" stroke="none" stroke-width="1"/><path id="eob8frkoto410" d="M27.060400,113.083000C27.060400,112.670000,26.783400,112.206000,26.441900,112.049000L21.454500,109.745000C21.113000,109.587000,20.835900,109.794000,20.835900,110.208000L20.835900,111.710000C20.835900,112.123000,21.113000,112.586000,21.454500,112.744000L26.441900,115.048000C26.783400,115.206000,27.060400,114.999000,27.060400,114.585000L27.060400,113.083000Z" clip-rule="evenodd" fill="rgb(74,82,90)" fill-rule="evenodd" stroke="none" stroke-width="1"/><path id="eob8frkoto411" d="M126.915000,86.541600C126.915000,86.128100,127.193000,85.664900,127.534000,85.507300L137.048000,81.112300C137.389000,80.954700,137.666000,81.161800,137.666000,81.575400L137.666000,83.077200C137.666000,83.490800,137.389000,83.954000,137.048000,84.111600L127.534000,88.506500C127.193000,88.664200,126.915000,88.457000,126.915000,88.043500L126.915000,86.541600Z" clip-rule="evenodd" fill="rgb(74,82,90)" fill-rule="evenodd" stroke="none" stroke-width="1"/><path id="eob8frkoto412" d="M114.956000,92.635900C114.956000,92.222300,115.234000,91.759100,115.575000,91.601500L125.089000,87.206500C125.430000,87.048900,125.707000,87.256100,125.707000,87.669600L125.707000,89.171500C125.707000,89.585000,125.430000,90.048200,125.089000,90.205800L115.575000,94.600800C115.234000,94.758400,114.956000,94.551300,114.956000,94.137700L114.956000,92.635900Z" clip-rule="evenodd" fill="rgb(74,82,90)" fill-rule="evenodd" stroke="none" stroke-width="1"/><path id="eob8frkoto413" d="M109.486000,63.864600C105.550000,61.896900,99.804900,61.581000,96.658500,63.154200L72.535400,75.215700C69.388900,76.789000,70.020700,79.661700,73.956100,81.629400C77.891600,83.597200,83.636100,83.912600,86.782600,82.339300L110.906000,70.277800C114.052000,68.704600,113.421000,65.832300,109.486000,63.864600Z" clip-rule="evenodd" fill="rgb(114,170,220)" fill-rule="evenodd" stroke="none" stroke-width="1"/><path id="eob8frkoto414" d="M112.888000,67.717800L112.888000,69.788500C112.888000,70.761700,112.234000,71.678100,110.889000,72.345700L86.769400,84.407700C83.621600,85.980500,77.872300,85.663800,73.936800,83.695000C71.727000,82.586100,70.557000,81.205600,70.514000,79.915700L70.511700,79.915700L70.511700,77.765800C70.511700,79.078300,71.684000,80.504000,73.936800,81.624200C77.872300,83.593100,83.621600,83.910000,86.769400,82.337200L110.889000,70.275000C112.234000,69.607400,112.888000,68.690900,112.888000,67.717800Z" clip-rule="evenodd" fill="rgb(86,130,167)" fill-rule="evenodd" stroke="none" stroke-width="1"/><path id="eob8frkoto415" d="M106.051000,66.004200C103.978000,64.967800,100.950000,64.802400,99.292500,65.631100L78.117400,76.218600C76.460000,77.047300,76.790800,78.561400,78.863700,79.597900C80.936500,80.634300,83.964200,80.799400,85.621600,79.970700L106.797000,69.383200C108.454000,68.554500,108.124000,67.040700,106.051000,66.004200Z" clip-rule="evenodd" fill="rgb(74,82,90)" fill-rule="evenodd" stroke="none" stroke-width="1"/><path id="eob8frkoto416" d="M71.590000,63.182900L67.532300,61.186500C64.344000,59.609000,62.232400,55.354600,62.232400,49.365400C62.232400,39.702200,67.698000,29.158400,74.447100,25.835800C76.993600,24.573000,79.374600,24.534100,81.341400,25.502700L85.399000,27.499100C83.432300,26.530500,81.051300,26.569400,78.504800,27.832200C71.755700,31.154800,66.290100,41.698600,66.290100,51.361800C66.290100,57.351000,68.401700,61.605400,71.590000,63.182900Z" clip-rule="evenodd" fill="rgb(254,239,163)" fill-rule="evenodd" stroke="none" stroke-width="1"/><path id="eob8frkoto417" d="M78.111100,62.909100C84.848400,59.584300,90.310100,49.049700,90.310100,39.379500C90.310100,29.709400,84.848400,24.565500,78.111100,27.890400C71.373800,31.215300,65.912100,41.749800,65.912100,51.420000C65.912100,61.090200,71.373800,66.234000,78.111100,62.909100Z" fill="rgb(246,221,118)" stroke="none" stroke-width="1"/><path id="eob8frkoto418" d="M83.680400,30.504900C86.527400,31.631800,88.429000,35.225800,88.429000,40.389600C88.429000,48.327800,83.936000,56.992300,78.406400,59.721100C76.130200,60.844500,74.032500,60.790600,72.351600,59.783900C73.885400,60.397400,75.692400,60.293100,77.625500,59.339100C83.158600,56.608600,87.651500,47.944100,87.651500,40.005900C87.651500,35.329000,86.093200,31.939600,83.680400,30.504900Z" clip-rule="evenodd" fill="rgb(227,175,24)" fill-rule="evenodd" stroke="none" stroke-width="1"/><path id="eob8frkoto419" d="M72.639600,59.868600C70.226800,58.432200,68.671900,55.044400,68.671900,50.366600C68.671900,42.426600,73.161400,33.764900,78.694400,31.034300C80.627500,30.080300,82.434500,29.976700,83.968300,30.589900C86.381200,32.025000,87.939500,35.412700,87.939500,40.090500C87.939500,48.028800,83.446500,56.693300,77.917000,59.422100C75.980400,60.377800,74.173400,60.482100,72.639600,59.868600Z" clip-rule="evenodd" fill="rgb(246,202,18)" fill-rule="evenodd" stroke="none" stroke-width="1"/><g id="eob8frkoto420" transform="matrix(1 0 0 1 0 -50)"><path id="eob8frkoto421" d="M108.469000,41.175800C115.206000,37.850900,120.668000,27.316300,120.668000,17.646100C120.668000,7.975950,115.206000,2.832120,108.469000,6.157010C101.731000,9.481900,96.269500,20.016400,96.269500,29.686600C96.269500,39.356800,101.731000,44.500600,108.469000,41.175800Z" transform="matrix(1 0 0 1 0 -20)" fill="rgb(246,221,118)" stroke="none" stroke-width="1"/><path id="eob8frkoto422" d="M101.947000,41.449500L97.889700,39.453100C94.701500,37.875600,92.589800,33.621200,92.589800,27.632100C92.589800,17.968800,98.055400,7.424960,104.805000,4.102410C107.351000,2.839590,109.732000,2.800740,111.699000,3.769310L115.756000,5.765710C113.790000,4.797140,111.409000,4.835990,108.862000,6.098810C102.113000,9.421360,96.647500,19.965200,96.647500,29.628400C96.647500,35.617600,98.759100,39.872000,101.947000,41.449500Z" transform="matrix(1 0 0 1 0 -20)" clip-rule="evenodd" fill="rgb(254,239,163)" fill-rule="evenodd" stroke="none" stroke-width="1"/><path id="eob8frkoto423" d="M102.997000,38.135200C100.584000,36.698800,99.029300,33.311000,99.029300,28.633200C99.029300,20.693200,103.519000,12.031500,109.052000,9.300910C110.985000,8.346930,112.792000,8.243310,114.326000,8.856530C116.739000,10.291600,118.297000,13.679300,118.297000,18.357100C118.297000,26.295400,113.804000,34.959900,108.274000,37.688700C106.338000,38.644400,104.531000,38.748700,102.997000,38.135200Z" transform="matrix(1 0 0 1 0 -20)" clip-rule="evenodd" fill="rgb(246,202,18)" fill-rule="evenodd" stroke="none" stroke-width="1"/><path id="eob8frkoto424" d="M114.038000,8.771500C116.885000,9.898400,118.786000,13.492400,118.786000,18.656200C118.786000,26.594400,114.293000,35.258900,108.764000,37.987700C106.488000,39.111100,104.390000,39.057200,102.709000,38.050500C104.243000,38.664000,106.050000,38.559700,107.983000,37.605700C113.516000,34.875200,118.009000,26.210700,118.009000,18.272500C118.009000,13.595600,116.451000,10.206200,114.038000,8.771500Z" transform="matrix(1 0 0 1 0 -20)" clip-rule="evenodd" fill="rgb(227,175,24)" fill-rule="evenodd" stroke="none" stroke-width="1"/></g><path id="eob8frkoto425" d="M86.218300,79.494800L85.009900,78.895000C81.811100,77.322200,79.710900,73.067600,79.710900,67.070600C79.710900,57.407400,85.177400,46.861500,91.911000,43.546200C94.470500,42.278900,96.847900,42.244900,98.811100,43.206700L102.866000,45.209700C100.903000,44.236600,98.525900,44.281900,95.966400,45.537800C89.232700,48.864500,83.767500,59.410300,83.767500,69.073500C83.767500,73.531700,84.931800,77.028000,86.847500,79.177900L86.218300,79.494800Z" clip-rule="evenodd" fill="rgb(254,239,163)" fill-rule="evenodd" stroke="none" stroke-width="1"/><path id="eob8frkoto426" d="M86.470600,79.135700C84.555000,76.985800,83.390600,73.489500,83.390600,69.031300C83.390600,59.368100,88.855900,48.822300,95.589600,45.495700C102.322000,42.180300,107.787000,47.328700,107.787000,56.991900C107.787000,61.393500,106.652000,65.976000,104.780000,69.981600L86.470600,79.135700Z" clip-rule="evenodd" fill="rgb(246,221,118)" fill-rule="evenodd" stroke="none" stroke-width="1"/><path id="eob8frkoto427" d="M89.965800,77.521200C89.920600,77.498500,89.875300,77.475900,89.830100,77.453300C89.885500,77.464600,89.940900,77.487300,89.996400,77.509900L89.965800,77.521200ZM100.297000,72.361500C103.193000,68.412500,105.129000,62.879200,105.129000,57.674200C105.129000,52.989700,103.571000,49.606500,101.161000,48.169400C104.008000,49.289600,105.908000,52.887900,105.908000,58.059000C105.908000,62.766100,104.324000,67.744900,101.877000,71.569400L100.297000,72.361500Z" clip-rule="evenodd" fill="rgb(227,175,24)" fill-rule="evenodd" stroke="none" stroke-width="1"/><path id="eob8frkoto428" d="M90.286100,77.547400C90.230600,77.524700,90.175200,77.502100,90.119800,77.490800C87.708500,76.053800,86.150400,72.659200,86.150400,67.986000C86.150400,60.042700,90.642500,51.386500,96.174500,48.648300C98.108300,47.697800,99.915300,47.595900,101.451000,48.206900C103.861000,49.644000,105.419000,53.027200,105.419000,57.711700C105.419000,62.916700,103.483000,68.449900,100.586000,72.398900L90.286100,77.547400Z" clip-rule="evenodd" fill="rgb(246,202,18)" fill-rule="evenodd" stroke="none" stroke-width="1"/><path id="eob8frkoto429" d="M142.745000,69.212400C144.886000,70.612000,144.977000,72.839500,142.981000,73.836100L54.260200,118.197000C52.574800,119.040000,49.895900,118.762000,47.513700,117.963000C49.155100,118.219000,50.734100,118.146000,51.870700,117.582000L141.698000,72.663700C143.200000,71.916300,143.543000,70.487400,142.745000,69.212400Z" clip-rule="evenodd" fill="rgb(244,248,253)" fill-rule="evenodd" stroke="none" stroke-width="1"/><script><![CDATA[!function(t,n){"object"==typeof exports&&"undefined"!=typeof module?module.exports=n():"function"==typeof define&&define.amd?define(n):(t=t||self).__SVGATOR_PLAYER__=n()}(this,(function(){"use strict";function t(n){return(t="function"==typeof Symbol&&"symbol"==typeof Symbol.iterator?function(t){return typeof t}:function(t){return t&&"function"==typeof Symbol&&t.constructor===Symbol&&t!==Symbol.prototype?"symbol":typeof t})(n)}function n(t,n){if(!(t instanceof n))throw new TypeError("Cannot call a class as a function")}function r(t,n){for(var r=0;r<n.length;r++){var e=n[r];e.enumerable=e.enumerable||!1,e.configurable=!0,"value"in e&&(e.writable=!0),Object.defineProperty(t,e.key,e)}}function e(t,n,e){return n&&r(t.prototype,n),e&&r(t,e),t}var i=1e-5,u=Math.abs;function o(t){return t}function a(t,n,r){var e=1-r;return 3*r*e*(t*e+n*r)+r*r*r}function l(){var t=arguments.length>0&&void 0!==arguments[0]?arguments[0]:0,n=arguments.length>1&&void 0!==arguments[1]?arguments[1]:0,r=arguments.length>2&&void 0!==arguments[2]?arguments[2]:1,e=arguments.length>3&&void 0!==arguments[3]?arguments[3]:1;return t<0||t>1||r<0||r>1?null:u(t-n)<=i&&u(r-e)<=i?o:function(o){if(o<=0)return t>0?o*n/t:0===n&&r>0?o*e/r:0;if(o>=1)return r<1?1+(o-1)*(e-1)/(r-1):1===r&&t<1?1+(o-1)*(n-1)/(t-1):1;for(var l,f=0,s=1;f<s;){var c=a(t,r,l=(f+s)/2);if(u(o-c)<i)break;c<o?f=l:s=l}return a(n,e,l)}}function f(){return 1}function s(t){return 1===t?1:0}function c(){var t=arguments.length>0&&void 0!==arguments[0]?arguments[0]:1,n=arguments.length>1&&void 0!==arguments[1]?arguments[1]:0;if(1===t){if(0===n)return s;if(1===n)return f}var r=1/t;return function(t){return t>=1?1:(t+=n*r)-t%r}}function v(t){var n=arguments.length>1&&void 0!==arguments[1]?arguments[1]:2;if(Number.isInteger(t))return t;var r=Math.pow(10,n);return Math.round(t*r)/r}var h=Math.PI/180;function y(t,n,r){return t>=.5?r:n}function d(t,n,r){return 0===t||n===r?n:t*(r-n)+n}function g(t,n,r){var e=d(t,n,r);return e<=0?0:e}function m(t,n,r){return 0===t?n:1===t?r:{x:d(t,n.x,r.x),y:d(t,n.y,r.y)}}function p(t,n,r){return 0===t?n:1===t?r:{x:g(t,n.x,r.x),y:g(t,n.y,r.y)}}function b(t,n,r){var e=function(t,n,r){return Math.round(d(t,n,r))}(t,n,r);return e<=0?0:e>=255?255:e}function w(t,n,r){return 0===t?n:1===t?r:{r:b(t,n.r,r.r),g:b(t,n.g,r.g),b:b(t,n.b,r.b),a:d(t,null==n.a?1:n.a,null==r.a?1:r.a)}}function A(t,n,r){if(0===t)return n;if(1===t)return r;var e=n.length;if(e!==r.length)return y(t,n,r);for(var i=[],u=0;u<e;u++)i.push(w(t,n[u],r[u]));return i}function x(t,n,r){var e=n.length;if(e!==r.length)return y(t,n,r);for(var i=new Array(e),u=0;u<e;u++)i[u]=d(t,n[u],r[u]);return i}function k(t,n){for(var r=[],e=0;e<t;e++)r.push(n);return r}function S(t,n){if(--n<=0)return t;var r=(t=Object.assign([],t)).length;do{for(var e=0;e<r;e++)t.push(t[e])}while(--n>0);return t}var _=6,M=/\.0+$/g;function I(t){return Number.isInteger(t)?t+"":t.toFixed(_).replace(M,"")}function E(t){var n=arguments.length>1&&void 0!==arguments[1]?arguments[1]:" ";return t&&t.length?t.map(I).join(n):""}function F(t){return I(t.x)+","+I(t.y)}function B(t){return t?null==t.a||t.a>=1?"rgb("+t.r+","+t.g+","+t.b+")":"rgba("+t.r+","+t.g+","+t.b+","+t.a+")":"transparent"}var j={f:null,i:p,u:function(t,n){return function(r){var e=n(r);t.setAttribute("rx",I(e.x)),t.setAttribute("ry",I(e.y))}}},q={f:null,i:function(t,n,r){return 0===t?n:1===t?r:{width:g(t,n.width,r.width),height:g(t,n.height,r.height)}},u:function(t,n){return function(r){var e=n(r);t.setAttribute("width",I(e.width)),t.setAttribute("height",I(e.height))}}},P=Math.sin,O=Math.cos,z=Math.acos,L=Math.asin,C=Math.tan,R=Math.atan2,T=Math.PI/180,V=180/Math.PI,D=Math.sqrt,N=function(){function t(){var r=arguments.length>0&&void 0!==arguments[0]?arguments[0]:1,e=arguments.length>1&&void 0!==arguments[1]?arguments[1]:0,i=arguments.length>2&&void 0!==arguments[2]?arguments[2]:0,u=arguments.length>3&&void 0!==arguments[3]?arguments[3]:1,o=arguments.length>4&&void 0!==arguments[4]?arguments[4]:0,a=arguments.length>5&&void 0!==arguments[5]?arguments[5]:0;n(this,t),this.m=[r,e,i,u,o,a],this.i=null,this.w=null,this.s=null}return e(t,[{key:"point",value:function(t,n){var r=this.m;return{x:r[0]*t+r[2]*n+r[4],y:r[1]*t+r[3]*n+r[5]}}},{key:"translateSelf",value:function(){var t=arguments.length>0&&void 0!==arguments[0]?arguments[0]:0,n=arguments.length>1&&void 0!==arguments[1]?arguments[1]:0;if(!t&&!n)return this;var r=this.m;return r[4]+=r[0]*t+r[2]*n,r[5]+=r[1]*t+r[3]*n,this.w=this.s=this.i=null,this}},{key:"rotateSelf",value:function(){var t=arguments.length>0&&void 0!==arguments[0]?arguments[0]:0;if(t%=360){var n=P(t*=T),r=O(t),e=this.m,i=e[0],u=e[1];e[0]=i*r+e[2]*n,e[1]=u*r+e[3]*n,e[2]=e[2]*r-i*n,e[3]=e[3]*r-u*n,this.w=this.s=this.i=null}return this}},{key:"scaleSelf",value:function(){var t=arguments.length>0&&void 0!==arguments[0]?arguments[0]:1,n=arguments.length>1&&void 0!==arguments[1]?arguments[1]:1;if(1!==t||1!==n){var r=this.m;r[0]*=t,r[1]*=t,r[2]*=n,r[3]*=n,this.w=this.s=this.i=null}return this}},{key:"skewSelf",value:function(t,n){if(n%=360,(t%=360)||n){var r=this.m,e=r[0],i=r[1],u=r[2],o=r[3];t&&(t=C(t*T),r[2]+=e*t,r[3]+=i*t),n&&(n=C(n*T),r[0]+=u*n,r[1]+=o*n),this.w=this.s=this.i=null}return this}},{key:"resetSelf",value:function(){var t=arguments.length>0&&void 0!==arguments[0]?arguments[0]:1,n=arguments.length>1&&void 0!==arguments[1]?arguments[1]:0,r=arguments.length>2&&void 0!==arguments[2]?arguments[2]:0,e=arguments.length>3&&void 0!==arguments[3]?arguments[3]:1,i=arguments.length>4&&void 0!==arguments[4]?arguments[4]:0,u=arguments.length>5&&void 0!==arguments[5]?arguments[5]:0,o=this.m;return o[0]=t,o[1]=n,o[2]=r,o[3]=e,o[4]=i,o[5]=u,this.w=this.s=this.i=null,this}},{key:"recomposeSelf",value:function(){var t=arguments.length>0&&void 0!==arguments[0]?arguments[0]:null,n=arguments.length>1&&void 0!==arguments[1]?arguments[1]:null,r=arguments.length>2&&void 0!==arguments[2]?arguments[2]:null,e=arguments.length>3&&void 0!==arguments[3]?arguments[3]:null,i=arguments.length>4&&void 0!==arguments[4]?arguments[4]:null;return this.isIdentity||this.resetSelf(),t&&(t.x||t.y)&&this.translateSelf(t.x,t.y),n&&this.rotateSelf(n),r&&(r.x&&this.skewSelf(r.x,0),r.y&&this.skewSelf(0,r.y)),!e||1===e.x&&1===e.y||this.scaleSelf(e.x,e.y),i&&(i.x||i.y)&&this.translateSelf(i.x,i.y),this}},{key:"decompose",value:function(){var t=arguments.length>0&&void 0!==arguments[0]?arguments[0]:0,n=arguments.length>1&&void 0!==arguments[1]?arguments[1]:0,r=this.m,e=r[0]*r[0]+r[1]*r[1],i=[[r[0],r[1]],[r[2],r[3]]],u=D(e);if(0===u)return{origin:{x:r[4],y:r[5]},translate:{x:t,y:n},scale:{x:0,y:0},skew:{x:0,y:0},rotate:0};i[0][0]/=u,i[0][1]/=u;var o=r[0]*r[3]-r[1]*r[2]<0;o&&(u=-u);var a=i[0][0]*i[1][0]+i[0][1]*i[1][1];i[1][0]-=i[0][0]*a,i[1][1]-=i[0][1]*a;var l=D(i[1][0]*i[1][0]+i[1][1]*i[1][1]);if(0===l)return{origin:{x:r[4],y:r[5]},translate:{x:t,y:n},scale:{x:u,y:0},skew:{x:0,y:0},rotate:0};i[1][0]/=l,i[1][1]/=l,a/=l;var f=0;return i[1][1]<0?(f=z(i[1][1])*V,i[0][1]<0&&(f=360-f)):f=L(i[0][1])*V,o&&(f=-f),a=R(a,D(i[0][0]*i[0][0]+i[0][1]*i[0][1]))*V,{origin:{x:r[4],y:r[5]},translate:{x:t,y:n},scale:{x:u,y:l},skew:{x:a,y:0},rotate:f}}},{key:"toString",value:function(){return null===this.s&&(this.s="matrix("+this.m.map($).join(" ")+")"),this.s}},{key:"determinant",get:function(){var t=this.m;return t[0]*t[3]-t[1]*t[2]}},{key:"isIdentity",get:function(){if(null===this.i){var t=this.m;this.i=1===t[0]&&0===t[1]&&0===t[2]&&1===t[3]&&0===t[4]&&0===t[5]}return this.i}}]),t}(),G=/\.0+$/;function $(t){return Number.isInteger(t)?t:t.toFixed(14).replace(G,"")}Object.freeze({M:2,L:2,Z:0,H:1,V:1,C:6,Q:4,T:2,S:4,A:7});function H(t,n,r){return t+(n-t)*r}function Q(t,n,r){var e=arguments.length>3&&void 0!==arguments[3]&&arguments[3],i={x:H(t.x,n.x,r),y:H(t.y,n.y,r)};return e&&(i.a=function(t,n){return Math.atan2(n.y-t.y,n.x-t.x)}(t,n)),i}function U(t,n,r,e){var i=1-e;return i*i*t+2*i*e*n+e*e*r}function Y(t,n,r,e){return 2*(1-e)*(n-t)+2*e*(r-n)}function Z(t,n,r,e){var i=arguments.length>4&&void 0!==arguments[4]&&arguments[4],u={x:U(t.x,n.x,r.x,e),y:U(t.y,n.y,r.y,e)};return i&&(u.a=function(t,n,r,e){return Math.atan2(Y(t.y,n.y,r.y,e),Y(t.x,n.x,r.x,e))}(t,n,r,e)),u}function J(t,n,r,e,i){var u=i*i;return i*u*(e-t+3*(n-r))+3*u*(t+r-2*n)+3*i*(n-t)+t}function K(t,n,r,e,i){var u=1-i;return 3*(u*u*(n-t)+2*u*i*(r-n)+i*i*(e-r))}function W(t,n,r,e,i){var u=arguments.length>5&&void 0!==arguments[5]&&arguments[5],o={x:J(t.x,n.x,r.x,e.x,i),y:J(t.y,n.y,r.y,e.y,i)};return u&&(o.a=function(t,n,r,e,i){return Math.atan2(K(t.y,n.y,r.y,e.y,i),K(t.x,n.x,r.x,e.x,i))}(t,n,r,e,i)),o}function X(t,n,r){var e,i=arguments.length>3&&void 0!==arguments[3]&&arguments[3];if(nt(n)){if(null!=(e=r).start&&!nt(e))return Z(n,r.start,r,t,i)}else if(nt(r)){if(n.end)return Z(n,n.end,r,t,i)}else{if(n.end)return r.start?W(n,n.end,r.start,r,t,i):Z(n,n.end,r,t,i);if(r.start)return Z(n,r.start,r,t,i)}return Q(n,r,t,i)}function tt(t,n,r){var e=X(t,n,r,!0);return e.a=function(t){return arguments.length>1&&void 0!==arguments[1]&&arguments[1]?t+Math.PI:t}(e.a)/h,e}function nt(t){return!t.type||"corner"===t.type}var rt=new N;var et={f:function(t){return t?t.join(" "):""},i:function(n,r,e){if(0===n)return r;if(1===n)return e;var i=r.length;if(i!==e.length)return y(n,r,e);for(var u,o=new Array(i),a=0;a<i;a++){if((u=t(r[a]))!==t(e[a]))return y(n,r,e);if("number"===u)o[a]=d(n,r[a],e[a]);else{if(r[a]!==e[a])return y(n,r,e);o[a]=r[a]}}return o}},it={f:null,i:x,u:function(t,n){return function(r){var e=n(r);t.setAttribute("x1",I(e[0])),t.setAttribute("y1",I(e[1])),t.setAttribute("x2",I(e[2])),t.setAttribute("y2",I(e[3]))}}},ut={f:I,i:d},ot={f:I,i:function(t,n,r){var e=d(t,n,r);return e<=0?0:e>=1?1:e}},at={f:E,i:function(t,n,r){var e,i,u,o=n.length,a=r.length;if(o!==a)if(0===o)n=k(o=a,0);else if(0===a)a=o,r=k(o,0);else{var l=(u=(e=o)*(i=a)/function(t,n){for(var r;n;)r=n,n=t%n,t=r;return t||1}(e,i))<0?-u:u;n=S(n,Math.floor(l/o)),r=S(r,Math.floor(l/a)),o=a=l}for(var f=[],s=0;s<o;s++)f.push(v(g(t,n[s],r[s]),6));return f}};function lt(t,n,r,e,i,u,o,a){return n=function(t,n,r){for(var e,i,u,o=t.length-1,a={},l=0;l<=o;l++)(e=t[l]).e&&(e.e=n(e.e)),e.v&&"g"===(i=e.v).t&&i.r&&(u=r.getElementById(i.r))&&(a[i.r]=u.querySelectorAll("stop"));return a}(t,e,a),function(e){var i,u=r(e,t,ft);return u?"c"===u.t?B(u.v):"g"===u.t?(n[u.r]&&function(t,n){for(var r=0,e=t.length;r<e;r++)t[r].setAttribute("stop-color",B(n[r]))}(n[u.r],u.v),(i=u.r)?"url(#"+i+")":"none"):"none":"none"}}function ft(t,n,r){if(0===t)return n;if(1===t)return r;if(n&&r){var e=n.t;if(e===r.t)switch(n.t){case"c":return{t:e,v:w(t,n.v,r.v)};case"g":if(n.r===r.r)return{t:e,v:A(t,n.v,r.v),r:n.r}}}return y(t,n,r)}var st={blur:p,brightness:g,contrast:g,"drop-shadow":function(t,n,r){return 0===t?n:1===t?r:{blur:p(t,n.blur,r.blur),offset:m(t,n.offset,r.offset),color:w(t,n.color,r.color)}},grayscale:g,"hue-rotate":d,invert:g,opacity:g,saturate:g,sepia:g};function ct(t,n,r){if(0===t)return n;if(1===t)return r;var e=n.length;if(e!==r.length)return y(t,n,r);for(var i,u=[],o=0;o<e;o++){if(n[o].type!==r[o].type)return n;if(!(i=st[n[o].type]))return y(t,n,r);u.push({type:n.type,value:i(t,n[o].value,r[o].value)})}return u}var vt={blur:function(t){return t?function(n){t.setAttribute("stdDeviation",F(n))}:null},brightness:function(t,n,r){return(t=yt(r,n))?function(n){n=I(n),t.map((function(t){return t.setAttribute("slope",n)}))}:null},contrast:function(t,n,r){return(t=yt(r,n))?function(n){var r=I((1-n)/2);n=I(n),t.map((function(t){t.setAttribute("slope",n),t.setAttribute("intercept",r)}))}:null},"drop-shadow":function(t,n,r){var e=r.getElementById(n+"-blur");if(!e)return null;var i=r.getElementById(n+"-offset");if(!i)return null;var u=r.getElementById(n+"-flood");return u?function(t){e.setAttribute("stdDeviation",F(t.blur)),i.setAttribute("dx",I(t.offset.x)),i.setAttribute("dy",I(t.offset.y)),u.setAttribute("flood-color",B(t.color))}:null},grayscale:function(t){return t?function(n){t.setAttribute("values",E(function(t){return[.2126+.7874*(t=1-t),.7152-.7152*t,.0722-.0722*t,0,0,.2126-.2126*t,.7152+.2848*t,.0722-.0722*t,0,0,.2126-.2126*t,.7152-.7152*t,.0722+.9278*t,0,0,0,0,0,1,0]}(n)))}:null},"hue-rotate":function(t){return t?function(n){return t.setAttribute("values",I(n))}:null},invert:function(t,n,r){return(t=yt(r,n))?function(n){n=I(n)+" "+I(1-n),t.map((function(t){return t.setAttribute("tableValues",n)}))}:null},opacity:function(t,n,r){return(t=r.getElementById(n+"-A"))?function(n){return t.setAttribute("tableValues","0 "+I(n))}:null},saturate:function(t){return t?function(n){return t.setAttribute("values",I(n))}:null},sepia:function(t){return t?function(n){return t.setAttribute("values",E(function(t){return[.393+.607*(t=1-t),.769-.769*t,.189-.189*t,0,0,.349-.349*t,.686+.314*t,.168-.168*t,0,0,.272-.272*t,.534-.534*t,.131+.869*t,0,0,0,0,0,1,0]}(n)))}:null}};var ht=["R","G","B"];function yt(t,n){var r=ht.map((function(r){return t.getElementById(n+"-"+r)||null}));return-1!==r.indexOf(null)?null:r}var dt={fill:lt,"fill-opacity":ot,stroke:lt,"stroke-opacity":ot,"stroke-width":ut,"stroke-dashoffset":{f:I,i:d},"stroke-dasharray":at,opacity:ot,transform:function(n,r,e,i){if(!(n=function(n,r){if(!n||"object"!==t(n))return null;var e=!1;for(var i in n)n.hasOwnProperty(i)&&(n[i]&&n[i].length?(n[i].forEach((function(t){t.e&&(t.e=r(t.e))})),e=!0):delete n[i]);return e?n:null}(n,i)))return null;var u=function(t,i,u){var o=arguments.length>3&&void 0!==arguments[3]?arguments[3]:null;return n[t]?e(i,n[t],u):r&&r[t]?r[t]:o};return r&&r.a&&n.o?function(t){var r=e(t,n.o,tt);return rt.recomposeSelf(r,u("r",t,d,0)+r.a,u("k",t,m),u("s",t,m),u("t",t,m)).toString()}:function(t){return rt.recomposeSelf(u("o",t,X,null),u("r",t,d,0),u("k",t,m),u("s",t,m),u("t",t,m)).toString()}},"#filter":function(t,n,r,e,i,u,o,a){if(!n.items||!t||!t.length)return null;var l=function(t,n){var r=(t=t.map((function(t){return t&&vt[t[0]]?(n.getElementById(t[1]),vt[t[0]](n.getElementById(t[1]),t[1],n)):null}))).length;return function(n){for(var e=0;e<r;e++)t[e]&&t[e](n[e].value)}}(n.items,a);return l?(t=function(t,n){return t.map((function(t){return t.e=n(t.e),t}))}(t,e),function(n){l(r(n,t,ct))}):null},"#line":it,points:{f:E,i:x},d:et,r:ut,"#size":q,"#radius":j,_:function(t,n){if(Array.isArray(t))for(var r=0;r<t.length;r++)this[t[r]]=n;else this[t]=n}},gt=function(){function t(r){n(this,t),this.list=r,this.length=r.length}return e(t,[{key:"setAttribute",value:function(t,n){for(var r=this.list,e=0;e<this.length;e++)r[e].setAttribute(t,n)}},{key:"removeAttribute",value:function(t){for(var n=this.list,r=0;r<this.length;r++)n[r].removeAttribute(t)}},{key:"style",value:function(t,n){for(var r=this.list,e=0;e<this.length;e++)r[e].style[t]=n}}]),t}(),mt=/-./g,pt=function(t,n){return n.toUpperCase()};function bt(t){return"function"==typeof t?t:y}function wt(t){return t?"function"==typeof t?t:Array.isArray(t)?function(t){var n=arguments.length>1&&void 0!==arguments[1]?arguments[1]:o;if(!Array.isArray(t))return n;switch(t.length){case 1:return c(t[0])||n;case 2:return c(t[0],t[1])||n;case 4:return l(t[0],t[1],t[2],t[3])||n}return n}(t,null):function(t,n){var r=arguments.length>2&&void 0!==arguments[2]?arguments[2]:o;switch(t){case"linear":return o;case"steps":return c(n.steps||1,n.jump||0)||r;case"bezier":case"cubic-bezier":return l(n.x1||0,n.y1||0,n.x2||0,n.y2||0)||r}return r}(t.type,t.value,null):null}function At(t,n,r){var e=arguments.length>3&&void 0!==arguments[3]&&arguments[3],i=n.length-1;if(t<=n[0].t)return e?[0,0,n[0].v]:n[0].v;if(t>=n[i].t)return e?[i,1,n[i].v]:n[i].v;var u,o=n[0],a=null;for(u=1;u<=i;u++){if(!(t>n[u].t)){a=n[u];break}o=n[u]}return null==a?e?[i,1,n[i].v]:n[i].v:o.t===a.t?e?[u,1,a.v]:a.v:(t=(t-o.t)/(a.t-o.t),o.e&&(t=o.e(t)),e?[u,t,r(t,o.v,a.v)]:r(t,o.v,a.v))}function xt(t,n){var r=arguments.length>2&&void 0!==arguments[2]?arguments[2]:null;return t&&t.length?"function"!=typeof n?null:("function"!=typeof r&&(r=null),function(e){var i=At(e,t,n);return null!=i&&r&&(i=r(i)),i}):null}function kt(t,n){return t.t-n.t}function St(n,r,e,i,u){var o,a="@"===e[0],l="#"===e[0],f=dt[e],s=y;switch(a?(o=e.substr(1),e=o.replace(mt,pt)):l&&(e=e.substr(1)),t(f)){case"function":if(s=f(i,u,At,wt,e,a,r,n),l)return s;break;case"string":s=xt(i,bt(f));break;case"object":if((s=xt(i,bt(f.i),f.f))&&"function"==typeof f.u)return f.u(r,s,e,a,n)}return s?function(t,n,r){if(arguments.length>3&&void 0!==arguments[3]&&arguments[3])return t instanceof gt?function(e){return t.style(n,r(e))}:function(e){return t.style[n]=r(e)};if(Array.isArray(n)){var e=n.length;return function(i){var u=r(i);if(null==u)for(var o=0;o<e;o++)t[o].removeAttribute(n);else for(var a=0;a<e;a++)t[a].setAttribute(n,u)}}return function(e){var i=r(e);null==i?t.removeAttribute(n):t.setAttribute(n,i)}}(r,e,s,a):null}function _t(n,r,e,i){if(!i||"object"!==t(i))return null;var u=null,o=null;return Array.isArray(i)?o=function(t){if(!t||!t.length)return null;for(var n=0;n<t.length;n++)t[n].e&&(t[n].e=wt(t[n].e));return t.sort(kt)}(i):(o=i.keys,u=i.data||null),o?St(n,r,e,o,u):null}function Mt(t,n,r){if(!r)return null;var e=[];for(var i in r)if(r.hasOwnProperty(i)){var u=_t(t,n,i,r[i]);u&&e.push(u)}return e.length?e:null}function It(t,n){if(!n.duration||n.duration<0)return null;var r=function(t,n){if(!n)return null;var r=[];if(Array.isArray(n))for(var e=n.length,i=0;i<e;i++){var u=n[i];if(2===u.length){var o=null;if("string"==typeof u[0])o=t.getElementById(u[0]);else if(Array.isArray(u[0])){o=[];for(var a=0;a<u[0].length;a++)if("string"==typeof u[0][a]){var l=t.getElementById(u[0][a]);l&&o.push(l)}o=o.length?1===o.length?o[0]:new gt(o):null}if(o){var f=Mt(t,o,u[1]);f&&(r=r.concat(f))}}}else for(var s in n)if(n.hasOwnProperty(s)){var c=t.getElementById(s);if(c){var v=Mt(t,c,n[s]);v&&(r=r.concat(v))}}return r.length?r:null}(t,n.elements);return r?function(t,n){var r=arguments.length>2&&void 0!==arguments[2]?arguments[2]:1/0,e=arguments.length>3&&void 0!==arguments[3]?arguments[3]:1,i=arguments.length>4&&void 0!==arguments[4]&&arguments[4],u=arguments.length>5&&void 0!==arguments[5]?arguments[5]:1,o=t.length,a=e>0?n:0;i&&r%2==0&&(a=n-a);var l=null;return function(f,s){var c=f%n,v=1+(f-c)/n;s*=e,i&&v%2==0&&(s=-s);var h=!1;if(v>r)c=a,h=!0,-1===u&&(c=e>0?0:n);else if(s<0&&(c=n-c),c===l)return!1;l=c;for(var y=0;y<o;y++)t[y](c);return h}}(r,n.duration,n.iterations||1/0,n.direction||1,!!n.alternate,n.fill||1):null}var Et=function(){function t(r){var e=arguments.length>1&&void 0!==arguments[1]?arguments[1]:{};n(this,t),this._id=0,this._running=!1,this._animations=r,this.direction=e.direction||1,this.speed=e.speed||1,this.fps=e.fps||100,this.offset=e.offset||0}return e(t,[{key:"_start",value:function(){var t=this,n=arguments.length>0&&void 0!==arguments[0]?arguments[0]:0,r=-1/0,e=null,i={},u=function u(o){t._running=!0,null==e&&(e=o);var a=Math.round((o-e+n)*t.speed),l=t.fps?1e3/t.fps:0;if(a>r+l){t.offset=a,r=a;for(var f=t._animations,s=f.length,c=0,v=0;v<s;v++)i[v]?c++:(i[v]=f[v](a,t.direction),i[v]&&c++);if(c===s)return void t._stop()}t._id=window.requestAnimationFrame(u)};this._id=window.requestAnimationFrame(u)}},{key:"_stop",value:function(){this._id&&window.cancelAnimationFrame(this._id),this._running=!1}},{key:"play",value:function(){this._running||this._start(this.offset)}},{key:"stop",value:function(){this._stop(),this.offset=0;var t=this.direction,n=this._animations;requestAnimationFrame((function(){for(var r=0;r<n.length;r++)n[r](0,t)}))}},{key:"restart",value:function(){this._stop(),this.offset=0,this._start()}},{key:"pause",value:function(){this._stop()}},{key:"reverse",value:function(){this.direction=-this.direction}}],[{key:"build",value:function(n){if(!(n=function(t){if(!t||!t.root||!Array.isArray(t.animations))return null;var n=window.document.getElementById(t.root);if(!n)return null;var r=t.animations.map((function(t){return It(n,t)})).filter((function(t){return!!t}));return r.length?{element:n,animations:r,options:t.options||void 0}:null}(n)))return null;var r=n.element,e=n.options||{},i=new t(n.animations,n.options);return function(t,n,r){var e=arguments.length>3&&void 0!==arguments[3]?arguments[3]:null;if("click"===r){return void n.addEventListener("click",(function r(){n.removeEventListener("click",r),t.play()}))}if("hover"===r)return n.addEventListener("mouseenter",(function(){return t.play()})),void n.addEventListener("mouseleave","freeze"===e?function(){return t.pause()}:function(){return t.stop()});t.play()}(i,r,e.start,e.hover),i}}]),t}();return function(){for(var t=0,n=["ms","moz","webkit","o"],r=0;r<n.length&&!window.requestAnimationFrame;++r)window.requestAnimationFrame=window[n[r]+"RequestAnimationFrame"],window.cancelAnimationFrame=window[n[r]+"CancelAnimationFrame"]||window[n[r]+"CancelRequestAnimationFrame"];window.requestAnimationFrame||(window.requestAnimationFrame=function(n){var r=Date.now(),e=Math.max(0,16-(r-t)),i=window.setTimeout((function(){n(r+e)}),e);return t=r+e,i},window.cancelAnimationFrame=window.clearTimeout)}(),Et}));
__SVGATOR_PLAYER__.build({"root":"eob8frkoto41","animations":[{"duration":3000,"direction":1,"iterations":1,"fill":1,"alternate":false,"elements":{"eob8frkoto421":{"transform":{"keys":{"o":[{"t":0,"v":{"x":0,"y":-20,"type":"corner"}},{"t":3000,"v":{"x":0,"y":50,"type":"corner"}}]}}},"eob8frkoto422":{"transform":{"keys":{"o":[{"t":0,"v":{"x":0,"y":-20,"type":"corner"}},{"t":3000,"v":{"x":0,"y":50,"type":"corner"}}]}}},"eob8frkoto423":{"transform":{"keys":{"o":[{"t":0,"v":{"x":0,"y":-20,"type":"corner"}},{"t":3000,"v":{"x":0,"y":50,"type":"corner"}}]}}},"eob8frkoto424":{"transform":{"keys":{"o":[{"t":0,"v":{"x":0,"y":-20,"type":"corner"}},{"t":3000,"v":{"x":0,"y":50,"type":"corner"}}]}}}}}],"options":{"start":"load","hover":"freeze"}})]]></script></svg>