<svg id="eph5e276qa5g1" xmlns="http://www.w3.org/2000/svg" xmlns:xlink="http://www.w3.org/1999/xlink" viewBox="0 0 151 128" shape-rendering="geometricPrecision" text-rendering="geometricPrecision"><style><![CDATA[#eph5e276qa5g21_to {animation: eph5e276qa5g21_to__to 3000ms linear 1 normal forwards}@keyframes eph5e276qa5g21_to__to { 0% {transform: translate(0px,-20px)} 100% {transform: translate(0px,50px)} }#eph5e276qa5g22_to {animation: eph5e276qa5g22_to__to 3000ms linear 1 normal forwards}@keyframes eph5e276qa5g22_to__to { 0% {transform: translate(0px,-20px)} 100% {transform: translate(0px,50px)} }#eph5e276qa5g23_to {animation: eph5e276qa5g23_to__to 3000ms linear 1 normal forwards}@keyframes eph5e276qa5g23_to__to { 0% {transform: translate(0px,-20px)} 100% {transform: translate(0px,50px)} }#eph5e276qa5g24_to {animation: eph5e276qa5g24_to__to 3000ms linear 1 normal forwards}@keyframes eph5e276qa5g24_to__to { 0% {transform: translate(0px,-20px)} 100% {transform: translate(0px,50px)} }]]></style><path id="eph5e276qa5g2" d="M107.855000,50.879600C103.676000,48.790100,97.554100,48.447100,94.205700,50.121300L6.664090,93.892100C3.315690,95.566300,4.001850,98.627400,8.180820,100.717000L42.857500,118.055000C47.036500,120.145000,52.933200,121.341000,56.281600,119.666000L143.822000,75.896000C147.171000,74.221800,146.711000,70.307400,142.532000,68.218000L107.855000,50.879600Z" clip-rule="evenodd" fill="rgb(74,82,90)" fill-rule="evenodd" stroke="none" stroke-width="1"/><path id="eph5e276qa5g3" d="M105.445000,52.132000C101.549000,50.184000,95.860800,49.868900,92.745600,51.426500L9.921390,92.838600C6.806130,94.396300,5.638130,96.341000,9.526130,98.285000L44.720600,115.882000C48.608600,117.826000,54.296500,118.141000,57.411700,116.584000L140.236000,75.171700C143.351000,73.614100,142.721000,70.770100,138.833000,68.826100L105.445000,52.132000Z" clip-rule="evenodd" fill="rgb(206,228,246)" fill-rule="evenodd" stroke="none" stroke-width="1"/><path id="eph5e276qa5g4" d="M46.998600,86.218900C43.796300,84.606700,39.106200,84.340500,36.534500,85.626300C33.962800,86.912100,34.477300,89.266200,37.679600,90.878400L60.651600,102.444000C63.853900,104.056000,68.543900,104.322000,71.115600,103.036000C73.687200,101.750000,73.172900,99.396300,69.970600,97.784100L46.998600,86.218900Z" clip-rule="evenodd" fill="rgb(114,170,220)" fill-rule="evenodd" stroke="none" stroke-width="1"/><path id="eph5e276qa5g5" d="M46.998600,84.149100C43.796300,82.536900,39.106200,82.270700,36.534500,83.556500C33.962800,84.842300,34.477300,87.196400,37.679600,88.808600L60.651600,100.374000C63.853900,101.986000,68.543900,102.252000,71.115600,100.966000C73.687200,99.680500,73.172900,97.326500,69.970600,95.714300L46.998600,84.149100Z" clip-rule="evenodd" fill="rgb(241,89,95)" fill-rule="evenodd" stroke="none" stroke-width="1"/><path id="eph5e276qa5g6" d="M35.554700,85.656200C35.554700,86.719900,36.506300,87.885400,38.337100,88.802000L61.305900,100.366000C64.509200,101.984000,69.198200,102.244000,71.770200,100.966000C72.872300,100.411000,73.407500,99.664600,73.407500,98.861200L73.407500,100.151000C73.407500,100.943000,72.872300,101.690000,71.770200,102.244000C69.198200,103.534000,64.509200,103.263000,61.305900,101.656000L38.337100,90.091900C36.506300,89.164100,35.554700,88.009900,35.554700,86.935000L35.554700,85.656200Z" clip-rule="evenodd" fill="rgb(247,166,163)" fill-rule="evenodd" stroke="none" stroke-width="1"/><path id="eph5e276qa5g7" d="M134.289000,72.045000C135.472000,72.045000,136.432000,71.565300,136.432000,70.973700C136.432000,70.382000,135.472000,69.902300,134.289000,69.902300C133.106000,69.902300,132.146000,70.382000,132.146000,70.973700C132.146000,71.565300,133.106000,72.045000,134.289000,72.045000Z" fill="rgb(74,82,90)" stroke="none" stroke-width="1"/><path id="eph5e276qa5g8" d="M145.757000,72.432100L145.757000,80.015200C145.757000,81.051200,145.213000,81.943600,143.781000,82.661900L56.241100,126.432000C52.892700,128.104000,46.776600,127.764000,42.591500,125.675000L7.920460,108.336000C5.524510,107.139000,4.277340,105.624000,4.277340,104.236000L4.277340,96.652700C4.277340,98.041400,5.524510,99.556200,7.920460,100.753000L42.591500,118.092000C46.776600,120.181000,52.666400,121.374000,56.014800,119.702000L143.554000,75.927600C145.439000,74.987400,145.757000,73.468200,145.757000,72.432100Z" clip-rule="evenodd" fill="rgb(119,129,139)" fill-rule="evenodd" stroke="none" stroke-width="1"/><path id="eph5e276qa5g9" d="M12.851000,108.866000C11.997500,108.439000,11.305500,107.204000,11.305500,106.106000C11.305500,105.009000,11.997500,104.465000,12.851000,104.892000C13.704600,105.319000,14.396500,106.554000,14.396500,107.652000C14.396500,108.749000,13.704600,109.293000,12.851000,108.866000Z" fill="rgb(74,82,90)" stroke="none" stroke-width="1"/><path id="eph5e276qa5g10" d="M27.060400,113.083000C27.060400,112.670000,26.783400,112.206000,26.441900,112.049000L21.454500,109.745000C21.113000,109.587000,20.835900,109.794000,20.835900,110.208000L20.835900,111.710000C20.835900,112.123000,21.113000,112.586000,21.454500,112.744000L26.441900,115.048000C26.783400,115.206000,27.060400,114.999000,27.060400,114.585000L27.060400,113.083000Z" clip-rule="evenodd" fill="rgb(74,82,90)" fill-rule="evenodd" stroke="none" stroke-width="1"/><path id="eph5e276qa5g11" d="M126.915000,86.541600C126.915000,86.128100,127.193000,85.664900,127.534000,85.507300L137.048000,81.112300C137.389000,80.954700,137.666000,81.161800,137.666000,81.575400L137.666000,83.077200C137.666000,83.490800,137.389000,83.954000,137.048000,84.111600L127.534000,88.506500C127.193000,88.664200,126.915000,88.457000,126.915000,88.043500L126.915000,86.541600Z" clip-rule="evenodd" fill="rgb(74,82,90)" fill-rule="evenodd" stroke="none" stroke-width="1"/><path id="eph5e276qa5g12" d="M114.956000,92.635900C114.956000,92.222300,115.234000,91.759100,115.575000,91.601500L125.089000,87.206500C125.430000,87.048900,125.707000,87.256100,125.707000,87.669600L125.707000,89.171500C125.707000,89.585000,125.430000,90.048200,125.089000,90.205800L115.575000,94.600800C115.234000,94.758400,114.956000,94.551300,114.956000,94.137700L114.956000,92.635900Z" clip-rule="evenodd" fill="rgb(74,82,90)" fill-rule="evenodd" stroke="none" stroke-width="1"/><path id="eph5e276qa5g13" d="M109.486000,63.864600C105.550000,61.896900,99.804900,61.581000,96.658500,63.154200L72.535400,75.215700C69.388900,76.789000,70.020700,79.661700,73.956100,81.629400C77.891600,83.597200,83.636100,83.912600,86.782600,82.339300L110.906000,70.277800C114.052000,68.704600,113.421000,65.832300,109.486000,63.864600Z" clip-rule="evenodd" fill="rgb(114,170,220)" fill-rule="evenodd" stroke="none" stroke-width="1"/><path id="eph5e276qa5g14" d="M112.888000,67.717800L112.888000,69.788500C112.888000,70.761700,112.234000,71.678100,110.889000,72.345700L86.769400,84.407700C83.621600,85.980500,77.872300,85.663800,73.936800,83.695000C71.727000,82.586100,70.557000,81.205600,70.514000,79.915700L70.511700,79.915700L70.511700,77.765800C70.511700,79.078300,71.684000,80.504000,73.936800,81.624200C77.872300,83.593100,83.621600,83.910000,86.769400,82.337200L110.889000,70.275000C112.234000,69.607400,112.888000,68.690900,112.888000,67.717800Z" clip-rule="evenodd" fill="rgb(86,130,167)" fill-rule="evenodd" stroke="none" stroke-width="1"/><path id="eph5e276qa5g15" d="M106.051000,66.004200C103.978000,64.967800,100.950000,64.802400,99.292500,65.631100L78.117400,76.218600C76.460000,77.047300,76.790800,78.561400,78.863700,79.597900C80.936500,80.634300,83.964200,80.799400,85.621600,79.970700L106.797000,69.383200C108.454000,68.554500,108.124000,67.040700,106.051000,66.004200Z" clip-rule="evenodd" fill="rgb(74,82,90)" fill-rule="evenodd" stroke="none" stroke-width="1"/><path id="eph5e276qa5g16" d="M71.590000,63.182900L67.532300,61.186500C64.344000,59.609000,62.232400,55.354600,62.232400,49.365400C62.232400,39.702200,67.698000,29.158400,74.447100,25.835800C76.993600,24.573000,79.374600,24.534100,81.341400,25.502700L85.399000,27.499100C83.432300,26.530500,81.051300,26.569400,78.504800,27.832200C71.755700,31.154800,66.290100,41.698600,66.290100,51.361800C66.290100,57.351000,68.401700,61.605400,71.590000,63.182900Z" clip-rule="evenodd" fill="rgb(254,239,163)" fill-rule="evenodd" stroke="none" stroke-width="1"/><path id="eph5e276qa5g17" d="M78.111100,62.909100C84.848400,59.584300,90.310100,49.049700,90.310100,39.379500C90.310100,29.709400,84.848400,24.565500,78.111100,27.890400C71.373800,31.215300,65.912100,41.749800,65.912100,51.420000C65.912100,61.090200,71.373800,66.234000,78.111100,62.909100Z" fill="rgb(246,221,118)" stroke="none" stroke-width="1"/><path id="eph5e276qa5g18" d="M83.680400,30.504900C86.527400,31.631800,88.429000,35.225800,88.429000,40.389600C88.429000,48.327800,83.936000,56.992300,78.406400,59.721100C76.130200,60.844500,74.032500,60.790600,72.351600,59.783900C73.885400,60.397400,75.692400,60.293100,77.625500,59.339100C83.158600,56.608600,87.651500,47.944100,87.651500,40.005900C87.651500,35.329000,86.093200,31.939600,83.680400,30.504900Z" clip-rule="evenodd" fill="rgb(227,175,24)" fill-rule="evenodd" stroke="none" stroke-width="1"/><path id="eph5e276qa5g19" d="M72.639600,59.868600C70.226800,58.432200,68.671900,55.044400,68.671900,50.366600C68.671900,42.426600,73.161400,33.764900,78.694400,31.034300C80.627500,30.080300,82.434500,29.976700,83.968300,30.589900C86.381200,32.025000,87.939500,35.412700,87.939500,40.090500C87.939500,48.028800,83.446500,56.693300,77.917000,59.422100C75.980400,60.377800,74.173400,60.482100,72.639600,59.868600Z" clip-rule="evenodd" fill="rgb(246,202,18)" fill-rule="evenodd" stroke="none" stroke-width="1"/><g id="eph5e276qa5g20" transform="matrix(1 0 0 1 0 -50)"><g id="eph5e276qa5g21_to" transform="translate(0,-20)"><path id="eph5e276qa5g21" d="M108.469000,41.175800C115.206000,37.850900,120.668000,27.316300,120.668000,17.646100C120.668000,7.975950,115.206000,2.832120,108.469000,6.157010C101.731000,9.481900,96.269500,20.016400,96.269500,29.686600C96.269500,39.356800,101.731000,44.500600,108.469000,41.175800Z" transform="translate(0,0)" fill="rgb(246,221,118)" stroke="none" stroke-width="1"/></g><g id="eph5e276qa5g22_to" transform="translate(0,-20)"><path id="eph5e276qa5g22" d="M101.947000,41.449500L97.889700,39.453100C94.701500,37.875600,92.589800,33.621200,92.589800,27.632100C92.589800,17.968800,98.055400,7.424960,104.805000,4.102410C107.351000,2.839590,109.732000,2.800740,111.699000,3.769310L115.756000,5.765710C113.790000,4.797140,111.409000,4.835990,108.862000,6.098810C102.113000,9.421360,96.647500,19.965200,96.647500,29.628400C96.647500,35.617600,98.759100,39.872000,101.947000,41.449500Z" transform="translate(0,0)" clip-rule="evenodd" fill="rgb(254,239,163)" fill-rule="evenodd" stroke="none" stroke-width="1"/></g><g id="eph5e276qa5g23_to" transform="translate(0,-20)"><path id="eph5e276qa5g23" d="M102.997000,38.135200C100.584000,36.698800,99.029300,33.311000,99.029300,28.633200C99.029300,20.693200,103.519000,12.031500,109.052000,9.300910C110.985000,8.346930,112.792000,8.243310,114.326000,8.856530C116.739000,10.291600,118.297000,13.679300,118.297000,18.357100C118.297000,26.295400,113.804000,34.959900,108.274000,37.688700C106.338000,38.644400,104.531000,38.748700,102.997000,38.135200Z" transform="translate(0,0)" clip-rule="evenodd" fill="rgb(246,202,18)" fill-rule="evenodd" stroke="none" stroke-width="1"/></g><g id="eph5e276qa5g24_to" transform="translate(0,-20)"><path id="eph5e276qa5g24" d="M114.038000,8.771500C116.885000,9.898400,118.786000,13.492400,118.786000,18.656200C118.786000,26.594400,114.293000,35.258900,108.764000,37.987700C106.488000,39.111100,104.390000,39.057200,102.709000,38.050500C104.243000,38.664000,106.050000,38.559700,107.983000,37.605700C113.516000,34.875200,118.009000,26.210700,118.009000,18.272500C118.009000,13.595600,116.451000,10.206200,114.038000,8.771500Z" transform="translate(0,0)" clip-rule="evenodd" fill="rgb(227,175,24)" fill-rule="evenodd" stroke="none" stroke-width="1"/></g></g><path id="eph5e276qa5g25" d="M86.218300,79.494800L85.009900,78.895000C81.811100,77.322200,79.710900,73.067600,79.710900,67.070600C79.710900,57.407400,85.177400,46.861500,91.911000,43.546200C94.470500,42.278900,96.847900,42.244900,98.811100,43.206700L102.866000,45.209700C100.903000,44.236600,98.525900,44.281900,95.966400,45.537800C89.232700,48.864500,83.767500,59.410300,83.767500,69.073500C83.767500,73.531700,84.931800,77.028000,86.847500,79.177900L86.218300,79.494800Z" clip-rule="evenodd" fill="rgb(254,239,163)" fill-rule="evenodd" stroke="none" stroke-width="1"/><path id="eph5e276qa5g26" d="M86.470600,79.135700C84.555000,76.985800,83.390600,73.489500,83.390600,69.031300C83.390600,59.368100,88.855900,48.822300,95.589600,45.495700C102.322000,42.180300,107.787000,47.328700,107.787000,56.991900C107.787000,61.393500,106.652000,65.976000,104.780000,69.981600L86.470600,79.135700Z" clip-rule="evenodd" fill="rgb(246,221,118)" fill-rule="evenodd" stroke="none" stroke-width="1"/><path id="eph5e276qa5g27" d="M89.965800,77.521200C89.920600,77.498500,89.875300,77.475900,89.830100,77.453300C89.885500,77.464600,89.940900,77.487300,89.996400,77.509900L89.965800,77.521200ZM100.297000,72.361500C103.193000,68.412500,105.129000,62.879200,105.129000,57.674200C105.129000,52.989700,103.571000,49.606500,101.161000,48.169400C104.008000,49.289600,105.908000,52.887900,105.908000,58.059000C105.908000,62.766100,104.324000,67.744900,101.877000,71.569400L100.297000,72.361500Z" clip-rule="evenodd" fill="rgb(227,175,24)" fill-rule="evenodd" stroke="none" stroke-width="1"/><path id="eph5e276qa5g28" d="M90.286100,77.547400C90.230600,77.524700,90.175200,77.502100,90.119800,77.490800C87.708500,76.053800,86.150400,72.659200,86.150400,67.986000C86.150400,60.042700,90.642500,51.386500,96.174500,48.648300C98.108300,47.697800,99.915300,47.595900,101.451000,48.206900C103.861000,49.644000,105.419000,53.027200,105.419000,57.711700C105.419000,62.916700,103.483000,68.449900,100.586000,72.398900L90.286100,77.547400Z" clip-rule="evenodd" fill="rgb(246,202,18)" fill-rule="evenodd" stroke="none" stroke-width="1"/><path id="eph5e276qa5g29" d="M142.745000,69.212400C144.886000,70.612000,144.977000,72.839500,142.981000,73.836100L54.260200,118.197000C52.574800,119.040000,49.895900,118.762000,47.513700,117.963000C49.155100,118.219000,50.734100,118.146000,51.870700,117.582000L141.698000,72.663700C143.200000,71.916300,143.543000,70.487400,142.745000,69.212400Z" clip-rule="evenodd" fill="rgb(244,248,253)" fill-rule="evenodd" stroke="none" stroke-width="1"/></svg>