<svg id="eq2lumvfrc2r1" xmlns="http://www.w3.org/2000/svg" xmlns:xlink="http://www.w3.org/1999/xlink" viewBox="0 0 101.730000 82.560000" shape-rendering="geometricPrecision" text-rendering="geometricPrecision"><style><![CDATA[#eq2lumvfrc2r12 {animation: eq2lumvfrc2r12_c_o 10000ms linear infinite normal forwards}@keyframes eq2lumvfrc2r12_c_o { 0% {opacity: 0} 20% {opacity: 0} 27% {opacity: 1} 67% {opacity: 1} 75% {opacity: 0} 100% {opacity: 0} }#eq2lumvfrc2r13 {animation: eq2lumvfrc2r13_c_o 10000ms linear infinite normal forwards}@keyframes eq2lumvfrc2r13_c_o { 0% {opacity: 0} 15% {opacity: 0} 22% {opacity: 1} 73% {opacity: 1} 80% {opacity: 0} 100% {opacity: 0} }#eq2lumvfrc2r14 {animation: eq2lumvfrc2r14_c_o 10000ms linear infinite normal forwards}@keyframes eq2lumvfrc2r14_c_o { 0% {opacity: 0} 10% {opacity: 0} 17% {opacity: 1} 78% {opacity: 1} 85% {opacity: 0} 100% {opacity: 0} }#eq2lumvfrc2r15 {animation: eq2lumvfrc2r15_c_o 10000ms linear infinite normal forwards}@keyframes eq2lumvfrc2r15_c_o { 0% {opacity: 0} 5% {opacity: 0} 12% {opacity: 1} 83% {opacity: 1} 90% {opacity: 0} 100% {opacity: 0} }#eq2lumvfrc2r16 {animation: eq2lumvfrc2r16_c_o 10000ms linear infinite normal forwards}@keyframes eq2lumvfrc2r16_c_o { 0% {opacity: 0} 8% {opacity: 1} 88% {opacity: 1} 95% {opacity: 0} 100% {opacity: 0} }#eq2lumvfrc2r17 {animation: eq2lumvfrc2r17_c_o 10000ms linear infinite normal forwards}@keyframes eq2lumvfrc2r17_c_o { 0% {opacity: 0} 24% {opacity: 0} 35% {opacity: 1} 60% {opacity: 1} 70% {opacity: 0} 100% {opacity: 0} }]]></style><g id="eq2lumvfrc2r2"><rect id="eq2lumvfrc2r3" width="101.730000" height="82.560000" rx="0" ry="0" fill="none" stroke="none" stroke-width="1"/></g><g id="eq2lumvfrc2r4"><g id="eq2lumvfrc2r5"><path id="eq2lumvfrc2r6" d="M26,27.150000L26,22.600000C25.999995,21.837093,26.303742,21.105578,26.844136,20.567060C27.384530,20.028542,28.117098,19.727342,28.880000,19.730000L72.840000,19.730000C73.601171,19.730000,74.331167,20.032374,74.869396,20.570604C75.407626,21.108833,75.710000,21.838829,75.710000,22.600000L75.710000,27.150000" transform="matrix(1 0 0 1 0.02000000000000 0.01000000000000)" fill="rgb(0,0,0)" stroke="rgb(255,255,255)" stroke-width="0.800000" stroke-linecap="round" stroke-linejoin="round"/><path id="eq2lumvfrc2r7" d="M75.710000,24.760000L75.710000,27.160000" fill="rgb(0,0,0)" stroke="rgb(255,255,255)" stroke-width="0.800000" stroke-linecap="round" stroke-linejoin="round"/><path id="eq2lumvfrc2r8" d="M26,27.160000L26,24.760000" fill="rgb(0,0,0)" stroke="rgb(255,255,255)" stroke-width="0.800000" stroke-linecap="round" stroke-linejoin="round"/><polyline id="eq2lumvfrc2r9" points="75.710000,39.540000 75.710000,57.940000 26.020000,57.940000 26.020000,39.540000" transform="matrix(1 0 0 1.73346288135785 0 -41.74898066950512)" fill="rgb(0,0,0)" stroke="rgb(255,255,255)" stroke-width="0.800000" stroke-linecap="round" stroke-linejoin="round"/><path id="eq2lumvfrc2r10" d="M76,62.830000L25.750000,62.830000C22.810000,62.830000,20.060000,60.990000,18.430000,57.940000L83.310000,57.940000C81.670000,61,78.920000,62.830000,76,62.830000Z" fill="rgb(0,0,0)" stroke="rgb(255,255,255)" stroke-width="0.800000" stroke-linecap="round" stroke-linejoin="round"/></g><g id="eq2lumvfrc2r11"><path id="eq2lumvfrc2r12" d="M65.120000,24.380000L71.810000,24.380000C73.477422,24.364108,74.979776,25.384275,75.580000,26.940000L75.710000,27.150000L75.710000,27.150000L78.090000,31.150000C79.219226,33.001656,79.261282,35.318582,78.200000,37.210000C77.631837,38.223754,76.761336,39.034823,75.710000,39.530000C75.111928,39.814948,74.462007,39.974876,73.800000,40L73.600000,40C70.341232,39.891496,67.765588,37.200392,67.800000,33.940000L67.800000,33.440000L67.800000,33.440000" opacity="0" fill="rgb(0,0,0)" stroke="rgb(255,255,255)" stroke-width="0.800000" stroke-linecap="round" stroke-linejoin="round"/><path id="eq2lumvfrc2r13" d="M62.230000,40L62.230000,40C58.985763,39.891344,56.443291,37.174302,56.550000,33.930000L55.620000,24.380000L65.120000,24.380000L67.670000,32.700000C68.357856,35.688481,66.704808,38.719785,63.820000,39.760000C63.304275,39.915937,62.768775,39.996767,62.230000,40Z" opacity="0" fill="rgb(0,0,0)" stroke="rgb(255,255,255)" stroke-width="0.800000" stroke-linecap="round" stroke-linejoin="round"/><path id="eq2lumvfrc2r14" d="M50.870000,40L50.870000,40C47.624272,39.891300,45.078934,37.175975,45.180000,33.930000L46.120000,24.380000L55.620000,24.380000L56.550000,33.930000C56.656709,37.174302,54.114237,39.891344,50.870000,40Z" opacity="0" fill="rgb(0,0,0)" stroke="rgb(255,255,255)" stroke-width="0.800000" stroke-linecap="round" stroke-linejoin="round"/><path id="eq2lumvfrc2r15" d="M33.820000,34.120000L33.820000,34.120000C33.818165,37.290906,36.330928,39.892147,39.500000,40C42.744237,39.891344,45.286709,37.174302,45.180000,33.930000L46.120000,24.380000L36.610000,24.380000L33.860000,33.790000L33.860000,33.790000C33.838170,33.898803,33.824797,34.009133,33.820000,34.120000Z" opacity="0" fill="rgb(0,0,0)" stroke="rgb(255,255,255)" stroke-width="0.800000" stroke-linecap="round" stroke-linejoin="round"/><path id="eq2lumvfrc2r16" d="M33.820000,34C33.820000,34,33.820000,34.320000,33.820000,34.320000C33.725967,37.421051,31.231212,39.911422,28.130000,40L27.940000,40C27.268716,39.980675,26.608495,39.824128,26,39.540000C24.948664,39.044823,24.078163,38.233754,23.510000,37.220000C22.448718,35.328582,22.490774,33.011656,23.620000,31.160000L26,27.160000L26,27.160000L26.130000,26.950000C26.730224,25.394275,28.232578,24.374108,29.900000,24.390000L36.590000,24.390000" opacity="0" fill="rgb(0,0,0)" stroke="rgb(255,255,255)" stroke-width="0.800000" stroke-linecap="round" stroke-linejoin="round"/></g><g id="eq2lumvfrc2r17" opacity="0"><circle id="eq2lumvfrc2r18" r="1.160000" transform="matrix(1 0 0 1 35.09000000000000 51.16000000000000)" fill="rgb(0,0,0)" stroke="rgb(255,255,255)" stroke-width="1" stroke-miterlimit="10"/><line id="eq2lumvfrc2r19" x1="56.360000" y1="44.660000" x2="56.360000" y2="51.760000" fill="rgb(0,0,0)" stroke="rgb(255,255,255)" stroke-width="0.800000" stroke-linecap="round" stroke-linejoin="round"/><line id="eq2lumvfrc2r20" x1="61.450000" y1="47.020000" x2="61.450000" y2="51.760000" fill="rgb(0,0,0)" stroke="rgb(255,255,255)" stroke-width="0.800000" stroke-linecap="round" stroke-linejoin="round"/><rect id="eq2lumvfrc2r21" width="5.960000" height="6.930000" rx="2.980000" ry="2.980000" transform="matrix(1 0 0 1 47.12000000000000 44.84000000000000)" fill="rgb(0,0,0)" stroke="rgb(255,255,255)" stroke-width="0.800000" stroke-miterlimit="10"/><path id="eq2lumvfrc2r22" d="M44.100000,47C43.827129,45.749756,42.719674,44.858797,41.440000,44.860000L41.440000,44.860000C40.721263,44.860000,40.031964,45.145517,39.523741,45.653741C39.015517,46.161964,38.730000,46.851263,38.730000,47.570000L38.730000,49.070000C38.730000,49.788737,39.015517,50.478036,39.523741,50.986259C40.031964,51.494483,40.721263,51.780000,41.440000,51.780000L41.440000,51.780000C42.581561,51.780261,43.602753,51.070214,44,50" fill="rgb(0,0,0)" stroke="rgb(255,255,255)" stroke-width="0.800000" stroke-linecap="round" stroke-linejoin="round"/><path id="eq2lumvfrc2r23" d="M56.360000,47C56.513212,45.660222,57.651518,44.651268,59,44.660000C59.635618,44.643903,60.251450,44.881742,60.711247,45.320895C61.171045,45.760048,61.436902,46.364314,61.450000,47" fill="rgb(0,0,0)" stroke="rgb(255,255,255)" stroke-width="0.800000" stroke-miterlimit="10"/><line id="eq2lumvfrc2r24" x1="66.540000" y1="47.020000" x2="66.540000" y2="51.760000" fill="rgb(0,0,0)" stroke="rgb(255,255,255)" stroke-width="0.800000" stroke-linecap="round" stroke-linejoin="round"/><path id="eq2lumvfrc2r25" d="M61.450000,47C61.595100,45.636828,62.759423,44.611529,64.130000,44.640000C65.446116,44.628883,66.523526,45.683940,66.540000,47" fill="rgb(0,0,0)" stroke="rgb(255,255,255)" stroke-width="0.800000" stroke-miterlimit="10"/></g></g></svg>