<svg id="eo191ilz3p4n1" xmlns="http://www.w3.org/2000/svg" xmlns:xlink="http://www.w3.org/1999/xlink" viewBox="0 0 336.667000 326.667000" shape-rendering="geometricPrecision" text-rendering="geometricPrecision"><defs><linearGradient id="eo191ilz3p4n4-fill" x1="143.649948" y1="235.774400" x2="319.365748" y2="-7.372800" spreadMethod="pad" gradientUnits="userSpaceOnUse"><stop id="eo191ilz3p4n4-fill-0" offset="0%" stop-color="rgb(49,36,98)"/><stop id="eo191ilz3p4n4-fill-1" offset="8.610000%" stop-color="rgb(47,32,91)"/><stop id="eo191ilz3p4n4-fill-2" offset="35.780000%" stop-color="rgb(38,17,72)"/><stop id="eo191ilz3p4n4-fill-3" offset="49.490000%" stop-color="rgb(34,10,65)"/><stop id="eo191ilz3p4n4-fill-4" offset="87.050000%" stop-color="rgb(26,16,41)"/><stop id="eo191ilz3p4n4-fill-5" offset="100%" stop-color="rgb(21,15,31)"/></linearGradient><linearGradient id="eo191ilz3p4n5-fill" x1="295.601048" y1="16.843800" x2="146.104448" y2="241.642100" spreadMethod="pad" gradientUnits="userSpaceOnUse"><stop id="eo191ilz3p4n5-fill-0" offset="0%" stop-color="rgb(217,230,147)"/><stop id="eo191ilz3p4n5-fill-1" offset="45.960000%" stop-color="rgb(114,197,150)"/><stop id="eo191ilz3p4n5-fill-2" offset="88.180000%" stop-color="rgb(0,48,0)"/><stop id="eo191ilz3p4n5-fill-3" offset="100%" stop-color="rgb(0,34,0)"/></linearGradient><linearGradient id="eo191ilz3p4n7-fill" x1="194.045400" y1="73.927700" x2="257.859000" y2="169.884400" spreadMethod="pad" gradientUnits="userSpaceOnUse"><stop id="eo191ilz3p4n7-fill-0" offset="0%" stop-color="rgb(217,230,147)"/><stop id="eo191ilz3p4n7-fill-1" offset="45.960000%" stop-color="rgb(114,197,150)"/><stop id="eo191ilz3p4n7-fill-2" offset="88.180000%" stop-color="rgb(0,48,0)"/><stop id="eo191ilz3p4n7-fill-3" offset="100%" stop-color="rgb(0,34,0)"/></linearGradient><linearGradient id="eo191ilz3p4n8-fill" x1="106.317848" y1="241.057600" x2="244.625448" y2="20.061100" spreadMethod="pad" gradientUnits="userSpaceOnUse"><stop id="eo191ilz3p4n8-fill-0" offset="5.560000%" stop-color="rgb(34,10,65)"/><stop id="eo191ilz3p4n8-fill-1" offset="21.480000%" stop-color="rgb(35,11,66)"/><stop id="eo191ilz3p4n8-fill-2" offset="29.320000%" stop-color="rgb(37,14,69)"/><stop id="eo191ilz3p4n8-fill-3" offset="35.400000%" stop-color="rgb(39,19,74)"/><stop id="eo191ilz3p4n8-fill-4" offset="40.570000%" stop-color="rgb(43,26,82)"/><stop id="eo191ilz3p4n8-fill-5" offset="45.120000%" stop-color="rgb(48,33,93)"/><stop id="eo191ilz3p4n8-fill-6" offset="46.970000%" stop-color="rgb(49,36,98)"/><stop id="eo191ilz3p4n8-fill-7" offset="48.040000%" stop-color="rgb(53,38,100)"/><stop id="eo191ilz3p4n8-fill-8" offset="49.220000%" stop-color="rgb(62,46,107)"/><stop id="eo191ilz3p4n8-fill-9" offset="50.430000%" stop-color="rgb(78,60,120)"/><stop id="eo191ilz3p4n8-fill-10" offset="51.690000%" stop-color="rgb(101,80,141)"/><stop id="eo191ilz3p4n8-fill-11" offset="52.950000%" stop-color="rgb(133,110,174)"/><stop id="eo191ilz3p4n8-fill-12" offset="53.030000%" stop-color="rgb(135,112,178)"/><stop id="eo191ilz3p4n8-fill-13" offset="54.860000%" stop-color="rgb(107,86,147)"/><stop id="eo191ilz3p4n8-fill-14" offset="57.040000%" stop-color="rgb(82,63,123)"/><stop id="eo191ilz3p4n8-fill-15" offset="59.120000%" stop-color="rgb(64,48,109)"/><stop id="eo191ilz3p4n8-fill-16" offset="61.030000%" stop-color="rgb(53,39,100)"/><stop id="eo191ilz3p4n8-fill-17" offset="62.630000%" stop-color="rgb(49,36,98)"/><stop id="eo191ilz3p4n8-fill-18" offset="62.660000%" stop-color="rgb(49,36,98)"/><stop id="eo191ilz3p4n8-fill-19" offset="67.900000%" stop-color="rgb(44,26,83)"/><stop id="eo191ilz3p4n8-fill-20" offset="72.890000%" stop-color="rgb(39,18,73)"/><stop id="eo191ilz3p4n8-fill-21" offset="77.480000%" stop-color="rgb(35,12,67)"/><stop id="eo191ilz3p4n8-fill-22" offset="81.310000%" stop-color="rgb(34,10,65)"/><stop id="eo191ilz3p4n8-fill-23" offset="100%" stop-color="rgb(34,10,65)"/></linearGradient><radialGradient id="eo191ilz3p4n9-fill" cx="145.552248" cy="115.203100" r="23.542300" spreadMethod="pad" gradientUnits="userSpaceOnUse"><stop id="eo191ilz3p4n9-fill-0" offset="0%" stop-color="rgb(157,138,193)"/><stop id="eo191ilz3p4n9-fill-1" offset="100%" stop-color="rgb(26,19,76)"/></radialGradient><linearGradient id="eo191ilz3p4n13-fill" x1="224.822800" y1="204.174800" x2="263.455100" y2="190.938700" spreadMethod="pad" gradientUnits="userSpaceOnUse"><stop id="eo191ilz3p4n13-fill-0" offset="3.540000%" stop-color="rgb(157,158,179)"/><stop id="eo191ilz3p4n13-fill-1" offset="58.080000%" stop-color="rgb(212,210,217)"/><stop id="eo191ilz3p4n13-fill-2" offset="100%" stop-color="rgb(238,235,241)"/></linearGradient><linearGradient id="eo191ilz3p4n14-fill" x1="224.920400" y1="209.543000" x2="307.946600" y2="165.375000" spreadMethod="pad" gradientUnits="userSpaceOnUse"><stop id="eo191ilz3p4n14-fill-0" offset="3.540000%" stop-color="rgb(157,158,179)"/><stop id="eo191ilz3p4n14-fill-1" offset="58.080000%" stop-color="rgb(212,210,217)"/><stop id="eo191ilz3p4n14-fill-2" offset="100%" stop-color="rgb(238,235,241)"/></linearGradient><linearGradient id="eo191ilz3p4n15-fill" x1="217.984451" y1="132.215119" x2="225.733942" y2="140.545616" spreadMethod="pad" gradientUnits="userSpaceOnUse"><stop id="eo191ilz3p4n15-fill-0" offset="3.540000%" stop-color="rgb(157,158,179)"/><stop id="eo191ilz3p4n15-fill-1" offset="58.080000%" stop-color="rgb(212,210,217)"/><stop id="eo191ilz3p4n15-fill-2" offset="100%" stop-color="rgb(238,235,241)"/></linearGradient><linearGradient id="eo191ilz3p4n17-fill" x1="204.216766" y1="167.271927" x2="190.818607" y2="164.331572" spreadMethod="pad" gradientUnits="userSpaceOnUse"><stop id="eo191ilz3p4n17-fill-0" offset="3.540000%" stop-color="rgb(157,158,179)"/><stop id="eo191ilz3p4n17-fill-1" offset="58.080000%" stop-color="rgb(212,210,217)"/><stop id="eo191ilz3p4n17-fill-2" offset="100%" stop-color="rgb(238,235,241)"/></linearGradient><linearGradient id="eo191ilz3p4n18-fill" x1="231.402797" y1="166.496431" x2="147.732973" y2="132.784113" spreadMethod="pad" gradientUnits="userSpaceOnUse"><stop id="eo191ilz3p4n18-fill-0" offset="3.540000%" stop-color="rgb(157,158,179)"/><stop id="eo191ilz3p4n18-fill-1" offset="58.080000%" stop-color="rgb(212,210,217)"/><stop id="eo191ilz3p4n18-fill-2" offset="100%" stop-color="rgb(238,235,241)"/></linearGradient><linearGradient id="eo191ilz3p4n19-fill" x1="205.443099" y1="148.056683" x2="214.963889" y2="158.291252" spreadMethod="pad" gradientUnits="userSpaceOnUse"><stop id="eo191ilz3p4n19-fill-0" offset="3.540000%" stop-color="rgb(157,158,179)"/><stop id="eo191ilz3p4n19-fill-1" offset="58.080000%" stop-color="rgb(212,210,217)"/><stop id="eo191ilz3p4n19-fill-2" offset="100%" stop-color="rgb(238,235,241)"/></linearGradient><linearGradient id="eo191ilz3p4n21-fill" x1="209.877146" y1="185.675634" x2="196.476664" y2="182.734768" spreadMethod="pad" gradientUnits="userSpaceOnUse"><stop id="eo191ilz3p4n21-fill-0" offset="3.540000%" stop-color="rgb(157,158,179)"/><stop id="eo191ilz3p4n21-fill-1" offset="58.080000%" stop-color="rgb(212,210,217)"/><stop id="eo191ilz3p4n21-fill-2" offset="100%" stop-color="rgb(238,235,241)"/></linearGradient><linearGradient id="eo191ilz3p4n22-fill" x1="237.063717" y1="184.901893" x2="153.398686" y2="151.191429" spreadMethod="pad" gradientUnits="userSpaceOnUse"><stop id="eo191ilz3p4n22-fill-0" offset="3.540000%" stop-color="rgb(157,158,179)"/><stop id="eo191ilz3p4n22-fill-1" offset="58.080000%" stop-color="rgb(212,210,217)"/><stop id="eo191ilz3p4n22-fill-2" offset="100%" stop-color="rgb(238,235,241)"/></linearGradient><linearGradient id="eo191ilz3p4n23-fill" x1="211.103167" y1="166.459374" x2="220.625629" y2="176.695861" spreadMethod="pad" gradientUnits="userSpaceOnUse"><stop id="eo191ilz3p4n23-fill-0" offset="3.540000%" stop-color="rgb(157,158,179)"/><stop id="eo191ilz3p4n23-fill-1" offset="58.080000%" stop-color="rgb(212,210,217)"/><stop id="eo191ilz3p4n23-fill-2" offset="100%" stop-color="rgb(238,235,241)"/></linearGradient><linearGradient id="eo191ilz3p4n25-fill" x1="215.560254" y1="204.153237" x2="202.164281" y2="201.213303" spreadMethod="pad" gradientUnits="userSpaceOnUse"><stop id="eo191ilz3p4n25-fill-0" offset="3.540000%" stop-color="rgb(157,158,179)"/><stop id="eo191ilz3p4n25-fill-1" offset="58.080000%" stop-color="rgb(212,210,217)"/><stop id="eo191ilz3p4n25-fill-2" offset="100%" stop-color="rgb(238,235,241)"/></linearGradient><linearGradient id="eo191ilz3p4n26-fill" x1="242.746683" y1="203.379034" x2="159.076859" y2="169.666716" spreadMethod="pad" gradientUnits="userSpaceOnUse"><stop id="eo191ilz3p4n26-fill-0" offset="3.540000%" stop-color="rgb(157,158,179)"/><stop id="eo191ilz3p4n26-fill-1" offset="58.080000%" stop-color="rgb(212,210,217)"/><stop id="eo191ilz3p4n26-fill-2" offset="100%" stop-color="rgb(238,235,241)"/></linearGradient><linearGradient id="eo191ilz3p4n27-fill" x1="216.784915" y1="184.936076" x2="226.307377" y2="195.172562" spreadMethod="pad" gradientUnits="userSpaceOnUse"><stop id="eo191ilz3p4n27-fill-0" offset="3.540000%" stop-color="rgb(157,158,179)"/><stop id="eo191ilz3p4n27-fill-1" offset="58.080000%" stop-color="rgb(212,210,217)"/><stop id="eo191ilz3p4n27-fill-2" offset="100%" stop-color="rgb(238,235,241)"/></linearGradient><linearGradient id="eo191ilz3p4n29-fill" x1="221.221966" y1="222.557754" x2="207.823778" y2="219.617306" spreadMethod="pad" gradientUnits="userSpaceOnUse"><stop id="eo191ilz3p4n29-fill-0" offset="3.540000%" stop-color="rgb(157,158,179)"/><stop id="eo191ilz3p4n29-fill-1" offset="58.080000%" stop-color="rgb(212,210,217)"/><stop id="eo191ilz3p4n29-fill-2" offset="100%" stop-color="rgb(238,235,241)"/></linearGradient><linearGradient id="eo191ilz3p4n30-fill" x1="248.407318" y1="221.783573" x2="164.742287" y2="188.073109" spreadMethod="pad" gradientUnits="userSpaceOnUse"><stop id="eo191ilz3p4n30-fill-0" offset="3.540000%" stop-color="rgb(157,158,179)"/><stop id="eo191ilz3p4n30-fill-1" offset="58.080000%" stop-color="rgb(212,210,217)"/><stop id="eo191ilz3p4n30-fill-2" offset="100%" stop-color="rgb(238,235,241)"/></linearGradient><linearGradient id="eo191ilz3p4n31-fill" x1="222.446768" y1="203.341054" x2="231.969230" y2="213.577540" spreadMethod="pad" gradientUnits="userSpaceOnUse"><stop id="eo191ilz3p4n31-fill-0" offset="3.540000%" stop-color="rgb(157,158,179)"/><stop id="eo191ilz3p4n31-fill-1" offset="58.080000%" stop-color="rgb(212,210,217)"/><stop id="eo191ilz3p4n31-fill-2" offset="100%" stop-color="rgb(238,235,241)"/></linearGradient><linearGradient id="eo191ilz3p4n33-fill" x1="226.861745" y1="240.890961" x2="213.459507" y2="237.949666" spreadMethod="pad" gradientUnits="userSpaceOnUse"><stop id="eo191ilz3p4n33-fill-0" offset="3.540000%" stop-color="rgb(157,158,179)"/><stop id="eo191ilz3p4n33-fill-1" offset="58.080000%" stop-color="rgb(212,210,217)"/><stop id="eo191ilz3p4n33-fill-2" offset="100%" stop-color="rgb(238,235,241)"/></linearGradient><linearGradient id="eo191ilz3p4n34-fill" x1="254.045481" y1="240.115046" x2="170.384841" y2="206.406539" spreadMethod="pad" gradientUnits="userSpaceOnUse"><stop id="eo191ilz3p4n34-fill-0" offset="3.540000%" stop-color="rgb(157,158,179)"/><stop id="eo191ilz3p4n34-fill-1" offset="58.080000%" stop-color="rgb(212,210,217)"/><stop id="eo191ilz3p4n34-fill-2" offset="100%" stop-color="rgb(238,235,241)"/></linearGradient><linearGradient id="eo191ilz3p4n35-fill" x1="228.086576" y1="221.674353" x2="237.609038" y2="231.910840" spreadMethod="pad" gradientUnits="userSpaceOnUse"><stop id="eo191ilz3p4n35-fill-0" offset="3.540000%" stop-color="rgb(157,158,179)"/><stop id="eo191ilz3p4n35-fill-1" offset="58.080000%" stop-color="rgb(212,210,217)"/><stop id="eo191ilz3p4n35-fill-2" offset="100%" stop-color="rgb(238,235,241)"/></linearGradient><linearGradient id="eo191ilz3p4n37-fill" x1="232.522806" y1="259.296885" x2="219.122325" y2="256.356019" spreadMethod="pad" gradientUnits="userSpaceOnUse"><stop id="eo191ilz3p4n37-fill-0" offset="3.540000%" stop-color="rgb(157,158,179)"/><stop id="eo191ilz3p4n37-fill-1" offset="58.080000%" stop-color="rgb(212,210,217)"/><stop id="eo191ilz3p4n37-fill-2" offset="100%" stop-color="rgb(238,235,241)"/></linearGradient><linearGradient id="eo191ilz3p4n38-fill" x1="227.944800" y1="263.132800" x2="337.765400" y2="201.343800" spreadMethod="pad" gradientUnits="userSpaceOnUse"><stop id="eo191ilz3p4n38-fill-0" offset="3.540000%" stop-color="rgb(157,158,179)"/><stop id="eo191ilz3p4n38-fill-1" offset="58.080000%" stop-color="rgb(212,210,217)"/><stop id="eo191ilz3p4n38-fill-2" offset="100%" stop-color="rgb(238,235,241)"/></linearGradient><linearGradient id="eo191ilz3p4n39-fill" x1="233.745993" y1="240.078452" x2="243.268456" y2="250.314938" spreadMethod="pad" gradientUnits="userSpaceOnUse"><stop id="eo191ilz3p4n39-fill-0" offset="3.540000%" stop-color="rgb(157,158,179)"/><stop id="eo191ilz3p4n39-fill-1" offset="58.080000%" stop-color="rgb(212,210,217)"/><stop id="eo191ilz3p4n39-fill-2" offset="100%" stop-color="rgb(238,235,241)"/></linearGradient><linearGradient id="eo191ilz3p4n41-fill" x1="318.097461" y1="241.732737" x2="66.919887" y2="178.645933" spreadMethod="pad" gradientUnits="userSpaceOnUse"><stop id="eo191ilz3p4n41-fill-0" offset="3.540000%" stop-color="rgb(157,158,179)"/><stop id="eo191ilz3p4n41-fill-1" offset="58.080000%" stop-color="rgb(212,210,217)"/><stop id="eo191ilz3p4n41-fill-2" offset="100%" stop-color="rgb(238,235,241)"/></linearGradient><linearGradient id="eo191ilz3p4n42-fill" x1="211.046400" y1="218.959000" x2="290.695900" y2="177.686000" spreadMethod="pad" gradientUnits="userSpaceOnUse"><stop id="eo191ilz3p4n42-fill-0" offset="3.540000%" stop-color="rgb(157,158,179)"/><stop id="eo191ilz3p4n42-fill-1" offset="58.080000%" stop-color="rgb(212,210,217)"/><stop id="eo191ilz3p4n42-fill-2" offset="100%" stop-color="rgb(238,235,241)"/></linearGradient><linearGradient id="eo191ilz3p4n43-fill" x1="190.453917" y1="149.002557" x2="198.201735" y2="157.331136" spreadMethod="pad" gradientUnits="userSpaceOnUse"><stop id="eo191ilz3p4n43-fill-0" offset="3.540000%" stop-color="rgb(157,158,179)"/><stop id="eo191ilz3p4n43-fill-1" offset="58.080000%" stop-color="rgb(212,210,217)"/><stop id="eo191ilz3p4n43-fill-2" offset="100%" stop-color="rgb(238,235,241)"/></linearGradient><linearGradient id="eo191ilz3p4n44-fill" x1="205.774900" y1="304.657200" x2="26.081400" y2="56.005700" spreadMethod="pad" gradientUnits="userSpaceOnUse"><stop id="eo191ilz3p4n44-fill-0" offset="0%" stop-color="rgb(220,220,220)"/><stop id="eo191ilz3p4n44-fill-1" offset="10%" stop-color="rgb(242,255,244)"/><stop id="eo191ilz3p4n44-fill-2" offset="36%" stop-color="rgb(235,255,233)"/><stop id="eo191ilz3p4n44-fill-3" offset="49%" stop-color="rgb(255,255,255)"/><stop id="eo191ilz3p4n44-fill-4" offset="87.050000%" stop-color="rgb(246,255,246)"/><stop id="eo191ilz3p4n44-fill-5" offset="100%" stop-color="rgb(255,255,255)"/></linearGradient><linearGradient id="eo191ilz3p4n45-fill" x1="50.381300" y1="80.771500" x2="203.262800" y2="310.659800" spreadMethod="pad" gradientUnits="userSpaceOnUse"><stop id="eo191ilz3p4n45-fill-0" offset="0%" stop-color="rgb(217,230,147)"/><stop id="eo191ilz3p4n45-fill-1" offset="45.960000%" stop-color="rgb(114,197,150)"/><stop id="eo191ilz3p4n45-fill-2" offset="88.180000%" stop-color="rgb(0,48,0)"/><stop id="eo191ilz3p4n45-fill-3" offset="100%" stop-color="rgb(0,34,0)"/></linearGradient><linearGradient id="eo191ilz3p4n47-fill" x1="243.950700" y1="310.058600" x2="102.512700" y2="84.060000" spreadMethod="pad" gradientUnits="userSpaceOnUse"><stop id="eo191ilz3p4n47-fill-0" offset="5.560000%" stop-color="rgb(248,243,255)"/><stop id="eo191ilz3p4n47-fill-1" offset="21.480000%" stop-color="rgb(249,245,255)"/><stop id="eo191ilz3p4n47-fill-2" offset="29%" stop-color="rgb(246,241,253)"/><stop id="eo191ilz3p4n47-fill-3" offset="35%" stop-color="rgb(242,237,250)"/><stop id="eo191ilz3p4n47-fill-4" offset="40.570000%" stop-color="rgb(242,238,251)"/><stop id="eo191ilz3p4n47-fill-5" offset="44%" stop-color="rgb(250,248,255)"/><stop id="eo191ilz3p4n47-fill-6" offset="45%" stop-color="rgb(247,245,253)"/><stop id="eo191ilz3p4n47-fill-7" offset="52.950000%" stop-color="rgb(133,110,174)"/><stop id="eo191ilz3p4n47-fill-8" offset="54%" stop-color="rgb(222,222,223)"/><stop id="eo191ilz3p4n47-fill-9" offset="68.430000%" stop-color="rgb(237,237,237)"/><stop id="eo191ilz3p4n47-fill-10" offset="78%" stop-color="rgb(240,240,241)"/><stop id="eo191ilz3p4n47-fill-11" offset="85.730000%" stop-color="rgb(247,243,253)"/><stop id="eo191ilz3p4n47-fill-12" offset="93.510000%" stop-color="rgb(255,255,255)"/><stop id="eo191ilz3p4n47-fill-13" offset="100%" stop-color="rgb(237,237,237)"/></linearGradient><radialGradient id="eo191ilz3p4n48-fill" cx="203.829600" cy="181.357400" r="24.075000" spreadMethod="pad" gradientUnits="userSpaceOnUse"><stop id="eo191ilz3p4n48-fill-0" offset="0%" stop-color="rgb(157,138,193)"/><stop id="eo191ilz3p4n48-fill-1" offset="100%" stop-color="rgb(26,19,76)"/></radialGradient></defs><g id="eo191ilz3p4n2"><g id="eo191ilz3p4n3"><path id="eo191ilz3p4n4" d="M154.894000,234.820000L296.898000,152.768000C304.158000,148.576000,310.043000,137.331000,310.043000,127.651000L310.043000,19.049000C310.043000,9.369000,304.158000,4.920000,296.898000,9.111000L154.894000,91.163000C147.634000,95.354000,141.748000,106.600000,141.748000,116.280000L141.748000,224.883000C141.749000,234.562000,147.634000,239.012000,154.894000,234.820000Z" fill="url(#eo191ilz3p4n4-fill)" stroke="none" stroke-width="1"/><path id="eo191ilz3p4n5" d="M153.202000,227.260000L293.204000,146.376000C299.047000,142.663000,302.660000,135.244000,302.660000,127.651000L302.660000,18.335000C302.660000,16.536000,300.703000,15.418000,299.151000,16.328000C298.969000,16.434000,298.827000,16.517000,298.739000,16.568000L158.587000,97.555000C151.632000,101.564000,149.132000,108.688000,149.132000,116.280000L149.132000,225.252000C149.132000,227.182000,151.218000,228.391000,152.894000,227.436000C153.027000,227.360000,153.132000,227.300000,153.202000,227.260000Z" fill="url(#eo191ilz3p4n5-fill)" stroke="none" stroke-width="1"/><path id="eo191ilz3p4n6" display="none" d="M149.138000,119.890000C149.139000,119.766000,149.141000,115.730000,149.144000,115.606000C149.290000,108.269000,151.839000,101.445000,158.587000,97.555000L298.738000,16.568000C298.826000,16.517000,298.968000,16.434000,299.150000,16.328000C300.702000,15.419000,302.659000,16.536000,302.659000,18.335000L302.659000,31.196000L149.138000,119.890000Z" opacity="0.3" fill="rgb(35,31,32)" stroke="none" stroke-width="1"/><path id="eo191ilz3p4n7" d="M149.132000,116.280000L149.132000,225.252000C149.132000,227.182000,151.218000,228.391000,152.894000,227.436000C153.027000,227.361000,153.132000,227.300000,153.202000,227.260000L293.204000,146.376000C299.047000,142.663000,302.660000,135.244000,302.660000,127.651000L302.660000,18.335000C302.660000,16.536000,300.703000,15.419000,299.151000,16.328000C298.969000,16.434000,298.827000,16.517000,298.739000,16.568000L158.587000,97.555000C151.632000,101.564000,149.132000,108.688000,149.132000,116.280000ZM150.609000,116.280000C150.609000,110.613000,152.121000,102.987000,159.327000,98.833000L299.896000,17.602000C300.034000,17.522000,300.177000,17.481000,300.325000,17.481000C300.738000,17.481000,301.183000,17.808000,301.183000,18.335000L301.183000,127.651000C301.183000,134.882000,297.741000,141.743000,292.465000,145.097000L152.163000,226.153000C152,226.246000,151.827000,226.293000,151.651000,226.293000C151.149000,226.293000,150.608000,225.895000,150.608000,225.252000L150.608000,116.280000Z" fill="url(#eo191ilz3p4n7-fill)" stroke="none" stroke-width="1"/><path id="eo191ilz3p4n8" d="M151.168000,89.184000L293.172000,7.132000C296.044000,5.474000,298.701000,5.168000,300.863000,6.003000C301.138000,6.109000,304.803000,8.057000,305.062000,8.200000C305.069000,8.203000,305.074000,8.208000,305.081000,8.211000C302.835000,7.120000,299.994000,7.323000,296.897000,9.111000L154.894000,91.163000C147.634000,95.354000,141.748000,106.600000,141.748000,116.280000L141.748000,224.883000C141.748000,230.924000,144.041000,234.927000,147.529000,236.065000C147.245000,236.081000,146.890000,235.969000,146.378000,235.673000C146.212000,235.576000,142.233000,233.332000,142.075000,233.221000C139.578000,231.473000,138.022000,227.879000,138.022000,222.904000L138.022000,114.300000C138.023000,104.621000,143.909000,93.375000,151.168000,89.184000Z" fill="url(#eo191ilz3p4n8-fill)" stroke="none" stroke-width="1"/><path id="eo191ilz3p4n9" d="M154.263000,90.848000L296.267000,8.796000C299.244000,7.077000,301.980000,6.832000,304.184000,7.784000C302.303000,7.486000,300.144000,7.941000,297.844000,9.269000L155.840000,91.321000C148.580000,95.512000,142.694000,106.758000,142.694000,116.438000L142.694000,225.040000C142.694000,230.751000,144.752000,234.620000,147.923000,235.990000C143.867000,235.346000,141.118000,231.180000,141.118000,224.567000L141.118000,115.964000C141.119000,106.284000,147.003000,95.039000,154.263000,90.848000Z" opacity="0.6" fill="url(#eo191ilz3p4n9-fill)" stroke="none" stroke-width="1"/></g><g id="eo191ilz3p4n10"><g id="eo191ilz3p4n11" display="none"><g id="eo191ilz3p4n12"><polygon id="eo191ilz3p4n13" points="225.918000,142.253000 261.295000,257.267000 255.937000,255.062000 220.559000,140.047000" fill="url(#eo191ilz3p4n13-fill)" stroke="none" stroke-width="1"/><polygon id="eo191ilz3p4n14" points="225.906000,142.253000 261.283000,257.267000 265.190000,254.874000 229.816000,139.872000" fill="url(#eo191ilz3p4n14-fill)" stroke="none" stroke-width="1"/><polygon id="eo191ilz3p4n15" points="229.816000,139.872000 225.906000,142.253000 220.559000,140.047000 224.491000,137.654000" fill="url(#eo191ilz3p4n15-fill)" stroke="none" stroke-width="1"/></g><g id="eo191ilz3p4n16"><polygon id="eo191ilz3p4n17" points="205.172000,165.861000 206.582000,170.440000 201.222000,168.235000 199.814000,163.656000" fill="url(#eo191ilz3p4n17-fill)" stroke="none" stroke-width="1"/><polygon id="eo191ilz3p4n18" points="205.160000,165.861000 206.569000,170.440000 230.175000,156.053000 228.771000,151.486000" fill="url(#eo191ilz3p4n18-fill)" stroke="none" stroke-width="1"/><polygon id="eo191ilz3p4n19" points="228.771000,151.486000 205.160000,165.861000 199.814000,163.656000 223.445000,149.268000" fill="url(#eo191ilz3p4n19-fill)" stroke="none" stroke-width="1"/></g><g id="eo191ilz3p4n20"><polygon id="eo191ilz3p4n21" points="210.833000,184.266000 212.243000,188.845000 206.883000,186.640000 205.475000,182.061000" fill="url(#eo191ilz3p4n21-fill)" stroke="none" stroke-width="1"/><polygon id="eo191ilz3p4n22" points="210.821000,184.267000 212.230000,188.846000 235.836000,174.458000 234.432000,169.891000" fill="url(#eo191ilz3p4n22-fill)" stroke="none" stroke-width="1"/><polygon id="eo191ilz3p4n23" points="234.432000,169.891000 210.821000,184.267000 205.475000,182.061000 229.107000,167.673000" fill="url(#eo191ilz3p4n23-fill)" stroke="none" stroke-width="1"/></g><g id="eo191ilz3p4n24"><polygon id="eo191ilz3p4n25" points="216.517000,202.743000 217.925000,207.322000 212.567000,205.116000 211.159000,200.538000" fill="url(#eo191ilz3p4n25-fill)" stroke="none" stroke-width="1"/><polygon id="eo191ilz3p4n26" points="216.504000,202.743000 217.913000,207.322000 241.520000,192.935000 240.115000,188.368000" fill="url(#eo191ilz3p4n26-fill)" stroke="none" stroke-width="1"/><polygon id="eo191ilz3p4n27" points="240.115000,188.368000 216.504000,202.743000 211.159000,200.538000 234.790000,186.149000" fill="url(#eo191ilz3p4n27-fill)" stroke="none" stroke-width="1"/></g><g id="eo191ilz3p4n28"><polygon id="eo191ilz3p4n29" points="222.178000,221.147000 223.586000,225.727000 218.228000,223.521000 216.820000,218.942000" fill="url(#eo191ilz3p4n29-fill)" stroke="none" stroke-width="1"/><polygon id="eo191ilz3p4n30" points="222.166000,221.148000 223.574000,225.727000 247.181000,211.339000 245.776000,206.772000" fill="url(#eo191ilz3p4n30-fill)" stroke="none" stroke-width="1"/><polygon id="eo191ilz3p4n31" points="245.776000,206.772000 222.166000,221.148000 216.820000,218.942000 240.451000,204.555000" fill="url(#eo191ilz3p4n31-fill)" stroke="none" stroke-width="1"/></g><g id="eo191ilz3p4n32"><polygon id="eo191ilz3p4n33" points="227.818000,239.480000 229.226000,244.060000 223.867000,241.854000 222.458000,237.275000" fill="url(#eo191ilz3p4n33-fill)" stroke="none" stroke-width="1"/><polygon id="eo191ilz3p4n34" points="227.805000,239.481000 229.213000,244.060000 252.820000,229.673000 251.416000,225.105000" fill="url(#eo191ilz3p4n34-fill)" stroke="none" stroke-width="1"/><polygon id="eo191ilz3p4n35" points="251.416000,225.105000 227.805000,239.481000 222.458000,237.275000 246.090000,222.888000" fill="url(#eo191ilz3p4n35-fill)" stroke="none" stroke-width="1"/></g><g id="eo191ilz3p4n36"><polygon id="eo191ilz3p4n37" points="233.479000,257.886000 234.887000,262.465000 229.528000,260.260000 228.120000,255.681000" fill="url(#eo191ilz3p4n37-fill)" stroke="none" stroke-width="1"/><polygon id="eo191ilz3p4n38" points="233.466000,257.886000 234.875000,262.465000 258.481000,248.077000 257.077000,243.511000" fill="url(#eo191ilz3p4n38-fill)" stroke="none" stroke-width="1"/><polygon id="eo191ilz3p4n39" points="257.077000,243.511000 233.466000,257.886000 228.120000,255.681000 251.751000,241.292000" fill="url(#eo191ilz3p4n39-fill)" stroke="none" stroke-width="1"/></g><g id="eo191ilz3p4n40"><polygon id="eo191ilz3p4n41" points="198.385000,159.039000 233.757000,274.036000 228.399000,271.831000 193.027000,156.834000" fill="url(#eo191ilz3p4n41-fill)" stroke="none" stroke-width="1"/><polygon id="eo191ilz3p4n42" points="198.373000,159.039000 233.746000,274.037000 237.652000,271.644000 202.284000,156.659000" fill="url(#eo191ilz3p4n42-fill)" stroke="none" stroke-width="1"/><polygon id="eo191ilz3p4n43" points="202.284000,156.659000 198.373000,159.039000 193.027000,156.834000 196.958000,154.440000" fill="url(#eo191ilz3p4n43-fill)" stroke="none" stroke-width="1"/></g></g><path id="eo191ilz3p4n44" d="M194.275000,303.682000L49.058000,219.772000C41.634000,215.486000,35.615000,203.986000,35.615000,194.087000L35.615000,83.026000C35.615000,73.127000,41.634000,68.577000,49.058000,72.863000L194.275000,156.772000C201.700000,161.059000,207.718000,172.558000,207.718000,182.458000L207.718000,293.520000C207.718000,303.418000,201.700000,307.969000,194.275000,303.682000Z" fill="url(#eo191ilz3p4n44-fill)" fill-rule="evenodd" stroke="none" stroke-width="1"/><path id="eo191ilz3p4n45" d="M196.006000,295.950000L52.835000,213.235000C46.861000,209.438000,43.165000,201.851000,43.165000,194.087000L43.165000,82.296000C43.165000,80.457000,45.166000,79.314000,46.754000,80.243000C46.939000,80.351000,47.086000,80.437000,47.175000,80.489000L190.498000,163.309000C197.610000,167.409000,200.167000,174.694000,200.167000,182.457000L200.167000,293.896000C200.167000,295.869000,198.034000,297.105000,196.320000,296.128000C196.185000,296.053000,196.078000,295.990000,196.006000,295.950000Z" fill="url(#eo191ilz3p4n45-fill)" stroke="none" stroke-width="1"/><path id="eo191ilz3p4n46" d="M190.498000,163.310000L47.175000,80.489000C47.085000,80.437000,46.938000,80.352000,46.754000,80.243000C45.167000,79.314000,43.165000,80.456000,43.165000,82.296000L43.165000,194.087000C43.165000,201.852000,46.861000,209.439000,52.835000,213.235000L196.006000,295.950000C196.077000,295.990000,196.185000,296.053000,196.320000,296.130000C198.034000,297.107000,200.167000,295.870000,200.167000,293.898000L200.167000,182.458000C200.167000,174.694000,197.611000,167.409000,190.498000,163.310000ZM198.658000,293.897000C198.658000,294.553000,198.104000,294.960000,197.591000,294.960000C197.411000,294.960000,197.236000,294.912000,197.069000,294.817000L53.590000,211.928000C48.195000,208.498000,44.674000,201.483000,44.674000,194.087000L44.674000,82.296000C44.674000,81.757000,45.130000,81.423000,45.552000,81.423000C45.702000,81.423000,45.850000,81.465000,45.990000,81.546000L189.740000,164.616000C197.110000,168.864000,198.656000,176.664000,198.656000,182.458000L198.656000,293.897000Z" fill="rgb(189,190,192)" stroke="none" stroke-width="1"/><path id="eo191ilz3p4n47" d="M198.085000,154.749000L52.868000,70.840000C49.930000,69.144000,47.214000,68.831000,45.002000,69.685000C44.721000,69.794000,40.973000,71.786000,40.709000,71.932000C40.709000,71.932000,40.696000,71.940000,40.689000,71.944000C42.986000,70.828000,45.892000,71.036000,49.058000,72.864000L194.275000,156.773000C201.700000,161.060000,207.718000,172.559000,207.718000,182.459000L207.718000,293.520000C207.718000,299.698000,205.373000,303.791000,201.806000,304.955000C202.097000,304.971000,202.459000,304.857000,202.984000,304.554000C203.154000,304.456000,207.222000,302.161000,207.384000,302.047000C209.938000,300.259000,211.528000,296.584000,211.528000,291.496000L211.528000,180.434000C211.528000,170.535000,205.509000,159.035000,198.085000,154.749000Z" fill="url(#eo191ilz3p4n47-fill)" stroke="none" stroke-width="1"/><path id="eo191ilz3p4n48" d="M194.920000,156.451000L49.703000,72.542000C46.659000,70.784000,43.860000,70.533000,41.606000,71.507000C43.529000,71.202000,45.738000,71.667000,48.090000,73.025000L193.307000,156.935000C200.732000,161.221000,206.750000,172.720000,206.750000,182.620000L206.750000,293.682000C206.750000,299.522000,204.646000,303.479000,201.403000,304.879000C205.550000,304.221000,208.362000,299.961000,208.362000,293.197000L208.362000,182.136000C208.363000,172.236000,202.344000,160.737000,194.920000,156.451000Z" opacity="0.6" fill="url(#eo191ilz3p4n48-fill)" stroke="none" stroke-width="1"/></g></g></svg>