<svg id="epbaott8htpa1" xmlns="http://www.w3.org/2000/svg" xmlns:xlink="http://www.w3.org/1999/xlink" viewBox="0 0 101.730000 82.560000" shape-rendering="geometricPrecision" text-rendering="geometricPrecision"><style><![CDATA[#epbaott8htpa6_to {animation: epbaott8htpa6_to__to 10000ms linear infinite normal forwards}@keyframes epbaott8htpa6_to__to { 0% {transform: translate(50.880026px,16.499972px)} 90% {transform: translate(50.880026px,16.499972px)} 95% {transform: translate(50.880026px,17px)} 100% {transform: translate(50.880026px,16.499972px)} }#epbaott8htpa9_tr {animation: epbaott8htpa9_tr__tr 10000ms linear infinite normal forwards}@keyframes epbaott8htpa9_tr__tr { 0% {transform: translate(50.730000px,44.590000px) rotate(0deg)} 50% {transform: translate(50.730000px,44.590000px) rotate(180deg)} 100% {transform: translate(50.730000px,44.590000px) rotate(360deg)} }]]></style><g id="epbaott8htpa2"><rect id="epbaott8htpa3" width="101.730000" height="82.560000" rx="0" ry="0" fill="rgb(0,0,0)" fill-opacity="0" stroke="none" stroke-width="1"/></g><g id="epbaott8htpa4"><g id="epbaott8htpa5"><g id="epbaott8htpa6_to" transform="translate(50.880026,16.499972)"><path id="epbaott8htpa6" d="M47.460000,20.930000L47.460000,17.450000L46.350000,17.450000C45.840255,17.450029,45.425481,17.039715,45.420000,16.530000L45.420000,15C45.420000,14.486375,45.836375,14.070000,46.350000,14.070000L55.410000,14.070000C55.657471,14.067295,55.895595,14.164408,56.070593,14.339407C56.245592,14.514405,56.342705,14.752529,56.340000,15L56.340000,16.530000C56.340015,16.775742,56.241715,17.011276,56.067012,17.184099C55.892310,17.356923,55.655727,17.452671,55.410000,17.450000L54.310000,17.450000L54.310000,20.930000" transform="translate(-50.880026,-17.499972)" fill="none" stroke="rgb(255,255,255)" stroke-width="0.800000" stroke-linecap="round" stroke-linejoin="round"/></g><circle id="epbaott8htpa7" r="23.900000" transform="matrix(1 0 0 1 50.87000000000000 44.59000000000000)" fill="none" stroke="rgb(255,255,255)" stroke-width="0.800000" stroke-linecap="round" stroke-linejoin="round"/><circle id="epbaott8htpa8" r="17.980000" transform="matrix(1 0 0 1 50.87000000000000 44.59000000000000)" fill="none" stroke="rgb(255,255,255)" stroke-width="0.800000" stroke-linecap="round" stroke-linejoin="round"/><g id="epbaott8htpa9_tr" transform="translate(50.730000,44.590000) rotate(0)"><path id="epbaott8htpa9" d="M48.230000,44.730000C48.145253,45.676550,48.602355,46.589791,49.410865,47.089242C50.219375,47.588693,51.240625,47.588693,52.049135,47.089242C52.857645,46.589791,53.314747,45.676550,53.230000,44.730000C53.230000,43.340000,50.790000,35.590000,50.790000,35.590000C50.790000,35.590000,48.240000,43.350000,48.230000,44.730000Z" transform="translate(-50.730000,-44.590000)" fill="none" stroke="rgb(255,255,255)" stroke-width="0.800000" stroke-linecap="round" stroke-linejoin="round"/></g><path id="epbaott8htpa10" d="M50.840000,29.900000L50.840000,29.900000Z" fill="none" stroke="rgb(255,255,255)" stroke-width="0.800000" stroke-linecap="round" stroke-linejoin="round"/><path id="epbaott8htpa11" d="M50.840000,57.250000L50.840000,57.250000Z" fill="none" stroke="rgb(255,255,255)" stroke-width="0.800000" stroke-linecap="round" stroke-linejoin="round"/><path id="epbaott8htpa12" d="M36.180000,44.600000L36.180000,44.600000Z" fill="none" stroke="rgb(255,255,255)" stroke-width="0.800000" stroke-linecap="round" stroke-linejoin="round"/><path id="epbaott8htpa13" d="M63.530000,44.600000L63.530000,44.600000Z" fill="none" stroke="rgb(255,255,255)" stroke-width="0.800000" stroke-linecap="round" stroke-linejoin="round"/><path id="epbaott8htpa14" d="M61.230000,34.180000L59.800000,35.610000Z" fill="none" stroke="rgb(255,255,255)" stroke-width="0.800000" stroke-linecap="round" stroke-linejoin="round"/><path id="epbaott8htpa15" d="M41.890000,53.520000L40.460000,55Z" fill="none" stroke="rgb(255,255,255)" stroke-width="0.800000" stroke-linecap="round" stroke-linejoin="round"/><path id="epbaott8htpa16" d="M40.470000,34.210000L41.900000,35.640000Z" fill="none" stroke="rgb(255,255,255)" stroke-width="0.800000" stroke-linecap="round" stroke-linejoin="round"/><path id="epbaott8htpa17" d="M59.810000,53.550000L61.240000,55Z" fill="none" stroke="rgb(255,255,255)" stroke-width="0.800000" stroke-linecap="round" stroke-linejoin="round"/></g></g></svg>