<svg id="eok6bl0qr4dp1" xmlns="http://www.w3.org/2000/svg" xmlns:xlink="http://www.w3.org/1999/xlink" viewBox="0 0 170 133" shape-rendering="geometricPrecision" text-rendering="geometricPrecision"><style><![CDATA[#eok6bl0qr4dp1{pointer-events: all}#eok6bl0qr4dp1 * {animation-play-state: paused !important}#eok6bl0qr4dp1:hover * {animation-play-state: running !important}#eok6bl0qr4dp94_to {animation: eok6bl0qr4dp94_to__to 3000ms linear 1 normal forwards}@keyframes eok6bl0qr4dp94_to__to { 0% {transform: translate(0px,-80px)} 66.666667% {transform: translate(-0.919998px,-0.142000px)} 100% {transform: translate(-0.919998px,-0.142000px)} }#eok6bl0qr4dp94 {animation: eok6bl0qr4dp94_c_o 3000ms linear 1 normal forwards}@keyframes eok6bl0qr4dp94_c_o { 0% {opacity: 0} 66.666667% {opacity: 1} 100% {opacity: 1} }]]></style><path id="eok6bl0qr4dp2" d="M108.551000,38.176800L108.551000,104.252000L60.624400,128.214000L60.624400,62.139300L108.551000,38.176800Z" clip-rule="evenodd" fill="rgb(158,203,99)" fill-rule="evenodd" stroke="none" stroke-width="1"/><path id="eok6bl0qr4dp3" d="M60.714800,62.082400L60.714800,128.157000L11.983500,103.792000L11.983500,37.716800L60.714800,62.082400Z" clip-rule="evenodd" fill="rgb(190,220,140)" fill-rule="evenodd" stroke="none" stroke-width="1"/><path id="eok6bl0qr4dp4" d="M36.796900,66.695200L36.796900,110.787000L16.327400,100.553000L16.327400,56.460400L36.796900,66.695200Z" clip-rule="evenodd" fill="rgb(151,195,232)" fill-rule="evenodd" stroke="none" stroke-width="1"/><path id="eok6bl0qr4dp5" d="M57.035200,76.865700L57.035200,120.958000L40.371100,112.626000L40.371100,68.534200L57.035200,76.865700Z" clip-rule="evenodd" fill="rgb(151,195,232)" fill-rule="evenodd" stroke="none" stroke-width="1"/><path id="eok6bl0qr4dp6" d="M37.028000,74.754900L16.558600,92.002400L16.558600,95.412400L37.028000,78.157200L37.028000,74.754900ZM37.028000,67.729500L16.558600,84.984700L16.558600,90.236600L37.028000,72.981400L37.028000,67.729500Z" clip-rule="evenodd" fill="rgb(179,216,242)" fill-rule="evenodd" stroke="none" stroke-width="1"/><path id="eok6bl0qr4dp7" d="M57.141000,90.154900L40.476600,104.198000L40.476600,107.608000L57.141000,93.564900L57.141000,90.154900ZM57.141000,83.137200L40.476600,97.180400L40.476600,102.432000L57.141000,88.381500L57.141000,83.137200Z" clip-rule="evenodd" fill="rgb(179,216,242)" fill-rule="evenodd" stroke="none" stroke-width="1"/><path id="eok6bl0qr4dp8" d="M36.796900,66.695200L36.796900,110.787000L16.327400,100.553000L16.327400,56.460400C23.150200,59.872400,29.974100,63.283300,36.796900,66.695200ZM17.627900,99.749000L35.496300,108.683000L35.496300,67.498700L17.627900,58.564600L17.627900,99.749000Z" clip-rule="evenodd" fill="rgb(112,148,71)" fill-rule="evenodd" stroke="none" stroke-width="1"/><path id="eok6bl0qr4dp9" d="M57.035200,76.865700L57.035200,120.958000L40.371100,112.626000L40.371100,68.534200C45.926400,71.311400,51.480800,74.088500,57.035200,76.865700ZM41.671700,111.822000L55.734600,118.854000L55.734600,77.669300L41.671700,70.638300L41.671700,111.822000Z" clip-rule="evenodd" fill="rgb(112,148,71)" fill-rule="evenodd" stroke="none" stroke-width="1"/><path id="eok6bl0qr4dp10" d="M59.885400,13.798800L108.617000,38.164500L60.690200,62.127100L11.959000,37.761400L59.885400,13.798800Z" clip-rule="evenodd" fill="rgb(221,234,180)" fill-rule="evenodd" stroke="none" stroke-width="1"/><path id="eok6bl0qr4dp11" d="M27.959500,28.172900L56.756800,42.572100L50.876500,45.512200L22.078100,31.113000L27.959500,28.172900Z" clip-rule="evenodd" fill="rgb(251,206,208)" fill-rule="evenodd" stroke="none" stroke-width="1"/><path id="eok6bl0qr4dp12" d="M26.274700,52.125100L19.318400,48.755900L7.058420,68.813200L14.014800,72.182400L26.274700,52.125100Z" fill="rgb(254,241,242)" stroke="none" stroke-width="1"/><path id="eok6bl0qr4dp13" d="M40.073500,58.909700L33.117200,55.540500L20.857200,75.597900L27.813600,78.967100L40.073500,58.909700Z" fill="rgb(254,241,242)" stroke="none" stroke-width="1"/><path id="eok6bl0qr4dp14" d="M53.872400,65.579200L46.916000,62.210000L34.656100,82.267300L41.612400,85.636500L53.872400,65.579200Z" fill="rgb(254,241,242)" stroke="none" stroke-width="1"/><path id="eok6bl0qr4dp15" d="M60.952400,69.009200L53.996300,65.637300L41.736500,85.693500L48.692600,89.065400L60.952400,69.009200ZM47.040200,62.265500L40.084100,58.901200L27.824400,78.957300L34.780400,82.329300L47.040200,62.265500ZM33.128000,55.529400L26.171900,52.165100L13.912200,72.221200L20.868300,75.585500L33.128000,55.529400ZM19.215800,48.793200L12.259700,45.421400L0,65.477500L6.956080,68.849400L19.215800,48.793200Z" clip-rule="evenodd" fill="rgb(241,89,95)" fill-rule="evenodd" stroke="none" stroke-width="1"/><path id="eok6bl0qr4dp16" d="M6.956050,68.832800C6.943870,71.667500,5.390380,73.212500,3.478400,72.286500C1.558810,71.356800,0,68.281600,0,65.429700L6.956050,68.798800L6.956050,68.832800Z" clip-rule="evenodd" fill="rgb(169,60,65)" fill-rule="evenodd" stroke="none" stroke-width="1"/><path id="eok6bl0qr4dp17" d="M14.315400,72.167200C14.303200,75.002000,12.749800,76.547000,10.837800,75.621000C8.918190,74.691200,7.359380,71.627400,7.359380,68.764200L14.315400,72.133200L14.315400,72.167200Z" clip-rule="evenodd" fill="rgb(251,206,208)" fill-rule="evenodd" stroke="none" stroke-width="1"/><path id="eok6bl0qr4dp18" d="M20.754900,75.616900C20.742700,78.451700,19.189200,79.996600,17.277200,79.070500C15.357600,78.140800,13.798800,75.065800,13.798800,72.213900L20.754900,75.583000L20.754900,75.616900Z" clip-rule="evenodd" fill="rgb(169,60,65)" fill-rule="evenodd" stroke="none" stroke-width="1"/><path id="eok6bl0qr4dp19" d="M28.114200,78.951900C28.102100,81.786600,26.548600,83.331500,24.636600,82.405500C22.717000,81.475800,21.158200,78.400800,21.158200,75.548800L28.114200,78.917900L28.114200,78.951900Z" clip-rule="evenodd" fill="rgb(251,206,208)" fill-rule="evenodd" stroke="none" stroke-width="1"/><path id="eok6bl0qr4dp20" d="M34.553700,82.286400C34.541500,85.121100,32.988000,86.666000,31.076100,85.740000C29.156500,84.810200,27.597700,81.735300,27.597700,78.883300L34.553700,82.252400L34.553700,82.286400Z" clip-rule="evenodd" fill="rgb(169,60,65)" fill-rule="evenodd" stroke="none" stroke-width="1"/><path id="eok6bl0qr4dp21" d="M41.913100,85.736100C41.900900,88.570800,40.347400,90.115700,38.435400,89.189700C36.515800,88.259900,34.957000,85.185000,34.957000,82.333000L41.913100,85.702100L41.913100,85.736100Z" clip-rule="evenodd" fill="rgb(251,206,208)" fill-rule="evenodd" stroke="none" stroke-width="1"/><path id="eok6bl0qr4dp22" d="M48.352500,89.071000C48.340400,91.905800,46.786900,93.450700,44.874900,92.524600C42.955300,91.594900,41.396500,88.519900,41.396500,85.668000L48.352500,89.037100L48.352500,89.071000Z" clip-rule="evenodd" fill="rgb(169,60,65)" fill-rule="evenodd" stroke="none" stroke-width="1"/><path id="eok6bl0qr4dp23" d="M50.595700,45.446600L50.595700,57.152800L21.797300,42.753600L21.797300,31.047400L50.595700,45.446600Z" clip-rule="evenodd" fill="rgb(241,89,95)" fill-rule="evenodd" stroke="none" stroke-width="1"/><path id="eok6bl0qr4dp24" d="M51.515600,45.487600L51.515600,57.193800L57.395900,54.253700L57.395900,42.546400L51.515600,45.487600Z" clip-rule="evenodd" fill="rgb(247,166,163)" fill-rule="evenodd" stroke="none" stroke-width="1"/><path id="eok6bl0qr4dp25" d="M28.410800,41.622800C28.410800,41.413400,28.342900,41.204900,28.220400,41.004100C28.098000,40.803300,27.948300,40.606100,27.757800,40.406100C27.567300,40.188800,27.363200,39.982100,27.145600,39.751100C26.927900,39.520100,26.723800,39.278500,26.533300,39.008800C26.342900,38.739100,26.193300,38.455000,26.070800,38.132100C25.934800,37.802400,25.880300,37.443800,25.880300,37.042500C25.880300,36.693500,25.921100,36.417000,26.016400,36.220400C26.098000,35.999500,26.234000,35.858300,26.397300,35.765400C26.560500,35.672600,26.764700,35.652300,26.996000,35.698100C27.213600,35.719700,27.472100,35.814200,27.757800,35.957000C28.070700,36.113500,28.383700,36.305100,28.669400,36.517800C28.955100,36.730400,29.186400,36.950600,29.376900,37.168000L29.036700,38.184500C28.914300,38.018600,28.737400,37.842900,28.506100,37.657500C28.274800,37.454600,28.016300,37.289900,27.757800,37.160600C27.499300,37.031400,27.308900,37.006200,27.172800,37.060300C27.036800,37.114400,26.968700,37.254900,26.968700,37.481700C26.968700,37.673600,27.023200,37.875100,27.159300,38.082700C27.281700,38.283500,27.431300,38.481000,27.621700,38.698300C27.812200,38.898200,28.016300,39.122400,28.234000,39.353400C28.451700,39.584400,28.655700,39.826000,28.846200,40.095700C29.036700,40.365400,29.186400,40.649500,29.308800,40.972400C29.431300,41.295400,29.499200,41.643400,29.499200,42.027200C29.499200,42.393600,29.444900,42.697600,29.349600,42.929100C29.254400,43.160600,29.118300,43.319800,28.941500,43.405900C28.764600,43.509400,28.546900,43.539800,28.302000,43.504600C28.043500,43.462600,27.771500,43.361300,27.472100,43.211700C27.064000,43.007600,26.723800,42.785700,26.424500,42.548800C26.111600,42.305100,25.893900,42.091300,25.757800,41.936000L26.097900,40.902500C26.166000,40.988900,26.234000,41.057200,26.329300,41.157200C26.424500,41.257200,26.519700,41.339800,26.642100,41.453400C26.751000,41.542700,26.887100,41.645600,27.009500,41.724300C27.145600,41.827200,27.268000,41.906000,27.417700,41.980800C27.730600,42.137300,27.975500,42.190100,28.152400,42.139000C28.329300,42.087800,28.410800,41.919400,28.410800,41.622800Z" fill="rgb(255,255,255)" stroke="none" stroke-width="1"/><path id="eok6bl0qr4dp26" d="M33.777500,40.550500L32.158500,39.741000L32.158500,45.621300L31.070100,45.077100L31.070100,39.196800L29.437500,38.380500L29.437500,37.142100L33.777500,39.312100L33.777500,40.550500Z" fill="rgb(255,255,255)" stroke="none" stroke-width="1"/><path id="eok6bl0qr4dp27" d="M34.037100,42.910700C34.037100,41.724200,34.241200,40.901700,34.649300,40.477600C35.057500,40.036200,35.628900,40.007800,36.390700,40.388700C36.785300,40.586000,37.139100,40.850200,37.424800,41.167500C37.724100,41.491600,37.969000,41.858500,38.173100,42.292000C38.363500,42.718700,38.513100,43.177200,38.608300,43.678500C38.703600,44.179700,38.744400,44.706000,38.744400,45.264300C38.744400,46.450700,38.540300,47.255800,38.132200,47.697300C37.724000,48.138800,37.139000,48.160300,36.390700,47.786200C35.982600,47.582100,35.642400,47.324800,35.343100,47.000700C35.043800,46.676600,34.799000,46.310400,34.608500,45.883700C34.418100,45.457000,34.268400,44.997700,34.173200,44.496500C34.077900,43.995200,34.037100,43.469000,34.037100,42.910700ZM35.180000,43.482100C35.180000,43.831000,35.207200,44.176000,35.248000,44.510500C35.302400,44.834300,35.370400,45.130400,35.465600,45.387400C35.560900,45.661800,35.683300,45.897500,35.846500,46.101300C35.996200,46.298200,36.173100,46.439000,36.390700,46.547800C36.771700,46.738300,37.071100,46.696000,37.288800,46.420900C37.492800,46.139100,37.601600,45.565300,37.601600,44.692900C37.601600,44.344000,37.588000,44.023500,37.533600,43.682300C37.492800,43.365200,37.424800,43.069100,37.329500,42.812100C37.234300,42.537700,37.111900,42.302400,36.948600,42.081200C36.799000,41.884200,36.608400,41.736600,36.390700,41.627800C36.009800,41.437300,35.710500,41.479300,35.492900,41.771800C35.288800,42.071000,35.180000,42.627200,35.180000,43.482100Z" fill="rgb(255,255,255)" stroke="none" stroke-width="1"/><path id="eok6bl0qr4dp28" d="M39.556600,42.146200C39.679100,42.172500,39.815200,42.223100,39.951200,42.256200C40.100900,42.313600,40.236900,42.364000,40.372900,42.414600C40.522600,42.472000,40.658600,42.540100,40.781100,42.583900C40.917100,42.651900,41.039600,42.713200,41.148400,42.767600C41.406900,42.896800,41.665400,43.061000,41.910300,43.235700C42.168800,43.434800,42.386400,43.648400,42.590500,43.890100C42.794600,44.149100,42.944200,44.433300,43.066700,44.738800C43.189100,45.061800,43.243700,45.420400,43.243700,45.821700C43.243700,46.397500,43.134700,46.814300,42.930600,47.078700C42.713000,47.336300,42.427300,47.454900,42.073500,47.417600L42.468100,47.929100L43.733400,51.283800L42.481700,50.657900L41.216500,47.233700L40.645000,46.825300L40.645000,49.739600L39.556600,49.195400L39.556600,42.146200ZM41.230000,44.047400C41.121200,43.993000,41.012400,43.938200,40.903600,43.901200C40.794700,43.846800,40.713100,43.824000,40.645000,43.807400L40.645000,45.865700L41.107700,46.097000C41.407000,46.246700,41.651800,46.281800,41.828700,46.195800C42.005600,46.109800,42.100800,45.860800,42.100800,45.459500C42.100800,45.162900,42.032800,44.885000,41.883200,44.635700C41.733500,44.386400,41.515700,44.190300,41.230000,44.047400Z" fill="rgb(255,255,255)" stroke="none" stroke-width="1"/><path id="eok6bl0qr4dp29" d="M44.156200,44.501500L47.448700,46.147700L47.448700,47.386000L45.244700,46.284000L45.244700,47.941500L47.244700,48.941500L47.244700,50.180600L45.244700,49.180600L45.244700,50.925300L47.489500,52.047700L47.489500,53.286800L44.156200,51.620200L44.156200,44.501500Z" fill="rgb(255,255,255)" stroke="none" stroke-width="1"/><path id="eok6bl0qr4dp30" d="M80.190300,52.615500L72.673800,48.857400L93.575100,38.406700L100.717000,41.977600L80.190300,52.615500Z" clip-rule="evenodd" fill="rgb(158,203,99)" fill-rule="evenodd" stroke="none" stroke-width="1"/><path id="eok6bl0qr4dp31" d="M80.033200,118.686000L80.033200,52.610800L93.492800,45.880900L93.492800,111.931000L80.033200,118.686000Z" clip-rule="evenodd" fill="rgb(112,148,71)" fill-rule="evenodd" stroke="none" stroke-width="1"/><path id="eok6bl0qr4dp32" d="M169.266000,98.279600L163.986000,95.639900C152.332000,89.779700,150.606000,77.976100,150.788000,74.406800L150.788000,25.964300C150.755000,15.007500,143.849000,5.810420,136.245000,2.456960L131.332000,0L68.412900,31.442700L68.462200,31.492500L73.310300,33.916400C80.913600,37.269800,87.819400,46.483600,87.852600,57.440400L87.852600,105.866000C87.686600,109.436000,89.396500,121.256000,101.051000,127.116000L106.330000,129.756000L169.266000,98.279600Z" fill="rgb(228,233,239)" stroke="none" stroke-width="1"/><path id="eok6bl0qr4dp33" d="M121.358000,74.209300C121.358000,73.174900,120.679000,72.669200,119.852000,73.082900L117.427000,74.289700C116.588000,74.714900,115.910000,75.898600,115.910000,76.933000C115.910000,77.978800,116.588000,78.484600,117.427000,78.070800L119.852000,76.852600C120.679000,76.438900,121.358000,75.255100,121.358000,74.209300ZM128.460000,63.337200C128.460000,62.302800,127.782000,61.797000,126.954000,62.210800L119.657000,65.865600C118.818000,66.279300,118.140000,67.463100,118.140000,68.497500C118.140000,69.543300,118.818000,70.048800,119.657000,69.635100L126.954000,65.980500C127.782000,65.566800,128.460000,64.383000,128.460000,63.337200ZM132.230000,54.050900C132.230000,53.016500,131.552000,52.511000,130.724000,52.924700L124.506000,56.027800C123.667000,56.453000,123.001000,57.625300,123.001000,58.671100C123.001000,59.717000,123.667000,60.222500,124.506000,59.797300L130.724000,56.694200C131.552000,56.280500,132.230000,55.096700,132.230000,54.050900Z" clip-rule="evenodd" fill="rgb(119,129,139)" fill-rule="evenodd" stroke="none" stroke-width="1"/><path id="eok6bl0qr4dp34" d="M106.331000,129.784000L169.266000,98.316400L169.266000,101.024000L106.331000,132.491000L106.331000,129.784000Z" fill="rgb(188,194,200)" stroke="none" stroke-width="1"/><path id="eok6bl0qr4dp35" d="M106.711000,129.701000L101.440000,127.051000C89.792500,121.198000,88.074200,109.375000,88.248900,105.793000L88.248900,57.367100C88.190700,46.418100,81.289300,37.216500,73.689100,33.867800L68.767800,31.392600L68.767800,34.100400L72.611900,36.022700C79.280300,39.225900,85.773700,46.883900,85.802800,57.396100L85.802800,105.822000C85.919300,115.781000,91.364600,124.605000,100.363000,129.206000L106.711000,132.409000L106.711000,129.701000Z" fill="rgb(203,208,214)" stroke="none" stroke-width="1"/><path id="eok6bl0qr4dp36" d="M112.869000,56.185900C112.869000,55.145400,112.194000,54.638300,111.362000,55.054500L99.939200,60.765700C99.106800,61.181900,98.431600,62.364300,98.431600,63.404800C98.431600,64.445200,99.106800,64.952400,99.939200,64.536200L111.362000,58.824900C112.194000,58.408700,112.869000,57.226300,112.869000,56.185900Z" clip-rule="evenodd" fill="rgb(119,129,139)" fill-rule="evenodd" stroke="none" stroke-width="1"/><path id="eok6bl0qr4dp37" d="M129.563000,28.273900C129.005000,26.888700,127.488000,26.409100,126.156000,27.074900L108.449000,35.928300C107.456000,36.424900,107.170000,37.936900,107.729000,39.322100C108.287000,40.707300,109.594000,41.387100,110.472000,40.947900L128.744000,31.812000C130.076000,31.146300,130.122000,29.659100,129.563000,28.273900Z" clip-rule="evenodd" fill="rgb(119,129,139)" fill-rule="evenodd" stroke="none" stroke-width="1"/><path id="eok6bl0qr4dp38" d="M124.437000,50.517400C124.437000,49.476900,123.762000,48.969600,122.929000,49.386200L117.418000,52.141500C116.585000,52.558000,115.910000,53.740300,115.910000,54.780700C115.910000,55.821200,116.585000,56.328500,117.418000,55.911900L122.929000,53.156600C123.762000,52.740000,124.437000,51.557800,124.437000,50.517400Z" clip-rule="evenodd" fill="rgb(119,129,139)" fill-rule="evenodd" stroke="none" stroke-width="1"/><path id="eok6bl0qr4dp39" d="M112.869000,78.264000C112.869000,77.223600,112.194000,76.716400,111.362000,77.132600L99.939200,82.843900C99.106800,83.260100,98.431600,84.442400,98.431600,85.482900C98.431600,86.523300,99.106800,87.030500,99.939200,86.614300L111.362000,80.903000C112.194000,80.486800,112.869000,79.304400,112.869000,78.264000Z" clip-rule="evenodd" fill="rgb(119,129,139)" fill-rule="evenodd" stroke="none" stroke-width="1"/><path id="eok6bl0qr4dp40" d="M134.340000,45.680900C134.340000,44.640500,133.665000,44.133400,132.832000,44.549600L128.457000,46.737300C127.625000,47.153500,126.949000,48.336000,126.949000,49.376400C126.949000,50.416900,127.625000,50.923900,128.457000,50.507700L132.832000,48.320000C133.665000,47.903800,134.340000,46.721300,134.340000,45.680900Z" clip-rule="evenodd" fill="rgb(119,129,139)" fill-rule="evenodd" stroke="none" stroke-width="1"/><path id="eok6bl0qr4dp41" d="M120.821000,60.029300C120.821000,58.988800,120.146000,58.481900,119.314000,58.897600L110.978000,63.065800C110.146000,63.481500,109.471000,64.664100,109.471000,65.704600C109.471000,66.745000,110.146000,67.251900,110.978000,66.836200L119.314000,62.668000C120.146000,62.252300,120.821000,61.069700,120.821000,60.029300Z" clip-rule="evenodd" fill="rgb(119,129,139)" fill-rule="evenodd" stroke="none" stroke-width="1"/><path id="eok6bl0qr4dp42" d="M105.853000,67.053500C105.853000,66.013000,105.178000,65.505800,104.345000,65.922200L99.939600,68.124900C99.106800,68.541300,98.431600,69.723700,98.431600,70.764100C98.431600,71.804500,99.106800,72.311700,99.939600,71.895300L104.345000,69.692600C105.178000,69.276200,105.853000,68.093900,105.853000,67.053500Z" clip-rule="evenodd" fill="rgb(119,129,139)" fill-rule="evenodd" stroke="none" stroke-width="1"/><path id="eok6bl0qr4dp43" d="M115.090000,69.909600C115.090000,68.869100,114.414000,68.362400,113.583000,68.777700L99.938300,75.600200C99.107700,76.015500,98.431600,77.198300,98.431600,78.238700C98.431600,79.279200,99.107700,79.785900,99.938300,79.370600L113.583000,72.548100C114.414000,72.132800,115.090000,70.950000,115.090000,69.909600Z" clip-rule="evenodd" fill="rgb(119,129,139)" fill-rule="evenodd" stroke="none" stroke-width="1"/><path id="eok6bl0qr4dp44" d="M146.308000,93.319900C145.831000,92.624300,144.837000,92.362500,144.091000,92.735900L134.741000,97.410500C133.995000,97.784000,133.776000,98.651700,134.253000,99.347300C134.730000,100.043000,135.723000,100.305000,136.470000,99.931400L145.819000,95.256700C146.566000,94.883300,146.785000,94.015500,146.308000,93.319900Z" clip-rule="evenodd" fill="rgb(86,130,167)" fill-rule="evenodd" stroke="none" stroke-width="1"/><path id="eok6bl0qr4dp45" d="M132.502000,100.452000C132.025000,99.756700,131.031000,99.495200,130.284000,99.868600L125.543000,102.239000C124.796000,102.613000,124.577000,103.481000,125.054000,104.176000C125.531000,104.872000,126.525000,105.134000,127.271000,104.760000L132.013000,102.389000C132.760000,102.016000,132.979000,101.148000,132.502000,100.452000Z" clip-rule="evenodd" fill="rgb(119,129,139)" fill-rule="evenodd" stroke="none" stroke-width="1"/><path id="eok6bl0qr4dp46" d="M108.359000,117.326000C102.094000,114.119000,99.474900,107.426000,100.481000,96.530200L113.269000,90.146100L113.269000,83.473200L126.146000,77.029500L126.146000,67.657500L139.572000,60.944800L139.572000,90.325400L108.359000,117.326000Z" clip-rule="evenodd" fill="rgb(187,192,199)" fill-rule="evenodd" stroke="none" stroke-width="1"/><path id="eok6bl0qr4dp47" d="M106.551000,129.444000L169.266000,98.086900L169.266000,100.785000L106.551000,132.142000L106.551000,129.444000Z" fill="rgb(187,192,199)" stroke="none" stroke-width="1"/><path id="eok6bl0qr4dp48" d="M133.991000,97.746500C133.991000,97.618900,133.991000,100.074000,133.991000,100.074000C133.991000,102.426000,137.567000,104.333000,141.968000,104.333000L142.022000,104.333000C146.399000,104.318000,149.947000,102.416000,149.947000,100.074000C149.947000,100.074000,149.947000,97.618900,149.947000,97.746500C149.947000,100.096000,146.371000,102.005000,141.968000,102.005000C137.567000,102.005000,133.991000,100.096000,133.991000,97.746500Z" clip-rule="evenodd" fill="rgb(246,202,18)" fill-rule="evenodd" stroke="none" stroke-width="1"/><path id="eok6bl0qr4dp49" d="M141.970000,102.006000C137.564000,102.006000,133.992000,100.099000,133.992000,97.746600C133.992000,95.394300,137.564000,93.487300,141.970000,93.487300C146.376000,93.487300,149.947000,95.394300,149.947000,97.746600C149.947000,100.099000,146.376000,102.006000,141.970000,102.006000Z" fill="rgb(254,239,163)" stroke="none" stroke-width="1"/><path id="eok6bl0qr4dp50" d="M133.986000,94.872000C133.986000,94.744400,133.986000,97.199100,133.986000,97.199100C133.986000,99.551300,137.562000,101.458000,141.963000,101.458000L142.017000,101.458000C146.394000,101.443000,149.942000,99.541300,149.942000,97.199100C149.942000,97.199100,149.942000,94.744400,149.942000,94.872000C149.942000,97.221700,146.366000,99.130900,141.963000,99.130900C137.562000,99.130900,133.986000,97.221700,133.986000,94.872000Z" clip-rule="evenodd" fill="rgb(246,202,18)" fill-rule="evenodd" stroke="none" stroke-width="1"/><path id="eok6bl0qr4dp51" d="M141.965000,99.131500C137.559000,99.131500,133.987000,97.224500,133.987000,94.872100C133.987000,92.519800,137.559000,90.612800,141.965000,90.612800C146.371000,90.612800,149.942000,92.519800,149.942000,94.872100C149.942000,97.224500,146.371000,99.131500,141.965000,99.131500Z" fill="rgb(254,239,163)" stroke="none" stroke-width="1"/><path id="eok6bl0qr4dp52" d="M133.991000,91.767000C133.991000,91.639400,133.991000,94.094100,133.991000,94.094100C133.991000,96.446300,137.567000,98.353100,141.968000,98.353100L142.022000,98.353100C146.399000,98.338000,149.947000,96.436300,149.947000,94.094100C149.947000,94.094100,149.947000,91.639400,149.947000,91.767000C149.947000,94.116700,146.371000,96.025900,141.968000,96.025900C137.567000,96.025900,133.991000,94.116700,133.991000,91.767000Z" clip-rule="evenodd" fill="rgb(246,202,18)" fill-rule="evenodd" stroke="none" stroke-width="1"/><path id="eok6bl0qr4dp53" d="M141.970000,96.026500C137.564000,96.026500,133.992000,94.119500,133.992000,91.767100C133.992000,89.414800,137.564000,87.507800,141.970000,87.507800C146.376000,87.507800,149.947000,89.414800,149.947000,91.767100C149.947000,94.119500,146.376000,96.026500,141.970000,96.026500Z" fill="rgb(254,239,163)" stroke="none" stroke-width="1"/><path id="eok6bl0qr4dp54" d="M133.991000,89.007700C133.991000,88.880100,133.991000,91.334900,133.991000,91.334900C133.991000,93.687000,137.567000,95.593800,141.968000,95.593800L142.022000,95.593800C146.399000,95.578800,149.947000,93.677000,149.947000,91.334900C149.947000,91.334900,149.947000,88.880100,149.947000,89.007700C149.947000,91.357400,146.371000,93.266700,141.968000,93.266700C137.567000,93.266700,133.991000,91.357400,133.991000,89.007700Z" clip-rule="evenodd" fill="rgb(246,202,18)" fill-rule="evenodd" stroke="none" stroke-width="1"/><path id="eok6bl0qr4dp55" d="M141.970000,93.266700C137.564000,93.266700,133.992000,91.359800,133.992000,89.007400C133.992000,86.655000,137.564000,84.748000,141.970000,84.748000C146.376000,84.748000,149.947000,86.655000,149.947000,89.007400C149.947000,91.359800,146.376000,93.266700,141.970000,93.266700Z" fill="rgb(254,239,163)" stroke="none" stroke-width="1"/><path id="eok6bl0qr4dp56" d="M134.911000,86.707900C134.911000,86.580300,134.911000,89.035100,134.911000,89.035100C134.911000,91.387200,138.487000,93.294000,142.888000,93.294000L142.942000,93.294000C147.319000,93.279000,150.867000,91.377200,150.867000,89.035100C150.867000,89.035100,150.867000,86.580300,150.867000,86.707900C150.867000,89.057600,147.291000,90.966900,142.888000,90.966900C138.487000,90.966900,134.911000,89.057600,134.911000,86.707900Z" clip-rule="evenodd" fill="rgb(246,202,18)" fill-rule="evenodd" stroke="none" stroke-width="1"/><path id="eok6bl0qr4dp57" d="M142.890000,90.966900C138.484000,90.966900,134.912000,89.059900,134.912000,86.707600C134.912000,84.355200,138.484000,82.448200,142.890000,82.448200C147.295000,82.448200,150.867000,84.355200,150.867000,86.707600C150.867000,89.059900,147.295000,90.966900,142.890000,90.966900Z" fill="rgb(254,239,163)" stroke="none" stroke-width="1"/><path id="eok6bl0qr4dp58" d="M133.991000,83.832900C133.991000,83.705300,133.991000,86.160100,133.991000,86.160100C133.991000,88.512200,137.567000,90.419000,141.968000,90.419000L142.022000,90.419000C146.399000,90.404000,149.947000,88.502200,149.947000,86.160100C149.947000,86.160100,149.947000,83.705300,149.947000,83.832900C149.947000,86.182600,146.371000,88.091900,141.968000,88.091900C137.567000,88.091900,133.991000,86.182600,133.991000,83.832900Z" clip-rule="evenodd" fill="rgb(246,202,18)" fill-rule="evenodd" stroke="none" stroke-width="1"/><path id="eok6bl0qr4dp59" d="M141.970000,88.092400C137.564000,88.092400,133.992000,86.185400,133.992000,83.833100C133.992000,81.480700,137.564000,79.573700,141.970000,79.573700C146.376000,79.573700,149.947000,81.480700,149.947000,83.833100C149.947000,86.185400,146.376000,88.092400,141.970000,88.092400Z" fill="rgb(254,239,163)" stroke="none" stroke-width="1"/><path id="eok6bl0qr4dp60" d="M134.911000,80.728400C134.911000,80.600800,134.911000,83.055600,134.911000,83.055600C134.911000,85.407700,138.487000,87.314500,142.888000,87.314500L142.942000,87.314500C147.319000,87.299500,150.867000,85.397700,150.867000,83.055600C150.867000,83.055600,150.867000,80.600800,150.867000,80.728400C150.867000,83.078100,147.291000,84.987400,142.888000,84.987400C138.487000,84.987400,134.911000,83.078100,134.911000,80.728400Z" clip-rule="evenodd" fill="rgb(246,202,18)" fill-rule="evenodd" stroke="none" stroke-width="1"/><path id="eok6bl0qr4dp61" d="M142.890000,84.987400C138.484000,84.987400,134.912000,83.080500,134.912000,80.728100C134.912000,78.375700,138.484000,76.468800,142.890000,76.468800C147.295000,76.468800,150.867000,78.375700,150.867000,80.728100C150.867000,83.080500,147.295000,84.987400,142.890000,84.987400Z" fill="rgb(254,239,163)" stroke="none" stroke-width="1"/><path id="eok6bl0qr4dp62" d="M134.906000,77.853900C134.906000,77.726300,134.906000,80.181000,134.906000,80.181000C134.906000,82.533200,138.482000,84.440000,142.883000,84.440000L142.937000,84.440000C147.314000,84.425000,150.862000,82.523200,150.862000,80.181000C150.862000,80.181000,150.862000,77.726300,150.862000,77.853900C150.862000,80.203600,147.286000,82.112800,142.883000,82.112800C138.482000,82.112800,134.906000,80.203600,134.906000,77.853900Z" clip-rule="evenodd" fill="rgb(246,202,18)" fill-rule="evenodd" stroke="none" stroke-width="1"/><path id="eok6bl0qr4dp63" d="M142.885000,82.112900C138.479000,82.112900,134.907000,80.205900,134.907000,77.853600C134.907000,75.501200,138.479000,73.594200,142.885000,73.594200C147.291000,73.594200,150.862000,75.501200,150.862000,77.853600C150.862000,80.205900,147.291000,82.112900,142.885000,82.112900Z" fill="rgb(254,239,163)" stroke="none" stroke-width="1"/><path id="eok6bl0qr4dp64" d="M133.991000,75.093700C133.991000,74.966100,133.991000,77.420800,133.991000,77.420800C133.991000,79.773000,137.567000,81.679700,141.968000,81.679700L142.022000,81.679700C146.399000,81.664700,149.947000,79.762900,149.947000,77.420800C149.947000,77.420800,149.947000,74.966100,149.947000,75.093700C149.947000,77.443300,146.371000,79.352600,141.968000,79.352600C137.567000,79.352600,133.991000,77.443300,133.991000,75.093700Z" clip-rule="evenodd" fill="rgb(246,202,18)" fill-rule="evenodd" stroke="none" stroke-width="1"/><path id="eok6bl0qr4dp65" d="M141.970000,79.352700C137.564000,79.352700,133.992000,77.445700,133.992000,75.093300C133.992000,72.741000,137.564000,70.834000,141.970000,70.834000C146.376000,70.834000,149.947000,72.741000,149.947000,75.093300C149.947000,77.445700,146.376000,79.352700,141.970000,79.352700Z" fill="rgb(254,239,163)" stroke="none" stroke-width="1"/><path id="eok6bl0qr4dp66" d="M134.906000,71.989200C134.906000,71.861600,134.906000,74.316300,134.906000,74.316300C134.906000,76.668500,138.482000,78.575200,142.883000,78.575200L142.937000,78.575200C147.314000,78.560200,150.862000,76.658500,150.862000,74.316300C150.862000,74.316300,150.862000,71.861600,150.862000,71.989200C150.862000,74.338800,147.286000,76.248100,142.883000,76.248100C138.482000,76.248100,134.906000,74.338800,134.906000,71.989200Z" clip-rule="evenodd" fill="rgb(246,202,18)" fill-rule="evenodd" stroke="none" stroke-width="1"/><path id="eok6bl0qr4dp67" d="M142.885000,76.248200C138.479000,76.248200,134.907000,74.341200,134.907000,71.988800C134.907000,69.636500,138.479000,67.729500,142.885000,67.729500C147.291000,67.729500,150.862000,69.636500,150.862000,71.988800C150.862000,74.341200,147.291000,76.248200,142.885000,76.248200Z" fill="rgb(254,239,163)" stroke="none" stroke-width="1"/><path id="eok6bl0qr4dp68" d="M133.991000,68.769500C133.991000,68.641800,133.991000,71.096600,133.991000,71.096600C133.991000,73.448700,137.567000,75.355500,141.968000,75.355500L142.022000,75.355500C146.399000,75.340500,149.947000,73.438700,149.947000,71.096600C149.947000,71.096600,149.947000,68.641800,149.947000,68.769500C149.947000,71.119100,146.371000,73.028400,141.968000,73.028400C137.567000,73.028400,133.991000,71.119100,133.991000,68.769500Z" clip-rule="evenodd" fill="rgb(246,202,18)" fill-rule="evenodd" stroke="none" stroke-width="1"/><path id="eok6bl0qr4dp69" d="M141.970000,73.028500C137.564000,73.028500,133.992000,71.121500,133.992000,68.769100C133.992000,66.416700,137.564000,64.509800,141.970000,64.509800C146.376000,64.509800,149.947000,66.416700,149.947000,68.769100C149.947000,71.121500,146.376000,73.028500,141.970000,73.028500Z" fill="rgb(254,239,163)" stroke="none" stroke-width="1"/><path id="eok6bl0qr4dp70" d="M149.013000,69.018100C149.023000,68.932700,149.027000,68.847300,149.027000,68.766900C149.027000,66.732600,145.937000,65.085000,142.131000,65.085000C138.325000,65.085000,135.235000,66.732600,135.235000,68.766900C135.235000,68.847300,135.244000,68.932700,135.254000,69.018100C135.494000,67.099300,138.485000,65.587300,142.131000,65.587300C145.781000,65.587300,148.769000,67.099300,149.013000,69.018100Z" clip-rule="evenodd" fill="rgb(246,202,18)" fill-rule="evenodd" stroke="none" stroke-width="1"/><path id="eok6bl0qr4dp71" d="M119.267000,105.336000C119.267000,105.209000,119.267000,107.663000,119.267000,107.663000C119.267000,110.016000,122.843000,111.922000,127.244000,111.922000L127.298000,111.922000C131.676000,111.907000,135.224000,110.006000,135.224000,107.663000C135.224000,107.663000,135.224000,105.209000,135.224000,105.336000C135.224000,107.686000,131.648000,109.595000,127.244000,109.595000C122.843000,109.595000,119.267000,107.686000,119.267000,105.336000Z" clip-rule="evenodd" fill="rgb(246,202,18)" fill-rule="evenodd" stroke="none" stroke-width="1"/><path id="eok6bl0qr4dp72" d="M127.246000,109.595000C122.840000,109.595000,119.268000,107.688000,119.268000,105.336000C119.268000,102.984000,122.840000,101.077000,127.246000,101.077000C131.652000,101.077000,135.224000,102.984000,135.224000,105.336000C135.224000,107.688000,131.652000,109.595000,127.246000,109.595000Z" fill="rgb(254,239,163)" stroke="none" stroke-width="1"/><path id="eok6bl0qr4dp73" d="M120.187000,103.036000C120.187000,102.908000,120.187000,105.363000,120.187000,105.363000C120.187000,107.715000,123.763000,109.622000,128.164000,109.622000L128.218000,109.622000C132.596000,109.607000,136.144000,107.705000,136.144000,105.363000C136.144000,105.363000,136.144000,102.908000,136.144000,103.036000C136.144000,105.386000,132.568000,107.295000,128.164000,107.295000C123.763000,107.295000,120.187000,105.386000,120.187000,103.036000Z" clip-rule="evenodd" fill="rgb(246,202,18)" fill-rule="evenodd" stroke="none" stroke-width="1"/><path id="eok6bl0qr4dp74" d="M128.166000,107.296000C123.760000,107.296000,120.188000,105.389000,120.188000,103.036000C120.188000,100.684000,123.760000,98.776900,128.166000,98.776900C132.572000,98.776900,136.144000,100.684000,136.144000,103.036000C136.144000,105.389000,132.572000,107.296000,128.166000,107.296000Z" fill="rgb(254,239,163)" stroke="none" stroke-width="1"/><path id="eok6bl0qr4dp75" d="M119.272000,100.162000C119.272000,100.034000,119.272000,102.489000,119.272000,102.489000C119.272000,104.841000,122.848000,106.748000,127.249000,106.748000L127.303000,106.748000C131.681000,106.733000,135.229000,104.831000,135.229000,102.489000C135.229000,102.489000,135.229000,100.034000,135.229000,100.162000C135.229000,102.511000,131.652000,104.420000,127.249000,104.420000C122.848000,104.420000,119.272000,102.511000,119.272000,100.162000Z" clip-rule="evenodd" fill="rgb(246,202,18)" fill-rule="evenodd" stroke="none" stroke-width="1"/><path id="eok6bl0qr4dp76" d="M127.251000,104.421000C122.845000,104.421000,119.273000,102.514000,119.273000,100.161000C119.273000,97.808800,122.845000,95.901900,127.251000,95.901900C131.657000,95.901900,135.229000,97.808800,135.229000,100.161000C135.229000,102.514000,131.657000,104.421000,127.251000,104.421000Z" fill="rgb(254,239,163)" stroke="none" stroke-width="1"/><path id="eok6bl0qr4dp77" d="M120.192000,97.057100C120.192000,96.929400,120.192000,99.384200,120.192000,99.384200C120.192000,101.736000,123.768000,103.643000,128.169000,103.643000L128.223000,103.643000C132.601000,103.628000,136.148000,101.726000,136.148000,99.384200C136.148000,99.384200,136.148000,96.929400,136.148000,97.057100C136.148000,99.406700,132.572000,101.316000,128.169000,101.316000C123.768000,101.316000,120.192000,99.406700,120.192000,97.057100Z" clip-rule="evenodd" fill="rgb(246,202,18)" fill-rule="evenodd" stroke="none" stroke-width="1"/><path id="eok6bl0qr4dp78" d="M128.171000,101.316000C123.765000,101.316000,120.193000,99.409100,120.193000,97.056700C120.193000,94.704300,123.765000,92.797400,128.171000,92.797400C132.577000,92.797400,136.148000,94.704300,136.148000,97.056700C136.148000,99.409100,132.577000,101.316000,128.171000,101.316000Z" fill="rgb(254,239,163)" stroke="none" stroke-width="1"/><path id="eok6bl0qr4dp79" d="M119.272000,94.182100C119.272000,94.054400,119.272000,96.509200,119.272000,96.509200C119.272000,98.861300,122.848000,100.768000,127.249000,100.768000L127.303000,100.768000C131.681000,100.753000,135.229000,98.851300,135.229000,96.509200C135.229000,96.509200,135.229000,94.054400,135.229000,94.182100C135.229000,96.531700,131.652000,98.441000,127.249000,98.441000C122.848000,98.441000,119.272000,96.531700,119.272000,94.182100Z" clip-rule="evenodd" fill="rgb(246,202,18)" fill-rule="evenodd" stroke="none" stroke-width="1"/><path id="eok6bl0qr4dp80" d="M127.251000,98.441500C122.845000,98.441500,119.273000,96.534600,119.273000,94.182200C119.273000,91.829800,122.845000,89.922900,127.251000,89.922900C131.657000,89.922900,135.229000,91.829800,135.229000,94.182200C135.229000,96.534600,131.657000,98.441500,127.251000,98.441500Z" fill="rgb(254,239,163)" stroke="none" stroke-width="1"/><path id="eok6bl0qr4dp81" d="M119.272000,91.422300C119.272000,91.294700,119.272000,93.749400,119.272000,93.749400C119.272000,96.101600,122.848000,98.008300,127.249000,98.008300L127.303000,98.008300C131.681000,97.993300,135.229000,96.091600,135.229000,93.749400C135.229000,93.749400,135.229000,91.294700,135.229000,91.422300C135.229000,93.771900,131.652000,95.681200,127.249000,95.681200C122.848000,95.681200,119.272000,93.771900,119.272000,91.422300Z" clip-rule="evenodd" fill="rgb(246,202,18)" fill-rule="evenodd" stroke="none" stroke-width="1"/><path id="eok6bl0qr4dp82" d="M127.251000,95.681300C122.845000,95.681300,119.273000,93.774300,119.273000,91.421900C119.273000,89.069600,122.845000,87.162600,127.251000,87.162600C131.657000,87.162600,135.229000,89.069600,135.229000,91.421900C135.229000,93.774300,131.657000,95.681300,127.251000,95.681300Z" fill="rgb(254,239,163)" stroke="none" stroke-width="1"/><path id="eok6bl0qr4dp83" d="M119.272000,88.203100C119.272000,88.075400,119.272000,90.530200,119.272000,90.530200C119.272000,92.882300,122.848000,94.789100,127.249000,94.789100L127.303000,94.789100C131.681000,94.774100,135.229000,92.872300,135.229000,90.530200C135.229000,90.530200,135.229000,88.075400,135.229000,88.203100C135.229000,90.552700,131.652000,92.462000,127.249000,92.462000C122.848000,92.462000,119.272000,90.552700,119.272000,88.203100Z" clip-rule="evenodd" fill="rgb(246,202,18)" fill-rule="evenodd" stroke="none" stroke-width="1"/><path id="eok6bl0qr4dp84" d="M127.251000,92.462100C122.845000,92.462100,119.273000,90.555100,119.273000,88.202700C119.273000,85.850300,122.845000,83.943400,127.251000,83.943400C131.657000,83.943400,135.229000,85.850300,135.229000,88.202700C135.229000,90.555100,131.657000,92.462100,127.251000,92.462100Z" fill="rgb(254,239,163)" stroke="none" stroke-width="1"/><path id="eok6bl0qr4dp85" d="M119.272000,85.098100C119.272000,84.970500,119.272000,87.425200,119.272000,87.425200C119.272000,89.777400,122.848000,91.684100,127.249000,91.684100L127.303000,91.684100C131.681000,91.669100,135.229000,89.767300,135.229000,87.425200C135.229000,87.425200,135.229000,84.970500,135.229000,85.098100C135.229000,87.447700,131.652000,89.357000,127.249000,89.357000C122.848000,89.357000,119.272000,87.447700,119.272000,85.098100Z" clip-rule="evenodd" fill="rgb(246,202,18)" fill-rule="evenodd" stroke="none" stroke-width="1"/><path id="eok6bl0qr4dp86" d="M127.251000,89.357100C122.845000,89.357100,119.273000,87.450100,119.273000,85.097700C119.273000,82.745300,122.845000,80.838400,127.251000,80.838400C131.657000,80.838400,135.229000,82.745300,135.229000,85.097700C135.229000,87.450100,131.657000,89.357100,127.251000,89.357100Z" fill="rgb(254,239,163)" stroke="none" stroke-width="1"/><path id="eok6bl0qr4dp87" d="M134.290000,85.346700C134.299000,85.261300,134.304000,85.175900,134.304000,85.095600C134.304000,83.061200,131.213000,81.413600,127.407000,81.413600C123.602000,81.413600,120.511000,83.061200,120.511000,85.095600C120.511000,85.175900,120.521000,85.261300,120.530000,85.346700C120.770000,83.427900,123.762000,81.915900,127.407000,81.915900C131.058000,81.915900,134.045000,83.427900,134.290000,85.346700Z" clip-rule="evenodd" fill="rgb(246,202,18)" fill-rule="evenodd" stroke="none" stroke-width="1"/><path id="eok6bl0qr4dp88" d="M105.473000,111.891000C105.473000,111.763000,105.473000,114.218000,105.473000,114.218000C105.473000,116.570000,109.050000,118.477000,113.450000,118.477000L113.504000,118.477000C117.882000,118.462000,121.430000,116.560000,121.430000,114.218000C121.430000,114.218000,121.430000,111.763000,121.430000,111.891000C121.430000,114.240000,117.854000,116.149000,113.450000,116.149000C109.050000,116.149000,105.473000,114.240000,105.473000,111.891000Z" clip-rule="evenodd" fill="rgb(246,202,18)" fill-rule="evenodd" stroke="none" stroke-width="1"/><path id="eok6bl0qr4dp89" d="M113.452000,116.150000C109.046000,116.150000,105.475000,114.243000,105.475000,111.890000C105.475000,109.538000,109.046000,107.631000,113.452000,107.631000C117.858000,107.631000,121.430000,109.538000,121.430000,111.890000C121.430000,114.243000,117.858000,116.150000,113.452000,116.150000Z" fill="rgb(254,239,163)" stroke="none" stroke-width="1"/><path id="eok6bl0qr4dp90" d="M106.393000,109.017000C106.393000,108.889000,106.393000,111.344000,106.393000,111.344000C106.393000,113.696000,109.969000,115.603000,114.370000,115.603000L114.424000,115.603000C118.802000,115.588000,122.350000,113.686000,122.350000,111.344000C122.350000,111.344000,122.350000,108.889000,122.350000,109.017000C122.350000,111.366000,118.774000,113.275000,114.370000,113.275000C109.969000,113.275000,106.393000,111.366000,106.393000,109.017000Z" clip-rule="evenodd" fill="rgb(246,202,18)" fill-rule="evenodd" stroke="none" stroke-width="1"/><path id="eok6bl0qr4dp91" d="M114.372000,113.275000C109.966000,113.275000,106.394000,111.368000,106.394000,109.016000C106.394000,106.663000,109.966000,104.756000,114.372000,104.756000C118.778000,104.756000,122.350000,106.663000,122.350000,109.016000C122.350000,111.368000,118.778000,113.275000,114.372000,113.275000Z" fill="rgb(254,239,163)" stroke="none" stroke-width="1"/><path id="eok6bl0qr4dp92" d="M105.473000,106.256000C105.473000,106.128000,105.473000,108.583000,105.473000,108.583000C105.473000,110.935000,109.050000,112.842000,113.450000,112.842000L113.504000,112.842000C117.882000,112.827000,121.430000,110.925000,121.430000,108.583000C121.430000,108.583000,121.430000,106.128000,121.430000,106.256000C121.430000,108.605000,117.854000,110.515000,113.450000,110.515000C109.050000,110.515000,105.473000,108.605000,105.473000,106.256000Z" clip-rule="evenodd" fill="rgb(246,202,18)" fill-rule="evenodd" stroke="none" stroke-width="1"/><path id="eok6bl0qr4dp93" d="M113.452000,110.515000C109.046000,110.515000,105.475000,108.608000,105.475000,106.256000C105.475000,103.904000,109.046000,101.997000,113.452000,101.997000C117.858000,101.997000,121.430000,103.904000,121.430000,106.256000C121.430000,108.608000,117.858000,110.515000,113.452000,110.515000Z" fill="rgb(254,239,163)" stroke="none" stroke-width="1"/><g id="eok6bl0qr4dp94_to" transform="translate(0,-80)"><g id="eok6bl0qr4dp94" transform="translate(0,0)" opacity="0"><path id="eok6bl0qr4dp95" d="M113.452000,104.191000C109.046000,104.191000,105.475000,102.284000,105.475000,99.931200C105.475000,97.578800,109.046000,95.671900,113.452000,95.671900C117.858000,95.671900,121.430000,97.578800,121.430000,99.931200C121.430000,102.284000,117.858000,104.191000,113.452000,104.191000Z" fill="rgb(254,239,163)" stroke="none" stroke-width="1"/><path id="eok6bl0qr4dp96" d="M106.393000,103.151000C106.393000,103.024000,106.393000,105.478000,106.393000,105.478000C106.393000,107.831000,109.969000,109.737000,114.370000,109.737000L114.424000,109.737000C118.802000,109.722000,122.350000,107.821000,122.350000,105.478000C122.350000,105.478000,122.350000,103.024000,122.350000,103.151000C122.350000,105.501000,118.774000,107.410000,114.370000,107.410000C109.969000,107.410000,106.393000,105.501000,106.393000,103.151000Z" clip-rule="evenodd" fill="rgb(246,202,18)" fill-rule="evenodd" stroke="none" stroke-width="1"/><path id="eok6bl0qr4dp97" d="M105.473000,99.931600C105.473000,99.803900,105.473000,102.259000,105.473000,102.259000C105.473000,104.611000,109.050000,106.518000,113.450000,106.518000L113.504000,106.518000C117.882000,106.503000,121.430000,104.601000,121.430000,102.259000C121.430000,102.259000,121.430000,99.803900,121.430000,99.931600C121.430000,102.281000,117.854000,104.190000,113.450000,104.190000C109.050000,104.190000,105.473000,102.281000,105.473000,99.931600Z" clip-rule="evenodd" fill="rgb(246,202,18)" fill-rule="evenodd" stroke="none" stroke-width="1"/><path id="eok6bl0qr4dp98" d="M114.372000,107.410000C109.966000,107.410000,106.394000,105.503000,106.394000,103.151000C106.394000,100.799000,109.966000,98.891600,114.372000,98.891600C118.778000,98.891600,122.350000,100.799000,122.350000,103.151000C122.350000,105.503000,118.778000,107.410000,114.372000,107.410000Z" fill="rgb(254,239,163)" stroke="none" stroke-width="1"/><path id="eok6bl0qr4dp99" d="M120.496000,100.180000C120.505000,100.095000,120.510000,100.009000,120.510000,99.929000C120.510000,97.894700,117.419000,96.247100,113.613000,96.247100C109.808000,96.247100,106.717000,97.894700,106.717000,99.929000C106.717000,100.009000,106.727000,100.095000,106.736000,100.180000C106.976000,98.261400,109.968000,96.749400,113.613000,96.749400C117.264000,96.749400,120.251000,98.261400,120.496000,100.180000Z" transform="matrix(1 0 0 1 0 -1)" clip-rule="evenodd" fill="rgb(246,202,18)" fill-rule="evenodd" stroke="none" stroke-width="1"/></g></g></svg>