<svg xmlns="http://www.w3.org/2000/svg" viewBox="0 0 101.73 82.56"><defs><style>.cls-1{fill:none;}.cls-2,.cls-3,.cls-4{stroke:#fff;}.cls-2{stroke-linecap:round;stroke-linejoin:round;}.cls-2,.cls-4{stroke-width:1.65px;}.cls-3,.cls-4{stroke-miterlimit:10;}</style></defs><g id="background"><rect class="cls-1" width="101.73" height="82.56"/></g><g id="Layer_1" data-name="Layer 1"><g id="ecommerce-lines"><path class="cls-2" d="M26,27.15V22.6a2.87,2.87,0,0,1,2.88-2.87H72.84a2.87,2.87,0,0,1,2.87,2.87v4.55"/><path class="cls-2" d="M75.71,24.76v2.4"/><path class="cls-2" d="M26,27.16v-2.4"/><polyline class="cls-2" points="75.71 39.54 75.71 57.94 26.02 57.94 26.02 39.54"/><path class="cls-2" d="M76,62.83H25.75c-2.94,0-5.69-1.84-7.32-4.89H83.31C81.67,61,78.92,62.83,76,62.83Z"/><circle class="cls-3" cx="35.09" cy="51.16" r="1.16"/><line class="cls-2" x1="56.36" y1="44.66" x2="56.36" y2="51.76"/><line class="cls-2" x1="61.45" y1="47.02" x2="61.45" y2="51.76"/><rect class="cls-4" x="47.12" y="44.84" width="5.96" height="6.93" rx="2.98"/><path class="cls-2" d="M44.1,47a2.72,2.72,0,0,0-2.66-2.14h0a2.71,2.71,0,0,0-2.71,2.71v1.5a2.71,2.71,0,0,0,2.71,2.71h0A2.73,2.73,0,0,0,44,50"/><path class="cls-4" d="M56.36,47A2.64,2.64,0,0,1,59,44.66,2.39,2.39,0,0,1,61.45,47"/><line class="cls-2" x1="66.54" y1="47.02" x2="66.54" y2="51.76"/><path class="cls-4" d="M61.45,47a2.64,2.64,0,0,1,2.68-2.36A2.39,2.39,0,0,1,66.54,47"/><path class="cls-2" d="M65.12,24.38h6.69a4,4,0,0,1,3.77,2.56l.13.21h0l2.38,4a6,6,0,0,1,.11,6.06,5.58,5.58,0,0,1-2.49,2.32A4.87,4.87,0,0,1,73.8,40h-.2a6,6,0,0,1-5.8-6.06l0-.5h0"/><path class="cls-2" d="M62.23,40h0a5.88,5.88,0,0,1-5.68-6.07l-.93-9.55h9.5l2.55,8.32a6.06,6.06,0,0,1-3.85,7.06A5.61,5.61,0,0,1,62.23,40Z"/><path class="cls-2" d="M50.87,40h0a5.89,5.89,0,0,1-5.69-6.07l.94-9.55h9.5l.93,9.55A5.88,5.88,0,0,1,50.87,40Z"/><path class="cls-2" d="M33.82,34.12h0A5.88,5.88,0,0,0,39.5,40a5.88,5.88,0,0,0,5.68-6.07l.94-9.55H36.61l-2.75,9.41h0A2.15,2.15,0,0,0,33.82,34.12Z"/><path class="cls-2" d="M33.82,34s0,.32,0,.32A5.86,5.86,0,0,1,28.13,40h-.19A4.92,4.92,0,0,1,26,39.54a5.58,5.58,0,0,1-2.49-2.32,6,6,0,0,1,.11-6.06l2.38-4h0l.13-.21a4,4,0,0,1,3.77-2.56h6.69"/></g></g></svg>