<svg width="126" height="166" viewBox="0 0 126 166" fill="none" xmlns="http://www.w3.org/2000/svg">
<path d="M125.109 122.83L118.563 119.557C104.113 112.291 101.972 97.6548 102.198 93.2291V33.1631C102.157 19.5772 93.5938 8.17335 84.166 4.01524L78.0734 0.96875L0.0574692 39.956L0.11858 40.0177L6.12995 43.0232C15.5577 47.1813 24.1205 58.6058 24.1616 72.1917V132.237C23.9558 136.663 26.076 151.319 40.5265 158.585L47.0725 161.858L125.109 122.83Z" fill="#E4E9EF"/>
<path fill-rule="evenodd" clip-rule="evenodd" d="M65.6568 93.002C65.6568 91.7194 64.8158 91.0923 63.7898 91.6053L60.7833 93.1016C59.743 93.6289 58.9023 95.0967 58.9023 96.3792C58.9023 97.676 59.743 98.3031 60.7833 97.7901L63.7898 96.2796C64.8158 95.7665 65.6568 94.2988 65.6568 93.002ZM74.4637 79.5211C74.4637 78.2386 73.6227 77.6114 72.5967 78.1245L63.5477 82.6562C62.5074 83.1692 61.6667 84.6371 61.6667 85.9196C61.6667 87.2164 62.5074 87.8432 63.5477 87.3302L72.5967 82.7987C73.6227 82.2857 74.4637 80.8179 74.4637 79.5211ZM79.138 68.0067C79.138 66.7241 78.297 66.0973 77.2709 66.6103L69.5612 70.4579C68.521 70.9852 67.6948 72.4387 67.6948 73.7355C67.6948 75.0323 68.521 75.6591 69.5612 75.1319L77.2709 71.2843C78.297 70.7712 79.138 69.3034 79.138 68.0067Z" fill="#77818B"/>
<path d="M47.0739 162.018L125.109 123V126.357L47.0739 165.375V162.018Z" fill="#BCC2C8"/>
<path d="M47.0498 161.896L40.5146 158.61C26.0719 151.353 23.9413 136.694 24.1579 132.252V72.2065C24.0857 58.6303 15.5284 47.2209 6.10451 43.0686L0.00231273 39.9995V43.357L4.76884 45.7406C13.0373 49.7124 21.0887 59.2079 21.1248 72.2425V132.288C21.2692 144.637 28.0212 155.578 39.1782 161.282L47.0498 165.254V161.896Z" fill="#CBD0D6"/>
<path fill-rule="evenodd" clip-rule="evenodd" d="M55.067 70.6869C55.067 69.3968 54.2298 68.7679 53.1977 69.284L39.0344 76.3656C38.0023 76.8817 37.165 78.3478 37.165 79.6379C37.165 80.9279 38.0023 81.5568 39.0344 81.0407L53.1977 73.9591C54.2298 73.443 55.067 71.977 55.067 70.6869Z" fill="#77818B"/>
<path fill-rule="evenodd" clip-rule="evenodd" d="M75.3804 36.1003C74.688 34.3827 72.8067 33.7881 71.1557 34.6136L49.2001 45.5914C47.9686 46.2071 47.6145 48.082 48.3069 49.7995C48.9992 51.5171 50.6199 52.3599 51.709 51.8154L74.3652 40.4874C76.0162 39.6619 76.0728 37.8178 75.3804 36.1003Z" fill="#77818B"/>
<path fill-rule="evenodd" clip-rule="evenodd" d="M69.4759 63.606C69.4759 62.3158 68.639 61.6868 67.6061 62.2033L60.7732 65.6198C59.7402 66.1362 58.9033 67.6022 58.9033 68.8923C58.9033 70.1823 59.7402 70.8114 60.7732 70.2949L67.6061 66.8784C68.639 66.3619 69.4759 64.896 69.4759 63.606Z" fill="#77818B"/>
<path fill-rule="evenodd" clip-rule="evenodd" d="M55.067 98.1068C55.067 96.8166 54.2298 96.1878 53.1977 96.7038L39.0344 103.786C38.0023 104.302 37.165 105.768 37.165 107.058C37.165 108.348 38.0023 108.977 39.0344 108.461L53.1977 101.379C54.2298 100.863 55.067 99.3968 55.067 98.1068Z" fill="#77818B"/>
<path fill-rule="evenodd" clip-rule="evenodd" d="M80.9184 57.6401C80.9184 56.35 80.0809 55.7213 79.0488 56.2373L73.6235 58.95C72.5914 59.466 71.7539 60.9322 71.7539 62.2223C71.7539 63.5124 72.5914 64.1411 73.6235 63.6251L79.0488 60.9124C80.0809 60.3964 80.9184 58.9302 80.9184 57.6401Z" fill="#77818B"/>
<path fill-rule="evenodd" clip-rule="evenodd" d="M64.0859 75.4411C64.0859 74.151 63.248 73.5225 62.2172 74.0379L51.8804 79.2063C50.8496 79.7217 50.0117 81.1881 50.0117 82.4782C50.0117 83.7683 50.8496 84.3968 51.8804 83.8814L62.2172 78.713C63.248 78.1976 64.0859 76.7312 64.0859 75.4411Z" fill="#77818B"/>
<path fill-rule="evenodd" clip-rule="evenodd" d="M57.8205 87.7134C57.8205 86.4233 56.9821 85.795 55.9523 86.3099L39.0332 94.7695C38.0033 95.2845 37.165 96.7511 37.165 98.0412C37.165 99.3313 38.0033 99.9596 39.0332 99.4447L55.9523 90.985C56.9821 90.4701 57.8205 89.0035 57.8205 87.7134Z" fill="#77818B"/>
<path fill-rule="evenodd" clip-rule="evenodd" d="M96.6643 116.719C96.0729 115.856 94.8414 115.531 93.9154 115.994L82.3228 121.791C81.3968 122.254 81.1257 123.33 81.7171 124.192C82.3085 125.055 83.54 125.379 84.466 124.916L96.0586 119.12C96.9846 118.657 97.2557 117.581 96.6643 116.719Z" fill="#5682A7"/>
<path fill-rule="evenodd" clip-rule="evenodd" d="M79.0941 125.627C78.5027 124.765 77.2704 124.44 76.3445 124.903L70.4651 127.843C69.5392 128.306 69.2673 129.382 69.8587 130.245C70.4501 131.108 71.6824 131.432 72.6083 130.969L78.4877 128.029C79.4136 127.566 79.6855 126.49 79.0941 125.627Z" fill="#77818B"/>
<path fill-rule="evenodd" clip-rule="evenodd" d="M49.1704 146.468C41.4027 142.492 38.1548 134.193 39.4021 120.683L55.2586 112.767V104.493L71.2262 96.5031V84.8824L87.873 76.5591V112.989L49.1704 146.468Z" fill="#BBC0C7"/>
<path d="M46.3578 161.387L124.12 122.506V125.851L46.3578 164.732V161.387Z" fill="#BBC0C7"/>
<path fill-rule="evenodd" clip-rule="evenodd" d="M80.6205 122.265C80.6205 122.107 80.6205 125.15 80.6205 125.15C80.6205 128.067 85.0546 130.431 90.5114 130.431H90.5783C96.0061 130.412 100.405 128.054 100.405 125.15C100.405 125.15 100.405 122.107 100.405 122.265C100.405 125.178 95.9712 127.546 90.5114 127.546C85.0546 127.546 80.6205 125.178 80.6205 122.265Z" fill="#F6CA12"/>
<path d="M90.5135 127.51C85.0504 127.51 80.6217 125.146 80.6217 122.229C80.6217 119.312 85.0504 116.948 90.5135 116.948C95.9766 116.948 100.405 119.312 100.405 122.229C100.405 125.146 95.9766 127.51 90.5135 127.51Z" fill="#FEEFA3"/>
<path fill-rule="evenodd" clip-rule="evenodd" d="M80.6156 118.683C80.6156 118.524 80.6156 121.568 80.6156 121.568C80.6156 124.485 85.0497 126.849 90.5065 126.849H90.5734C96.0012 126.83 100.4 124.472 100.4 121.568C100.4 121.568 100.4 118.524 100.4 118.683C100.4 121.596 95.9663 123.964 90.5065 123.964C85.0497 123.964 80.6156 121.596 80.6156 118.683Z" fill="#F6CA12"/>
<path d="M90.5086 124.052C85.0455 124.052 80.6168 121.688 80.6168 118.771C80.6168 115.854 85.0455 113.49 90.5086 113.49C95.9717 113.49 100.4 115.854 100.4 118.771C100.4 121.688 95.9717 124.052 90.5086 124.052Z" fill="#FEEFA3"/>
<path fill-rule="evenodd" clip-rule="evenodd" d="M81.6049 114.854C81.6049 114.696 81.6049 117.74 81.6049 117.74C81.6049 120.656 86.0389 123.02 91.4958 123.02H91.5626C96.9904 123.002 101.39 120.644 101.39 117.74C101.39 117.74 101.39 114.696 101.39 114.854C101.39 117.768 96.9556 120.135 91.4958 120.135C86.0389 120.135 81.6049 117.768 81.6049 114.854Z" fill="#F6CA12"/>
<path d="M91.4979 120.099C86.0348 120.099 81.6061 117.735 81.6061 114.818C81.6061 111.901 86.0348 109.537 91.4979 109.537C96.9609 109.537 101.39 111.901 101.39 114.818C101.39 117.735 96.9609 120.099 91.4979 120.099Z" fill="#FEEFA3"/>
<path fill-rule="evenodd" clip-rule="evenodd" d="M80.6205 111.396C80.6205 111.237 80.6205 114.281 80.6205 114.281C80.6205 117.198 85.0546 119.562 90.5114 119.562H90.5783C96.0061 119.543 100.405 117.185 100.405 114.281C100.405 114.281 100.405 111.237 100.405 111.396C100.405 114.309 95.9712 116.676 90.5114 116.676C85.0546 116.676 80.6205 114.309 80.6205 111.396Z" fill="#F6CA12"/>
<path d="M90.5135 116.641C85.0504 116.641 80.6217 114.277 80.6217 111.36C80.6217 108.443 85.0504 106.079 90.5135 106.079C95.9766 106.079 100.405 108.443 100.405 111.36C100.405 114.277 95.9766 116.641 90.5135 116.641Z" fill="#FEEFA3"/>
<path fill-rule="evenodd" clip-rule="evenodd" d="M82.5941 108.555C82.5941 108.397 82.5941 111.44 82.5941 111.44C82.5941 114.357 87.0282 116.721 92.4851 116.721H92.5519C97.9797 116.702 102.379 114.344 102.379 111.44C102.379 111.44 102.379 108.397 102.379 108.555C102.379 111.468 97.9448 113.836 92.4851 113.836C87.0282 113.836 82.5941 111.468 82.5941 108.555Z" fill="#F6CA12"/>
<path d="M92.4871 113.801C87.024 113.801 82.5953 111.436 82.5953 108.519C82.5953 105.602 87.024 103.238 92.4871 103.238C97.9502 103.238 102.379 105.602 102.379 108.519C102.379 111.436 97.9502 113.801 92.4871 113.801Z" fill="#FEEFA3"/>
<path fill-rule="evenodd" clip-rule="evenodd" d="M81.6049 104.973C81.6049 104.815 81.6049 107.858 81.6049 107.858C81.6049 110.775 86.0389 113.139 91.4958 113.139H91.5626C96.9904 113.12 101.39 110.762 101.39 107.858C101.39 107.858 101.39 104.815 101.39 104.973C101.39 107.886 96.9556 110.254 91.4958 110.254C86.0389 110.254 81.6049 107.886 81.6049 104.973Z" fill="#F6CA12"/>
<path d="M91.4979 110.218C86.0348 110.218 81.6061 107.854 81.6061 104.937C81.6061 102.02 86.0348 99.6558 91.4979 99.6558C96.9609 99.6558 101.39 102.02 101.39 104.937C101.39 107.854 96.9609 110.218 91.4979 110.218Z" fill="#FEEFA3"/>
<path fill-rule="evenodd" clip-rule="evenodd" d="M82.598 101.144C82.598 100.985 82.598 104.029 82.598 104.029C82.598 106.946 87.0321 109.31 92.489 109.31H92.5558C97.9836 109.291 102.383 106.933 102.383 104.029C102.383 104.029 102.383 100.985 102.383 101.144C102.383 104.057 97.9487 106.424 92.489 106.424C87.0321 106.424 82.598 104.057 82.598 101.144Z" fill="#F6CA12"/>
<path d="M92.491 106.39C87.028 106.39 82.5993 104.025 82.5993 101.109C82.5993 98.1917 87.028 95.8271 92.491 95.8271C97.9541 95.8271 102.383 98.1917 102.383 101.109C102.383 104.025 97.9541 106.39 92.491 106.39Z" fill="#FEEFA3"/>
<path fill-rule="evenodd" clip-rule="evenodd" d="M81.6097 97.5631C81.6097 97.4049 81.6097 100.449 81.6097 100.449C81.6097 103.365 86.0438 105.729 91.5007 105.729H91.5675C96.9953 105.711 101.395 103.353 101.395 100.449C101.395 100.449 101.395 97.4049 101.395 97.5631C101.395 100.477 96.9605 102.844 91.5007 102.844C86.0438 102.844 81.6097 100.477 81.6097 97.5631Z" fill="#F6CA12"/>
<path d="M91.5027 102.931C86.0397 102.931 81.611 100.567 81.611 97.65C81.611 94.7332 86.0397 92.3687 91.5027 92.3687C96.9658 92.3687 101.395 94.7332 101.395 97.65C101.395 100.567 96.9658 102.931 91.5027 102.931Z" fill="#FEEFA3"/>
<path fill-rule="evenodd" clip-rule="evenodd" d="M81.6049 94.1036C81.6049 93.9454 81.6049 96.9891 81.6049 96.9891C81.6049 99.9057 86.0389 102.27 91.4958 102.27H91.5626C96.9904 102.251 101.39 99.8933 101.39 96.9891C101.39 96.9891 101.39 93.9454 101.39 94.1036C101.39 97.0171 96.9556 99.3844 91.4958 99.3844C86.0389 99.3844 81.6049 97.0171 81.6049 94.1036Z" fill="#F6CA12"/>
<path d="M91.4979 99.3493C86.0348 99.3493 81.6061 96.9848 81.6061 94.068C81.6061 91.1511 86.0348 88.7866 91.4979 88.7866C96.9609 88.7866 101.39 91.1511 101.39 94.068C101.39 96.9848 96.9609 99.3493 91.4979 99.3493Z" fill="#FEEFA3"/>
<path fill-rule="evenodd" clip-rule="evenodd" d="M81.6097 90.275C81.6097 90.1168 81.6097 93.1605 81.6097 93.1605C81.6097 96.077 86.0438 98.4413 91.5007 98.4413H91.5675C96.9953 98.4227 101.395 96.0646 101.395 93.1605C101.395 93.1605 101.395 90.1168 101.395 90.275C101.395 93.1884 96.9605 95.5558 91.5007 95.5558C86.0438 95.5558 81.6097 93.1884 81.6097 90.275Z" fill="#F6CA12"/>
<path d="M91.5027 95.5202C86.0397 95.5202 81.611 93.1557 81.611 90.2389C81.611 87.3221 86.0397 84.9575 91.5027 84.9575C96.9658 84.9575 101.395 87.3221 101.395 90.2389C101.395 93.1557 96.9658 95.5202 91.5027 95.5202Z" fill="#FEEFA3"/>
<path fill-rule="evenodd" clip-rule="evenodd" d="M81.6049 86.3224C81.6049 86.1641 81.6049 89.2079 81.6049 89.2079C81.6049 92.1244 86.0389 94.4887 91.4958 94.4887H91.5626C96.9904 94.4701 101.39 92.112 101.39 89.2079C101.39 89.2079 101.39 86.1641 101.39 86.3224C101.39 89.2358 96.9556 91.6032 91.4958 91.6032C86.0389 91.6032 81.6049 89.2358 81.6049 86.3224Z" fill="#F6CA12"/>
<path d="M91.4979 91.5681C86.0348 91.5681 81.6061 89.2035 81.6061 86.2867C81.6061 83.3699 86.0348 81.0054 91.4979 81.0054C96.9609 81.0054 101.39 83.3699 101.39 86.2867C101.39 89.2035 96.9609 91.5681 91.4979 91.5681Z" fill="#FEEFA3"/>
<path fill-rule="evenodd" clip-rule="evenodd" d="M99.4034 86.6234C99.415 86.5176 99.4209 86.4117 99.4209 86.312C99.4209 83.7895 95.5886 81.7466 90.8699 81.7466C86.1511 81.7466 82.319 83.7895 82.319 86.312C82.319 86.4117 82.3306 86.5176 82.3423 86.6234C82.6397 84.2442 86.3494 82.3694 90.8699 82.3694C95.3961 82.3694 99.1 84.2442 99.4034 86.6234Z" fill="#F6CA12"/>
<path fill-rule="evenodd" clip-rule="evenodd" d="M61.85 131.528C61.85 131.37 61.85 134.414 61.85 134.414C61.85 137.33 66.2841 139.695 71.7409 139.695H71.8077C77.2355 139.676 81.6348 137.318 81.6348 134.414C81.6348 134.414 81.6348 131.37 81.6348 131.528C81.6348 134.442 77.2007 136.809 71.7409 136.809C66.2841 136.809 61.85 134.442 61.85 131.528Z" fill="#F6CA12"/>
<path d="M71.743 136.898C66.2799 136.898 61.8512 134.533 61.8512 131.616C61.8512 128.699 66.2799 126.335 71.743 126.335C77.2061 126.335 81.6348 128.699 81.6348 131.616C81.6348 134.533 77.2061 136.898 71.743 136.898Z" fill="#FEEFA3"/>
<path fill-rule="evenodd" clip-rule="evenodd" d="M63.8178 128.688C63.8178 128.529 63.8178 131.573 63.8178 131.573C63.8178 134.49 68.2518 136.854 73.7087 136.854H73.7755C79.2033 136.835 83.6025 134.477 83.6025 131.573C83.6025 131.573 83.6025 128.529 83.6025 128.688C83.6025 131.601 79.1685 133.968 73.7087 133.968C68.2518 133.968 63.8178 131.601 63.8178 128.688Z" fill="#F6CA12"/>
<path d="M73.7108 134.057C68.2477 134.057 63.819 131.692 63.819 128.775C63.819 125.859 68.2477 123.494 73.7108 123.494C79.1738 123.494 83.6025 125.859 83.6025 128.775C83.6025 131.692 79.1738 134.057 73.7108 134.057Z" fill="#FEEFA3"/>
<path fill-rule="evenodd" clip-rule="evenodd" d="M62.8344 125.229C62.8344 125.071 62.8344 128.115 62.8344 128.115C62.8344 131.031 67.2684 133.395 72.7253 133.395H72.7921C78.2199 133.377 82.6191 131.019 82.6191 128.115C82.6191 128.115 82.6191 125.071 82.6191 125.229C82.6191 128.143 78.1851 130.51 72.7253 130.51C67.2684 130.51 62.8344 128.143 62.8344 125.229Z" fill="#F6CA12"/>
<path d="M72.7274 130.475C67.2643 130.475 62.8356 128.11 62.8356 125.193C62.8356 122.277 67.2643 119.912 72.7274 119.912C78.1904 119.912 82.6191 122.277 82.6191 125.193C82.6191 128.11 78.1904 130.475 72.7274 130.475Z" fill="#FEEFA3"/>
<path fill-rule="evenodd" clip-rule="evenodd" d="M63.8226 121.277C63.8226 121.119 63.8226 124.162 63.8226 124.162C63.8226 127.079 68.2567 129.443 73.7136 129.443H73.7804C79.2082 129.425 83.6074 127.067 83.6074 124.162C83.6074 124.162 83.6074 121.119 83.6074 121.277C83.6074 124.19 79.1733 126.558 73.7136 126.558C68.2567 126.558 63.8226 124.19 63.8226 121.277Z" fill="#F6CA12"/>
<path d="M73.7156 126.646C68.2526 126.646 63.8239 124.281 63.8239 121.364C63.8239 118.448 68.2526 116.083 73.7156 116.083C79.1787 116.083 83.6074 118.448 83.6074 121.364C83.6074 124.281 79.1787 126.646 73.7156 126.646Z" fill="#FEEFA3"/>
<path fill-rule="evenodd" clip-rule="evenodd" d="M62.8344 117.818C62.8344 117.66 62.8344 120.704 62.8344 120.704C62.8344 123.621 67.2684 125.985 72.7253 125.985H72.7921C78.2199 125.966 82.6191 123.608 82.6191 120.704C82.6191 120.704 82.6191 117.66 82.6191 117.818C82.6191 120.732 78.1851 123.099 72.7253 123.099C67.2684 123.099 62.8344 120.732 62.8344 117.818Z" fill="#F6CA12"/>
<path d="M72.7274 123.065C67.2643 123.065 62.8356 120.7 62.8356 117.783C62.8356 114.866 67.2643 112.502 72.7274 112.502C78.1904 112.502 82.6191 114.866 82.6191 117.783C82.6191 120.7 78.1904 123.065 72.7274 123.065Z" fill="#FEEFA3"/>
<path fill-rule="evenodd" clip-rule="evenodd" d="M62.8295 114.36C62.8295 114.202 62.8295 117.246 62.8295 117.246C62.8295 120.162 67.2635 122.527 72.7204 122.527H72.7872C78.215 122.508 82.6143 120.15 82.6143 117.246C82.6143 117.246 82.6143 114.202 82.6143 114.36C82.6143 117.274 78.1802 119.641 72.7204 119.641C67.2635 119.641 62.8295 117.274 62.8295 114.36Z" fill="#F6CA12"/>
<path d="M72.7225 119.606C67.2594 119.606 62.8307 117.241 62.8307 114.324C62.8307 111.408 67.2594 109.043 72.7225 109.043C78.1856 109.043 82.6143 111.408 82.6143 114.324C82.6143 117.241 78.1856 119.606 72.7225 119.606Z" fill="#FEEFA3"/>
<path fill-rule="evenodd" clip-rule="evenodd" d="M62.8344 110.407C62.8344 110.249 62.8344 113.293 62.8344 113.293C62.8344 116.209 67.2684 118.574 72.7253 118.574H72.7921C78.2199 118.555 82.6191 116.197 82.6191 113.293C82.6191 113.293 82.6191 110.249 82.6191 110.407C82.6191 113.321 78.1851 115.688 72.7253 115.688C67.2684 115.688 62.8344 113.321 62.8344 110.407Z" fill="#F6CA12"/>
<path d="M72.7274 115.777C67.2643 115.777 62.8356 113.413 62.8356 110.496C62.8356 107.579 67.2643 105.214 72.7274 105.214C78.1904 105.214 82.6191 107.579 82.6191 110.496C82.6191 113.413 78.1904 115.777 72.7274 115.777Z" fill="#FEEFA3"/>
<path fill-rule="evenodd" clip-rule="evenodd" d="M62.8295 106.455C62.8295 106.297 62.8295 109.341 62.8295 109.341C62.8295 112.257 67.2635 114.621 72.7204 114.621H72.7872C78.215 114.603 82.6143 112.245 82.6143 109.341C82.6143 109.341 82.6143 106.297 82.6143 106.455C82.6143 109.369 78.1802 111.736 72.7204 111.736C67.2635 111.736 62.8295 109.369 62.8295 106.455Z" fill="#F6CA12"/>
<path d="M72.7225 111.824C67.2594 111.824 62.8307 109.46 62.8307 106.543C62.8307 103.626 67.2594 101.262 72.7225 101.262C78.1856 101.262 82.6143 103.626 82.6143 106.543C82.6143 109.46 78.1856 111.824 72.7225 111.824Z" fill="#FEEFA3"/>
<path fill-rule="evenodd" clip-rule="evenodd" d="M80.628 106.879C80.6396 106.773 80.6455 106.668 80.6455 106.568C80.6455 104.045 76.8132 102.002 72.0945 102.002C67.3757 102.002 63.5436 104.045 63.5436 106.568C63.5436 106.668 63.5552 106.773 63.5669 106.879C63.8644 104.5 67.574 102.625 72.0945 102.625C76.6208 102.625 80.3247 104.5 80.628 106.879Z" fill="#F6CA12"/>
<path fill-rule="evenodd" clip-rule="evenodd" d="M46.0365 139.803C46.0365 139.645 46.0365 142.689 46.0365 142.689C46.0365 145.605 50.4706 147.97 55.9274 147.97H55.9943C61.4221 147.951 65.8213 145.593 65.8213 142.689C65.8213 142.689 65.8213 139.645 65.8213 139.803C65.8213 142.717 61.3872 145.084 55.9274 145.084C50.4706 145.084 46.0365 142.717 46.0365 139.803Z" fill="#F6CA12"/>
<path d="M55.9295 145.05C50.4664 145.05 46.0377 142.685 46.0377 139.768C46.0377 136.851 50.4664 134.487 55.9295 134.487C61.3926 134.487 65.8213 136.851 65.8213 139.768C65.8213 142.685 61.3926 145.05 55.9295 145.05Z" fill="#FEEFA3"/>
<path fill-rule="evenodd" clip-rule="evenodd" d="M47.0209 136.222C47.0209 136.064 47.0209 139.108 47.0209 139.108C47.0209 142.024 51.455 144.389 56.9118 144.389H56.9786C62.4064 144.37 66.8057 142.012 66.8057 139.108C66.8057 139.108 66.8057 136.064 66.8057 136.222C66.8057 139.136 62.3716 141.503 56.9118 141.503C51.455 141.503 47.0209 139.136 47.0209 136.222Z" fill="#F6CA12"/>
<path d="M56.9139 141.591C51.4508 141.591 47.0221 139.226 47.0221 136.31C47.0221 133.393 51.4508 131.028 56.9139 131.028C62.377 131.028 66.8057 133.393 66.8057 136.31C66.8057 139.226 62.377 141.591 56.9139 141.591Z" fill="#FEEFA3"/>
<path fill-rule="evenodd" clip-rule="evenodd" d="M46.0365 132.763C46.0365 132.605 46.0365 135.649 46.0365 135.649C46.0365 138.565 50.4706 140.93 55.9274 140.93H55.9943C61.4221 140.911 65.8213 138.553 65.8213 135.649C65.8213 135.649 65.8213 132.605 65.8213 132.763C65.8213 135.677 61.3872 138.044 55.9274 138.044C50.4706 138.044 46.0365 135.677 46.0365 132.763Z" fill="#F6CA12"/>
<path d="M55.9295 138.009C50.4664 138.009 46.0377 135.644 46.0377 132.728C46.0377 129.811 50.4664 127.446 55.9295 127.446C61.3926 127.446 65.8213 129.811 65.8213 132.728C65.8213 135.644 61.3926 138.009 55.9295 138.009Z" fill="#FEEFA3"/>
<path fill-rule="evenodd" clip-rule="evenodd" d="M47.0209 128.811C47.0209 128.653 47.0209 131.697 47.0209 131.697C47.0209 134.613 51.455 136.977 56.9118 136.977H56.9786C62.4064 136.959 66.8057 134.601 66.8057 131.697C66.8057 131.697 66.8057 128.653 66.8057 128.811C66.8057 131.725 62.3716 134.092 56.9118 134.092C51.455 134.092 47.0209 131.725 47.0209 128.811Z" fill="#F6CA12"/>
<path d="M56.9139 134.18C51.4508 134.18 47.0221 131.815 47.0221 128.899C47.0221 125.982 51.4508 123.617 56.9139 123.617C62.377 123.617 66.8057 125.982 66.8057 128.899C66.8057 131.815 62.377 134.18 56.9139 134.18Z" fill="#FEEFA3"/>
<path fill-rule="evenodd" clip-rule="evenodd" d="M46.0365 124.983C46.0365 124.824 46.0365 127.868 46.0365 127.868C46.0365 130.785 50.4706 133.149 55.9274 133.149H55.9943C61.4221 133.13 65.8213 130.772 65.8213 127.868C65.8213 127.868 65.8213 124.824 65.8213 124.983C65.8213 127.896 61.3872 130.263 55.9274 130.263C50.4706 130.263 46.0365 127.896 46.0365 124.983Z" fill="#F6CA12"/>
<path d="M55.9295 130.228C50.4664 130.228 46.0377 127.863 46.0377 124.946C46.0377 122.03 50.4664 119.665 55.9295 119.665C61.3926 119.665 65.8213 122.03 65.8213 124.946C65.8213 127.863 61.3926 130.228 55.9295 130.228Z" fill="#FEEFA3"/>
<path fill-rule="evenodd" clip-rule="evenodd" d="M64.8145 125.283C64.8262 125.177 64.832 125.071 64.832 124.972C64.832 122.449 60.9998 120.406 56.281 120.406C51.5622 120.406 47.7302 122.449 47.7302 124.972C47.7302 125.071 47.7417 125.177 47.7534 125.283C48.0509 122.904 51.7605 121.029 56.281 121.029C60.8073 121.029 64.5112 122.904 64.8145 125.283Z" fill="#F6CA12"/>
</svg>
