<svg width="167" height="154" viewBox="0 0 167 154" fill="none" xmlns="http://www.w3.org/2000/svg">
<path fill-rule="evenodd" clip-rule="evenodd" d="M15.1084 144.62H58.9421L58.278 153.196H77.2435C93.176 153.229 95.8788 123.867 75.6353 123.867L17.5876 118.495L15.1084 144.62Z" fill="#E4E9EF"/>
<path d="M145.697 96.8964L59.2646 140.113L77.1636 149.062L163.596 105.846L145.697 96.8964Z" fill="#E4E9EF"/>
<path fill-rule="evenodd" clip-rule="evenodd" d="M120.573 40.0137L108.94 34.1973V17.3032L120.573 23.1197V40.0137Z" fill="#F7A6A3"/>
<path fill-rule="evenodd" clip-rule="evenodd" d="M120.573 114.034L108.94 108.218V102.348L120.573 96.5317V114.034Z" fill="#F7A6A3"/>
<path fill-rule="evenodd" clip-rule="evenodd" d="M49.1455 63.9769L60.7784 69.7934L120.265 40.0235L108.632 34.207L49.1455 63.9769Z" fill="#FBCED0"/>
<path fill-rule="evenodd" clip-rule="evenodd" d="M60.7785 126.199L49.1455 120.383V63.9893L60.7785 69.8057V126.199Z" fill="#F7A6A3"/>
<path fill-rule="evenodd" clip-rule="evenodd" d="M120.595 39.9937L120.595 23.1608L166.896 45.3912L120.595 113.943L120.595 96.4286L61.1158 126.181L61.1158 69.7949L120.595 39.9937Z" fill="#F1595F"/>
<path d="M84.2625 79.6435C84.3536 79.598 84.4447 79.5803 84.5358 79.5905C84.6269 79.5728 84.6953 79.6222 84.7864 79.6603L86.3126 80.8759C85.652 82.2652 84.8092 83.4948 83.8069 84.5534C82.8045 85.584 81.5972 86.4664 80.2304 87.1498C78.9775 87.7762 77.8385 88.0949 76.8362 88.0666C75.8339 88.0382 74.991 87.735 74.3076 87.157C73.6015 86.5904 73.0775 85.7376 72.7131 84.6658C72.3258 83.5774 72.1436 82.3029 72.1436 80.798C72.1436 79.2931 72.3486 77.7971 72.7586 76.338C73.1459 74.8624 73.7154 73.4907 74.4443 72.2065C75.1733 70.9224 76.0389 69.765 77.064 68.7508C78.0891 67.7366 79.2053 66.8998 80.4354 66.2847C81.0505 65.9772 81.6428 65.7647 82.1895 65.6307C82.7362 65.4966 83.2601 65.4019 83.7385 65.4135C84.2169 65.3973 84.6497 65.4596 85.0598 65.589C85.447 65.7298 85.8115 65.9099 86.1304 66.1406L84.832 68.9357C84.7408 69.1206 84.6497 69.2777 84.5358 69.4461C84.4219 69.6145 84.2625 69.7221 84.0574 69.8246C83.9208 69.893 83.7841 69.9334 83.6702 69.9068C83.5335 69.9194 83.4196 69.8927 83.2829 69.8496C83.1462 69.8064 82.9868 69.7747 82.8273 69.7151C82.6679 69.6833 82.4628 69.6744 82.235 69.6768C82.0072 69.6792 81.7567 69.7209 81.4605 69.7853C81.1644 69.8498 80.7999 70.0042 80.4127 70.1978C79.7748 70.5167 79.1825 70.9522 78.6586 71.4929C78.1347 72.0614 77.6791 72.7072 77.2918 73.4583C76.9046 74.2093 76.6084 75.0262 76.4034 75.9369C76.1984 76.8476 76.0845 77.8243 76.0845 78.8276C76.0845 79.8866 76.1984 80.7493 76.4262 81.4436C76.654 82.1379 76.9729 82.6473 77.3829 82.9997C77.7702 83.3635 78.2486 83.5423 78.7725 83.559C79.2964 83.6036 79.8659 83.4582 80.481 83.1507C80.8227 82.9798 81.1416 82.7925 81.4377 82.6166C81.7339 82.4128 82.0072 82.2203 82.2578 81.9836C82.5084 81.7747 82.7362 81.5214 82.964 81.2403C83.169 80.9706 83.3968 80.6616 83.6246 80.2969C83.7157 80.1677 83.8069 80.0386 83.9208 79.9259C84.0347 79.8132 84.1486 79.7005 84.2625 79.6435Z" fill="white"/>
<path d="M97.5461 70.7291L95.9971 65.9576C95.8832 65.6522 95.7693 65.2912 95.6326 64.8857C95.4959 64.4803 95.382 64.0077 95.2453 63.5187C95.1314 64.1609 95.0175 64.7473 94.8808 65.2895C94.7442 65.8316 94.6303 66.3066 94.5164 66.7258L92.9901 73.007L97.5461 70.7291ZM103.651 75.4521L100.667 76.9441C100.325 77.115 100.075 77.1567 99.8697 77.0641C99.6646 76.9715 99.5052 76.8004 99.3913 76.5508L98.4117 73.5012L92.1017 76.6562L91.1222 80.6854C91.031 81.0096 90.8944 81.3009 90.6666 81.6378C90.4615 81.9353 90.1882 82.1835 89.8693 82.343L86.8623 83.8464L93.2862 60.3178L97.2272 58.3474L103.651 75.4521Z" fill="white"/>
<path d="M113.877 53.7949C113.763 54.0748 113.649 54.299 113.512 54.4788C113.399 54.6472 113.239 54.7827 113.034 54.8852C112.852 54.9763 112.67 55.0117 112.465 54.9749C112.26 54.938 112.032 54.9126 111.781 54.8707C111.531 54.8287 111.234 54.8375 110.915 54.8576C110.597 54.8777 110.209 54.9877 109.799 55.1927C109.07 55.5572 108.546 56.0142 108.182 56.5867C107.84 57.1198 107.658 57.7126 107.658 58.3536C107.658 58.7716 107.772 59.0491 107.977 59.2253C108.182 59.4014 108.478 59.4763 108.82 59.5006C109.161 59.5248 109.549 59.4984 110.004 59.4378C110.437 59.3886 110.893 59.3559 111.371 59.3118C111.827 59.2791 112.282 59.2742 112.715 59.3365C113.171 59.3874 113.558 59.5282 113.9 59.7754C114.241 60.0226 114.538 60.3762 114.743 60.8868C114.948 61.3695 115.061 62.0372 115.061 62.8733C115.061 63.8208 114.925 64.781 114.674 65.7145C114.401 66.6593 114.014 67.5776 113.512 68.4413C113.011 69.305 112.373 70.0977 111.644 70.7966C110.893 71.5348 110.05 72.1234 109.116 72.5904C108.592 72.8524 108.068 73.0586 107.544 73.1812C106.997 73.3152 106.496 73.3986 105.995 73.3983C105.494 73.426 105.015 73.3865 104.583 73.2684C104.127 73.1618 103.74 72.9931 103.421 72.7624L104.56 69.9913C104.651 69.7785 104.765 69.6101 104.924 69.4188C105.061 69.239 105.221 69.1036 105.403 69.0124C105.631 68.8985 105.858 68.8683 106.086 68.9216C106.314 69.0028 106.587 69.0612 106.883 69.1082C107.18 69.1831 107.499 69.2187 107.886 69.1923C108.273 69.1937 108.706 69.0609 109.23 68.799C109.936 68.4459 110.483 67.9774 110.87 67.4215C111.257 66.8377 111.439 66.1613 111.439 65.3252C111.439 64.8515 111.326 64.5461 111.121 64.3421C110.915 64.138 110.619 64.0353 110.278 64.011C109.936 63.9868 109.549 64.0132 109.116 64.0903C108.66 64.1787 108.205 64.2393 107.749 64.272C107.293 64.3326 106.838 64.3374 106.405 64.2752C105.949 64.2521 105.562 64.0835 105.221 63.8363C104.879 63.5612 104.583 63.1798 104.378 62.6413C104.173 62.1028 104.059 61.3516 104.059 60.404C104.059 59.6515 104.195 58.8307 104.446 57.9808C104.674 57.1423 105.061 56.3077 105.539 55.4833C106.018 54.6867 106.633 53.9333 107.339 53.2457C108.045 52.5582 108.843 51.9645 109.754 51.5089C110.255 51.2583 110.756 51.0635 111.234 50.9358C111.713 50.7802 112.191 50.6803 112.624 50.659C113.034 50.6491 113.444 50.667 113.831 50.7521C114.196 50.8207 114.538 50.9564 114.834 51.1427L113.877 53.7949Z" fill="white"/>
<path d="M133.548 40.1872V60.5038L129.675 62.4401V53.8564L122.932 57.2278V65.8115L119.06 67.7478V47.4312L122.932 45.4949V53.995L129.675 50.6235V42.1234L133.548 40.1872Z" fill="white"/>
<path d="M78.7042 108.047C79.2053 107.797 79.6154 107.536 79.9343 107.209C80.2532 106.883 80.5265 106.551 80.7088 106.209C80.891 105.867 81.0049 105.531 81.0733 105.163C81.1416 104.822 81.1872 104.493 81.1872 104.158C81.1872 103.796 81.1416 103.484 81.0505 103.223C80.9821 102.951 80.8455 102.768 80.6404 102.676C80.4582 102.572 80.2076 102.53 79.8887 102.578C79.5698 102.626 79.1598 102.775 78.6814 103.014L75.9934 104.358V109.403L78.7042 108.047ZM75.9934 96.1926V101.209L77.998 100.207C78.408 100.002 78.7953 99.7802 79.137 99.5258C79.4787 99.2713 79.7748 99.0118 80.0026 98.7028C80.2532 98.3824 80.4354 98.0405 80.5493 97.6491C80.686 97.2742 80.7316 96.8334 80.7543 96.3203C80.7316 95.858 80.686 95.4906 80.5949 95.2017C80.5038 94.9407 80.3443 94.7417 80.1393 94.6492C79.9343 94.5566 79.6837 94.5425 79.3648 94.6184C79.0459 94.7221 78.6814 94.8486 78.2486 95.065L75.9934 96.1926ZM78.2486 91.5256C79.3876 90.9561 80.3671 90.6057 81.1644 90.4579C81.9617 90.3379 82.6223 90.3699 83.1462 90.5817C83.6474 90.8049 84.0119 91.2079 84.2397 91.7629C84.4675 92.3179 84.6041 93.002 84.6041 93.8381C84.6041 94.3118 84.5358 94.7919 84.4447 95.2555C84.3308 95.7305 84.1713 96.2004 83.9435 96.6766C83.7157 97.1528 83.4196 97.6353 83.0551 98.1241C82.6906 98.6129 82.2806 99.0966 81.7794 99.5701C82.8729 99.3578 83.6702 99.4887 84.1941 99.9235C84.718 100.386 84.9914 101.197 84.9914 102.34C84.9914 103.204 84.8547 104.08 84.5814 104.969C84.308 105.858 83.898 106.704 83.374 107.524C82.8501 108.343 82.1895 109.091 81.415 109.785C80.6404 110.479 79.752 111.091 78.7725 111.58L72.1436 114.895V94.5781L78.2486 91.5256Z" fill="white"/>
<path d="M96.6262 94.8765L95.0771 90.1051C94.9632 89.7997 94.8493 89.4386 94.7127 89.0332C94.576 88.6277 94.4621 88.1552 94.3254 87.6661C94.2115 88.3083 94.0976 88.8948 93.9609 89.4369C93.8242 89.979 93.7103 90.454 93.5964 90.8733L92.0702 97.1545L96.6262 94.8765ZM102.731 99.5995L99.747 101.092C99.4053 101.262 99.1548 101.304 98.9497 101.212C98.7447 101.119 98.5853 100.948 98.4714 100.698L97.4918 97.6486L91.1818 100.804L90.2022 104.833C90.1111 105.157 89.9744 105.448 89.7466 105.785C89.5416 106.083 89.2683 106.331 88.9493 106.49L85.9424 107.994L92.3663 84.4653L96.3073 82.4948L102.731 99.5995Z" fill="white"/>
<path d="M115.54 87.9209C115.631 87.8753 115.722 87.8576 115.813 87.8678C115.904 87.8501 115.973 87.8996 116.064 87.9376L117.59 89.1532C116.929 90.5425 116.087 91.7722 115.084 92.8307C114.082 93.8614 112.875 94.7438 111.508 95.4272C110.255 96.0536 109.116 96.3723 108.114 96.3439C107.111 96.3156 106.268 96.0124 105.585 95.4344C104.879 94.8678 104.355 94.015 103.99 92.9431C103.603 91.8548 103.421 90.5803 103.421 89.0754C103.421 87.5704 103.626 86.0745 104.036 84.6153C104.423 83.1397 104.993 81.7681 105.722 80.4839C106.451 79.1997 107.316 78.0423 108.341 77.0281C109.366 76.0139 110.483 75.1771 111.713 74.5621C112.328 74.2545 112.92 74.042 113.467 73.908C114.014 73.774 114.537 73.6792 115.016 73.6909C115.494 73.6746 115.927 73.7369 116.337 73.8663C116.724 74.0071 117.089 74.1872 117.408 74.4179L116.109 77.213C116.018 77.3979 115.927 77.555 115.813 77.7234C115.699 77.8918 115.54 77.9994 115.335 78.1019C115.198 78.1703 115.061 78.2108 114.948 78.1841C114.811 78.1967 114.697 78.17 114.56 78.1269C114.424 78.0838 114.264 78.052 114.105 77.9924C113.945 77.9607 113.74 77.9517 113.512 77.9541C113.285 77.9565 113.034 77.9982 112.738 78.0627C112.442 78.1271 112.077 78.2815 111.69 78.4751C111.052 78.7941 110.46 79.2295 109.936 79.7702C109.412 80.3387 108.956 80.9846 108.569 81.7356C108.182 82.4866 107.886 83.3035 107.681 84.2143C107.476 85.125 107.362 86.1016 107.362 87.1049C107.362 88.1639 107.476 89.0267 107.704 89.721C107.931 90.4153 108.25 90.9247 108.66 91.2771C109.048 91.6408 109.526 91.8197 110.05 91.8364C110.574 91.881 111.143 91.7356 111.758 91.428C112.1 91.2572 112.419 91.0699 112.715 90.8939C113.011 90.6901 113.285 90.4977 113.535 90.2609C113.786 90.052 114.014 89.7988 114.241 89.5177C114.446 89.248 114.674 88.939 114.902 88.5742C114.993 88.4451 115.084 88.3159 115.198 88.2032C115.312 88.0905 115.426 87.9778 115.54 87.9209Z" fill="white"/>
<path d="M123.829 76.8405L124.444 76.5329C125.014 76.2482 125.424 75.8481 125.674 75.2769L129.41 66.7761C129.615 66.3112 129.866 65.963 130.117 65.6984C130.367 65.4337 130.686 65.1907 131.073 64.997L134.422 63.3227L129.501 74.0044C129.137 74.744 128.773 75.3443 128.363 75.8001C128.659 75.7914 128.909 75.8333 129.16 75.931C129.388 76.0679 129.615 76.2606 129.82 76.5204L134.832 83.4344L131.392 85.1542C131.164 85.2681 130.982 85.3314 130.823 85.3833C130.663 85.4351 130.527 85.4477 130.413 85.4211C130.299 85.3944 130.208 85.3564 130.117 85.2904C130.025 85.2245 129.957 85.1472 129.889 85.042L126.13 79.8426C125.993 79.6601 125.811 79.584 125.606 79.575C125.401 79.5661 125.105 79.6584 124.763 79.8293L123.829 80.2962V88.9357L119.979 90.8606V70.5439L123.829 68.619V76.8405Z" fill="white"/>
<path fill-rule="evenodd" clip-rule="evenodd" d="M32.2259 113.1C32.2259 112.847 32.2259 117.712 32.2259 117.712C32.2259 122.375 39.5227 126.154 48.5026 126.154H48.6126C57.5447 126.124 64.7842 122.355 64.7842 117.712C64.7842 117.712 64.7842 112.847 64.7842 113.1C64.7842 117.757 57.4874 121.541 48.5026 121.541C39.5227 121.541 32.2259 117.757 32.2259 113.1Z" fill="#E3AF18"/>
<path d="M48.506 121.581C39.5158 121.581 32.2279 117.801 32.2279 113.138C32.2279 108.476 39.5158 104.696 48.506 104.696C57.4962 104.696 64.7842 108.476 64.7842 113.138C64.7842 117.801 57.4962 121.581 48.506 121.581Z" fill="#FEEFA3"/>
<path fill-rule="evenodd" clip-rule="evenodd" d="M31.306 107.465C31.306 107.212 31.306 112.078 31.306 112.078C31.306 116.74 38.6028 120.519 47.5827 120.519H47.6927C56.6248 120.489 63.8643 116.72 63.8643 112.078C63.8643 112.078 63.8643 107.212 63.8643 107.465C63.8643 112.122 56.5674 115.907 47.5827 115.907C38.6028 115.907 31.306 112.122 31.306 107.465Z" fill="#E3AF18"/>
<path d="M47.5861 115.946C38.5959 115.946 31.3079 112.167 31.3079 107.504C31.3079 102.841 38.5959 99.0615 47.5861 99.0615C56.5763 99.0615 63.8643 102.841 63.8643 107.504C63.8643 112.167 56.5763 115.946 47.5861 115.946Z" fill="#FEEFA3"/>
<path fill-rule="evenodd" clip-rule="evenodd" d="M33.1458 101.256C33.1458 101.003 33.1458 105.868 33.1458 105.868C33.1458 110.53 40.4426 114.31 49.4226 114.31H49.5325C58.4647 114.28 65.7041 110.511 65.7041 105.868C65.7041 105.868 65.7041 101.003 65.7041 101.256C65.7041 105.913 58.4073 109.697 49.4226 109.697C40.4426 109.697 33.1458 105.913 33.1458 101.256Z" fill="#E3AF18"/>
<path d="M49.4259 109.737C40.4358 109.737 33.1478 105.957 33.1478 101.294C33.1478 96.6318 40.4358 92.8521 49.4259 92.8521C58.4161 92.8521 65.7041 96.6318 65.7041 101.294C65.7041 105.957 58.4161 109.737 49.4259 109.737Z" fill="#FEEFA3"/>
<path fill-rule="evenodd" clip-rule="evenodd" d="M32.2259 95.7361C32.2259 95.4831 32.2259 100.349 32.2259 100.349C32.2259 105.011 39.5227 108.79 48.5026 108.79H48.6126C57.5447 108.76 64.7842 104.991 64.7842 100.349C64.7842 100.349 64.7842 95.4831 64.7842 95.7361C64.7842 100.393 57.4874 104.178 48.5026 104.178C39.5227 104.178 32.2259 100.393 32.2259 95.7361Z" fill="#E3AF18"/>
<path d="M48.506 104.216C39.5158 104.216 32.2279 100.437 32.2279 95.7739C32.2279 91.1113 39.5158 87.3315 48.506 87.3315C57.4962 87.3315 64.7842 91.1113 64.7842 95.7739C64.7842 100.437 57.4962 104.216 48.506 104.216Z" fill="#FEEFA3"/>
<path fill-rule="evenodd" clip-rule="evenodd" d="M34.0657 91.1365C34.0657 90.8835 34.0657 95.749 34.0657 95.749C34.0657 100.411 41.3625 104.191 50.3425 104.191H50.4524C59.3846 104.161 66.624 100.391 66.624 95.749C66.624 95.749 66.624 90.8835 66.624 91.1365C66.624 95.7937 59.3272 99.578 50.3425 99.578C41.3625 99.578 34.0657 95.7937 34.0657 91.1365Z" fill="#E3AF18"/>
<path d="M50.3459 99.6177C41.3557 99.6177 34.0677 95.8379 34.0677 91.1753C34.0677 86.5127 41.3557 82.7329 50.3459 82.7329C59.336 82.7329 66.624 86.5127 66.624 91.1753C66.624 95.8379 59.336 99.6177 50.3459 99.6177Z" fill="#FEEFA3"/>
<path fill-rule="evenodd" clip-rule="evenodd" d="M33.1458 85.5022C33.1458 85.2493 33.1458 90.1148 33.1458 90.1148C33.1458 94.7769 40.4426 98.5563 49.4226 98.5563H49.5325C58.4647 98.5265 65.7041 94.7571 65.7041 90.1148C65.7041 90.1148 65.7041 85.2493 65.7041 85.5022C65.7041 90.1594 58.4073 93.9437 49.4226 93.9437C40.4426 93.9437 33.1458 90.1594 33.1458 85.5022Z" fill="#E3AF18"/>
<path d="M49.4259 93.9829C40.4358 93.9829 33.1478 90.2031 33.1478 85.5405C33.1478 80.8779 40.4358 77.0981 49.4259 77.0981C58.4161 77.0981 65.7041 80.8779 65.7041 85.5405C65.7041 90.2031 58.4161 93.9829 49.4259 93.9829Z" fill="#FEEFA3"/>
<path fill-rule="evenodd" clip-rule="evenodd" d="M34.9856 79.2927C34.9856 79.0398 34.9856 83.9053 34.9856 83.9053C34.9856 88.5675 42.2825 92.3468 51.2624 92.3468H51.3724C60.3045 92.3171 67.5439 88.5476 67.5439 83.9053C67.5439 83.9053 67.5439 79.0398 67.5439 79.2927C67.5439 83.95 60.2471 87.7343 51.2624 87.7343C42.2825 87.7343 34.9856 83.95 34.9856 79.2927Z" fill="#E3AF18"/>
<path d="M51.2658 87.7735C42.2756 87.7735 34.9876 83.9937 34.9876 79.3311C34.9876 74.6684 42.2756 70.8887 51.2658 70.8887C60.256 70.8887 67.5439 74.6684 67.5439 79.3311C67.5439 83.9937 60.256 87.7735 51.2658 87.7735Z" fill="#FEEFA3"/>
<path fill-rule="evenodd" clip-rule="evenodd" d="M34.0657 73.7732C34.0657 73.5203 34.0657 78.3857 34.0657 78.3857C34.0657 83.0479 41.3625 86.8272 50.3425 86.8272H50.4524C59.3846 86.7975 66.624 83.0281 66.624 78.3857C66.624 78.3857 66.624 73.5203 66.624 73.7732C66.624 78.4304 59.3272 82.2147 50.3425 82.2147C41.3625 82.2147 34.0657 78.4304 34.0657 73.7732Z" fill="#E3AF18"/>
<path d="M50.3459 82.2535C41.3557 82.2535 34.0677 78.4736 34.0677 73.811C34.0677 69.1484 41.3557 65.3687 50.3459 65.3687C59.336 65.3687 66.624 69.1484 66.624 73.811C66.624 78.4736 59.336 82.2535 50.3459 82.2535Z" fill="#FEEFA3"/>
<path fill-rule="evenodd" clip-rule="evenodd" d="M32.2259 68.1384C32.2259 67.8855 32.2259 72.751 32.2259 72.751C32.2259 77.4132 39.5227 81.1926 48.5026 81.1926H48.6126C57.5447 81.1628 64.7842 77.3934 64.7842 72.751C64.7842 72.751 64.7842 67.8855 64.7842 68.1384C64.7842 72.7957 57.4874 76.58 48.5026 76.58C39.5227 76.58 32.2259 72.7957 32.2259 68.1384Z" fill="#E3AF18"/>
<path d="M48.506 76.6197C39.5158 76.6197 32.2279 72.8399 32.2279 68.1772C32.2279 63.5146 39.5158 59.7349 48.506 59.7349C57.4962 59.7349 64.7842 63.5146 64.7842 68.1772C64.7842 72.8399 57.4962 76.6197 48.506 76.6197Z" fill="#FEEFA3"/>
<path fill-rule="evenodd" clip-rule="evenodd" d="M34.0657 61.929C34.0657 61.676 34.0657 66.5415 34.0657 66.5415C34.0657 71.2037 41.3625 74.9831 50.3425 74.9831H50.4524C59.3846 74.9533 66.624 71.1839 66.624 66.5415C66.624 66.5415 66.624 61.676 66.624 61.929C66.624 66.5862 59.3272 70.3705 50.3425 70.3705C41.3625 70.3705 34.0657 66.5862 34.0657 61.929Z" fill="#E3AF18"/>
<path d="M50.3459 70.4102C41.3557 70.4102 34.0677 66.6304 34.0677 61.9678C34.0677 57.3052 41.3557 53.5254 50.3459 53.5254C59.336 53.5254 66.624 57.3052 66.624 61.9678C66.624 66.6304 59.336 70.4102 50.3459 70.4102Z" fill="#FEEFA3"/>
<path fill-rule="evenodd" clip-rule="evenodd" d="M32.2259 55.6047C32.2259 55.3518 32.2259 60.2173 32.2259 60.2173C32.2259 64.8795 39.5227 68.6589 48.5026 68.6589H48.6126C57.5447 68.6291 64.7842 64.8597 64.7842 60.2173C64.7842 60.2173 64.7842 55.3518 64.7842 55.6047C64.7842 60.262 57.4874 64.0463 48.5026 64.0463C39.5227 64.0463 32.2259 60.262 32.2259 55.6047Z" fill="#E3AF18"/>
<path d="M48.506 64.0855C39.5158 64.0855 32.2279 60.3057 32.2279 55.6431C32.2279 50.9805 39.5158 47.2007 48.506 47.2007C57.4962 47.2007 64.7842 50.9805 64.7842 55.6431C64.7842 60.3057 57.4962 64.0855 48.506 64.0855Z" fill="#FEEFA3"/>
<path fill-rule="evenodd" clip-rule="evenodd" d="M62.9155 56.1464C62.9347 55.9771 62.9443 55.8079 62.9443 55.6486C62.9443 51.6163 56.6379 48.3506 48.8725 48.3506C41.1072 48.3506 34.8011 51.6163 34.8011 55.6486C34.8011 55.8079 34.8201 55.9771 34.8393 56.1464C35.3289 52.3431 41.4335 49.3462 48.8725 49.3462C56.3211 49.3462 62.4163 52.3431 62.9155 56.1464Z" fill="#F6CA12"/>
<path fill-rule="evenodd" clip-rule="evenodd" d="M0.948535 131.728C0.948535 131.475 0.948535 136.341 0.948535 136.341C0.948535 141.003 8.24535 144.782 17.2253 144.782H17.3353C26.2674 144.753 33.5068 140.983 33.5068 136.341C33.5068 136.341 33.5068 131.475 33.5068 131.728C33.5068 136.386 26.21 140.17 17.2253 140.17C8.24535 140.17 0.948535 136.386 0.948535 131.728Z" fill="#F6CA12"/>
<path d="M17.2287 140.094C8.23849 140.094 0.950513 136.314 0.950513 131.652C0.950513 126.989 8.23849 123.209 17.2287 123.209C26.2188 123.209 33.5068 126.989 33.5068 131.652C33.5068 136.314 26.2188 140.094 17.2287 140.094Z" fill="#FEEFA3"/>
<path fill-rule="evenodd" clip-rule="evenodd" d="M3.7083 127.129C3.7083 126.876 3.7083 131.741 3.7083 131.741C3.7083 136.403 11.0051 140.183 19.9851 140.183H20.095C29.0272 140.153 36.2666 136.384 36.2666 131.741C36.2666 131.741 36.2666 126.876 36.2666 127.129C36.2666 131.786 28.9698 135.57 19.9851 135.57C11.0051 135.57 3.7083 131.786 3.7083 127.129Z" fill="#F6CA12"/>
<path d="M19.9884 135.495C10.9983 135.495 3.71028 131.715 3.71028 127.052C3.71028 122.39 10.9983 118.61 19.9884 118.61C28.9786 118.61 36.2666 122.39 36.2666 127.052C36.2666 131.715 28.9786 135.495 19.9884 135.495Z" fill="#FEEFA3"/>
<path fill-rule="evenodd" clip-rule="evenodd" d="M2.78838 121.494C2.78838 121.241 2.78838 126.106 2.78838 126.106C2.78838 130.769 10.0852 134.548 19.0651 134.548H19.1751C28.1072 134.518 35.3467 130.749 35.3467 126.106C35.3467 126.106 35.3467 121.241 35.3467 121.494C35.3467 126.151 28.0499 129.935 19.0651 129.935C10.0852 129.935 2.78838 126.151 2.78838 121.494Z" fill="#F6CA12"/>
<path d="M19.0685 129.975C10.0783 129.975 2.79036 126.195 2.79036 121.533C2.79036 116.87 10.0783 113.09 19.0685 113.09C28.0587 113.09 35.3467 116.87 35.3467 121.533C35.3467 126.195 28.0587 129.975 19.0685 129.975Z" fill="#FEEFA3"/>
<path fill-rule="evenodd" clip-rule="evenodd" d="M3.7083 115.284C3.7083 115.031 3.7083 119.897 3.7083 119.897C3.7083 124.559 11.0051 128.339 19.9851 128.339H20.095C29.0272 128.309 36.2666 124.539 36.2666 119.897C36.2666 119.897 36.2666 115.031 36.2666 115.284C36.2666 119.942 28.9698 123.726 19.9851 123.726C11.0051 123.726 3.7083 119.942 3.7083 115.284Z" fill="#F6CA12"/>
<path d="M19.9884 123.766C10.9983 123.766 3.71028 119.986 3.71028 115.323C3.71028 110.661 10.9983 106.881 19.9884 106.881C28.9786 106.881 36.2666 110.661 36.2666 115.323C36.2666 119.986 28.9786 123.766 19.9884 123.766Z" fill="#FEEFA3"/>
<path fill-rule="evenodd" clip-rule="evenodd" d="M2.78838 109.765C2.78838 109.512 2.78838 114.377 2.78838 114.377C2.78838 119.04 10.0852 122.819 19.0651 122.819H19.1751C28.1072 122.789 35.3467 119.02 35.3467 114.377C35.3467 114.377 35.3467 109.512 35.3467 109.765C35.3467 114.422 28.0499 118.206 19.0651 118.206C10.0852 118.206 2.78838 114.422 2.78838 109.765Z" fill="#F6CA12"/>
<path d="M19.0685 118.131C10.0783 118.131 2.79036 114.351 2.79036 109.688C2.79036 105.026 10.0783 101.246 19.0685 101.246C28.0587 101.246 35.3467 105.026 35.3467 109.688C35.3467 114.351 28.0587 118.131 19.0685 118.131Z" fill="#FEEFA3"/>
<path fill-rule="evenodd" clip-rule="evenodd" d="M1.86846 104.131C1.86846 103.878 1.86846 108.743 1.86846 108.743C1.86846 113.405 9.16527 117.185 18.1452 117.185H18.2552C27.1873 117.155 34.4268 113.386 34.4268 108.743C34.4268 108.743 34.4268 103.878 34.4268 104.131C34.4268 108.788 27.1299 112.572 18.1452 112.572C9.16527 112.572 1.86846 108.788 1.86846 104.131Z" fill="#F6CA12"/>
<path d="M18.1486 112.497C9.15841 112.497 1.87044 108.717 1.87044 104.054C1.87044 99.3916 9.15841 95.6118 18.1486 95.6118C27.1388 95.6118 34.4268 99.3916 34.4268 104.054C34.4268 108.717 27.1388 112.497 18.1486 112.497Z" fill="#FEEFA3"/>
<path fill-rule="evenodd" clip-rule="evenodd" d="M2.78838 97.9212C2.78838 97.6682 2.78838 102.534 2.78838 102.534C2.78838 107.196 10.0852 110.975 19.0651 110.975H19.1751C28.1072 110.945 35.3467 107.176 35.3467 102.534C35.3467 102.534 35.3467 97.6682 35.3467 97.9212C35.3467 102.578 28.0499 106.363 19.0651 106.363C10.0852 106.363 2.78838 102.578 2.78838 97.9212Z" fill="#F6CA12"/>
<path d="M19.0685 106.401C10.0783 106.401 2.79036 102.622 2.79036 97.959C2.79036 93.2964 10.0783 89.5166 19.0685 89.5166C28.0587 89.5166 35.3467 93.2964 35.3467 97.959C35.3467 102.622 28.0587 106.401 19.0685 106.401Z" fill="#FEEFA3"/>
<path fill-rule="evenodd" clip-rule="evenodd" d="M1.86846 91.5964C1.86846 91.3435 1.86846 96.209 1.86846 96.209C1.86846 100.871 9.16527 104.651 18.1452 104.651H18.2552C27.1873 104.621 34.4268 100.851 34.4268 96.209C34.4268 96.209 34.4268 91.3435 34.4268 91.5964C34.4268 96.2537 27.1299 100.038 18.1452 100.038C9.16527 100.038 1.86846 96.2537 1.86846 91.5964Z" fill="#F6CA12"/>
<path d="M18.1486 100.078C9.15841 100.078 1.87044 96.2979 1.87044 91.6353C1.87044 86.9726 9.15841 83.1929 18.1486 83.1929C27.1388 83.1929 34.4268 86.9726 34.4268 91.6353C34.4268 96.2979 27.1388 100.078 18.1486 100.078Z" fill="#FEEFA3"/>
<path fill-rule="evenodd" clip-rule="evenodd" d="M32.558 92.1386C32.5772 91.9694 32.5869 91.8001 32.5869 91.6408C32.5869 87.6085 26.2804 84.3428 18.5151 84.3428C10.7498 84.3428 4.44367 87.6085 4.44367 91.6408C4.44367 91.8001 4.46271 91.9694 4.48191 92.1386C4.97144 88.3353 11.0761 85.3384 18.5151 85.3384C25.9637 85.3384 32.0589 88.3353 32.558 92.1386Z" fill="#F6CA12"/>
<path fill-rule="evenodd" clip-rule="evenodd" d="M43.2649 140.122C43.2649 139.869 43.2649 144.735 43.2649 144.735C43.2649 149.397 50.5618 153.176 59.5417 153.176H59.6517C68.5838 153.147 75.8232 149.377 75.8232 144.735C75.8232 144.735 75.8232 139.869 75.8232 140.122C75.8232 144.78 68.5264 148.564 59.5417 148.564C50.5618 148.564 43.2649 144.78 43.2649 140.122Z" fill="#F6CA12"/>
<path d="M59.5451 148.604C50.5549 148.604 43.2669 144.824 43.2669 140.161C43.2669 135.499 50.5549 131.719 59.5451 131.719C68.5353 131.719 75.8232 135.499 75.8232 140.161C75.8232 144.824 68.5353 148.604 59.5451 148.604Z" fill="#FEEFA3"/>
<path fill-rule="evenodd" clip-rule="evenodd" d="M44.1849 134.603C44.1849 134.35 44.1849 139.215 44.1849 139.215C44.1849 143.878 51.4817 147.657 60.4616 147.657H60.5716C69.5037 147.627 76.7432 143.858 76.7432 139.215C76.7432 139.215 76.7432 134.35 76.7432 134.603C76.7432 139.26 69.4463 143.044 60.4616 143.044C51.4817 143.044 44.1849 139.26 44.1849 134.603Z" fill="#F6CA12"/>
<path d="M60.465 142.969C51.4748 142.969 44.1868 139.189 44.1868 134.526C44.1868 129.864 51.4748 126.084 60.465 126.084C69.4552 126.084 76.7432 129.864 76.7432 134.526C76.7432 139.189 69.4552 142.969 60.465 142.969Z" fill="#FEEFA3"/>
<path fill-rule="evenodd" clip-rule="evenodd" d="M43.2649 128.969C43.2649 128.716 43.2649 133.581 43.2649 133.581C43.2649 138.243 50.5618 142.023 59.5417 142.023H59.6517C68.5838 141.993 75.8232 138.223 75.8232 133.581C75.8232 133.581 75.8232 128.716 75.8232 128.969C75.8232 133.626 68.5264 137.41 59.5417 137.41C50.5618 137.41 43.2649 133.626 43.2649 128.969Z" fill="#F6CA12"/>
<path d="M59.5451 137.449C50.5549 137.449 43.2669 133.669 43.2669 129.007C43.2669 124.344 50.5549 120.564 59.5451 120.564C68.5353 120.564 75.8232 124.344 75.8232 129.007C75.8232 133.669 68.5353 137.449 59.5451 137.449Z" fill="#FEEFA3"/>
<path fill-rule="evenodd" clip-rule="evenodd" d="M44.1849 122.759C44.1849 122.506 44.1849 127.372 44.1849 127.372C44.1849 132.034 51.4817 135.813 60.4616 135.813H60.5716C69.5037 135.783 76.7432 132.014 76.7432 127.372C76.7432 127.372 76.7432 122.506 76.7432 122.759C76.7432 127.416 69.4463 131.201 60.4616 131.201C51.4817 131.201 44.1849 127.416 44.1849 122.759Z" fill="#F6CA12"/>
<path d="M60.465 131.24C51.4748 131.24 44.1868 127.46 44.1868 122.797C44.1868 118.135 51.4748 114.355 60.465 114.355C69.4552 114.355 76.7432 118.135 76.7432 122.797C76.7432 127.46 69.4552 131.24 60.465 131.24Z" fill="#FEEFA3"/>
<path fill-rule="evenodd" clip-rule="evenodd" d="M43.2649 116.434C43.2649 116.181 43.2649 121.047 43.2649 121.047C43.2649 125.709 50.5618 129.488 59.5417 129.488H59.6517C68.5838 129.459 75.8232 125.689 75.8232 121.047C75.8232 121.047 75.8232 116.181 75.8232 116.434C75.8232 121.092 68.5264 124.876 59.5417 124.876C50.5618 124.876 43.2649 121.092 43.2649 116.434Z" fill="#F6CA12"/>
<path d="M59.5451 124.916C50.5549 124.916 43.2669 121.136 43.2669 116.473C43.2669 111.811 50.5549 108.031 59.5451 108.031C68.5353 108.031 75.8232 111.811 75.8232 116.473C75.8232 121.136 68.5353 124.916 59.5451 124.916Z" fill="#FEEFA3"/>
<path fill-rule="evenodd" clip-rule="evenodd" d="M73.0346 116.976C73.0538 116.807 73.0635 116.638 73.0635 116.479C73.0635 112.446 66.757 109.181 58.9917 109.181C51.2263 109.181 44.9202 112.446 44.9202 116.479C44.9202 116.638 44.9393 116.807 44.9585 116.976C45.448 113.173 51.5527 110.176 58.9917 110.176C66.4402 110.176 72.5355 113.173 73.0346 116.976Z" fill="#F6CA12"/>
</svg>
