<svg width="141" height="144" viewBox="0 0 141 144" fill="none" xmlns="http://www.w3.org/2000/svg">
<path fill-rule="evenodd" clip-rule="evenodd" d="M42.624 129.348H79.16L125.213 106.317L75.8546 81.6431L42.624 129.348Z" fill="#E4E9EF"/>
<path fill-rule="evenodd" clip-rule="evenodd" d="M43.7419 110.915C42.7635 111.745 41.7683 112.525 40.7565 113.253L41.1913 113.635L35.2122 127.992L14.6826 117.724C5.969 113.37 0.307617 102.104 0.307617 86.2078C0.307617 85.7345 0.315996 85.2612 0.324358 84.7862L0.307617 84.7937V34.9079L17.7599 26.1809V43.6349L19.5411 44.5247L28.3132 94.1922C30.4289 94.387 32.762 93.9146 35.2122 92.6886C44.8457 87.8719 52.6728 73.2369 52.6728 60.0268C52.6728 59.5527 52.6561 59.0861 52.6394 58.6286L52.6728 58.6136V8.72698L70.1251 0V9.15095L89.3586 9.61674L71.0116 93.8577L49.5537 120.617L43.7419 110.915Z" fill="#ADB6C1"/>
<path fill-rule="evenodd" clip-rule="evenodd" d="M19.626 44.501L37.0787 35.7746V85.6604L37.1092 85.6452C37.0909 86.1226 37.0787 86.5995 37.0787 87.0745C37.0787 100.284 44.9025 107.097 54.5313 102.282C64.1663 97.4647 71.9901 82.828 71.9901 69.6188C71.9901 69.1438 71.978 68.6791 71.9597 68.2199L71.9901 68.2047V18.3189L89.4428 9.59257V59.4784L89.4245 59.4875C89.4367 59.9514 89.4428 60.4191 89.4428 60.8924C89.4428 87.3117 73.8012 116.582 54.5313 126.217C35.2675 135.849 19.626 122.22 19.626 95.8009C19.626 95.3275 19.6321 94.8537 19.6382 94.3807L19.626 94.3868V44.501Z" fill="#4A525A"/>
<path fill-rule="evenodd" clip-rule="evenodd" d="M70.1955 0L89.4289 9.61674L71.9766 18.3437L52.7432 8.72699L70.1955 0Z" fill="#CCD2D9"/>
<path fill-rule="evenodd" clip-rule="evenodd" d="M17.7599 26.2178L36.9934 35.8345L19.5411 44.5615L0.307617 34.9447L17.7599 26.2178Z" fill="#FBCED0"/>
<path fill-rule="evenodd" clip-rule="evenodd" d="M19.5411 94.4473L19.5578 94.4398C19.5495 94.9147 19.5411 95.3881 19.5411 95.8614C19.5411 112.55 25.7794 124.135 35.2373 127.977L35.2122 128.029L14.6826 117.761C5.969 113.407 0.307617 102.141 0.307617 86.2446C0.307617 85.7713 0.315996 85.298 0.324358 84.823L0.307617 84.8305V34.9448L17.7599 26.2178V43.6717L19.5411 44.5615V94.4473ZM37.8296 94.0308L54.4457 102.342C46.677 106.228 40.0791 102.541 37.8296 94.0308Z" fill="#F7A6A3"/>
<path fill-rule="evenodd" clip-rule="evenodd" d="M54.5306 126.203C35.272 135.837 19.626 122.208 19.626 95.7886C19.626 95.3153 19.6344 94.8419 19.6427 94.367L19.626 94.3745V44.4887L37.0783 35.7617V85.6475L37.1118 85.6325C37.0867 86.1108 37.0783 86.5866 37.0783 87.0616C37.0783 100.272 44.8971 107.085 54.5306 102.269V126.203Z" fill="#F1595F"/>
<path fill-rule="evenodd" clip-rule="evenodd" d="M17.7599 26.1035L36.9934 35.7202L19.5411 44.4472L0.307617 34.8305L17.7599 26.1035Z" fill="#FBCED0"/>
<path fill-rule="evenodd" clip-rule="evenodd" d="M79.4209 136.195C84.2678 137.182 92.5799 137.972 97.8435 135.779L111.792 129.528C117.144 130.143 124.403 131.042 131.816 127.269L138.549 123.914C143.045 120.229 139.185 114.944 132.934 112.619C126.596 110.25 121.727 111.215 118.547 109.943C112.472 107.531 106.353 102.881 100.125 100.732L79.6841 110.952L79.4209 136.195Z" fill="#E4E9EF"/>
<path fill-rule="evenodd" clip-rule="evenodd" d="M103.025 104.994C103.025 104.796 103.025 108.598 103.025 108.598C103.025 112.242 97.3226 115.195 90.3049 115.195H90.219C83.2386 115.172 77.5811 112.226 77.5811 108.598C77.5811 108.598 77.5811 104.796 77.5811 104.994C77.5811 108.633 83.2834 111.591 90.3049 111.591C97.3226 111.591 103.025 108.633 103.025 104.994Z" fill="#E3AF18"/>
<path d="M90.3023 111.512C97.328 111.512 103.023 108.558 103.023 104.915C103.023 101.271 97.328 98.3169 90.3023 98.3169C83.2765 98.3169 77.5811 101.271 77.5811 104.915C77.5811 108.558 83.2765 111.512 90.3023 111.512Z" fill="#FEEFA3"/>
<path fill-rule="evenodd" clip-rule="evenodd" d="M103.945 100.624C103.945 100.426 103.945 104.229 103.945 104.229C103.945 107.872 98.2426 110.826 91.2248 110.826H91.1389C84.1585 110.802 78.501 107.857 78.501 104.229C78.501 104.229 78.501 100.426 78.501 100.624C78.501 104.264 84.2034 107.221 91.2248 107.221C98.2426 107.221 103.945 104.264 103.945 100.624Z" fill="#E3AF18"/>
<path d="M91.2222 107.143C98.2479 107.143 103.943 104.189 103.943 100.545C103.943 96.9011 98.2479 93.9473 91.2222 93.9473C84.1965 93.9473 78.501 96.9011 78.501 100.545C78.501 104.189 84.1965 107.143 91.2222 107.143Z" fill="#FEEFA3"/>
<path fill-rule="evenodd" clip-rule="evenodd" d="M102.105 95.6798C102.105 95.4821 102.105 99.2845 102.105 99.2845C102.105 102.928 96.4027 105.881 89.385 105.881H89.299C82.3187 105.858 76.6611 102.912 76.6611 99.2845C76.6611 99.2845 76.6611 95.4821 76.6611 95.6798C76.6611 99.3194 82.3635 102.277 89.385 102.277C96.4027 102.277 102.105 99.3194 102.105 95.6798Z" fill="#E3AF18"/>
<path d="M89.3823 102.313C96.408 102.313 102.104 99.3591 102.104 95.7153C102.104 92.0715 96.408 89.1177 89.3823 89.1177C82.3566 89.1177 76.6611 92.0715 76.6611 95.7153C76.6611 99.3591 82.3566 102.313 89.3823 102.313Z" fill="#FEEFA3"/>
<path fill-rule="evenodd" clip-rule="evenodd" d="M103.025 91.4249C103.025 91.2273 103.025 95.0296 103.025 95.0296C103.025 98.673 97.3226 101.627 90.3049 101.627H90.219C83.2386 101.603 77.5811 98.6575 77.5811 95.0296C77.5811 95.0296 77.5811 91.2273 77.5811 91.4249C77.5811 95.0645 83.2834 98.0219 90.3049 98.0219C97.3226 98.0219 103.025 95.0645 103.025 91.4249Z" fill="#E3AF18"/>
<path d="M90.3023 97.9433C97.328 97.9433 103.023 94.9894 103.023 91.3457C103.023 87.7019 97.328 84.748 90.3023 84.748C83.2765 84.748 77.5811 87.7019 77.5811 91.3457C77.5811 94.9894 83.2765 97.9433 90.3023 97.9433Z" fill="#FEEFA3"/>
<path fill-rule="evenodd" clip-rule="evenodd" d="M102.105 87.8605C102.105 87.6628 102.105 91.4651 102.105 91.4651C102.105 95.1086 96.4027 98.0621 89.385 98.0621H89.299C82.3187 98.0388 76.6611 95.0931 76.6611 91.4651C76.6611 91.4651 76.6611 87.6628 76.6611 87.8605C76.6611 91.5 82.3635 94.4574 89.385 94.4574C96.4027 94.4574 102.105 91.5 102.105 87.8605Z" fill="#E3AF18"/>
<path d="M89.3823 94.3789C96.408 94.3789 102.104 91.425 102.104 87.7812C102.104 84.1374 96.408 81.1836 89.3823 81.1836C82.3566 81.1836 76.6611 84.1374 76.6611 87.7812C76.6611 91.425 82.3566 94.3789 89.3823 94.3789Z" fill="#FEEFA3"/>
<path fill-rule="evenodd" clip-rule="evenodd" d="M102.105 83.3756C102.105 83.1779 102.105 86.9803 102.105 86.9803C102.105 90.6237 96.4027 93.5772 89.385 93.5772H89.299C82.3187 93.554 76.6611 90.6082 76.6611 86.9803C76.6611 86.9803 76.6611 83.1779 76.6611 83.3756C76.6611 87.0152 82.3635 89.9726 89.385 89.9726C96.4027 89.9726 102.105 87.0152 102.105 83.3756Z" fill="#E3AF18"/>
<path d="M89.3823 90.0092C96.408 90.0092 102.104 87.0554 102.104 83.4116C102.104 79.7678 96.408 76.814 89.3823 76.814C82.3566 76.814 76.6611 79.7678 76.6611 83.4116C76.6611 87.0554 82.3566 90.0092 89.3823 90.0092Z" fill="#FEEFA3"/>
<path fill-rule="evenodd" clip-rule="evenodd" d="M101.185 78.546C101.185 78.3483 101.185 82.1507 101.185 82.1507C101.185 85.7941 95.4828 88.7476 88.4651 88.7476H88.3791C81.3988 88.7244 75.7412 85.7786 75.7412 82.1507C75.7412 82.1507 75.7412 78.3483 75.7412 78.546C75.7412 82.1856 81.4436 85.143 88.4651 85.143C95.4828 85.143 101.185 82.1856 101.185 78.546Z" fill="#E3AF18"/>
<path d="M88.4624 85.1796C95.4881 85.1796 101.184 82.2258 101.184 78.582C101.184 74.9382 95.4881 71.9844 88.4624 71.9844C81.4367 71.9844 75.7412 74.9382 75.7412 78.582C75.7412 82.2258 81.4367 85.1796 88.4624 85.1796Z" fill="#FEEFA3"/>
<path fill-rule="evenodd" clip-rule="evenodd" d="M102.105 74.1764C102.105 73.9787 102.105 77.781 102.105 77.781C102.105 81.4245 96.4027 84.378 89.385 84.378H89.299C82.3187 84.3547 76.6611 81.409 76.6611 77.781C76.6611 77.781 76.6611 73.9787 76.6611 74.1764C76.6611 77.816 82.3635 80.7733 89.385 80.7733C96.4027 80.7733 102.105 77.816 102.105 74.1764Z" fill="#E3AF18"/>
<path d="M89.3823 80.81C96.408 80.81 102.104 77.8561 102.104 74.2124C102.104 70.5686 96.408 67.6147 89.3823 67.6147C82.3566 67.6147 76.6611 70.5686 76.6611 74.2124C76.6611 77.8561 82.3566 80.81 89.3823 80.81Z" fill="#FEEFA3"/>
<path fill-rule="evenodd" clip-rule="evenodd" d="M103.025 69.8068C103.025 69.6091 103.025 73.4114 103.025 73.4114C103.025 77.0548 97.3226 80.0084 90.3049 80.0084H90.219C83.2386 79.9851 77.5811 77.0393 77.5811 73.4114C77.5811 73.4114 77.5811 69.6091 77.5811 69.8068C77.5811 73.4463 83.2834 76.4037 90.3049 76.4037C97.3226 76.4037 103.025 73.4463 103.025 69.8068Z" fill="#E3AF18"/>
<path d="M90.3023 76.4404C97.328 76.4404 103.023 73.4865 103.023 69.8427C103.023 66.199 97.328 63.2451 90.3023 63.2451C83.2765 63.2451 77.5811 66.199 77.5811 69.8427C77.5811 73.4865 83.2765 76.4404 90.3023 76.4404Z" fill="#FEEFA3"/>
<path fill-rule="evenodd" clip-rule="evenodd" d="M102.105 64.9772C102.105 64.7795 102.105 68.5818 102.105 68.5818C102.105 72.2253 96.4027 75.1788 89.385 75.1788H89.299C82.3187 75.1555 76.6611 72.2098 76.6611 68.5818C76.6611 68.5818 76.6611 64.7795 76.6611 64.9772C76.6611 68.6167 82.3635 71.5741 89.385 71.5741C96.4027 71.5741 102.105 68.6167 102.105 64.9772Z" fill="#E3AF18"/>
<path d="M89.3823 71.6108C96.408 71.6108 102.104 68.6569 102.104 65.0131C102.104 61.3694 96.408 58.4155 89.3823 58.4155C82.3566 58.4155 76.6611 61.3694 76.6611 65.0131C76.6611 68.6569 82.3566 71.6108 89.3823 71.6108Z" fill="#FEEFA3"/>
<path fill-rule="evenodd" clip-rule="evenodd" d="M103.025 60.0328C103.025 59.8352 103.025 63.6375 103.025 63.6375C103.025 67.2809 97.3226 70.2344 90.3049 70.2344H90.219C83.2386 70.2112 77.5811 67.2654 77.5811 63.6375C77.5811 63.6375 77.5811 59.8352 77.5811 60.0328C77.5811 63.6724 83.2834 66.6298 90.3049 66.6298C97.3226 66.6298 103.025 63.6724 103.025 60.0328Z" fill="#E3AF18"/>
<path d="M90.3023 66.666C97.328 66.666 103.023 63.7121 103.023 60.0683C103.023 56.4246 97.328 53.4707 90.3023 53.4707C83.2765 53.4707 77.5811 56.4246 77.5811 60.0683C77.5811 63.7121 83.2765 66.666 90.3023 66.666Z" fill="#FEEFA3"/>
<path fill-rule="evenodd" clip-rule="evenodd" d="M79.4435 60.483C79.4285 60.3507 79.4209 60.2184 79.4209 60.0939C79.4209 56.9427 84.3493 54.3906 90.4178 54.3906C96.4864 54.3906 101.415 56.9427 101.415 60.0939C101.415 60.2184 101.4 60.3507 101.385 60.483C101.002 57.5107 96.2313 55.1687 90.4178 55.1687C84.5969 55.1687 79.8335 57.5107 79.4435 60.483Z" fill="#F6CA12"/>
<path fill-rule="evenodd" clip-rule="evenodd" d="M126.943 119.483C126.943 119.285 126.943 123.087 126.943 123.087C126.943 126.731 121.241 129.684 114.223 129.684H114.137C107.157 129.661 101.499 126.715 101.499 123.087C101.499 123.087 101.499 119.285 101.499 119.483C101.499 123.122 107.201 126.079 114.223 126.079C121.241 126.079 126.943 123.122 126.943 119.483Z" fill="#F6CA12"/>
<path d="M114.22 126.116C121.246 126.116 126.941 123.162 126.941 119.519C126.941 115.875 121.246 112.921 114.22 112.921C107.195 112.921 101.499 115.875 101.499 119.519C101.499 123.162 107.195 126.116 114.22 126.116Z" fill="#FEEFA3"/>
<path fill-rule="evenodd" clip-rule="evenodd" d="M126.023 115.918C126.023 115.72 126.023 119.523 126.023 119.523C126.023 123.166 120.321 126.12 113.303 126.12H113.217C106.237 126.096 100.579 123.151 100.579 119.523C100.579 119.523 100.579 115.72 100.579 115.918C100.579 119.558 106.281 122.515 113.303 122.515C120.321 122.515 126.023 119.558 126.023 115.918Z" fill="#F6CA12"/>
<path d="M113.3 122.551C120.326 122.551 126.021 119.597 126.021 115.954C126.021 112.31 120.326 109.356 113.3 109.356C106.275 109.356 100.579 112.31 100.579 115.954C100.579 119.597 106.275 122.551 113.3 122.551Z" fill="#FEEFA3"/>
<path fill-rule="evenodd" clip-rule="evenodd" d="M126.943 111.548C126.943 111.351 126.943 115.153 126.943 115.153C126.943 118.797 121.241 121.75 114.223 121.75H114.137C107.157 121.727 101.499 118.781 101.499 115.153C101.499 115.153 101.499 111.351 101.499 111.548C101.499 115.188 107.201 118.145 114.223 118.145C121.241 118.145 126.943 115.188 126.943 111.548Z" fill="#F6CA12"/>
<path d="M114.22 118.067C121.246 118.067 126.941 115.113 126.941 111.469C126.941 107.825 121.246 104.872 114.22 104.872C107.195 104.872 101.499 107.825 101.499 111.469C101.499 115.113 107.195 118.067 114.22 118.067Z" fill="#FEEFA3"/>
<path fill-rule="evenodd" clip-rule="evenodd" d="M125.103 106.719C125.103 106.521 125.103 110.324 125.103 110.324C125.103 113.967 119.401 116.92 112.383 116.92H112.297C105.317 116.897 99.6592 113.951 99.6592 110.324C99.6592 110.324 99.6592 106.521 99.6592 106.719C99.6592 110.358 105.362 113.316 112.383 113.316C119.401 113.316 125.103 110.358 125.103 106.719Z" fill="#F6CA12"/>
<path d="M112.38 113.237C119.406 113.237 125.102 110.283 125.102 106.64C125.102 102.996 119.406 100.042 112.38 100.042C105.355 100.042 99.6592 102.996 99.6592 106.64C99.6592 110.283 105.355 113.237 112.38 113.237Z" fill="#FEEFA3"/>
<path fill-rule="evenodd" clip-rule="evenodd" d="M126.023 102.349C126.023 102.152 126.023 105.954 126.023 105.954C126.023 109.597 120.321 112.551 113.303 112.551H113.217C106.237 112.528 100.579 109.582 100.579 105.954C100.579 105.954 100.579 102.152 100.579 102.349C100.579 105.989 106.281 108.946 113.303 108.946C120.321 108.946 126.023 105.989 126.023 102.349Z" fill="#F6CA12"/>
<path d="M113.3 108.982C120.326 108.982 126.021 106.028 126.021 102.384C126.021 98.7405 120.326 95.7866 113.3 95.7866C106.275 95.7866 100.579 98.7405 100.579 102.384C100.579 106.028 106.275 108.982 113.3 108.982Z" fill="#FEEFA3"/>
<path fill-rule="evenodd" clip-rule="evenodd" d="M126.943 97.9796C126.943 97.7819 126.943 101.584 126.943 101.584C126.943 105.228 121.241 108.181 114.223 108.181H114.137C107.157 108.158 101.499 105.212 101.499 101.584C101.499 101.584 101.499 97.7819 101.499 97.9796C101.499 101.619 107.201 104.577 114.223 104.577C121.241 104.577 126.943 101.619 126.943 97.9796Z" fill="#F6CA12"/>
<path d="M114.22 104.498C121.246 104.498 126.941 101.544 126.941 97.9004C126.941 94.2566 121.246 91.3027 114.22 91.3027C107.195 91.3027 101.499 94.2566 101.499 97.9004C101.499 101.544 107.195 104.498 114.22 104.498Z" fill="#FEEFA3"/>
<path fill-rule="evenodd" clip-rule="evenodd" d="M126.023 93.0348C126.023 92.8371 126.023 96.6394 126.023 96.6394C126.023 100.283 120.321 103.236 113.303 103.236H113.217C106.237 103.213 100.579 100.267 100.579 96.6394C100.579 96.6394 100.579 92.8371 100.579 93.0348C100.579 96.6744 106.281 99.6317 113.303 99.6317C120.321 99.6317 126.023 96.6744 126.023 93.0348Z" fill="#F6CA12"/>
<path d="M113.3 99.6684C120.326 99.6684 126.021 96.7145 126.021 93.0708C126.021 89.427 120.326 86.4731 113.3 86.4731C106.275 86.4731 100.579 89.427 100.579 93.0708C100.579 96.7145 106.275 99.6684 113.3 99.6684Z" fill="#FEEFA3"/>
<path fill-rule="evenodd" clip-rule="evenodd" d="M126.943 88.2052C126.943 88.0075 126.943 91.8099 126.943 91.8099C126.943 95.4533 121.241 98.4068 114.223 98.4068H114.137C107.157 98.3835 101.499 95.4378 101.499 91.8099C101.499 91.8099 101.499 88.0075 101.499 88.2052C101.499 91.8448 107.201 94.8022 114.223 94.8022C121.241 94.8022 126.943 91.8448 126.943 88.2052Z" fill="#F6CA12"/>
<path d="M114.22 94.7236C121.246 94.7236 126.941 91.7697 126.941 88.1259C126.941 84.4822 121.246 81.5283 114.22 81.5283C107.195 81.5283 101.499 84.4822 101.499 88.1259C101.499 91.7697 107.195 94.7236 114.22 94.7236Z" fill="#FEEFA3"/>
<path fill-rule="evenodd" clip-rule="evenodd" d="M103.361 88.5406C103.346 88.4083 103.339 88.276 103.339 88.1515C103.339 85.0004 108.267 82.4482 114.336 82.4482C120.404 82.4482 125.332 85.0004 125.332 88.1515C125.332 88.276 125.318 88.4083 125.303 88.5406C124.92 85.5684 120.149 83.2263 114.336 83.2263C108.515 83.2263 103.751 85.5684 103.361 88.5406Z" fill="#F6CA12"/>
<path fill-rule="evenodd" clip-rule="evenodd" d="M94.7457 126.152C94.7457 125.954 94.7457 129.757 94.7457 129.757C94.7457 133.4 89.0433 136.354 82.0256 136.354H81.9397C74.9593 136.33 69.3018 133.385 69.3018 129.757C69.3018 129.757 69.3018 125.954 69.3018 126.152C69.3018 129.792 75.0041 132.749 82.0256 132.749C89.0433 132.749 94.7457 129.792 94.7457 126.152Z" fill="#F6CA12"/>
<path d="M82.023 132.67C89.0487 132.67 94.7441 129.716 94.7441 126.073C94.7441 122.429 89.0487 119.475 82.023 119.475C74.9972 119.475 69.3018 122.429 69.3018 126.073C69.3018 129.716 74.9972 132.67 82.023 132.67Z" fill="#FEEFA3"/>
<path fill-rule="evenodd" clip-rule="evenodd" d="M93.8258 121.782C93.8258 121.585 93.8258 125.387 93.8258 125.387C93.8258 129.03 88.1234 131.984 81.1057 131.984H81.0197C74.0394 131.961 68.3818 129.015 68.3818 125.387C68.3818 125.387 68.3818 121.585 68.3818 121.782C68.3818 125.422 74.0842 128.379 81.1057 128.379C88.1234 128.379 93.8258 125.422 93.8258 121.782Z" fill="#F6CA12"/>
<path d="M81.103 128.301C88.1288 128.301 93.8243 125.347 93.8243 121.703C93.8243 118.059 88.1288 115.105 81.103 115.105C74.0773 115.105 68.3818 118.059 68.3818 121.703C68.3818 125.347 74.0773 128.301 81.103 128.301Z" fill="#FEEFA3"/>
<path fill-rule="evenodd" clip-rule="evenodd" d="M94.7457 117.413C94.7457 117.215 94.7457 121.017 94.7457 121.017C94.7457 124.661 89.0433 127.614 82.0256 127.614H81.9397C74.9593 127.591 69.3018 124.645 69.3018 121.017C69.3018 121.017 69.3018 117.215 69.3018 117.413C69.3018 121.052 75.0041 124.01 82.0256 124.01C89.0433 124.01 94.7457 121.052 94.7457 117.413Z" fill="#F6CA12"/>
<path d="M82.023 123.931C89.0487 123.931 94.7441 120.977 94.7441 117.333C94.7441 113.69 89.0487 110.736 82.023 110.736C74.9972 110.736 69.3018 113.69 69.3018 117.333C69.3018 120.977 74.9972 123.931 82.023 123.931Z" fill="#FEEFA3"/>
<path fill-rule="evenodd" clip-rule="evenodd" d="M93.8258 112.468C93.8258 112.271 93.8258 116.073 93.8258 116.073C93.8258 119.716 88.1234 122.67 81.1057 122.67H81.0197C74.0394 122.647 68.3818 119.701 68.3818 116.073C68.3818 116.073 68.3818 112.271 68.3818 112.468C68.3818 116.108 74.0842 119.065 81.1057 119.065C88.1234 119.065 93.8258 116.108 93.8258 112.468Z" fill="#F6CA12"/>
<path d="M81.103 119.102C88.1288 119.102 93.8243 116.148 93.8243 112.504C93.8243 108.86 88.1288 105.906 81.103 105.906C74.0773 105.906 68.3818 108.86 68.3818 112.504C68.3818 116.148 74.0773 119.102 81.103 119.102Z" fill="#FEEFA3"/>
<path fill-rule="evenodd" clip-rule="evenodd" d="M94.7457 107.639C94.7457 107.441 94.7457 111.243 94.7457 111.243C94.7457 114.887 89.0433 117.84 82.0256 117.84H81.9397C74.9593 117.817 69.3018 114.871 69.3018 111.243C69.3018 111.243 69.3018 107.441 69.3018 107.639C69.3018 111.278 75.0041 114.236 82.0256 114.236C89.0433 114.236 94.7457 111.278 94.7457 107.639Z" fill="#F6CA12"/>
<path d="M82.023 114.157C89.0487 114.157 94.7441 111.203 94.7441 107.56C94.7441 103.916 89.0487 100.962 82.023 100.962C74.9972 100.962 69.3018 103.916 69.3018 107.56C69.3018 111.203 74.9972 114.157 82.023 114.157Z" fill="#FEEFA3"/>
<path fill-rule="evenodd" clip-rule="evenodd" d="M71.1642 107.974C71.1492 107.842 71.1416 107.71 71.1416 107.585C71.1416 104.434 76.07 101.882 82.1386 101.882C88.2071 101.882 93.1352 104.434 93.1352 107.585C93.1352 107.71 93.1203 107.842 93.1053 107.974C92.7228 105.002 87.952 102.66 82.1386 102.66C76.3176 102.66 71.5542 105.002 71.1642 107.974Z" fill="#F6CA12"/>
</svg>
