<svg width="151" height="128" viewBox="0 0 151 128" fill="none" xmlns="http://www.w3.org/2000/svg">
<path fill-rule="evenodd" clip-rule="evenodd" d="M107.855 50.8796C103.676 48.7901 97.5541 48.4471 94.2057 50.1213L6.66409 93.8921C3.31569 95.5663 4.00185 98.6274 8.18082 100.717L42.8575 118.055C47.0365 120.145 52.9332 121.341 56.2816 119.666L143.822 75.896C147.171 74.2218 146.711 70.3074 142.532 68.218L107.855 50.8796Z" fill="#4A525A"/>
<path fill-rule="evenodd" clip-rule="evenodd" d="M105.445 52.132C101.549 50.184 95.8608 49.8689 92.7456 51.4265L9.92139 92.8386C6.80613 94.3963 5.63813 96.341 9.52613 98.285L44.7206 115.882C48.6086 117.826 54.2965 118.141 57.4117 116.584L140.236 75.1717C143.351 73.6141 142.721 70.7701 138.833 68.8261L105.445 52.132Z" fill="#CEE4F6"/>
<path fill-rule="evenodd" clip-rule="evenodd" d="M46.9986 86.2189C43.7963 84.6067 39.1062 84.3405 36.5345 85.6263C33.9628 86.9121 34.4773 89.2662 37.6796 90.8784L60.6516 102.444C63.8539 104.056 68.5439 104.322 71.1156 103.036C73.6872 101.75 73.1729 99.3963 69.9706 97.7841L46.9986 86.2189Z" fill="#72AADC"/>
<path fill-rule="evenodd" clip-rule="evenodd" d="M46.9986 84.1491C43.7963 82.5369 39.1062 82.2707 36.5345 83.5565C33.9628 84.8423 34.4773 87.1964 37.6796 88.8086L60.6516 100.374C63.8539 101.986 68.5439 102.252 71.1156 100.966C73.6872 99.6805 73.1729 97.3265 69.9706 95.7143L46.9986 84.1491Z" fill="#F1595F"/>
<path fill-rule="evenodd" clip-rule="evenodd" d="M35.5547 85.6562C35.5547 86.7199 36.5063 87.8854 38.3371 88.802L61.3059 100.366C64.5092 101.984 69.1982 102.244 71.7702 100.966C72.8723 100.411 73.4075 99.6646 73.4075 98.8612V100.151C73.4075 100.943 72.8723 101.69 71.7702 102.244C69.1982 103.534 64.5092 103.263 61.3059 101.656L38.3371 90.0919C36.5063 89.1641 35.5547 88.0099 35.5547 86.935V85.6562Z" fill="#F7A6A3"/>
<path d="M134.289 72.045C135.472 72.045 136.432 71.5653 136.432 70.9737C136.432 70.382 135.472 69.9023 134.289 69.9023C133.106 69.9023 132.146 70.382 132.146 70.9737C132.146 71.5653 133.106 72.045 134.289 72.045Z" fill="#4A525A"/>
<path fill-rule="evenodd" clip-rule="evenodd" d="M145.757 72.4321V80.0152C145.757 81.0512 145.213 81.9436 143.781 82.6619L56.2411 126.432C52.8927 128.104 46.7766 127.764 42.5915 125.675L7.92046 108.336C5.52451 107.139 4.27734 105.624 4.27734 104.236V96.6527C4.27734 98.0414 5.52451 99.5562 7.92046 100.753L42.5915 118.092C46.7766 120.181 52.6664 121.374 56.0148 119.702L143.554 75.9276C145.439 74.9874 145.757 73.4682 145.757 72.4321Z" fill="#77818B"/>
<path d="M12.851 108.866C11.9975 108.439 11.3055 107.204 11.3055 106.106C11.3055 105.009 11.9975 104.465 12.851 104.892C13.7046 105.319 14.3965 106.554 14.3965 107.652C14.3965 108.749 13.7046 109.293 12.851 108.866Z" fill="#4A525A"/>
<path fill-rule="evenodd" clip-rule="evenodd" d="M27.0604 113.083C27.0604 112.67 26.7834 112.206 26.4419 112.049L21.4545 109.745C21.113 109.587 20.8359 109.794 20.8359 110.208V111.71C20.8359 112.123 21.113 112.586 21.4545 112.744L26.4419 115.048C26.7834 115.206 27.0604 114.999 27.0604 114.585V113.083Z" fill="#4A525A"/>
<path fill-rule="evenodd" clip-rule="evenodd" d="M126.915 86.5416C126.915 86.1281 127.193 85.6649 127.534 85.5073L137.048 81.1123C137.389 80.9547 137.666 81.1618 137.666 81.5754V83.0772C137.666 83.4908 137.389 83.954 137.048 84.1116L127.534 88.5065C127.193 88.6642 126.915 88.457 126.915 88.0435V86.5416Z" fill="#4A525A"/>
<path fill-rule="evenodd" clip-rule="evenodd" d="M114.956 92.6359C114.956 92.2223 115.234 91.7591 115.575 91.6015L125.089 87.2065C125.43 87.0489 125.707 87.2561 125.707 87.6696V89.1715C125.707 89.585 125.43 90.0482 125.089 90.2058L115.575 94.6008C115.234 94.7584 114.956 94.5513 114.956 94.1377V92.6359Z" fill="#4A525A"/>
<path fill-rule="evenodd" clip-rule="evenodd" d="M109.486 63.8646C105.55 61.8969 99.8049 61.581 96.6585 63.1542L72.5354 75.2157C69.3889 76.789 70.0207 79.6617 73.9561 81.6294C77.8916 83.5972 83.6361 83.9126 86.7826 82.3393L110.906 70.2778C114.052 68.7046 113.421 65.8323 109.486 63.8646Z" fill="#72AADC"/>
<path fill-rule="evenodd" clip-rule="evenodd" d="M112.888 67.7178V69.7885C112.888 70.7617 112.234 71.6781 110.889 72.3457L86.7694 84.4077C83.6216 85.9805 77.8723 85.6638 73.9368 83.695C71.727 82.5861 70.557 81.2056 70.514 79.9157H70.5117V77.7658C70.5117 79.0783 71.684 80.504 73.9368 81.6242C77.8723 83.5931 83.6216 83.91 86.7694 82.3372L110.889 70.275C112.234 69.6074 112.888 68.6909 112.888 67.7178Z" fill="#5682A7"/>
<path fill-rule="evenodd" clip-rule="evenodd" d="M106.051 66.0042C103.978 64.9678 100.95 64.8024 99.2925 65.6311L78.1174 76.2186C76.46 77.0473 76.7908 78.5614 78.8637 79.5979C80.9365 80.6343 83.9642 80.7994 85.6216 79.9707L106.797 69.3832C108.454 68.5545 108.124 67.0407 106.051 66.0042Z" fill="#4A525A"/>
<path fill-rule="evenodd" clip-rule="evenodd" d="M71.59 63.1829L67.5323 61.1865C64.344 59.609 62.2324 55.3546 62.2324 49.3654C62.2324 39.7022 67.698 29.1584 74.4471 25.8358C76.9936 24.573 79.3746 24.5341 81.3414 25.5027L85.399 27.4991C83.4323 26.5305 81.0513 26.5694 78.5048 27.8322C71.7557 31.1548 66.2901 41.6986 66.2901 51.3618C66.2901 57.351 68.4017 61.6054 71.59 63.1829Z" fill="#FEEFA3"/>
<path d="M78.1111 62.9091C84.8484 59.5843 90.3101 49.0497 90.3101 39.3795C90.3101 29.7094 84.8484 24.5655 78.1111 27.8904C71.3738 31.2153 65.9121 41.7498 65.9121 51.42C65.9121 61.0902 71.3738 66.234 78.1111 62.9091Z" fill="#F6DD76"/>
<path fill-rule="evenodd" clip-rule="evenodd" d="M83.6804 30.5049C86.5274 31.6318 88.429 35.2258 88.429 40.3896C88.429 48.3278 83.936 56.9923 78.4064 59.7211C76.1302 60.8445 74.0325 60.7906 72.3516 59.7839C73.8854 60.3974 75.6924 60.2931 77.6255 59.3391C83.1586 56.6086 87.6515 47.9441 87.6515 40.0059C87.6515 35.329 86.0932 31.9396 83.6804 30.5049Z" fill="#E3AF18"/>
<path fill-rule="evenodd" clip-rule="evenodd" d="M72.6396 59.8686C70.2268 58.4322 68.6719 55.0444 68.6719 50.3666C68.6719 42.4266 73.1614 33.7649 78.6944 31.0343C80.6275 30.0803 82.4345 29.9767 83.9683 30.5899C86.3812 32.025 87.9395 35.4127 87.9395 40.0905C87.9395 48.0288 83.4465 56.6933 77.917 59.4221C75.9804 60.3778 74.1734 60.4821 72.6396 59.8686Z" fill="#F6CA12"/>
<path fill-rule="evenodd" clip-rule="evenodd" d="M101.947 41.4495L97.8897 39.4531C94.7015 37.8756 92.5898 33.6212 92.5898 27.6321C92.5898 17.9688 98.0554 7.42496 104.805 4.10241C107.351 2.83959 109.732 2.80074 111.699 3.76931L115.756 5.76571C113.79 4.79714 111.409 4.83599 108.862 6.09881C102.113 9.42136 96.6475 19.9652 96.6475 29.6284C96.6475 35.6176 98.7591 39.872 101.947 41.4495Z" fill="#FEEFA3"/>
<path d="M108.469 41.1758C115.206 37.8509 120.668 27.3163 120.668 17.6461C120.668 7.97595 115.206 2.83212 108.469 6.15701C101.731 9.4819 96.2695 20.0164 96.2695 29.6866C96.2695 39.3568 101.731 44.5006 108.469 41.1758Z" fill="#F6DD76"/>
<path fill-rule="evenodd" clip-rule="evenodd" d="M114.038 8.7715C116.885 9.8984 118.786 13.4924 118.786 18.6562C118.786 26.5944 114.293 35.2589 108.764 37.9877C106.488 39.1111 104.39 39.0572 102.709 38.0505C104.243 38.664 106.05 38.5597 107.983 37.6057C113.516 34.8752 118.009 26.2107 118.009 18.2725C118.009 13.5956 116.451 10.2062 114.038 8.7715Z" fill="#E3AF18"/>
<path fill-rule="evenodd" clip-rule="evenodd" d="M102.997 38.1352C100.584 36.6988 99.0293 33.311 99.0293 28.6332C99.0293 20.6932 103.519 12.0315 109.052 9.30091C110.985 8.34693 112.792 8.24331 114.326 8.85653C116.739 10.2916 118.297 13.6793 118.297 18.3571C118.297 26.2954 113.804 34.9599 108.274 37.6887C106.338 38.6444 104.531 38.7487 102.997 38.1352Z" fill="#F6CA12"/>
<path fill-rule="evenodd" clip-rule="evenodd" d="M86.2183 79.4948L85.0099 78.895C81.8111 77.3222 79.7109 73.0676 79.7109 67.0706C79.7109 57.4074 85.1774 46.8615 91.911 43.5462C94.4705 42.2789 96.8479 42.2449 98.8111 43.2067L102.866 45.2097C100.903 44.2366 98.5259 44.2819 95.9664 45.5378C89.2327 48.8645 83.7675 59.4103 83.7675 69.0735C83.7675 73.5317 84.9318 77.028 86.8475 79.1779L86.2183 79.4948Z" fill="#FEEFA3"/>
<path fill-rule="evenodd" clip-rule="evenodd" d="M86.4706 79.1357C84.555 76.9858 83.3906 73.4895 83.3906 69.0313C83.3906 59.3681 88.8559 48.8223 95.5896 45.4957C102.322 42.1803 107.787 47.3287 107.787 56.9919C107.787 61.3935 106.652 65.976 104.78 69.9816L86.4706 79.1357Z" fill="#F6DD76"/>
<path fill-rule="evenodd" clip-rule="evenodd" d="M89.9658 77.5212C89.9206 77.4985 89.8753 77.4759 89.8301 77.4533C89.8855 77.4646 89.9409 77.4873 89.9964 77.5099L89.9658 77.5212ZM100.297 72.3615C103.193 68.4125 105.129 62.8792 105.129 57.6742C105.129 52.9897 103.571 49.6065 101.161 48.1694C104.008 49.2896 105.908 52.8879 105.908 58.059C105.908 62.7661 104.324 67.7449 101.877 71.5694L100.297 72.3615Z" fill="#E3AF18"/>
<path fill-rule="evenodd" clip-rule="evenodd" d="M90.2861 77.5474C90.2306 77.5247 90.1752 77.5021 90.1198 77.4908C87.7085 76.0538 86.1504 72.6592 86.1504 67.986C86.1504 60.0427 90.6425 51.3865 96.1745 48.6483C98.1083 47.6978 99.9153 47.5959 101.451 48.2069C103.861 49.644 105.419 53.0272 105.419 57.7117C105.419 62.9167 103.483 68.4499 100.586 72.3989L90.2861 77.5474Z" fill="#F6CA12"/>
<path fill-rule="evenodd" clip-rule="evenodd" d="M142.745 69.2124C144.886 70.612 144.977 72.8395 142.981 73.8361L54.2602 118.197C52.5748 119.04 49.8959 118.762 47.5137 117.963C49.1551 118.219 50.7341 118.146 51.8707 117.582L141.698 72.6637C143.2 71.9163 143.543 70.4874 142.745 69.2124Z" fill="#F4F8FD"/>
</svg>
