<svg width="126" height="119" viewBox="0 0 126 119" fill="none" xmlns="http://www.w3.org/2000/svg">
<path fill-rule="evenodd" clip-rule="evenodd" d="M2.03138 102.386C0.913632 101.823 0.199219 100.47 0.199219 98.5452V47.314C0.199219 43.9523 2.37575 40.1452 5.06506 38.8005L81.0719 0.797318C82.2232 0.217436 83.2735 0.192158 84.1055 0.603959L87.7025 2.40247L86.61 3.74712C86.6688 4.08328 86.6941 4.43632 86.6941 4.82291V56.0542C86.6941 59.4074 84.5175 63.2228 81.8282 64.5674L7.64537 101.655L5.61986 104.176L2.03138 102.386Z" fill="#DDEAB4"/>
<path fill-rule="evenodd" clip-rule="evenodd" d="M89.6182 6.19937C89.6182 2.84005 87.4382 1.20571 84.7534 2.54812L8.74301 40.5533C6.05895 41.8953 3.87891 45.7097 3.87891 49.069V100.3C3.87891 103.656 6.05895 105.29 8.74301 103.948L84.7534 65.9432C87.4382 64.6008 89.6182 60.7864 89.6182 57.4308V6.19937Z" fill="#9ECB63"/>
<path d="M15.4841 94.0825C18.3371 92.656 20.6499 88.7243 20.6499 85.3007C20.6499 81.8772 18.3371 80.2582 15.4841 81.6847C12.6311 83.1112 10.3184 87.0429 10.3184 90.4665C10.3184 93.89 12.6311 95.509 15.4841 94.0825Z" fill="#E4E9EF"/>
<path d="M89.6164 12.0762L3.87891 54.9448V67.8267L89.6164 24.9581V12.0762Z" fill="#23292E"/>
<path fill-rule="evenodd" clip-rule="evenodd" d="M68.2728 46.1625L10.3184 75.1397V77.6609L68.2728 48.6837V46.1625ZM68.2728 43.3134L10.3184 72.2908V74.8121L68.2728 45.8263V43.3134ZM68.2728 40.4561L10.3184 69.4418V71.9547L68.2728 42.9773V40.4561Z" fill="#E4E9EF"/>
<path fill-rule="evenodd" clip-rule="evenodd" d="M89.7364 22.8623V57.4451C89.7364 60.7984 87.5597 64.6137 84.8788 65.9584L24.1172 96.3308V56.2853L24.1425 55.6634L89.7364 22.8623Z" fill="#709447"/>
<path fill-rule="evenodd" clip-rule="evenodd" d="M31.3026 64.7904L24.1172 68.3789V70.9001L31.3026 67.3032V64.7904ZM31.3026 61.933L24.1172 65.53V68.0512L31.3026 64.4542V61.933ZM31.3026 59.084L24.1172 62.681V65.1939L31.3026 61.6052V59.084Z" fill="#ADB6C1"/>
<path fill-rule="evenodd" clip-rule="evenodd" d="M89.7111 24.991L24.1172 57.7922V55.6155C24.3693 52.422 26.4368 48.9847 28.9581 47.7241L89.7111 17.3433V24.991Z" fill="#05080F"/>
<path fill-rule="evenodd" clip-rule="evenodd" d="M31.4689 114.345C30.3511 113.782 29.6367 112.429 29.6367 110.504V59.2729C29.6367 55.9113 31.8132 52.1042 34.5026 50.7595L110.509 12.7563C111.661 12.1764 112.711 12.1511 113.543 12.5629L117.14 14.3615L116.048 15.7061C116.106 16.0423 116.132 16.3953 116.132 16.7819V68.0132C116.132 71.3664 113.955 75.1818 111.266 76.5264L37.0829 113.614L35.0574 116.135L31.4689 114.345Z" fill="#97C3E8"/>
<path fill-rule="evenodd" clip-rule="evenodd" d="M119.056 18.1588C119.056 14.7995 116.876 13.1652 114.191 14.5076L38.1805 52.5128C35.4965 53.8548 33.3164 57.6692 33.3164 61.0285V112.26C33.3164 115.616 35.4965 117.25 38.1805 115.908L114.191 77.9027C116.876 76.5603 119.056 72.7459 119.056 69.3903V18.1588Z" fill="#72AADC"/>
<path fill-rule="evenodd" clip-rule="evenodd" d="M111.541 26.6567C112.306 27.4299 112.768 28.699 112.768 30.3378C112.768 31.9766 112.306 33.7162 111.541 35.2542L110.768 34.9937C111.44 33.6911 111.852 32.2035 111.852 30.8C111.852 29.3965 111.44 28.3208 110.768 27.6905L111.541 26.6567ZM110.272 28.3545C110.894 28.8839 111.272 29.8336 111.272 31.0858C111.272 32.3464 110.894 33.6742 110.272 34.834L109.473 34.5651C110.011 33.6575 110.347 32.5733 110.347 31.548C110.347 30.5311 110.011 29.7832 109.473 29.405L110.272 28.3545ZM108.986 30.0604C109.473 30.3293 109.784 30.9598 109.784 31.8338C109.784 32.7078 109.473 33.649 108.986 34.4054L108.103 34.1113C108.532 33.649 108.835 32.9515 108.835 32.3128C108.835 31.6656 108.532 31.2622 108.103 31.2286L108.986 30.0604ZM107.608 32.0354C107.986 31.8421 108.297 32.0858 108.297 32.5816C108.297 33.0691 107.986 33.6239 107.608 33.8088C107.221 34.0021 106.91 33.7583 106.91 33.2709C106.91 32.775 107.221 32.2287 107.608 32.0354Z" fill="#CEE4F6"/>
<path fill-rule="evenodd" clip-rule="evenodd" d="M52.4559 76.0709C52.2586 77.4082 51.3835 78.7803 50.3353 79.304L41.9184 83.5131C40.87 84.0367 39.9949 83.5404 39.7976 82.4004L49.2401 77.6799C49.2987 77.6526 49.3517 77.6359 49.3948 77.6025L52.4559 76.0709ZM39.7559 77.015L42.8286 75.479V79.8246L39.7559 81.3607V77.015ZM43.7773 75.0054V79.3511L48.5603 76.9589V72.6132L43.7773 75.0054ZM52.4976 70.6445V74.9902L49.5089 76.4838V72.1397L52.4976 70.6445ZM39.7976 75.9343C39.9949 74.5971 40.87 73.2249 41.9184 72.7013L50.3353 68.4922C51.3835 67.9685 52.2586 68.4649 52.4559 69.6048L48.8679 71.3989C48.8254 71.4126 48.7877 71.4323 48.7541 71.4566L43.1363 74.2647C43.094 74.2783 43.056 74.298 43.0226 74.3223L39.7976 75.9343Z" fill="#CEE4F6"/>
<path fill-rule="evenodd" clip-rule="evenodd" d="M105.266 68.2791C106.064 66.9176 107.174 65.7747 108.392 65.1612C110.838 63.9426 112.822 65.3293 112.822 68.2707C112.822 71.2038 110.838 74.5738 108.392 75.8008C107.174 76.4059 106.064 76.3724 105.266 75.8093C104.468 77.1708 103.358 78.3137 102.14 78.9272C99.6942 80.1458 97.7109 78.7591 97.7109 75.826C97.7109 72.893 99.6942 69.5146 102.14 68.2876C103.358 67.6825 104.468 67.7244 105.266 68.2791Z" fill="#CEE4F6"/>
<path d="M39.7559 93.2306V90.6731C39.7559 90.4201 39.7883 90.1793 39.8526 89.9504C39.9168 89.7356 39.9811 89.563 40.0669 89.4077C40.1526 89.2665 40.2704 89.1371 40.4097 89.0112C40.5597 88.88 40.6882 88.7737 40.8061 88.7148C40.9347 88.6364 41.0742 88.5528 41.2456 88.467C41.4171 88.3813 41.5564 88.3256 41.6742 88.2807C41.7921 88.2218 41.9313 88.1942 42.0706 88.1808C42.2207 88.162 42.3386 88.1875 42.4243 88.243C42.5208 88.2931 42.5957 88.3961 42.66 88.5467C42.7136 88.7166 42.7458 88.9251 42.7458 89.1781V91.7356C42.7458 92.0026 42.7136 92.2434 42.66 92.4528C42.5957 92.6677 42.5208 92.8599 42.4243 93.0065C42.3386 93.1477 42.2207 93.2769 42.0706 93.4081C41.9313 93.534 41.7921 93.6456 41.6742 93.7186C41.5564 93.7915 41.4171 93.8614 41.2456 93.9471C41.0742 94.0329 40.9347 94.1024 40.8061 94.1526C40.6882 94.1975 40.5597 94.2197 40.4097 94.2526C40.2704 94.266 40.1526 94.2407 40.0669 94.1852C39.9811 94.1297 39.9168 94.0071 39.8526 93.8566C39.7883 93.706 39.7559 93.4976 39.7559 93.2306ZM40.6885 90.1365V92.8486C40.6885 93.1015 40.7204 93.2541 40.7847 93.2922C40.8383 93.3497 40.9989 93.2977 41.2561 93.1691C41.5133 93.0405 41.674 92.9319 41.7383 92.8154C41.7919 92.7184 41.8241 92.5337 41.8241 92.2807V89.5687C41.8241 89.3017 41.7919 89.1633 41.7383 89.1058C41.674 89.0677 41.5133 89.1061 41.2561 89.2346C40.9989 89.3632 40.8383 89.4855 40.7847 89.5826C40.7204 89.699 40.6885 89.8695 40.6885 90.1365Z" fill="#CEE4F6"/>
<path d="M44.3555 91.1602V88.6027C44.3555 88.3498 44.3874 88.1092 44.4517 87.8803C44.5053 87.6708 44.5803 87.4929 44.6661 87.3376C44.7518 87.1964 44.8696 87.067 45.0089 86.9411C45.1589 86.8099 45.2874 86.7036 45.4053 86.6447C45.5232 86.5717 45.6733 86.4827 45.8448 86.3969C46.0162 86.3112 46.1555 86.2555 46.2734 86.2106C46.3913 86.1517 46.5198 86.1295 46.6698 86.1107C46.8198 86.0919 46.9378 86.1174 47.0235 86.1729C47.1093 86.2284 47.1844 86.3313 47.2487 86.4818C47.313 86.6464 47.345 86.855 47.345 87.108V89.6655C47.345 89.9325 47.313 90.1731 47.2487 90.3879C47.1844 90.6027 47.1093 90.7951 47.0235 90.9363C46.9378 91.0776 46.8198 91.2067 46.6698 91.3379C46.5198 91.4692 46.3913 91.5754 46.2734 91.6484C46.1555 91.7214 46.0162 91.7913 45.8448 91.877C45.6733 91.9627 45.5232 92.0376 45.4053 92.0825C45.2874 92.1274 45.1589 92.1496 45.0089 92.1824C44.8696 92.1959 44.7518 92.1706 44.6661 92.1151C44.5803 92.0596 44.5053 91.9423 44.4517 91.7864C44.3874 91.6359 44.3555 91.4272 44.3555 91.1602ZM45.2768 88.0718V90.7838C45.2768 91.0368 45.3092 91.1892 45.3735 91.2273C45.4378 91.2795 45.5985 91.2273 45.8557 91.0987C46.1129 90.9701 46.2734 90.8616 46.327 90.7505C46.3913 90.6481 46.4233 90.4635 46.4233 90.2106V87.4986C46.4233 87.2316 46.3913 87.0931 46.327 87.0409C46.2734 86.9974 46.1129 87.0357 45.8557 87.1643C45.5985 87.2929 45.4378 87.4153 45.3735 87.5177C45.3092 87.6341 45.2768 87.8048 45.2768 88.0718Z" fill="#CEE4F6"/>
<path d="M48.0352 88.9762V86.4186C48.0352 86.1657 48.0674 85.9249 48.121 85.7014C48.1853 85.4866 48.26 85.3088 48.3457 85.1535C48.4315 85.0123 48.5385 84.8883 48.6886 84.7571C48.8279 84.6312 48.9675 84.5193 49.0854 84.4604C49.2033 84.3874 49.353 84.2986 49.5245 84.2129C49.6852 84.1325 49.8352 84.0714 49.9531 84.0265C50.071 83.9676 50.1995 83.9454 50.3495 83.9266C50.4888 83.9131 50.6068 83.9386 50.7032 83.9888C50.7889 84.0443 50.8641 84.1472 50.9284 84.2977C50.9927 84.4623 51.0247 84.671 51.0247 84.9239V87.4814C51.0247 87.7484 50.9927 87.989 50.9284 88.2038C50.8641 88.4187 50.7889 88.611 50.7032 88.7522C50.6068 88.8988 50.4888 89.028 50.3495 89.1539C50.1995 89.2851 50.071 89.3913 49.9531 89.4643C49.8352 89.5373 49.6852 89.6125 49.5245 89.6929C49.353 89.7786 49.2033 89.8533 49.0854 89.8982C48.9675 89.9431 48.8279 89.9708 48.6886 89.9983C48.5385 90.0171 48.4315 89.9865 48.3457 89.931C48.26 89.8755 48.1853 89.7581 48.121 89.6076C48.0674 89.4517 48.0352 89.2431 48.0352 88.9762ZM48.9565 85.8877V88.5998C48.9565 88.8527 48.9889 89.0051 49.0532 89.0432C49.1174 89.0954 49.2782 89.0432 49.5354 88.9146C49.7925 88.786 49.9424 88.6829 50.0067 88.5664C50.0603 88.4694 50.0925 88.2847 50.0925 88.0317V85.3197C50.0925 85.0527 50.0603 84.9143 50.0067 84.8568C49.9424 84.8187 49.7925 84.8517 49.5354 84.9802C49.2782 85.1088 49.1174 85.2312 49.0532 85.3336C48.9889 85.45 48.9565 85.6208 48.9565 85.8877Z" fill="#CEE4F6"/>
<path d="M52.6348 86.9064V84.3488C52.6348 84.0959 52.6672 83.855 52.7315 83.6262C52.7958 83.4114 52.86 83.2388 52.9458 83.0835C53.0315 82.9423 53.1493 82.8129 53.2886 82.687C53.4386 82.5558 53.5671 82.4495 53.685 82.3906C53.8136 82.3122 53.9531 82.2285 54.1245 82.1428C54.296 82.0571 54.4353 82.0014 54.5531 81.9565C54.671 81.8976 54.8102 81.87 54.9495 81.8565C55.0996 81.8377 55.2175 81.8632 55.3033 81.9187C55.3997 81.9689 55.4746 82.0719 55.5389 82.2224C55.5925 82.3924 55.6247 82.6009 55.6247 82.8538V85.4114C55.6247 85.6784 55.5925 85.9191 55.5389 86.1286C55.4746 86.3434 55.3997 86.5357 55.3033 86.6822C55.2175 86.8235 55.0996 86.9527 54.9495 87.0839C54.8102 87.2097 54.671 87.3213 54.5531 87.3943C54.4353 87.4673 54.296 87.5372 54.1245 87.6229C53.9531 87.7086 53.8136 87.7782 53.685 87.8284C53.5671 87.8733 53.4386 87.8955 53.2886 87.9283C53.1493 87.9418 53.0315 87.9165 52.9458 87.861C52.86 87.8055 52.7958 87.6829 52.7315 87.5323C52.6672 87.3818 52.6348 87.1734 52.6348 86.9064ZM53.5674 83.8123V86.5243C53.5674 86.7772 53.5994 86.9299 53.6637 86.968C53.7172 87.0255 53.8778 86.9734 54.135 86.8448C54.3922 86.7163 54.5529 86.6077 54.6172 86.4912C54.6708 86.3942 54.703 86.2094 54.703 85.9565V83.2445C54.703 82.9775 54.6708 82.8391 54.6172 82.7816C54.5529 82.7434 54.3922 82.7818 54.135 82.9104C53.8778 83.039 53.7172 83.1613 53.6637 83.2583C53.5994 83.3748 53.5674 83.5453 53.5674 83.8123Z" fill="#CEE4F6"/>
<path d="M59.0742 83.6866V81.1291C59.0742 80.8762 59.0957 80.6408 59.16 80.4119C59.2243 80.1971 59.2995 80.019 59.3852 79.8638C59.4602 79.7279 59.578 79.5985 59.7281 79.4673C59.8674 79.3414 59.9959 79.2351 60.1245 79.1708C60.2423 79.0979 60.3924 79.0089 60.5531 78.9285C60.7246 78.8428 60.8639 78.7871 60.9817 78.7422C61.1103 78.6779 61.2388 78.6557 61.3781 78.6423C61.5282 78.6235 61.6461 78.6489 61.7319 78.7044C61.8283 78.7546 61.9032 78.8576 61.9675 79.0082C62.0318 79.1727 62.0533 79.3866 62.0533 79.6396V82.1971C62.0533 82.4641 62.0318 82.6995 61.9675 82.9143C61.9032 83.1291 61.8283 83.3214 61.7319 83.468C61.6461 83.6092 61.5282 83.7384 61.3781 83.8696C61.2388 83.9954 61.1103 84.1017 60.9817 84.18C60.8639 84.253 60.7246 84.3229 60.5531 84.4086C60.3924 84.489 60.2423 84.5638 60.1245 84.6087C59.9959 84.6589 59.8674 84.6811 59.7281 84.7086C59.578 84.7274 59.4602 84.7021 59.3852 84.6413C59.2995 84.5858 59.2243 84.4686 59.16 84.3181C59.0957 84.1675 59.0742 83.9536 59.0742 83.6866ZM59.996 80.598V83.31C59.996 83.563 60.0279 83.7156 60.0922 83.7537C60.1565 83.8059 60.3173 83.7537 60.5744 83.6251C60.8209 83.5019 60.9819 83.3932 61.0462 83.2767C61.0998 83.1797 61.132 82.9949 61.132 82.742V80.03C61.132 79.763 61.0998 79.6246 61.0462 79.5671C60.9819 79.529 60.8209 79.5675 60.5744 79.6907C60.3173 79.8193 60.1565 79.9416 60.0922 80.044C60.0279 80.1605 59.996 80.331 59.996 80.598Z" fill="#CEE4F6"/>
<path d="M62.7539 81.6168V79.0593C62.7539 78.8063 62.7859 78.5657 62.8502 78.3368C62.9038 78.1274 62.9788 77.9494 63.0645 77.7941C63.1502 77.6529 63.2684 77.5233 63.4077 77.3975C63.5578 77.2663 63.6863 77.16 63.8041 77.101C63.9327 77.0227 64.0718 76.9392 64.2432 76.8535C64.4147 76.7678 64.554 76.712 64.6719 76.6672C64.7897 76.6082 64.9294 76.5804 65.0687 76.567C65.2187 76.5482 65.3362 76.5739 65.422 76.6294C65.5077 76.6849 65.5936 76.7825 65.6472 76.9383C65.7115 77.1029 65.7434 77.3116 65.7434 77.5645V80.122C65.7434 80.389 65.7115 80.6296 65.6472 80.8445C65.5936 81.0539 65.5077 81.2516 65.422 81.3929C65.3362 81.5341 65.2187 81.6631 65.0687 81.7943C64.9294 81.9201 64.7897 82.0319 64.6719 82.1049C64.554 82.1779 64.4147 82.2478 64.2432 82.3335C64.0718 82.4192 63.9327 82.4886 63.8041 82.5388C63.6863 82.5837 63.5578 82.6059 63.4077 82.6387C63.2684 82.6522 63.1502 82.6271 63.0645 82.5716C62.9788 82.5161 62.9038 82.3988 62.8502 82.243C62.7859 82.0924 62.7539 81.8838 62.7539 81.6168ZM63.6861 78.5229V81.2349C63.6861 81.4879 63.7183 81.6404 63.7719 81.6838C63.8362 81.736 63.9969 81.6838 64.2541 81.5553C64.5113 81.4267 64.6719 81.3182 64.7254 81.2071C64.7897 81.1047 64.8221 80.9199 64.8221 80.6669V77.9549C64.8221 77.6879 64.7897 77.5496 64.7254 77.4975C64.6719 77.454 64.5113 77.4923 64.2541 77.6209C63.9969 77.7495 63.8362 77.8718 63.7719 77.9742C63.7183 78.0853 63.6861 78.2559 63.6861 78.5229Z" fill="#CEE4F6"/>
<path d="M67.3535 79.4318V76.8742C67.3535 76.6213 67.3857 76.3805 67.4393 76.157C67.5036 75.9422 67.5788 75.7641 67.6645 75.6089C67.7503 75.4676 67.868 75.3383 68.0073 75.2124C68.1467 75.0866 68.2859 74.9749 68.4037 74.916C68.5216 74.843 68.6718 74.7539 68.8433 74.6682C69.004 74.5878 69.154 74.5268 69.2719 74.4819C69.3898 74.4229 69.5183 74.4007 69.6683 74.3819C69.8076 74.3685 69.9256 74.394 70.022 74.4441C70.1077 74.4996 70.1825 74.6028 70.2468 74.7533C70.3111 74.9178 70.3435 75.1263 70.3435 75.3792V77.9368C70.3435 78.2038 70.3111 78.4446 70.2468 78.6594C70.1825 78.8742 70.1077 79.0664 70.022 79.2076C69.9256 79.3542 69.8076 79.4834 69.6683 79.6093C69.5183 79.7405 69.3898 79.8467 69.2719 79.9197C69.154 79.9927 69.004 80.0679 68.8433 80.1483C68.6718 80.234 68.5216 80.3089 68.4037 80.3538C68.2859 80.3987 68.1467 80.4262 68.0073 80.4537C67.868 80.4672 67.7503 80.4419 67.6645 80.3864C67.5788 80.3309 67.5036 80.2137 67.4393 80.0632C67.3857 79.9073 67.3535 79.6987 67.3535 79.4318ZM68.2752 76.3431V79.0552C68.2752 79.3081 68.3072 79.4607 68.3715 79.4988C68.4358 79.551 68.5965 79.4988 68.8537 79.3702C69.1109 79.2416 69.2612 79.1383 69.3255 79.0218C69.3898 78.9194 69.4109 78.7403 69.4109 78.4873V75.7753C69.4109 75.5083 69.3898 75.3643 69.3255 75.3122C69.2612 75.2741 69.1109 75.3072 68.8537 75.4358C68.5965 75.5644 68.4358 75.6868 68.3715 75.7892C68.3072 75.9056 68.2752 76.0761 68.2752 76.3431Z" fill="#CEE4F6"/>
<path d="M71.9531 77.3619V74.8044C71.9531 74.5515 71.9746 74.3161 72.0389 74.0872C72.1032 73.8724 72.1784 73.6943 72.2641 73.539C72.3391 73.4032 72.4569 73.2738 72.607 73.1426C72.7463 73.0167 72.8748 72.9104 73.0034 72.8461C73.1212 72.7731 73.2713 72.6842 73.432 72.6038C73.6035 72.5181 73.7428 72.4624 73.8606 72.4175C73.9892 72.3532 74.1177 72.331 74.257 72.3176C74.4071 72.2987 74.525 72.3242 74.6108 72.3797C74.7072 72.4299 74.7821 72.5329 74.8464 72.6835C74.9107 72.848 74.9322 73.0619 74.9322 73.3149V75.8724C74.9322 76.1394 74.9107 76.3748 74.8464 76.5896C74.7821 76.8044 74.7072 76.9967 74.6108 77.1433C74.525 77.2845 74.4071 77.4137 74.257 77.5449C74.1177 77.6707 73.9892 77.777 73.8606 77.8553C73.7428 77.9283 73.6035 77.9982 73.432 78.0839C73.2713 78.1643 73.1212 78.2391 73.0034 78.284C72.8748 78.3342 72.7463 78.3564 72.607 78.3839C72.4569 78.4027 72.3391 78.3774 72.2641 78.3166C72.1784 78.2611 72.1032 78.1439 72.0389 77.9933C71.9746 77.8428 71.9531 77.6289 71.9531 77.3619ZM72.8749 74.2733V76.9853C72.8749 77.2383 72.9068 77.3909 72.9711 77.429C73.0354 77.4812 73.1962 77.429 73.4534 77.3004C73.6998 77.1772 73.8608 77.0685 73.9251 76.952C73.9787 76.855 74.0109 76.6702 74.0109 76.4173V73.7053C74.0109 73.4383 73.9787 73.2999 73.9251 73.2424C73.8608 73.2042 73.6998 73.2428 73.4534 73.366C73.1962 73.4946 73.0354 73.6169 72.9711 73.7193C72.9068 73.8358 72.8749 74.0063 72.8749 74.2733Z" fill="#CEE4F6"/>
<path d="M77.4727 74.1422V71.5847C77.4727 71.3317 77.5049 71.091 77.5585 70.8675C77.6228 70.6526 77.6975 70.4748 77.7832 70.3195C77.869 70.1783 77.976 70.0543 78.1261 69.9231C78.2654 69.7972 78.405 69.6854 78.5229 69.6264C78.6408 69.5534 78.7905 69.4646 78.962 69.3789C79.1227 69.2985 79.2727 69.2374 79.3906 69.1926C79.5085 69.1336 79.637 69.1114 79.787 69.0926C79.9263 69.0792 80.0443 69.1046 80.1407 69.1548C80.2264 69.2103 80.3016 69.3132 80.3659 69.4637C80.4302 69.6283 80.4622 69.837 80.4622 70.0899V72.6474C80.4622 72.9144 80.4302 73.155 80.3659 73.3699C80.3016 73.5847 80.2264 73.777 80.1407 73.9183C80.0443 74.0648 79.9263 74.194 79.787 74.3199C79.637 74.4511 79.5085 74.5573 79.3906 74.6303C79.2727 74.7033 79.1227 74.7785 78.962 74.8589C78.7905 74.9446 78.6408 75.0193 78.5229 75.0642C78.405 75.1091 78.2654 75.1369 78.1261 75.1643C77.976 75.1832 77.869 75.1525 77.7832 75.097C77.6975 75.0415 77.6228 74.9241 77.5585 74.7736C77.5049 74.6177 77.4727 74.4092 77.4727 74.1422ZM78.394 71.0538V73.7658C78.394 74.0187 78.4264 74.1711 78.4907 74.2092C78.5549 74.2614 78.7157 74.2092 78.9729 74.0806C79.23 73.9521 79.3799 73.8489 79.4442 73.7325C79.4978 73.6354 79.53 73.4507 79.53 73.1978V70.4857C79.53 70.2188 79.4978 70.0804 79.4442 70.0228C79.3799 69.9847 79.23 70.0177 78.9729 70.1463C78.7157 70.2748 78.5549 70.3972 78.4907 70.4996C78.4264 70.6161 78.394 70.7868 78.394 71.0538Z" fill="#CEE4F6"/>
<path d="M82.0723 72.0724V69.5148C82.0723 69.2619 82.1047 69.0211 82.169 68.7922C82.2333 68.5774 82.2975 68.4048 82.3833 68.2495C82.469 68.1083 82.5868 67.9789 82.7261 67.853C82.8761 67.7218 83.0046 67.6155 83.1225 67.5566C83.2511 67.4782 83.3906 67.3946 83.562 67.3088C83.7335 67.2231 83.8728 67.1674 83.9906 67.1225C84.1085 67.0636 84.2477 67.036 84.387 67.0226C84.5371 67.0038 84.655 67.0292 84.7408 67.0847C84.8372 67.1349 84.9121 67.2379 84.9764 67.3885C85.03 67.5584 85.0622 67.7669 85.0622 68.0199V70.5774C85.0622 70.8444 85.03 71.0852 84.9764 71.2946C84.9121 71.5094 84.8372 71.7017 84.7408 71.8483C84.655 71.9895 84.5371 72.1187 84.387 72.2499C84.2477 72.3757 84.1085 72.4873 83.9906 72.5603C83.8728 72.6333 83.7335 72.7032 83.562 72.7889C83.3906 72.8747 83.2511 72.9442 83.1225 72.9944C83.0046 73.0393 82.8761 73.0615 82.7261 73.0944C82.5868 73.1078 82.469 73.0825 82.3833 73.027C82.2975 72.9715 82.2333 72.8489 82.169 72.6984C82.1047 72.5478 82.0723 72.3394 82.0723 72.0724ZM83.0049 68.9783V71.6903C83.0049 71.9433 83.0369 72.0959 83.1012 72.134C83.1547 72.1915 83.3153 72.1395 83.5725 72.0109C83.8297 71.8823 83.9904 71.7737 84.0547 71.6572C84.1083 71.5602 84.1405 71.3754 84.1405 71.1225V68.4105C84.1405 68.1435 84.1083 68.0051 84.0547 67.9476C83.9904 67.9095 83.8297 67.9478 83.5725 68.0764C83.3153 68.205 83.1547 68.3273 83.1012 68.4243C83.0369 68.5408 83.0049 68.7113 83.0049 68.9783Z" fill="#CEE4F6"/>
<path d="M86.6719 69.8878V67.3303C86.6719 67.0773 86.7039 66.8367 86.7681 66.6078C86.8217 66.3984 86.8967 66.2204 86.9825 66.0651C87.0682 65.9239 87.186 65.7945 87.3253 65.6687C87.4753 65.5375 87.6038 65.4312 87.7217 65.3722C87.8396 65.2992 87.9897 65.2102 88.1612 65.1245C88.3327 65.0388 88.472 64.983 88.5898 64.9382C88.7077 64.8792 88.8362 64.857 88.9862 64.8382C89.1362 64.8194 89.2542 64.8449 89.3399 64.9004C89.4257 64.9559 89.5008 65.0588 89.5651 65.2093C89.6294 65.3739 89.6614 65.5826 89.6614 65.8355V68.393C89.6614 68.66 89.6294 68.9006 89.5651 69.1155C89.5008 69.3303 89.4257 69.5226 89.3399 69.6639C89.2542 69.8051 89.1362 69.9343 88.9862 70.0655C88.8362 70.1967 88.7077 70.3029 88.5898 70.3759C88.472 70.4489 88.3327 70.5188 88.1612 70.6045C87.9897 70.6902 87.8396 70.7651 87.7217 70.81C87.6038 70.8549 87.4753 70.8771 87.3253 70.91C87.186 70.9234 87.0682 70.8981 86.9825 70.8426C86.8967 70.7871 86.8217 70.6698 86.7681 70.5139C86.7039 70.3634 86.6719 70.1548 86.6719 69.8878ZM87.5932 66.7994V69.5114C87.5932 69.7643 87.6256 69.9167 87.6899 69.9548C87.7542 70.007 87.9149 69.9548 88.1721 69.8263C88.4293 69.6977 88.5898 69.5892 88.6434 69.4781C88.7077 69.3757 88.7397 69.1911 88.7397 68.9381V66.2261C88.7397 65.9591 88.7077 65.8206 88.6434 65.7684C88.5898 65.725 88.4293 65.7633 88.1721 65.8919C87.9149 66.0205 87.7542 66.1428 87.6899 66.2452C87.6256 66.3617 87.5932 66.5324 87.5932 66.7994Z" fill="#CEE4F6"/>
<path d="M90.3516 67.818V65.2604C90.3516 65.0075 90.3838 64.7667 90.4374 64.5432C90.5017 64.3284 90.5764 64.1506 90.6622 63.9953C90.7479 63.8541 90.855 63.7301 91.005 63.5989C91.1443 63.473 91.2839 63.3611 91.4018 63.3022C91.5197 63.2292 91.6694 63.1404 91.8409 63.0547C92.0016 62.9743 92.1516 62.9132 92.2695 62.8683C92.3874 62.8094 92.5159 62.7872 92.6659 62.7684C92.8052 62.7549 92.9232 62.7804 93.0196 62.8306C93.1053 62.8861 93.1805 62.989 93.2448 63.1395C93.3091 63.3041 93.3411 63.5128 93.3411 63.7657V66.3232C93.3411 66.5902 93.3091 66.8308 93.2448 67.0456C93.1805 67.2604 93.1053 67.4528 93.0196 67.594C92.9232 67.7406 92.8052 67.8698 92.6659 67.9957C92.5159 68.1269 92.3874 68.2331 92.2695 68.3061C92.1516 68.3791 92.0016 68.4543 91.8409 68.5347C91.6694 68.6204 91.5197 68.6951 91.4018 68.74C91.2839 68.7849 91.1443 68.8126 91.005 68.8401C90.855 68.8589 90.7479 68.8283 90.6622 68.7728C90.5764 68.7173 90.5017 68.5999 90.4374 68.4494C90.3838 68.2935 90.3516 68.0849 90.3516 67.818ZM91.2729 64.7295V67.4416C91.2729 67.6945 91.3053 67.8469 91.3696 67.885C91.4339 67.9372 91.5946 67.885 91.8518 67.7564C92.1089 67.6278 92.2588 67.5247 92.3231 67.4082C92.3767 67.3112 92.4089 67.1265 92.4089 66.8735V64.1615C92.4089 63.8945 92.3767 63.7561 92.3231 63.6986C92.2588 63.6605 92.1089 63.6935 91.8518 63.822C91.5946 63.9506 91.4339 64.073 91.3696 64.1754C91.3053 64.2918 91.2729 64.4626 91.2729 64.7295Z" fill="#CEE4F6"/>
<path d="M96.791 64.5983V62.0407C96.791 61.7878 96.8232 61.547 96.8768 61.3235C96.9411 61.1087 97.0163 60.9306 97.102 60.7754C97.1878 60.6341 97.3055 60.5048 97.4448 60.3789C97.5842 60.2531 97.7234 60.1414 97.8412 60.0825C97.9591 60.0095 98.1093 59.9204 98.2808 59.8347C98.4415 59.7543 98.5915 59.6933 98.7094 59.6484C98.8273 59.5894 98.9558 59.5672 99.1058 59.5484C99.2451 59.535 99.3631 59.5605 99.4595 59.6106C99.5452 59.6661 99.62 59.7693 99.6843 59.9198C99.7486 60.0844 99.781 60.2928 99.781 60.5457V63.1033C99.781 63.3703 99.7486 63.6111 99.6843 63.8259C99.62 64.0408 99.5452 64.2329 99.4595 64.3741C99.3631 64.5207 99.2451 64.6499 99.1058 64.7758C98.9558 64.907 98.8273 65.0132 98.7094 65.0862C98.5915 65.1592 98.4415 65.2344 98.2808 65.3148C98.1093 65.4005 97.9591 65.4754 97.8412 65.5203C97.7234 65.5652 97.5842 65.5927 97.4448 65.6202C97.3055 65.6337 97.1878 65.6084 97.102 65.5529C97.0163 65.4974 96.9411 65.3802 96.8768 65.2297C96.8232 65.0738 96.791 64.8652 96.791 64.5983ZM97.7127 61.5096V64.2217C97.7127 64.4746 97.7447 64.6272 97.809 64.6653C97.8733 64.7175 98.034 64.6653 98.2912 64.5367C98.5484 64.4081 98.6987 64.3048 98.763 64.1883C98.8273 64.0859 98.8484 63.9068 98.8484 63.6538V60.9418C98.8484 60.6748 98.8273 60.5308 98.763 60.4787C98.6987 60.4406 98.5484 60.4737 98.2912 60.6023C98.034 60.7309 97.8733 60.8533 97.809 60.9557C97.7447 61.0721 97.7127 61.2426 97.7127 61.5096Z" fill="#CEE4F6"/>
<path d="M101.391 62.5284V59.9709C101.391 59.718 101.412 59.4826 101.476 59.2537C101.541 59.0389 101.616 58.8608 101.702 58.7055C101.777 58.5697 101.894 58.4403 102.044 58.3091C102.184 58.1832 102.312 58.0769 102.441 58.0126C102.559 57.9397 102.709 57.8507 102.87 57.7703C103.041 57.6846 103.18 57.6289 103.298 57.584C103.427 57.5197 103.555 57.4975 103.695 57.4841C103.845 57.4653 103.963 57.4907 104.048 57.5462C104.145 57.5964 104.22 57.6994 104.284 57.85C104.348 58.0145 104.37 58.2284 104.37 58.4814V61.0389C104.37 61.3059 104.348 61.5413 104.284 61.7561C104.22 61.9709 104.145 62.1632 104.048 62.3098C103.963 62.451 103.845 62.5802 103.695 62.7114C103.555 62.8372 103.427 62.9435 103.298 63.0218C103.18 63.0948 103.041 63.1647 102.87 63.2504C102.709 63.3308 102.559 63.4056 102.441 63.4505C102.312 63.5007 102.184 63.5229 102.044 63.5504C101.894 63.5692 101.777 63.5439 101.702 63.4831C101.616 63.4276 101.541 63.3104 101.476 63.1598C101.412 63.0093 101.391 62.7954 101.391 62.5284ZM102.312 59.4398V62.1518C102.312 62.4048 102.344 62.5574 102.409 62.5955C102.473 62.6477 102.634 62.5955 102.891 62.4669C103.137 62.3437 103.298 62.235 103.363 62.1185C103.416 62.0215 103.448 61.8367 103.448 61.5838V58.8718C103.448 58.6048 103.416 58.4664 103.363 58.4089C103.298 58.3708 103.137 58.4093 102.891 58.5325C102.634 58.6611 102.473 58.7834 102.409 58.8858C102.344 59.0023 102.312 59.1728 102.312 59.4398Z" fill="#CEE4F6"/>
<path d="M105.07 60.3433V57.7858C105.07 57.5329 105.102 57.2923 105.167 57.0634C105.22 56.8539 105.295 56.676 105.381 56.5207C105.467 56.3795 105.585 56.2499 105.724 56.124C105.874 55.9928 106.003 55.8865 106.121 55.8276C106.249 55.7492 106.388 55.6658 106.56 55.58C106.731 55.4943 106.87 55.4386 106.988 55.3937C107.106 55.3348 107.246 55.307 107.385 55.2936C107.535 55.2748 107.653 55.3005 107.738 55.356C107.824 55.4115 107.91 55.509 107.964 55.6649C108.028 55.8295 108.06 56.0381 108.06 56.2911V58.8486C108.06 59.1156 108.028 59.3562 107.964 59.571C107.91 59.7805 107.824 59.9782 107.738 60.1194C107.653 60.2607 107.535 60.3896 107.385 60.5208C107.246 60.6467 107.106 60.7585 106.988 60.8315C106.87 60.9045 106.731 60.9744 106.56 61.0601C106.388 61.1458 106.249 61.2151 106.121 61.2654C106.003 61.3102 105.874 61.3325 105.724 61.3653C105.585 61.3788 105.467 61.3537 105.381 61.2982C105.295 61.2427 105.22 61.1254 105.167 60.9695C105.102 60.819 105.07 60.6103 105.07 60.3433ZM106.003 57.2495V59.9615C106.003 60.2144 106.035 60.3669 106.088 60.4104C106.153 60.4626 106.313 60.4104 106.571 60.2818C106.828 60.1532 106.988 60.0447 107.042 59.9336C107.106 59.8312 107.139 59.6464 107.139 59.3935V56.6815C107.139 56.4145 107.106 56.2762 107.042 56.224C106.988 56.1805 106.828 56.2188 106.571 56.3474C106.313 56.476 106.153 56.5984 106.088 56.7008C106.035 56.8119 106.003 56.9825 106.003 57.2495Z" fill="#CEE4F6"/>
<path d="M109.67 58.2736V55.716C109.67 55.4631 109.702 55.2223 109.756 54.9988C109.82 54.784 109.895 54.6059 109.981 54.4507C110.067 54.3094 110.184 54.1801 110.324 54.0542C110.463 53.9283 110.602 53.8167 110.72 53.7578C110.838 53.6848 110.988 53.5957 111.16 53.51C111.32 53.4296 111.47 53.3686 111.588 53.3237C111.706 53.2647 111.835 53.2425 111.985 53.2237C112.124 53.2103 112.242 53.2358 112.338 53.2859C112.424 53.3414 112.499 53.4445 112.563 53.5951C112.627 53.7596 112.66 53.9681 112.66 54.221V56.7786C112.66 57.0456 112.627 57.2864 112.563 57.5012C112.499 57.716 112.424 57.9082 112.338 58.0494C112.242 58.196 112.124 58.3252 111.985 58.4511C111.835 58.5823 111.706 58.6885 111.588 58.7615C111.47 58.8345 111.32 58.9097 111.16 58.9901C110.988 59.0758 110.838 59.1507 110.72 59.1956C110.602 59.2405 110.463 59.268 110.324 59.2955C110.184 59.309 110.067 59.2837 109.981 59.2282C109.895 59.1727 109.82 59.0555 109.756 58.905C109.702 58.7491 109.67 58.5405 109.67 58.2736ZM110.592 55.1849V57.897C110.592 58.1499 110.624 58.3025 110.688 58.3406C110.752 58.3928 110.913 58.3406 111.17 58.212C111.427 58.0834 111.578 57.9801 111.642 57.8636C111.706 57.7612 111.727 57.5821 111.727 57.3291V54.6171C111.727 54.3501 111.706 54.2061 111.642 54.154C111.578 54.1159 111.427 54.149 111.17 54.2776C110.913 54.4062 110.752 54.5286 110.688 54.631C110.624 54.7474 110.592 54.9179 110.592 55.1849Z" fill="#CEE4F6"/>
<path d="M74.7129 81.675V80.2513C74.7129 80.1105 74.7309 79.9765 74.7667 79.8491C74.8025 79.7295 74.8383 79.6334 74.886 79.547C74.9337 79.4684 74.9993 79.3963 75.0769 79.3263C75.1604 79.2532 75.2319 79.1941 75.2975 79.1613C75.3691 79.1176 75.4467 79.0711 75.5422 79.0233C75.6376 78.9756 75.7152 78.9446 75.7808 78.9196C75.8464 78.8868 75.9239 78.8715 76.0015 78.864C76.085 78.8535 76.1506 78.8677 76.1983 78.8986C76.252 78.9265 76.2937 78.9839 76.3295 79.0677C76.3594 79.1622 76.3773 79.2783 76.3773 79.4191V80.8428C76.3773 80.9914 76.3594 81.1254 76.3295 81.242C76.2937 81.3616 76.252 81.4686 76.1983 81.5502C76.1506 81.6288 76.085 81.7007 76.0015 81.7737C75.9239 81.8438 75.8464 81.9059 75.7808 81.9466C75.7152 81.9872 75.6376 82.0261 75.5422 82.0738C75.4467 82.1215 75.3691 82.1602 75.2975 82.1882C75.2319 82.2132 75.1604 82.2255 75.0769 82.2438C74.9993 82.2513 74.9337 82.2372 74.886 82.2063C74.8383 82.1755 74.8025 82.1072 74.7667 82.0234C74.7309 81.9396 74.7129 81.8236 74.7129 81.675ZM75.232 79.9526V81.4623C75.232 81.6031 75.2498 81.688 75.2856 81.7093C75.3155 81.7413 75.4048 81.7123 75.548 81.6407C75.6912 81.5691 75.7806 81.5087 75.8164 81.4439C75.8463 81.3898 75.8642 81.287 75.8642 81.1462V79.6366C75.8642 79.4879 75.8463 79.4109 75.8164 79.3789C75.7806 79.3577 75.6912 79.379 75.548 79.4506C75.4048 79.5222 75.3155 79.5903 75.2856 79.6443C75.2498 79.7091 75.232 79.804 75.232 79.9526Z" fill="#CEE4F6"/>
<path d="M77.4727 80.5251V79.1014C77.4727 78.9606 77.4905 78.8267 77.5262 78.6993C77.5561 78.5827 77.5978 78.4836 77.6455 78.3972C77.6933 78.3186 77.7588 78.2466 77.8364 78.1765C77.9199 78.1035 77.9914 78.0443 78.057 78.0115C78.1226 77.9709 78.2063 77.9213 78.3017 77.8736C78.3971 77.8259 78.4747 77.7948 78.5403 77.7699C78.6059 77.7371 78.6774 77.7247 78.7609 77.7142C78.8445 77.7038 78.9101 77.7179 78.9578 77.7488C79.0056 77.7797 79.0474 77.837 79.0832 77.9208C79.119 78.0124 79.1368 78.1286 79.1368 78.2694V79.693C79.1368 79.8416 79.119 79.9756 79.0832 80.0951C79.0474 80.2147 79.0056 80.3218 78.9578 80.4004C78.9101 80.479 78.8445 80.5509 78.7609 80.624C78.6774 80.697 78.6059 80.7562 78.5403 80.7968C78.4747 80.8374 78.3971 80.8763 78.3017 80.924C78.2063 80.9717 78.1226 81.0134 78.057 81.0384C77.9914 81.0634 77.9199 81.0758 77.8364 81.094C77.7588 81.1015 77.6933 81.0874 77.6455 81.0566C77.5978 81.0257 77.5561 80.9604 77.5262 80.8736C77.4905 80.7898 77.4727 80.6737 77.4727 80.5251ZM77.9855 78.8059V80.3155C77.9855 80.4563 78.0035 80.5412 78.0393 80.5624C78.0751 80.5914 78.1646 80.5624 78.3077 80.4908C78.4509 80.4192 78.5403 80.3588 78.5701 80.297C78.6059 80.24 78.6237 80.1372 78.6237 79.9964V78.4868C78.6237 78.3382 78.6059 78.2611 78.5701 78.232C78.5403 78.2078 78.4509 78.2292 78.3077 78.3007C78.1646 78.3723 78.0751 78.4404 78.0393 78.4974C78.0035 78.5623 77.9855 78.6573 77.9855 78.8059Z" fill="#CEE4F6"/>
<path d="M80.7441 76.4224L79.6168 80.0365L79.3125 80.1887L80.44 76.5744L80.7441 76.4224Z" fill="#CEE4F6"/>
<path d="M81.1523 78.34V76.9164C81.1523 76.7756 81.1643 76.6445 81.2001 76.5171C81.2359 76.3976 81.2717 76.3015 81.3194 76.215C81.3671 76.1364 81.4326 76.0645 81.5161 75.9914C81.5936 75.9214 81.6654 75.8621 81.737 75.8263C81.8026 75.7857 81.8801 75.7391 81.9756 75.6914C82.071 75.6437 82.1485 75.6127 82.2142 75.5877C82.2798 75.5549 82.3573 75.5395 82.4348 75.5321C82.5183 75.5216 82.584 75.5358 82.6317 75.5667C82.6854 75.5946 82.7271 75.6519 82.7629 75.7357C82.7927 75.8303 82.8106 75.9464 82.8106 76.0872V77.5109C82.8106 77.6595 82.7927 77.7935 82.7629 77.9101C82.7271 78.0297 82.6854 78.1367 82.6317 78.2183C82.584 78.2969 82.5183 78.3688 82.4348 78.4419C82.3573 78.5119 82.2798 78.5741 82.2142 78.6147C82.1485 78.6553 82.071 78.6942 81.9756 78.7419C81.8801 78.7897 81.8026 78.8283 81.737 78.8533C81.6654 78.8813 81.5936 78.8937 81.5161 78.909C81.4326 78.9195 81.3671 78.9054 81.3194 78.8745C81.2717 78.8436 81.2359 78.7753 81.2001 78.6915C81.1643 78.6077 81.1523 78.4887 81.1523 78.34ZM81.6652 76.6208V78.1305C81.6652 78.2713 81.6832 78.3562 81.719 78.3774C81.7488 78.4094 81.8383 78.3804 81.9874 78.3058C82.1246 78.2372 82.214 78.1768 82.2498 78.112C82.2796 78.058 82.2976 77.9551 82.2976 77.8143V76.3046C82.2976 76.156 82.2796 76.079 82.2498 76.047C82.214 76.0258 82.1246 76.0471 81.9874 76.1157C81.8383 76.1902 81.7488 76.2584 81.719 76.3124C81.6832 76.3772 81.6652 76.4722 81.6652 76.6208Z" fill="#CEE4F6"/>
<path d="M83.9121 77.1901V75.7665C83.9121 75.6257 83.9301 75.4916 83.9659 75.3642C83.9958 75.2476 84.0375 75.1485 84.0852 75.0621C84.133 74.9835 84.1985 74.9115 84.2761 74.8414C84.3596 74.7684 84.4311 74.7092 84.4967 74.6764C84.5624 74.6358 84.646 74.5862 84.7414 74.5385C84.8368 74.4908 84.9144 74.4598 84.98 74.4348C85.0456 74.402 85.1172 74.3896 85.2007 74.3791C85.2842 74.3687 85.3498 74.3829 85.3976 74.4138C85.4453 74.4447 85.4869 74.5021 85.5227 74.5858C85.5585 74.6775 85.5765 74.7935 85.5765 74.9343V76.3579C85.5765 76.5066 85.5585 76.6406 85.5227 76.7602C85.4869 76.8798 85.4453 76.9868 85.3976 77.0654C85.3498 77.144 85.2842 77.2159 85.2007 77.2889C85.1172 77.362 85.0456 77.4211 84.98 77.4617C84.9144 77.5024 84.8368 77.5413 84.7414 77.589C84.646 77.6367 84.5624 77.6784 84.4967 77.7034C84.4311 77.7284 84.3596 77.7407 84.2761 77.759C84.1985 77.7665 84.133 77.7524 84.0852 77.7215C84.0375 77.6906 83.9958 77.6253 83.9659 77.5386C83.9301 77.4548 83.9121 77.3387 83.9121 77.1901ZM84.4313 75.4678V76.9775C84.4313 77.1182 84.443 77.2062 84.4788 77.2274C84.5146 77.2565 84.6041 77.2275 84.7472 77.1559C84.8904 77.0843 84.98 77.0238 85.0098 76.9619C85.0456 76.9049 85.0634 76.8022 85.0634 76.6614V75.1517C85.0634 75.0031 85.0456 74.926 85.0098 74.897C84.98 74.8728 84.8904 74.8942 84.7472 74.9658C84.6041 75.0374 84.5146 75.1055 84.4788 75.1625C84.443 75.2273 84.4313 75.3192 84.4313 75.4678Z" fill="#CEE4F6"/>
<path d="M41.2964 105.845C41.0793 106.026 40.8674 106.164 40.6658 106.265C40.5831 106.306 40.5106 106.343 40.4382 106.363C40.3658 106.391 40.2884 106.406 40.2005 106.417C40.1126 106.421 40.0402 106.409 39.9782 106.376C39.9162 106.351 39.8645 106.288 39.8231 106.196C39.7766 106.115 39.7559 105.989 39.7559 105.844V104.502C39.7559 103.891 40.0609 103.433 40.6658 103.131C40.8157 103.056 41.0225 102.985 41.2861 102.925V103.472C41.0483 103.502 40.8414 103.565 40.6708 103.651C40.6036 103.684 40.5468 103.713 40.5055 103.741C40.4589 103.773 40.4177 103.809 40.3712 103.857C40.3195 103.907 40.2884 103.963 40.2625 104.032C40.2418 104.09 40.2264 104.17 40.2264 104.259V105.552C40.2264 105.826 40.3917 105.888 40.7122 105.727C40.857 105.655 41.0535 105.509 41.2964 105.299V105.845Z" fill="#CEE4F6"/>
<path d="M43.6015 104.701L43.1259 104.938L42.9501 104.231L42.2368 104.588L42.061 105.471L41.5957 105.704L42.3194 102.304L42.8933 102.017L43.6015 104.701ZM42.8467 103.792L42.5987 102.775L42.5882 102.78L42.3402 104.046L42.8467 103.792Z" fill="#CEE4F6"/>
<path d="M46.0976 103.567L45.5548 103.839L45.0431 102.905L44.826 103.014V104.203L44.3555 104.438V101.401L45.2343 100.961C45.4928 100.832 45.684 100.785 45.8029 100.822C45.9218 100.859 45.9786 100.999 45.9786 101.232V101.763C45.9786 101.947 45.9373 102.113 45.8494 102.253C45.7667 102.399 45.6582 102.517 45.5342 102.603L46.0976 103.567ZM45.5186 101.848V101.631C45.5186 101.518 45.4979 101.456 45.4514 101.439C45.41 101.412 45.3376 101.432 45.229 101.486L44.826 101.688V102.532L45.229 102.33C45.3428 102.273 45.4153 102.213 45.4566 102.144C45.498 102.083 45.5186 101.984 45.5186 101.848Z" fill="#CEE4F6"/>
<path d="M47.958 100.294V101.531C47.958 101.877 47.8908 102.144 47.7513 102.334C47.6168 102.522 47.374 102.699 47.0328 102.87L46.1953 103.289V100.251L47.0275 99.8349C47.3584 99.6695 47.5962 99.6149 47.741 99.6711C47.8857 99.7273 47.958 99.9322 47.958 100.294ZM47.4877 101.767V100.513C47.4877 100.368 47.4464 100.284 47.374 100.264C47.2965 100.247 47.1774 100.282 47.0275 100.357L46.6656 100.538V102.539L47.0122 102.366C47.1931 102.275 47.3171 102.189 47.3843 102.115C47.4515 102.042 47.4877 101.919 47.4877 101.767Z" fill="#CEE4F6"/>
<path d="M50.7281 101.137L50.2578 101.373V100.071L49.4254 100.487V101.789L48.9551 102.024V98.9863L49.4254 98.7512V99.9726L50.2578 99.5564V98.335L50.7281 98.0998V101.137Z" fill="#CEE4F6"/>
<path d="M53.5759 97.7148V99.0488C53.5759 99.2176 53.5449 99.3777 53.488 99.5267C53.4312 99.6837 53.3484 99.8135 53.2502 99.9269C53.1519 100.032 53.0538 100.13 52.9555 100.203C52.8573 100.276 52.7539 100.336 52.6454 100.39C52.5368 100.444 52.4386 100.485 52.3507 100.513C52.2577 100.536 52.1595 100.544 52.0561 100.54C51.9527 100.535 51.87 100.488 51.8079 100.391C51.7459 100.301 51.7148 100.164 51.7148 99.9793V98.6453C51.7148 98.4927 51.7406 98.335 51.7871 98.1992C51.8285 98.058 51.8854 97.9413 51.9475 97.846C52.0095 97.7507 52.0871 97.6636 52.1801 97.5769C52.268 97.4928 52.3508 97.4273 52.418 97.3856C52.4904 97.3414 52.5627 97.2973 52.6454 97.2559C52.7229 97.2172 52.8004 97.1864 52.8727 97.1582C52.94 97.1327 53.0228 97.1154 53.1159 97.109C53.2038 97.1053 53.2812 97.1148 53.3433 97.1481C53.4105 97.1788 53.4621 97.2412 53.5086 97.3305C53.5552 97.4278 53.5759 97.5541 53.5759 97.7148ZM53.1054 99.284V97.9419C53.1054 97.7973 53.0642 97.7135 52.9866 97.696C52.9091 97.6785 52.7953 97.7033 52.6454 97.7783C52.4954 97.8532 52.3765 97.9368 52.3041 98.0373C52.2266 98.1323 52.1854 98.2573 52.1854 98.4019V99.7441C52.1854 99.8164 52.2007 99.873 52.2266 99.9164C52.2524 99.9517 52.2887 99.9735 52.3404 99.9718C52.387 99.9646 52.4386 99.9549 52.48 99.9422C52.5265 99.927 52.5834 99.9067 52.6506 99.8731C52.7178 99.8395 52.7695 99.8055 52.816 99.7742C52.8625 99.7429 52.909 99.7036 52.9555 99.6642C53.0072 99.6143 53.0434 99.5562 53.0692 99.495C53.0899 99.4284 53.1054 99.3564 53.1054 99.284Z" fill="#CEE4F6"/>
<path d="M54.9866 98.8924L53.5547 99.6083V96.5708L54.0252 96.3355V98.8589L54.9866 98.3782V98.8924Z" fill="#CEE4F6"/>
<path d="M58.0772 95.5785V96.816C58.0772 97.1616 58.01 97.4282 57.8704 97.6185C57.736 97.8063 57.4931 97.9839 57.1519 98.1545L56.3145 98.5732V95.5356L57.1466 95.1196C57.4775 94.9541 57.7153 94.8995 57.8601 94.9557C58.0048 95.0119 58.0772 95.2168 58.0772 95.5785ZM57.6069 97.0512V95.7974C57.6069 95.6528 57.5707 95.5665 57.4932 95.549C57.4156 95.5315 57.3017 95.5644 57.1466 95.6419L56.7848 95.8228V97.8239L57.1313 97.6506C57.3122 97.5601 57.4363 97.4739 57.5035 97.4002C57.5707 97.3264 57.6069 97.2039 57.6069 97.0512Z" fill="#CEE4F6"/>
<path d="M59.674 96.5491L58.1543 97.309V94.2715L59.6482 93.5245V94.0469L58.6246 94.5587V95.2577L59.5448 94.7976V95.312L58.6246 95.7721V96.5597L59.674 96.035V96.5491Z" fill="#CEE4F6"/>
<path d="M62.6562 95.4023L62.1134 95.6737L61.6017 94.7403L61.3846 94.8489V96.0381L60.9141 96.2734V93.2358L61.7929 92.7964C62.0514 92.6672 62.2374 92.6223 62.3563 92.6593C62.4752 92.6963 62.5372 92.8341 62.5372 93.0672V93.5975C62.5372 93.7823 62.4959 93.9477 62.408 94.0881C62.3201 94.2365 62.2168 94.3523 62.0875 94.4411L62.6562 95.4023ZM62.0772 93.6828V93.4659C62.0772 93.3534 62.0513 93.2939 62.01 93.2744C61.9686 93.2469 61.891 93.2697 61.7876 93.3214L61.3846 93.5229V94.3667L61.7876 94.1652C61.9014 94.1083 61.9739 94.0479 62.0152 93.979C62.0566 93.9182 62.0772 93.8194 62.0772 93.6828Z" fill="#CEE4F6"/>
<path d="M65.5193 93.6265L65.0437 93.8643L64.0977 92.2319V94.3373L63.6738 94.5492V91.5117L64.1546 91.2713L65.1007 92.8715V90.7983L65.5193 90.589V93.6265Z" fill="#CEE4F6"/>
<path d="M68.4394 92.3964L67.9586 92.6369L67.788 91.9267L67.0695 92.286L66.8988 93.1667L66.4336 93.3994L67.1573 89.9999L67.7312 89.713L68.4394 92.3964ZM67.6846 91.4881L67.4366 90.471L67.4261 90.4763L67.1781 91.7413L67.6846 91.4881Z" fill="#CEE4F6"/>
<path d="M71.4524 91.0052L71.0286 91.2171V88.967L71.0183 88.9722L70.5219 91.4704L70.1445 91.6591L69.638 89.6623L69.6225 89.6701V91.9201L69.1934 92.1347V89.0972L69.8602 88.7638L70.3462 90.6985L70.8218 88.283L71.4524 87.9677V91.0052Z" fill="#CEE4F6"/>
<path d="M73.4731 89.8796L71.9531 90.6396V87.6021L73.4472 86.855V87.3773L72.4236 87.8891V88.5882L73.3438 88.1281V88.6424L72.4236 89.1025V89.8901L73.4731 89.3654V89.8796Z" fill="#CEE4F6"/>
<path d="M42.8033 63.1523V63.905C42.8033 64.3072 42.675 64.6568 42.4276 64.9492C42.1703 65.2335 41.8041 65.4943 41.3094 65.7417L39.7559 66.5185V61.6138L41.2695 60.8569C41.8039 60.5898 42.1604 60.4892 42.3484 60.5509C42.5364 60.6126 42.6352 60.8358 42.6352 61.2251V61.8349C42.6352 61.9776 42.5856 62.1321 42.5065 62.2885C42.4174 62.4498 42.3285 62.5851 42.2196 62.6785V62.7175C42.3582 62.6612 42.4868 62.6746 42.6155 62.753C42.7342 62.8364 42.8033 62.9706 42.8033 63.1523ZM41.7643 62.1147V61.8681C41.7643 61.7124 41.7348 61.6104 41.6754 61.5882C41.6259 61.548 41.4774 61.5964 41.2498 61.7102L40.6561 62.0071V63.162L41.2695 62.8553C41.4773 62.7514 41.616 62.643 41.6754 62.5484C41.7348 62.4409 41.7643 62.2964 41.7643 62.1147ZM41.9031 64.1992V63.797C41.9031 63.6154 41.8633 63.5054 41.7941 63.4752C41.7248 63.432 41.5961 63.4574 41.418 63.5464L40.6561 63.9273V65.2381L41.2896 64.9213C41.5073 64.8125 41.6654 64.6945 41.7643 64.5801C41.8534 64.4707 41.9031 64.342 41.9031 64.1992Z" fill="#CEE4F6"/>
<path d="M47.265 62.6491L46.3547 63.1043L46.0184 61.988L44.6528 62.6708L44.3161 64.1236L43.4355 64.5638L44.8209 58.9665L45.9094 58.4223L47.265 62.6491ZM45.8205 61.2953L45.3454 59.6903L45.3257 59.7002L44.8507 61.7802L45.8205 61.2953Z" fill="#CEE4F6"/>
<path d="M51.5677 60.3825L50.6574 60.8377L48.8368 58.3484V61.748L48.0352 62.1488V57.2441L48.9455 56.789L50.7664 59.2261V55.8785L51.5677 55.4778V60.3825Z" fill="#CEE4F6"/>
<path d="M57.0876 57.9678L55.9891 58.517L54.475 56.6789L55.8801 53.6669L56.9392 53.1373L55.514 56.1336L57.0876 57.9678ZM54.4553 59.2839L53.5547 59.7343V54.8296L54.4553 54.3793V59.2839Z" fill="#CEE4F6"/>
<path d="M61.0508 56.1334L60.54 56.3888L59.5238 54.9894V56.8969L59.0742 57.1217V54.3696L59.585 54.1142L60.6011 55.4845V53.6062L61.0508 53.3814V56.1334Z" fill="#CEE4F6"/>
<path d="M63.9884 54.7794L63.472 55.0376L63.2887 54.4085L62.517 54.7944L62.3337 55.6067L61.834 55.8566L62.6113 52.7158L63.2277 52.4076L63.9884 54.7794ZM63.1776 54.0198L62.9113 53.1192L62.9 53.1248L62.6337 54.2918L63.1776 54.0198Z" fill="#CEE4F6"/>
<path d="M67.0201 53.2635L66.5649 53.4911V51.4525L66.5538 51.458L66.0207 53.7632L65.6153 53.9659L65.0713 52.1992L65.0546 52.2076V54.2462L64.5938 54.4767V51.7246L65.3099 51.3665L65.832 53.0786L66.3428 50.8501L67.0201 50.5114V53.2635Z" fill="#CEE4F6"/>
<path d="M68.9861 52.0506L67.3535 52.8668V50.1147L68.9583 49.3123V49.7856L67.8589 50.3353V50.9687L68.8473 50.4745V50.9405L67.8589 51.4347V52.1483L68.9861 51.5847V52.0506Z" fill="#CEE4F6"/>
<path fill-rule="evenodd" clip-rule="evenodd" d="M103.252 95.7033C103.236 95.7005 93.6272 93.8128 90.084 88.2045C86.3083 82.2287 87.9445 59.3146 87.9445 59.3146C93.9495 56.087 98.99 50.3292 103.252 42.5259C107.513 46.0679 112.554 46.7848 118.558 44.0078C118.558 44.0078 120.195 65.2857 116.419 75.0369C112.876 84.1884 103.267 95.6852 103.252 95.7033Z" fill="#5682A7"/>
<path fill-rule="evenodd" clip-rule="evenodd" d="M109.807 46.2034C108.682 45.6864 107.603 44.9879 106.569 44.1353C102.315 51.9359 97.2716 57.6958 91.267 60.9249C91.267 60.9249 89.6252 83.8369 93.4076 89.8144C95.4122 92.9891 98.3148 94.4493 100.455 95.1114C99.0223 94.1409 97.7343 92.9527 96.8273 91.5286C93.0539 85.5511 94.6867 62.6391 94.6867 62.6391C100.601 59.4553 105.58 53.8226 109.807 46.2034ZM125.309 47.3282L121.88 45.6138C117.898 47.4551 114.342 47.7636 111.159 46.7296C115.15 49.4779 119.794 49.8589 125.236 47.3645L125.309 47.3282Z" fill="#F48684"/>
<path fill-rule="evenodd" clip-rule="evenodd" d="M109.691 99.0372C109.676 99.0345 100.067 97.1468 96.5235 91.5385C92.7478 85.5627 94.384 62.6486 94.384 62.6486C100.389 59.421 105.429 53.6632 109.691 45.8599C113.952 49.4018 118.993 50.1188 124.998 47.3418C124.998 47.3418 126.634 68.6197 122.859 78.3709C119.316 87.5223 109.706 99.0191 109.691 99.0372Z" fill="#F1595F"/>
<path fill-rule="evenodd" clip-rule="evenodd" d="M107.83 72.2675L117.975 67.195C118.275 61.2322 117.852 55.3394 117.852 55.3394C113.931 57.1534 110.637 56.6907 107.83 54.3691V72.2675Z" fill="#A93C41"/>
<path fill-rule="evenodd" clip-rule="evenodd" d="M117.949 67.1338L107.809 72.2133V90.1094C107.99 89.8827 114.14 82.4812 116.425 76.5763C117.342 74.2089 117.777 70.6622 117.949 67.1338Z" fill="#A93C41"/>
<path fill-rule="evenodd" clip-rule="evenodd" d="M107.964 72.2675V54.3691C105.174 59.4788 101.873 63.2484 97.9415 65.3619C97.9415 65.3619 97.5179 71.6784 97.819 77.3397L107.964 72.2675Z" fill="#A93C41"/>
<path fill-rule="evenodd" clip-rule="evenodd" d="M107.83 72.1934L97.6802 77.2638C97.8616 80.6108 98.288 83.7221 99.2041 85.1824C101.526 88.8469 107.821 90.0895 107.83 90.0895V72.1934Z" fill="#A93C41"/>
<path fill-rule="evenodd" clip-rule="evenodd" d="M109.67 45.8496L108.808 45.4143C106.713 44.988 108.046 45.6319 106.241 44.1353C101.987 51.9359 96.944 57.6867 90.9394 60.9249L94.3591 62.6391C100.346 59.419 105.371 53.6956 109.625 45.9403L109.67 45.8496Z" fill="#FBCED0"/>
<path fill-rule="evenodd" clip-rule="evenodd" d="M112.43 74.1083L122.574 69.0358C122.875 63.073 122.452 57.1802 122.452 57.1802C118.53 58.9943 115.236 58.5315 112.43 56.21V74.1083Z" fill="#CEE4F6"/>
<path fill-rule="evenodd" clip-rule="evenodd" d="M122.549 69.0879L112.408 74.1674V92.0635C112.59 91.8368 118.739 84.4353 121.025 78.5304C121.941 76.163 122.376 72.6163 122.549 69.0879Z" fill="#9ECB63"/>
<path fill-rule="evenodd" clip-rule="evenodd" d="M111.606 56.2836L109.157 55.0591V90.8512C109.229 90.7605 110.254 89.5268 111.606 87.7037V56.2836ZM121.629 57.2541L119.135 56.0023L118.826 56.1837C116.704 57.0998 114.763 57.3448 112.994 56.9729L111.606 56.2836C114.4 58.5966 117.683 59.059 121.584 57.2721L121.629 57.2541Z" fill="white"/>
<path fill-rule="evenodd" clip-rule="evenodd" d="M111.644 74.1083V56.21C108.854 61.3196 105.553 65.0892 101.621 67.2027C101.621 67.2027 101.198 73.5192 101.499 79.1805L111.644 74.1083Z" fill="#9ECB63"/>
<path fill-rule="evenodd" clip-rule="evenodd" d="M112.43 74.1475L102.28 79.2179C102.461 82.5649 102.888 85.6762 103.804 87.1365C106.126 90.801 112.421 92.0436 112.43 92.0436V74.1475Z" fill="#CEE4F6"/>
<path fill-rule="evenodd" clip-rule="evenodd" d="M102.407 67.2769C106.343 65.1544 109.645 61.3903 112.43 56.2836L109.981 55.0591C107.196 60.1658 103.894 63.9299 99.9577 66.0524L102.407 67.2769Z" fill="#DDEAB4"/>
<path fill-rule="evenodd" clip-rule="evenodd" d="M99.7979 67.0633C99.689 69.1042 99.5077 73.721 99.7345 77.9659L102.184 79.1904C101.884 73.5305 102.311 67.2084 102.311 67.2084L99.8615 65.9839L99.7979 67.0633Z" fill="#BEDC8C"/>
<path fill-rule="evenodd" clip-rule="evenodd" d="M99.1784 78.0571C99.3598 81.4041 99.7861 84.5154 100.702 85.9757C101.89 87.8442 104.104 89.0868 105.99 89.8487C104.875 89.1594 103.841 88.2796 103.151 87.2002C102.235 85.7399 101.809 82.6286 101.627 79.2816L99.1784 78.0571Z" fill="#97C3E8"/>
</svg>
