<svg width="158" height="110" viewBox="0 0 158 110" fill="none" xmlns="http://www.w3.org/2000/svg">
<path fill-rule="evenodd" clip-rule="evenodd" d="M114.91 43.998L42.0742 80.4155V90.3308L114.91 53.9134V43.998Z" fill="#66C8CB"/>
<path fill-rule="evenodd" clip-rule="evenodd" d="M5.65681 62.1665L42.0742 80.3752V90.2906L5.65681 72.0819V62.1665Z" fill="#92D5D8"/>
<path fill-rule="evenodd" clip-rule="evenodd" d="M6.19727 62.247L79.0321 25.8296L115.45 44.0383L42.6147 80.4557L6.19727 62.247Z" fill="#EAF6FA"/>
<path fill-rule="evenodd" clip-rule="evenodd" d="M17.8298 64.433C20.0818 63.307 19.6415 61.2476 16.828 59.8409L73.8587 31.3255C76.6722 32.7323 80.7921 32.9518 83.0442 31.8258L102.833 41.7202C100.581 42.8462 101.035 44.9138 103.849 46.3206L46.8181 74.8359C44.0046 73.4291 39.8705 73.2013 37.6185 74.3273L17.8298 64.433Z" fill="#C5E7E8"/>
<path fill-rule="evenodd" clip-rule="evenodd" d="M54.3936 37.9033L90.811 56.112L66.5326 68.2511L30.1152 50.0424L54.3936 37.9033Z" fill="#FBCED0"/>
<path fill-rule="evenodd" clip-rule="evenodd" d="M91.1905 66.1022V56.187L66.9121 68.3261V78.2414L91.1905 66.1022Z" fill="#F1595F"/>
<path d="M60.6527 59.1271C67.357 59.1271 72.7918 56.4096 72.7918 53.0574C72.7918 49.7053 67.357 46.9878 60.6527 46.9878C53.9485 46.9878 48.5137 49.7053 48.5137 53.0574C48.5137 56.4096 53.9485 59.1271 60.6527 59.1271Z" fill="#F7A6A3"/>
<path fill-rule="evenodd" clip-rule="evenodd" d="M130.548 33.5342L57.7129 69.9516V79.8671L130.548 43.4496V33.5342Z" fill="#50A0A3"/>
<path fill-rule="evenodd" clip-rule="evenodd" d="M21.2954 51.8174L57.7129 70.0261V79.9415L21.2954 61.7328V51.8174Z" fill="#66C8CB"/>
<path fill-rule="evenodd" clip-rule="evenodd" d="M20.916 51.7832L93.7509 15.3657L130.169 33.5745L57.3335 69.9919L20.916 51.7832Z" fill="#EAF6FA"/>
<path fill-rule="evenodd" clip-rule="evenodd" d="M33.4685 54.0843C35.7205 52.9583 35.2802 50.899 32.4667 49.4922L89.4974 20.9769C92.3109 22.3837 96.4308 22.6032 98.6828 21.4772L118.472 31.3715C116.22 32.4976 116.674 34.5652 119.487 35.9719L62.4567 64.4873C59.6432 63.0805 55.5092 62.8527 53.2572 63.9787L33.4685 54.0843Z" fill="#C5E7E8"/>
<path fill-rule="evenodd" clip-rule="evenodd" d="M70.0323 27.5547L106.45 45.7634L82.1714 57.9025L45.7539 39.6938L70.0323 27.5547Z" fill="#FBCED0"/>
<path fill-rule="evenodd" clip-rule="evenodd" d="M105.909 55.6383V45.7231L81.6309 57.8622V67.7776L105.909 55.6383Z" fill="#C4474D"/>
<path d="M75.3715 48.7785C82.0757 48.7785 87.5106 46.061 87.5106 42.7088C87.5106 39.3566 82.0757 36.6392 75.3715 36.6392C68.6673 36.6392 63.2324 39.3566 63.2324 42.7088C63.2324 46.061 68.6673 48.7785 75.3715 48.7785Z" fill="#F7A6A3"/>
<path fill-rule="evenodd" clip-rule="evenodd" d="M110.31 18.4702L37.4746 54.8877V64.8031L110.31 28.3856V18.4702Z" fill="#66C8CB"/>
<path fill-rule="evenodd" clip-rule="evenodd" d="M1.05714 36.7534L37.4746 54.9621V64.8775L1.05714 46.6688V36.7534Z" fill="#92D5D8"/>
<path fill-rule="evenodd" clip-rule="evenodd" d="M0.677734 36.7192L73.5126 0.301758L109.931 18.5105L37.0952 54.9279L0.677734 36.7192Z" fill="#EAF6FA"/>
<path fill-rule="evenodd" clip-rule="evenodd" d="M13.2302 39.0204C15.4822 37.8944 15.0419 35.835 12.2284 34.4283L69.2591 5.91293C72.0726 7.3197 76.1925 7.53922 78.4446 6.4132L98.2333 16.3076C95.9812 17.4336 96.4356 19.5012 99.2491 20.908L42.2185 49.4233C39.4049 48.0165 35.2709 47.7887 33.0189 48.9147L13.2302 39.0204Z" fill="#C5E7E8"/>
<path fill-rule="evenodd" clip-rule="evenodd" d="M49.794 12.4907L86.2114 30.6994L61.9331 42.8385L25.5156 24.6298L49.794 12.4907Z" fill="#FBCED0"/>
<path fill-rule="evenodd" clip-rule="evenodd" d="M85.671 40.5744V30.6592L61.3926 42.7983V52.7137L85.671 40.5744Z" fill="#F1595F"/>
<path d="M55.1332 33.7145C61.8374 33.7145 67.2723 30.997 67.2723 27.6448C67.2723 24.2927 61.8374 21.5752 55.1332 21.5752C48.429 21.5752 42.9941 24.2927 42.9941 27.6448C42.9941 30.997 48.429 33.7145 55.1332 33.7145Z" fill="#F7A6A3"/>
<path fill-rule="evenodd" clip-rule="evenodd" d="M50.5901 76.412V86.3305L66.9121 78.1642V75.2754L57.6092 79.927L50.5901 76.412Z" fill="#50A0A3"/>
<path fill-rule="evenodd" clip-rule="evenodd" d="M66.5924 78.2088L90.8301 66.09V63.2012L66.5509 75.3408L66.5924 78.2088Z" fill="#C0464C"/>
<path fill-rule="evenodd" clip-rule="evenodd" d="M114.748 51.0122V53.9015L90.4684 66.0411V63.1522L114.748 51.0122Z" fill="#50A0A3"/>
<path fill-rule="evenodd" clip-rule="evenodd" d="M42.0742 62.3705V72.2368L34.0436 76.2623L5.93649 62.2038L18.8897 55.7271L37.0991 64.832L42.0742 62.3705Z" fill="#50A0A3"/>
<path fill-rule="evenodd" clip-rule="evenodd" d="M112.514 62.0602C112.514 61.8363 112.514 66.1426 112.514 66.1426C112.514 70.269 118.788 73.614 126.508 73.614H126.602C134.282 73.5877 140.506 70.2515 140.506 66.1426C140.506 66.1426 140.506 61.8363 140.506 62.0602C140.506 66.1822 134.232 69.5316 126.508 69.5316C118.788 69.5316 112.514 66.1822 112.514 62.0602Z" fill="#F6CA12"/>
<path d="M126.511 69.5214C118.782 69.5214 112.516 66.176 112.516 62.0493C112.516 57.9225 118.782 54.5771 126.511 54.5771C134.24 54.5771 140.506 57.9225 140.506 62.0493C140.506 66.176 134.24 69.5214 126.511 69.5214Z" fill="#FEEFA3"/>
<path fill-rule="evenodd" clip-rule="evenodd" d="M111.594 57.1154C111.594 56.8915 111.594 61.1978 111.594 61.1978C111.594 65.3242 117.868 68.6692 125.588 68.6692H125.683C133.362 68.6429 139.586 65.3066 139.586 61.1978C139.586 61.1978 139.586 56.8915 139.586 57.1154C139.586 61.2374 133.313 64.5868 125.588 64.5868C117.868 64.5868 111.594 61.2374 111.594 57.1154Z" fill="#F6CA12"/>
<path d="M125.591 64.5771C117.862 64.5771 111.596 61.2317 111.596 57.1049C111.596 52.9782 117.862 49.6328 125.591 49.6328C133.32 49.6328 139.586 52.9782 139.586 57.1049C139.586 61.2317 133.32 64.5771 125.591 64.5771Z" fill="#FEEFA3"/>
<path fill-rule="evenodd" clip-rule="evenodd" d="M112.514 51.5958C112.514 51.372 112.514 55.6783 112.514 55.6783C112.514 59.8047 118.788 63.1497 126.508 63.1497H126.602C134.282 63.1233 140.506 59.7871 140.506 55.6783C140.506 55.6783 140.506 51.372 140.506 51.5958C140.506 55.7178 134.232 59.0672 126.508 59.0672C118.788 59.0672 112.514 55.7178 112.514 51.5958Z" fill="#F6CA12"/>
<path d="M126.511 59.0576C118.782 59.0576 112.516 55.7121 112.516 51.5854C112.516 47.4587 118.782 44.1133 126.511 44.1133C134.24 44.1133 140.506 47.4587 140.506 51.5854C140.506 55.7121 134.24 59.0576 126.511 59.0576Z" fill="#FEEFA3"/>
<path fill-rule="evenodd" clip-rule="evenodd" d="M111.594 46.6515C111.594 46.4276 111.594 50.734 111.594 50.734C111.594 54.8603 117.868 58.2053 125.588 58.2053H125.683C133.362 58.179 139.586 54.8428 139.586 50.734C139.586 50.734 139.586 46.4276 139.586 46.6515C139.586 50.7735 133.313 54.1229 125.588 54.1229C117.868 54.1229 111.594 50.7735 111.594 46.6515Z" fill="#F6CA12"/>
<path d="M125.591 54.1127C117.862 54.1127 111.596 50.7673 111.596 46.6406C111.596 42.5138 117.862 39.1685 125.591 39.1685C133.32 39.1685 139.586 42.5138 139.586 46.6406C139.586 50.7673 133.32 54.1127 125.591 54.1127Z" fill="#FEEFA3"/>
<path fill-rule="evenodd" clip-rule="evenodd" d="M113.434 42.6266C113.434 42.4027 113.434 46.709 113.434 46.709C113.434 50.8354 119.707 54.1804 127.428 54.1804H127.522C135.202 54.1541 141.426 50.8179 141.426 46.709C141.426 46.709 141.426 42.4027 141.426 42.6266C141.426 46.7486 135.152 50.098 127.428 50.098C119.707 50.098 113.434 46.7486 113.434 42.6266Z" fill="#F6CA12"/>
<path d="M127.431 50.0883C119.702 50.0883 113.436 46.7429 113.436 42.6162C113.436 38.4894 119.702 35.144 127.431 35.144C135.16 35.144 141.426 38.4894 141.426 42.6162C141.426 46.7429 135.16 50.0883 127.431 50.0883Z" fill="#FEEFA3"/>
<path fill-rule="evenodd" clip-rule="evenodd" d="M112.514 37.6823C112.514 37.4584 112.514 41.7647 112.514 41.7647C112.514 45.8911 118.788 49.2361 126.508 49.2361H126.602C134.282 49.2098 140.506 45.8735 140.506 41.7647C140.506 41.7647 140.506 37.4584 140.506 37.6823C140.506 41.8043 134.232 45.1536 126.508 45.1536C118.788 45.1536 112.514 41.8043 112.514 37.6823Z" fill="#F6CA12"/>
<path d="M126.511 45.1435C118.782 45.1435 112.516 41.7981 112.516 37.6713C112.516 33.5446 118.782 30.1992 126.511 30.1992C134.24 30.1992 140.506 33.5446 140.506 37.6713C140.506 41.7981 134.24 45.1435 126.511 45.1435Z" fill="#FEEFA3"/>
<path fill-rule="evenodd" clip-rule="evenodd" d="M114.354 32.1627C114.354 31.9389 114.354 36.2452 114.354 36.2452C114.354 40.3716 120.627 43.7166 128.348 43.7166H128.442C136.122 43.6902 142.346 40.354 142.346 36.2452C142.346 36.2452 142.346 31.9389 142.346 32.1627C142.346 36.2847 136.072 39.6341 128.348 39.6341C120.627 39.6341 114.354 36.2847 114.354 32.1627Z" fill="#F6CA12"/>
<path d="M128.351 39.624C120.621 39.624 114.356 36.2786 114.356 32.1518C114.356 28.0251 120.621 24.6797 128.351 24.6797C136.08 24.6797 142.346 28.0251 142.346 32.1518C142.346 36.2786 136.08 39.624 128.351 39.624Z" fill="#FEEFA3"/>
<path fill-rule="evenodd" clip-rule="evenodd" d="M113.434 27.2179C113.434 26.994 113.434 31.3004 113.434 31.3004C113.434 35.4267 119.707 38.7717 127.428 38.7717H127.522C135.202 38.7454 141.426 35.4092 141.426 31.3004C141.426 31.3004 141.426 26.994 141.426 27.2179C141.426 31.3399 135.152 34.6893 127.428 34.6893C119.707 34.6893 113.434 31.3399 113.434 27.2179Z" fill="#F6CA12"/>
<path d="M127.431 34.6801C119.702 34.6801 113.436 31.3347 113.436 27.208C113.436 23.0812 119.702 19.7358 127.431 19.7358C135.16 19.7358 141.426 23.0812 141.426 27.208C141.426 31.3347 135.16 34.6801 127.431 34.6801Z" fill="#FEEFA3"/>
<path fill-rule="evenodd" clip-rule="evenodd" d="M112.514 22.2736C112.514 22.0497 112.514 26.356 112.514 26.356C112.514 30.4824 118.788 33.8274 126.508 33.8274H126.602C134.282 33.8011 140.506 30.4648 140.506 26.356C140.506 26.356 140.506 22.0497 140.506 22.2736C140.506 26.3956 134.232 29.745 126.508 29.745C118.788 29.745 112.514 26.3956 112.514 22.2736Z" fill="#F6CA12"/>
<path d="M126.511 29.7348C118.782 29.7348 112.516 26.3894 112.516 22.2626C112.516 18.1359 118.782 14.7905 126.511 14.7905C134.24 14.7905 140.506 18.1359 140.506 22.2626C140.506 26.3894 134.24 29.7348 126.511 29.7348Z" fill="#FEEFA3"/>
<path fill-rule="evenodd" clip-rule="evenodd" d="M113.434 16.754C113.434 16.5302 113.434 20.8365 113.434 20.8365C113.434 24.9629 119.707 28.3079 127.428 28.3079H127.522C135.202 28.2815 141.426 24.9453 141.426 20.8365C141.426 20.8365 141.426 16.5302 141.426 16.754C141.426 20.876 135.152 24.2254 127.428 24.2254C119.707 24.2254 113.434 20.876 113.434 16.754Z" fill="#F6CA12"/>
<path d="M127.431 24.3305C119.702 24.3305 113.436 20.9851 113.436 16.8584C113.436 12.7316 119.702 9.38623 127.431 9.38623C135.16 9.38623 141.426 12.7316 141.426 16.8584C141.426 20.9851 135.16 24.3305 127.431 24.3305Z" fill="#FEEFA3"/>
<path fill-rule="evenodd" clip-rule="evenodd" d="M112.514 11.2345C112.514 11.0106 112.514 15.317 112.514 15.317C112.514 19.4433 118.788 22.7883 126.508 22.7883H126.602C134.282 22.762 140.506 19.4258 140.506 15.317C140.506 15.317 140.506 11.0106 140.506 11.2345C140.506 15.3565 134.232 18.7059 126.508 18.7059C118.788 18.7059 112.514 15.3565 112.514 11.2345Z" fill="#F6CA12"/>
<path d="M126.511 18.6957C118.782 18.6957 112.516 15.3503 112.516 11.2236C112.516 7.09684 118.782 3.75146 126.511 3.75146C134.24 3.75146 140.506 7.09684 140.506 11.2236C140.506 15.3503 134.24 18.6957 126.511 18.6957Z" fill="#FEEFA3"/>
<path fill-rule="evenodd" clip-rule="evenodd" d="M138.641 11.6865C138.658 11.5367 138.666 11.3869 138.666 11.2459C138.666 7.67702 133.244 4.78662 126.568 4.78662C119.892 4.78662 114.47 7.67702 114.47 11.2459C114.47 11.3869 114.486 11.5367 114.503 11.6865C114.924 8.32029 120.172 5.66782 126.568 5.66782C132.972 5.66782 138.212 8.32029 138.641 11.6865Z" fill="#F6CA12"/>
<path fill-rule="evenodd" clip-rule="evenodd" d="M85.8364 78.5036C85.8364 78.2797 85.8364 82.586 85.8364 82.586C85.8364 86.7124 92.1098 90.0574 99.8302 90.0574H99.9248C107.604 90.031 113.828 86.6948 113.828 82.586C113.828 82.586 113.828 78.2797 113.828 78.5036C113.828 82.6255 107.555 85.9749 99.8302 85.9749C92.1098 85.9749 85.8364 82.6255 85.8364 78.5036Z" fill="#F6CA12"/>
<path d="M99.8331 85.9653C92.1039 85.9653 85.8381 82.6199 85.8381 78.4931C85.8381 74.3664 92.1039 71.021 99.8331 71.021C107.562 71.021 113.828 74.3664 113.828 78.4931C113.828 82.6199 107.562 85.9653 99.8331 85.9653Z" fill="#FEEFA3"/>
<path fill-rule="evenodd" clip-rule="evenodd" d="M87.6763 74.4791C87.6763 74.2553 87.6763 78.5616 87.6763 78.5616C87.6763 82.688 93.9496 86.033 101.67 86.033H101.765C109.444 86.0066 115.668 82.6704 115.668 78.5616C115.668 78.5616 115.668 74.2553 115.668 74.4791C115.668 78.6011 109.395 81.9505 101.67 81.9505C93.9496 81.9505 87.6763 78.6011 87.6763 74.4791Z" fill="#F6CA12"/>
<path d="M101.673 81.9404C93.9437 81.9404 87.6779 78.595 87.6779 74.4682C87.6779 70.3415 93.9437 66.9961 101.673 66.9961C109.402 66.9961 115.668 70.3415 115.668 74.4682C115.668 78.595 109.402 81.9404 101.673 81.9404Z" fill="#FEEFA3"/>
<path fill-rule="evenodd" clip-rule="evenodd" d="M86.7563 69.5343C86.7563 69.3104 86.7563 73.6168 86.7563 73.6168C86.7563 77.7431 93.0297 81.0881 100.75 81.0881H100.845C108.524 81.0618 114.748 77.7256 114.748 73.6168C114.748 73.6168 114.748 69.3104 114.748 69.5343C114.748 73.6563 108.475 77.0057 100.75 77.0057C93.0297 77.0057 86.7563 73.6563 86.7563 69.5343Z" fill="#F6CA12"/>
<path d="M100.753 76.996C93.0238 76.996 86.758 73.6506 86.758 69.5239C86.758 65.3971 93.0238 62.0518 100.753 62.0518C108.482 62.0518 114.748 65.3971 114.748 69.5239C114.748 73.6506 108.482 76.996 100.753 76.996Z" fill="#FEEFA3"/>
<path fill-rule="evenodd" clip-rule="evenodd" d="M87.6763 64.0148C87.6763 63.7909 87.6763 68.0972 87.6763 68.0972C87.6763 72.2236 93.9496 75.5686 101.67 75.5686H101.765C109.444 75.5423 115.668 72.206 115.668 68.0972C115.668 68.0972 115.668 63.7909 115.668 64.0148C115.668 68.1368 109.395 71.4862 101.67 71.4862C93.9496 71.4862 87.6763 68.1368 87.6763 64.0148Z" fill="#F6CA12"/>
<path d="M101.673 71.4765C93.9437 71.4765 87.6779 68.1311 87.6779 64.0043C87.6779 59.8776 93.9437 56.5322 101.673 56.5322C109.402 56.5322 115.668 59.8776 115.668 64.0043C115.668 68.1311 109.402 71.4765 101.673 71.4765Z" fill="#FEEFA3"/>
<path fill-rule="evenodd" clip-rule="evenodd" d="M86.7563 59.0704C86.7563 58.8466 86.7563 63.1529 86.7563 63.1529C86.7563 67.2793 93.0297 70.6243 100.75 70.6243H100.845C108.524 70.5979 114.748 67.2617 114.748 63.1529C114.748 63.1529 114.748 58.8466 114.748 59.0704C114.748 63.1924 108.475 66.5418 100.75 66.5418C93.0297 66.5418 86.7563 63.1924 86.7563 59.0704Z" fill="#F6CA12"/>
<path d="M100.753 66.5317C93.0238 66.5317 86.758 63.1863 86.758 59.0595C86.758 54.9328 93.0238 51.5874 100.753 51.5874C108.482 51.5874 114.748 54.9328 114.748 59.0595C114.748 63.1863 108.482 66.5317 100.753 66.5317Z" fill="#FEEFA3"/>
<path fill-rule="evenodd" clip-rule="evenodd" d="M85.8364 54.1256C85.8364 53.9017 85.8364 58.2081 85.8364 58.2081C85.8364 62.3344 92.1098 65.6795 99.8302 65.6795H99.9248C107.604 65.6531 113.828 62.3169 113.828 58.2081C113.828 58.2081 113.828 53.9017 113.828 54.1256C113.828 58.2476 107.555 61.597 99.8302 61.597C92.1098 61.597 85.8364 58.2476 85.8364 54.1256Z" fill="#F6CA12"/>
<path d="M99.8331 61.5873C92.1039 61.5873 85.8381 58.2419 85.8381 54.1152C85.8381 49.9884 92.1039 46.6431 99.8331 46.6431C107.562 46.6431 113.828 49.9884 113.828 54.1152C113.828 58.2419 107.562 61.5873 99.8331 61.5873Z" fill="#FEEFA3"/>
<path fill-rule="evenodd" clip-rule="evenodd" d="M86.7563 48.6061C86.7563 48.3822 86.7563 52.6885 86.7563 52.6885C86.7563 56.8149 93.0297 60.1599 100.75 60.1599H100.845C108.524 60.1336 114.748 56.7974 114.748 52.6885C114.748 52.6885 114.748 48.3822 114.748 48.6061C114.748 52.7281 108.475 56.0775 100.75 56.0775C93.0297 56.0775 86.7563 52.7281 86.7563 48.6061Z" fill="#F6CA12"/>
<path d="M100.753 56.0678C93.0238 56.0678 86.758 52.7224 86.758 48.5957C86.758 44.4689 93.0238 41.1235 100.753 41.1235C108.482 41.1235 114.748 44.4689 114.748 48.5957C114.748 52.7224 108.482 56.0678 100.753 56.0678Z" fill="#FEEFA3"/>
<path fill-rule="evenodd" clip-rule="evenodd" d="M85.8364 43.0866C85.8364 42.8627 85.8364 47.169 85.8364 47.169C85.8364 51.2954 92.1098 54.6404 99.8302 54.6404H99.9248C107.604 54.6141 113.828 51.2778 113.828 47.169C113.828 47.169 113.828 42.8627 113.828 43.0866C113.828 47.2085 107.555 50.5579 99.8302 50.5579C92.1098 50.5579 85.8364 47.2085 85.8364 43.0866Z" fill="#F6CA12"/>
<path d="M99.8331 50.5483C92.1039 50.5483 85.8381 47.2029 85.8381 43.0761C85.8381 38.9494 92.1039 35.604 99.8331 35.604C107.562 35.604 113.828 38.9494 113.828 43.0761C113.828 47.2029 107.562 50.5483 99.8331 50.5483Z" fill="#FEEFA3"/>
<path fill-rule="evenodd" clip-rule="evenodd" d="M111.963 43.5385C111.98 43.3887 111.988 43.2389 111.988 43.0979C111.988 39.5291 106.566 36.6387 99.8902 36.6387C93.214 36.6387 87.7924 39.5291 87.7924 43.0979C87.7924 43.2389 87.8087 43.3887 87.8252 43.5385C88.2461 40.1723 93.4946 37.5199 99.8902 37.5199C106.294 37.5199 111.534 40.1723 111.963 43.5385Z" fill="#F6CA12"/>
<path fill-rule="evenodd" clip-rule="evenodd" d="M62.8384 93.9127C62.8384 93.6889 62.8384 97.9952 62.8384 97.9952C62.8384 102.122 69.1117 105.467 76.8322 105.467H76.9267C84.606 105.44 90.8301 102.104 90.8301 97.9952C90.8301 97.9952 90.8301 93.6889 90.8301 93.9127C90.8301 98.0347 84.5567 101.384 76.8322 101.384C69.1117 101.384 62.8384 98.0347 62.8384 93.9127Z" fill="#F6CA12"/>
<path d="M76.8351 101.374C69.1058 101.374 62.8401 98.029 62.8401 93.9023C62.8401 89.7756 69.1058 86.4302 76.8351 86.4302C84.5643 86.4302 90.8301 89.7756 90.8301 93.9023C90.8301 98.029 84.5643 101.374 76.8351 101.374Z" fill="#FEEFA3"/>
<path fill-rule="evenodd" clip-rule="evenodd" d="M63.7583 88.9684C63.7583 88.7445 63.7583 93.0508 63.7583 93.0508C63.7583 97.1772 70.0317 100.522 77.7521 100.522H77.8466C85.5259 100.496 91.75 97.1597 91.75 93.0508C91.75 93.0508 91.75 88.7445 91.75 88.9684C91.75 93.0904 85.4766 96.4398 77.7521 96.4398C70.0317 96.4398 63.7583 93.0904 63.7583 88.9684Z" fill="#F6CA12"/>
<path d="M77.755 96.4296C70.0257 96.4296 63.76 93.0842 63.76 88.9575C63.76 84.8307 70.0257 81.4854 77.755 81.4854C85.4842 81.4854 91.75 84.8307 91.75 88.9575C91.75 93.0842 85.4842 96.4296 77.755 96.4296Z" fill="#FEEFA3"/>
<path fill-rule="evenodd" clip-rule="evenodd" d="M62.8384 84.0231C62.8384 83.7992 62.8384 88.1055 62.8384 88.1055C62.8384 92.2319 69.1117 95.5769 76.8322 95.5769H76.9267C84.606 95.5506 90.8301 92.2143 90.8301 88.1055C90.8301 88.1055 90.8301 83.7992 90.8301 84.0231C90.8301 88.1451 84.5567 91.4945 76.8322 91.4945C69.1117 91.4945 62.8384 88.1451 62.8384 84.0231Z" fill="#F6CA12"/>
<path d="M76.8351 91.4848C69.1058 91.4848 62.8401 88.1394 62.8401 84.0126C62.8401 79.8859 69.1058 76.5405 76.8351 76.5405C84.5643 76.5405 90.8301 79.8859 90.8301 84.0126C90.8301 88.1394 84.5643 91.4848 76.8351 91.4848Z" fill="#FEEFA3"/>
<path fill-rule="evenodd" clip-rule="evenodd" d="M63.7583 78.504C63.7583 78.2802 63.7583 82.5865 63.7583 82.5865C63.7583 86.7129 70.0317 90.0579 77.7521 90.0579H77.8466C85.5259 90.0315 91.75 86.6953 91.75 82.5865C91.75 82.5865 91.75 78.2802 91.75 78.504C91.75 82.626 85.4766 85.9754 77.7521 85.9754C70.0317 85.9754 63.7583 82.626 63.7583 78.504Z" fill="#F6CA12"/>
<path d="M77.755 86.08C70.0257 86.08 63.76 82.7346 63.76 78.6079C63.76 74.4811 70.0257 71.1357 77.755 71.1357C85.4842 71.1357 91.75 74.4811 91.75 78.6079C91.75 82.7346 85.4842 86.08 77.755 86.08Z" fill="#FEEFA3"/>
<path fill-rule="evenodd" clip-rule="evenodd" d="M62.8384 72.984C62.8384 72.7601 62.8384 77.0665 62.8384 77.0665C62.8384 81.1928 69.1117 84.5379 76.8322 84.5379H76.9267C84.606 84.5115 90.8301 81.1753 90.8301 77.0665C90.8301 77.0665 90.8301 72.7601 90.8301 72.984C90.8301 77.106 84.5567 80.4554 76.8322 80.4554C69.1117 80.4554 62.8384 77.106 62.8384 72.984Z" fill="#F6CA12"/>
<path d="M76.8351 80.4457C69.1058 80.4457 62.8401 77.1003 62.8401 72.9736C62.8401 68.8468 69.1058 65.5015 76.8351 65.5015C84.5643 65.5015 90.8301 68.8468 90.8301 72.9736C90.8301 77.1003 84.5643 80.4457 76.8351 80.4457Z" fill="#FEEFA3"/>
<path fill-rule="evenodd" clip-rule="evenodd" d="M88.9654 73.436C88.9819 73.2862 88.9902 73.1364 88.9902 72.9954C88.9902 69.4265 83.5683 66.5361 76.8921 66.5361C70.2159 66.5361 64.7943 69.4265 64.7943 72.9954C64.7943 73.1364 64.8107 73.2862 64.8272 73.436C65.2481 70.0698 70.4965 67.4173 76.8921 67.4173C83.296 67.4173 88.5363 70.0698 88.9654 73.436Z" fill="#F6CA12"/>
<path fill-rule="evenodd" clip-rule="evenodd" d="M142.028 71.9639C138.563 80.9127 124.141 77.4863 117.085 82.1665C114.974 83.5665 113.049 86.1144 111.691 86.8118C107.339 77.9008 108.943 58.9325 108.943 58.9325C112.677 57.7705 114.962 54.311 115.692 50.3505C123.13 51.7865 125.657 45.02 126.82 37.6733C132.3 42.2277 134.308 47.0027 142.028 43.4319C142.028 43.4319 146.883 59.4257 142.028 71.9639Z" fill="#CFA115"/>
<path fill-rule="evenodd" clip-rule="evenodd" d="M135.906 42.0542C134.46 41.3899 133.076 40.5006 131.75 39.3984C126.271 49.4325 119.789 56.8355 112.069 60.9861C112.069 60.9861 109.964 90.4496 114.819 98.1326C117.399 102.217 121.129 104.09 123.883 104.948C122.046 103.694 120.383 102.169 119.224 100.335C114.369 92.6515 116.473 63.1884 116.473 63.1884C124.078 59.101 130.48 51.8579 135.906 42.0542Z" fill="#BEDC8C"/>
<path fill-rule="evenodd" clip-rule="evenodd" d="M156.145 43.5559L151.74 41.353C146.625 43.7187 142.054 44.1128 137.959 42.7851C143.09 46.3185 149.063 46.8025 156.054 43.5972L156.145 43.5559Z" fill="#DDEAB4"/>
<path fill-rule="evenodd" clip-rule="evenodd" d="M136.925 109.96C136.906 109.956 124.55 107.529 119.994 100.318C115.139 92.6337 117.243 63.1707 117.243 63.1707C124.964 59.0206 131.445 51.617 136.925 41.5835C142.405 46.1379 148.886 47.0597 156.607 43.4889C156.607 43.4889 158.711 70.8483 153.856 83.3865C149.3 95.1534 136.945 109.936 136.925 109.96Z" fill="#9ECB63"/>
<path fill-rule="evenodd" clip-rule="evenodd" d="M145.592 59.7824C146.025 58.8484 146.7 58.0549 147.458 57.6716C148.763 57.0238 149.823 57.8551 149.823 59.534C149.823 60.2358 149.637 60.9754 149.325 61.6502C149.24 61.8283 149.147 62.0066 149.045 62.1739L134.504 89.5709C134.07 90.4671 133.414 91.2229 132.68 91.59C131.993 91.9355 131.373 91.8653 130.941 91.482H130.94L130.939 91.4765L130.931 91.4711L123.774 84.9984C123.687 84.939 123.606 84.8634 123.532 84.7825C123.216 84.4208 123.027 83.8647 123.027 83.1576C123.027 81.4786 124.087 79.5892 125.392 78.936C126.06 78.6013 126.663 78.6553 127.093 79.0116C127.122 79.0386 127.149 79.0601 127.176 79.0871L132.694 84.0699L145.592 59.7824Z" fill="#709447"/>
<path fill-rule="evenodd" clip-rule="evenodd" d="M136.822 41.6013C136.822 41.6013 134.298 40.3786 132.417 39.3984C126.941 49.4267 120.464 56.8268 112.736 60.9861L117.141 63.1885C124.831 59.0544 131.292 51.6927 136.758 41.7184L136.822 41.6013Z" fill="#DDEAB4"/>
<path fill-rule="evenodd" clip-rule="evenodd" d="M150.192 61.8522C150.624 60.9183 151.3 60.1247 152.058 59.7414C153.363 59.0936 154.423 59.925 154.423 61.6039C154.423 62.3057 154.236 63.0452 153.924 63.72C153.84 63.8982 153.746 64.0764 153.644 64.2437L139.104 91.6408C138.67 92.5369 138.014 93.2927 137.279 93.6598C136.592 94.0053 135.973 93.9351 135.541 93.5518H135.54L135.539 93.5463L135.531 93.541L128.374 87.0682C128.287 87.0088 128.205 86.9333 128.131 86.8523C127.815 86.4906 127.627 85.9346 127.627 85.2274C127.627 83.5485 128.687 81.6591 129.991 81.0058C130.659 80.6711 131.262 80.7251 131.693 81.0814C131.721 81.1084 131.749 81.1299 131.776 81.1569L137.294 86.1397L150.192 61.8522Z" fill="#CEE4F6"/>
<path fill-rule="evenodd" clip-rule="evenodd" d="M136.212 93.8241L133.986 92.712C133.882 92.6635 133.786 92.5932 133.697 92.5176L133.696 92.5122H133.695L133.688 92.5069L126.53 86.0341C126.443 85.9747 126.361 85.8992 126.287 85.8182C125.972 85.4565 125.783 84.9005 125.783 84.1933C125.783 82.5144 126.843 80.625 128.148 79.9718C128.712 79.691 129.23 79.6856 129.637 79.9069L131.743 80.9596C131.357 80.8031 130.884 80.8301 130.375 81.0838C129.069 81.737 128.01 83.6264 128.01 85.3053C128.01 86.0125 128.198 86.574 128.514 86.9302C128.588 87.0166 128.669 87.0869 128.757 87.1517L135.914 93.6189L135.922 93.6298H135.923H135.924C136.012 93.7108 136.109 93.7755 136.212 93.8241ZM135.772 84.4956L148.348 60.8181C148.781 59.8842 149.456 59.0906 150.214 58.7073C150.761 58.4374 151.264 58.4212 151.664 58.6263L153.891 59.7384C153.49 59.5387 152.987 59.5494 152.441 59.8248C151.683 60.2026 151.007 61.0016 150.574 61.9301L137.676 86.2177L135.772 84.4956Z" fill="#97C3E8"/>
</svg>
