<svg width="122" height="149" viewBox="0 0 122 149" fill="none" xmlns="http://www.w3.org/2000/svg">
<path fill-rule="evenodd" clip-rule="evenodd" d="M61.6421 0.253906L1.5386 30.3047L61.6421 60.3554L121.746 30.3047L61.6421 0.253906Z" fill="#F4D6BD"/>
<path fill-rule="evenodd" clip-rule="evenodd" d="M0.932638 30.2661L61.0361 60.3168V128.587L0.932638 98.5361V30.2661Z" fill="#DFA991"/>
<path fill-rule="evenodd" clip-rule="evenodd" d="M121.14 30.2661L61.0361 60.3168V128.587L121.14 98.5361V30.2661Z" fill="#D19685"/>
<path fill-rule="evenodd" clip-rule="evenodd" d="M110.502 35.6709C110.358 43.3625 109.644 52.0865 107.469 57.7003C103.115 68.9538 91.3067 83.0722 91.2886 83.098C91.2693 83.098 79.4622 80.775 75.1079 73.8835C72.9334 70.4378 72.2197 62.4236 72.0752 54.8869L110.502 35.6709Z" fill="#BA8074"/>
<path fill-rule="evenodd" clip-rule="evenodd" d="M24.1318 41.8804L38.0381 48.833V77.9856L24.1318 71.033V41.8804Z" fill="#4A525A"/>
<path fill-rule="evenodd" clip-rule="evenodd" d="M13.5437 79.5517L6.76074 83.9831V78.2777L15.2226 72.7489L15.2584 72.8094L15.3656 72.7384L23.8365 86.7309V92.4134L23.8275 92.422L17.0445 81.2176V94.4559L23.0278 97.4431V101.478L7.56012 93.7558V89.7208L13.5437 92.7081V79.5517Z" fill="#F4D6BD"/>
<path d="M97.1474 94.6587L118.071 84.1968V95.6701L97.1474 106.132V94.6587Z" fill="#F4F8FD"/>
<path fill-rule="evenodd" clip-rule="evenodd" d="M115.54 86.3824V95.6547L116.231 95.3089V86.0366L115.54 86.3824ZM114.768 86.7682V96.0404L115.073 95.8883V86.616L114.768 86.7682ZM105.554 91.3754V100.648L105.858 100.495V91.2232L105.554 91.3754ZM110.219 89.043V98.3152L110.525 98.1623V88.8901L110.219 89.043ZM101.006 93.6494V102.922L101.31 102.769V93.4972L101.006 93.6494ZM112.205 88.0501V97.3223L112.636 97.1064V87.8341L112.205 88.0501ZM102.99 92.6573V101.93L103.424 101.713V92.4405L102.99 92.6573ZM107.657 90.3241V99.5963L108.088 99.3804V90.1081L107.657 90.3241ZM98.4421 94.9313V104.203L98.8755 103.987V94.7145L98.4421 94.9313ZM106.325 90.9896V100.262L107.019 99.9153V90.643L106.325 90.9896ZM110.99 88.6572V97.9294L111.683 97.5829V88.3106L110.99 88.6572ZM101.777 93.2636V102.536L102.469 102.19V92.9178L101.777 93.2636ZM113.3 87.5021V96.7744L114.284 96.2826V87.0103L113.3 87.5021ZM104.086 92.1093V101.382L105.07 100.89V91.6175L104.086 92.1093ZM108.752 89.7761V99.0484L109.735 98.5573V89.285L108.752 89.7761ZM99.538 94.3833V103.656L100.522 103.164V93.8915L99.538 94.3833Z" fill="#4A525A"/>
<path fill-rule="evenodd" clip-rule="evenodd" d="M24.7378 41.8036L84.8413 11.7529L98.748 18.7056L38.6441 48.7562L24.7378 41.8036Z" fill="#ADB6C1"/>
<path fill-rule="evenodd" clip-rule="evenodd" d="M98.7529 22.1103C97.3708 21.4755 96.0477 20.6256 94.7808 19.5723C89.5444 29.1616 83.3505 36.2366 75.9718 40.2032C75.9718 40.2032 73.9608 68.3609 78.6004 75.7034C81.066 79.6064 84.6309 81.3972 87.2627 82.2169C85.5072 81.0187 83.9175 79.5613 82.8103 77.8086C78.1703 70.4652 80.1813 42.3079 80.1813 42.3079C87.4485 38.4017 93.5668 31.4795 98.7529 22.1103Z" fill="#BEDC8C"/>
<path fill-rule="evenodd" clip-rule="evenodd" d="M118.071 23.5173L113.862 21.4121C108.974 23.6729 104.605 24.0496 100.691 22.7808C105.596 26.1576 111.304 26.6201 117.985 23.5568L118.071 23.5173Z" fill="#DDEAB4"/>
<path fill-rule="evenodd" clip-rule="evenodd" d="M98.8282 86.9878C98.8097 86.9846 87.0018 84.6648 82.6479 77.7733C78.0078 70.4298 80.0188 42.2725 80.0188 42.2725C87.3975 38.3064 93.5914 31.231 98.8282 21.6421C104.065 25.9946 110.259 26.8756 117.638 23.4631C117.638 23.4631 119.649 49.6099 115.009 61.5924C110.655 72.8379 98.8468 86.9655 98.8282 86.9878Z" fill="#9ECB63"/>
<path fill-rule="evenodd" clip-rule="evenodd" d="M108.359 39.0482C108.772 38.1557 109.417 37.3973 110.142 37.031C111.389 36.4119 112.402 37.2064 112.402 38.8109C112.402 39.4816 112.224 40.1884 111.926 40.8333C111.845 41.0035 111.756 41.1738 111.658 41.3338L97.7624 67.5166C97.3476 68.373 96.7202 69.0953 96.0186 69.4461C95.3618 69.7763 94.77 69.7093 94.3573 69.3429H94.3563L94.3552 69.3377L94.3475 69.3326L87.5075 63.1467C87.4244 63.0899 87.3465 63.0177 87.2758 62.9403C86.974 62.5947 86.7939 62.0633 86.7939 61.3874C86.7939 59.7829 87.8067 57.9773 89.0537 57.353C89.6919 57.0331 90.2681 57.0847 90.6793 57.4253C90.7067 57.451 90.733 57.4716 90.7588 57.4974L96.0325 62.2594L108.359 39.0482Z" fill="#709447"/>
<path fill-rule="evenodd" clip-rule="evenodd" d="M98.7529 21.6775C98.7529 21.6775 96.3403 20.509 94.543 19.5723C89.3099 29.156 83.1201 36.2282 75.734 40.2032L79.9435 42.3079C87.2934 38.3571 93.4678 31.3216 98.6916 21.7894L98.7529 21.6775Z" fill="#DDEAB4"/>
<path fill-rule="evenodd" clip-rule="evenodd" d="M112.038 41.118C112.452 40.2255 113.097 39.4671 113.822 39.1008C115.069 38.4817 116.082 39.2762 116.082 40.8807C116.082 41.5514 115.904 42.2582 115.606 42.9031C115.525 43.0733 115.435 43.2436 115.338 43.4036L101.442 69.5864C101.027 70.4428 100.4 71.1651 99.6982 71.516C99.0415 71.8461 98.4497 71.7791 98.037 71.4128H98.036L98.0349 71.4075L98.0272 71.4024L91.1871 65.2165C91.1041 65.1598 91.0262 65.0875 90.9555 65.0102C90.6537 64.6645 90.4736 64.1331 90.4736 63.4573C90.4736 61.8528 91.4864 60.0471 92.7334 59.4228C93.3715 59.103 93.9478 59.1546 94.359 59.4951C94.3864 59.5209 94.4127 59.5414 94.4385 59.5672L99.7122 64.3292L112.038 41.118Z" fill="#CEE4F6"/>
<path fill-rule="evenodd" clip-rule="evenodd" d="M98.6008 71.5119L96.4732 70.4491C96.3741 70.4027 96.2818 70.3356 96.1971 70.2633L96.1961 70.2582H96.1951L96.1879 70.2531L89.3473 64.0672C89.2642 64.0104 89.1863 63.9382 89.1157 63.8608C88.8138 63.5151 88.6338 62.9838 88.6338 62.3079C88.6338 60.7034 89.6465 58.8977 90.8935 58.2735C91.4326 58.0052 91.9279 58 92.3164 58.2115L94.3295 59.2176C93.9601 59.0679 93.5087 59.0938 93.0217 59.3363C91.7742 59.9605 90.7614 61.7662 90.7614 63.3707C90.7614 64.0465 90.9415 64.5831 91.2438 64.9236C91.3145 65.0061 91.3919 65.0733 91.4755 65.1352L98.3155 71.3158L98.3232 71.3262H98.3243H98.3248C98.4094 71.4036 98.5018 71.4655 98.6008 71.5119ZM98.1798 62.5968L110.199 39.9687C110.612 39.0761 111.258 38.3178 111.982 37.9515C112.504 37.6935 112.985 37.678 113.368 37.8741L115.496 38.9368C115.113 38.7459 114.632 38.7562 114.11 39.0194C113.385 39.3805 112.74 40.1441 112.326 41.0314L100 64.2426L98.1798 62.5968Z" fill="#97C3E8"/>
<path fill-rule="evenodd" clip-rule="evenodd" d="M31.5986 147.959C36.3056 148.917 44.3777 149.684 49.4893 147.555L63.0352 141.485C68.232 142.081 75.2818 142.954 82.4807 139.291L89.0193 136.032C93.3855 132.454 89.6368 127.321 83.5668 125.063C77.4115 122.763 72.6834 123.7 69.5951 122.465C63.6954 120.122 57.7532 115.607 51.7044 113.52L31.8543 123.445L31.5986 147.959Z" fill="#E4E9EF"/>
<path fill-rule="evenodd" clip-rule="evenodd" d="M55.388 117.666C55.388 117.474 55.388 121.167 55.388 121.167C55.388 124.705 49.8502 127.573 43.0351 127.573H42.9517C36.1729 127.551 30.6787 124.69 30.6787 121.167C30.6787 121.167 30.6787 117.474 30.6787 117.666C30.6787 121.201 36.2164 124.073 43.0351 124.073C49.8502 124.073 55.388 121.201 55.388 117.666Z" fill="#E3AF18"/>
<path d="M43.0326 124.034C49.8554 124.034 55.3864 121.165 55.3864 117.626C55.3864 114.088 49.8554 111.219 43.0326 111.219C36.2097 111.219 30.6787 114.088 30.6787 117.626C30.6787 121.165 36.2097 124.034 43.0326 124.034Z" fill="#FEEFA3"/>
<path fill-rule="evenodd" clip-rule="evenodd" d="M56.3079 113.412C56.3079 113.22 56.3079 116.912 56.3079 116.912C56.3079 120.45 50.7701 123.319 43.9551 123.319H43.8716C37.0928 123.296 31.5986 120.435 31.5986 116.912C31.5986 116.912 31.5986 113.22 31.5986 113.412C31.5986 116.946 37.1364 119.818 43.9551 119.818C50.7701 119.818 56.3079 116.946 56.3079 113.412Z" fill="#E3AF18"/>
<path d="M43.9525 119.779C50.7753 119.779 56.3064 116.911 56.3064 113.372C56.3064 109.833 50.7753 106.965 43.9525 106.965C37.1297 106.965 31.5986 109.833 31.5986 113.372C31.5986 116.911 37.1297 119.779 43.9525 119.779Z" fill="#FEEFA3"/>
<path fill-rule="evenodd" clip-rule="evenodd" d="M54.468 108.697C54.468 108.505 54.468 112.198 54.468 112.198C54.468 115.736 48.9303 118.604 42.1152 118.604H42.0318C35.253 118.582 29.7588 115.721 29.7588 112.198C29.7588 112.198 29.7588 108.505 29.7588 108.697C29.7588 112.232 35.2965 115.104 42.1152 115.104C48.9303 115.104 54.468 112.232 54.468 108.697Z" fill="#E3AF18"/>
<path d="M42.1126 115.064C48.9355 115.064 54.4665 112.196 54.4665 108.657C54.4665 105.119 48.9355 102.25 42.1126 102.25C35.2898 102.25 29.7588 105.119 29.7588 108.657C29.7588 112.196 35.2898 115.064 42.1126 115.064Z" fill="#FEEFA3"/>
<path fill-rule="evenodd" clip-rule="evenodd" d="M55.3879 104.442C55.3879 104.25 55.3879 107.943 55.3879 107.943C55.3879 111.481 49.8502 114.349 43.0351 114.349H42.9517C36.1729 114.327 30.6787 111.466 30.6787 107.943C30.6787 107.943 30.6787 104.25 30.6787 104.442C30.6787 107.977 36.2164 110.849 43.0351 110.849C49.8502 110.849 55.3879 107.977 55.3879 104.442Z" fill="#E3AF18"/>
<path d="M43.0326 110.81C49.8554 110.81 55.3864 107.942 55.3864 104.403C55.3864 100.865 49.8554 97.9961 43.0326 97.9961C36.2097 97.9961 30.6787 100.865 30.6787 104.403C30.6787 107.942 36.2097 110.81 43.0326 110.81Z" fill="#FEEFA3"/>
<path fill-rule="evenodd" clip-rule="evenodd" d="M53.5481 100.993C53.5481 100.801 53.5481 104.493 53.5481 104.493C53.5481 108.031 48.0104 110.9 41.1953 110.9H41.1118C34.3331 110.877 28.8389 108.016 28.8389 104.493C28.8389 104.493 28.8389 100.801 28.8389 100.993C28.8389 104.527 34.3766 107.399 41.1953 107.399C48.0104 107.399 53.5481 104.527 53.5481 100.993Z" fill="#E3AF18"/>
<path d="M41.1927 107.36C48.0156 107.36 53.5466 104.492 53.5466 100.953C53.5466 97.4145 48.0156 94.5459 41.1927 94.5459C34.3699 94.5459 28.8389 97.4145 28.8389 100.953C28.8389 104.492 34.3699 107.36 41.1927 107.36Z" fill="#FEEFA3"/>
<path fill-rule="evenodd" clip-rule="evenodd" d="M54.468 96.7377C54.468 96.5457 54.468 100.238 54.468 100.238C54.468 103.776 48.9303 106.645 42.1152 106.645H42.0318C35.253 106.622 29.7588 103.761 29.7588 100.238C29.7588 100.238 29.7588 96.5457 29.7588 96.7377C29.7588 100.272 35.2965 103.144 42.1152 103.144C48.9303 103.144 54.468 100.272 54.468 96.7377Z" fill="#E3AF18"/>
<path d="M42.1126 103.105C48.9355 103.105 54.4665 100.237 54.4665 96.6982C54.4665 93.1596 48.9355 90.291 42.1126 90.291C35.2898 90.291 29.7588 93.1596 29.7588 96.6982C29.7588 100.237 35.2898 103.105 42.1126 103.105Z" fill="#FEEFA3"/>
<path fill-rule="evenodd" clip-rule="evenodd" d="M53.5481 92.0233C53.5481 91.8314 53.5481 95.5239 53.5481 95.5239C53.5481 99.0621 48.0104 101.93 41.1953 101.93H41.1118C34.3331 101.908 28.8389 99.0471 28.8389 95.5239C28.8389 95.5239 28.8389 91.8314 28.8389 92.0233C28.8389 95.5578 34.3766 98.4298 41.1953 98.4298C48.0104 98.4298 53.5481 95.5578 53.5481 92.0233Z" fill="#E3AF18"/>
<path d="M41.1927 98.391C48.0156 98.391 53.5466 95.5224 53.5466 91.9838C53.5466 88.4452 48.0156 85.5767 41.1927 85.5767C34.3699 85.5767 28.8389 88.4452 28.8389 91.9838C28.8389 95.5224 34.3699 98.391 41.1927 98.391Z" fill="#FEEFA3"/>
<path fill-rule="evenodd" clip-rule="evenodd" d="M54.468 87.7685C54.468 87.5765 54.468 91.269 54.468 91.269C54.468 94.8072 48.9303 97.6755 42.1152 97.6755H42.0318C35.253 97.6529 29.7588 94.7922 29.7588 91.269C29.7588 91.269 29.7588 87.5765 29.7588 87.7685C29.7588 91.3029 35.2965 94.1749 42.1152 94.1749C48.9303 94.1749 54.468 91.3029 54.468 87.7685Z" fill="#E3AF18"/>
<path d="M42.1126 94.2513C48.9355 94.2513 54.4665 91.3827 54.4665 87.8441C54.4665 84.3056 48.9355 81.437 42.1126 81.437C35.2898 81.437 29.7588 84.3056 29.7588 87.8441C29.7588 91.3827 35.2898 94.2513 42.1126 94.2513Z" fill="#FEEFA3"/>
<path fill-rule="evenodd" clip-rule="evenodd" d="M55.388 83.5141C55.388 83.3221 55.388 87.0146 55.388 87.0146C55.388 90.5529 49.8502 93.4211 43.0352 93.4211H42.9517C36.1729 93.3985 30.6787 90.5378 30.6787 87.0146C30.6787 87.0146 30.6787 83.3221 30.6787 83.5141C30.6787 87.0485 36.2164 89.9205 43.0352 89.9205C49.8502 89.9205 55.388 87.0485 55.388 83.5141Z" fill="#E3AF18"/>
<path d="M43.0326 89.9969C49.8554 89.9969 55.3864 87.1283 55.3864 83.5898C55.3864 80.0512 49.8554 77.1826 43.0326 77.1826C36.2097 77.1826 30.6787 80.0512 30.6787 83.5898C30.6787 87.1283 36.2097 89.9969 43.0326 89.9969Z" fill="#FEEFA3"/>
<path fill-rule="evenodd" clip-rule="evenodd" d="M54.468 78.7992C54.468 78.6073 54.468 82.2998 54.468 82.2998C54.468 85.838 48.9303 88.7062 42.1152 88.7062H42.0318C35.253 88.6837 29.7588 85.823 29.7588 82.2998C29.7588 82.2998 29.7588 78.6073 29.7588 78.7992C29.7588 82.3337 35.2965 85.2057 42.1152 85.2057C48.9303 85.2057 54.468 82.3337 54.468 78.7992Z" fill="#E3AF18"/>
<path d="M42.1126 85.2821C48.9355 85.2821 54.4665 82.4135 54.4665 78.8749C54.4665 75.3363 48.9355 72.4678 42.1126 72.4678C35.2898 72.4678 29.7588 75.3363 29.7588 78.8749C29.7588 82.4135 35.2898 85.2821 42.1126 85.2821Z" fill="#FEEFA3"/>
<path fill-rule="evenodd" clip-rule="evenodd" d="M55.388 74.0849C55.388 73.8929 55.388 77.5854 55.388 77.5854C55.388 81.1237 49.8502 83.9919 43.0352 83.9919H42.9517C36.1729 83.9693 30.6787 81.1086 30.6787 77.5854C30.6787 77.5854 30.6787 73.8929 30.6787 74.0849C30.6787 77.6193 36.2164 80.4913 43.0352 80.4913C49.8502 80.4913 55.388 77.6193 55.388 74.0849Z" fill="#E3AF18"/>
<path d="M43.0326 80.4525C49.8554 80.4525 55.3864 77.5839 55.3864 74.0453C55.3864 70.5068 49.8554 67.6382 43.0326 67.6382C36.2097 67.6382 30.6787 70.5068 30.6787 74.0453C30.6787 77.5839 36.2097 80.4525 43.0326 80.4525Z" fill="#FEEFA3"/>
<path fill-rule="evenodd" clip-rule="evenodd" d="M31.6205 74.4745C31.606 74.346 31.5986 74.2176 31.5986 74.0967C31.5986 71.0365 36.3848 68.5581 42.278 68.5581C48.1713 68.5581 52.9572 71.0365 52.9572 74.0967C52.9572 74.2176 52.9427 74.346 52.9281 74.4745C52.5566 71.5881 47.9236 69.3137 42.278 69.3137C36.6252 69.3137 31.9993 71.5881 31.6205 74.4745Z" fill="#F6CA12"/>
<path fill-rule="evenodd" clip-rule="evenodd" d="M78.386 131.695C78.386 131.503 78.386 135.196 78.386 135.196C78.386 138.734 72.8483 141.602 66.0332 141.602H65.9497C59.1709 141.58 53.6768 138.719 53.6768 135.196C53.6768 135.196 53.6768 131.503 53.6768 131.695C53.6768 135.23 59.2145 138.102 66.0332 138.102C72.8483 138.102 78.386 135.23 78.386 131.695Z" fill="#F6CA12"/>
<path d="M66.0306 138.178C72.8535 138.178 78.3845 135.309 78.3845 131.77C78.3845 128.232 72.8535 125.363 66.0306 125.363C59.2078 125.363 53.6768 128.232 53.6768 131.77C53.6768 135.309 59.2078 138.178 66.0306 138.178Z" fill="#FEEFA3"/>
<path fill-rule="evenodd" clip-rule="evenodd" d="M77.4661 128.246C77.4661 128.054 77.4661 131.746 77.4661 131.746C77.4661 135.284 71.9284 138.153 65.1133 138.153H65.0298C58.251 138.13 52.7568 135.269 52.7568 131.746C52.7568 131.746 52.7568 128.054 52.7568 128.246C52.7568 131.78 58.2946 134.652 65.1133 134.652C71.9284 134.652 77.4661 131.78 77.4661 128.246Z" fill="#F6CA12"/>
<path d="M65.1107 134.728C71.9335 134.728 77.4645 131.859 77.4645 128.321C77.4645 124.782 71.9335 121.914 65.1107 121.914C58.2879 121.914 52.7568 124.782 52.7568 128.321C52.7568 131.859 58.2879 134.728 65.1107 134.728Z" fill="#FEEFA3"/>
<path fill-rule="evenodd" clip-rule="evenodd" d="M77.4661 123.991C77.4661 123.799 77.4661 127.491 77.4661 127.491C77.4661 131.029 71.9284 133.898 65.1133 133.898H65.0298C58.251 133.875 52.7568 131.014 52.7568 127.491C52.7568 127.491 52.7568 123.799 52.7568 123.991C52.7568 127.525 58.2946 130.397 65.1133 130.397C71.9284 130.397 77.4661 127.525 77.4661 123.991Z" fill="#F6CA12"/>
<path d="M65.1107 130.473C71.9335 130.473 77.4645 127.605 77.4645 124.066C77.4645 120.528 71.9335 117.659 65.1107 117.659C58.2879 117.659 52.7568 120.528 52.7568 124.066C52.7568 127.605 58.2879 130.473 65.1107 130.473Z" fill="#FEEFA3"/>
<path fill-rule="evenodd" clip-rule="evenodd" d="M76.5462 119.276C76.5462 119.084 76.5462 122.777 76.5462 122.777C76.5462 126.315 71.0084 129.183 64.1934 129.183H64.1099C57.3311 129.161 51.8369 126.3 51.8369 122.777C51.8369 122.777 51.8369 119.084 51.8369 119.276C51.8369 122.811 57.3746 125.683 64.1934 125.683C71.0084 125.683 76.5462 122.811 76.5462 119.276Z" fill="#F6CA12"/>
<path d="M64.1908 125.759C71.0136 125.759 76.5446 122.89 76.5446 119.351C76.5446 115.813 71.0136 112.944 64.1908 112.944C57.3679 112.944 51.8369 115.813 51.8369 119.351C51.8369 122.89 57.3679 125.759 64.1908 125.759Z" fill="#FEEFA3"/>
<path fill-rule="evenodd" clip-rule="evenodd" d="M77.4661 115.137C77.4661 114.945 77.4661 118.637 77.4661 118.637C77.4661 122.175 71.9284 125.044 65.1133 125.044H65.0298C58.251 125.021 52.7568 122.16 52.7568 118.637C52.7568 118.637 52.7568 114.945 52.7568 115.137C52.7568 118.671 58.2946 121.543 65.1133 121.543C71.9284 121.543 77.4661 118.671 77.4661 115.137Z" fill="#F6CA12"/>
<path d="M65.1107 121.504C71.9335 121.504 77.4645 118.636 77.4645 115.097C77.4645 111.559 71.9335 108.69 65.1107 108.69C58.2879 108.69 52.7568 111.559 52.7568 115.097C52.7568 118.636 58.2879 121.504 65.1107 121.504Z" fill="#FEEFA3"/>
<path fill-rule="evenodd" clip-rule="evenodd" d="M78.386 110.767C78.386 110.575 78.386 114.267 78.386 114.267C78.386 117.805 72.8483 120.674 66.0332 120.674H65.9497C59.1709 120.651 53.6768 117.79 53.6768 114.267C53.6768 114.267 53.6768 110.575 53.6768 110.767C53.6768 114.301 59.2145 117.173 66.0332 117.173C72.8483 117.173 78.386 114.301 78.386 110.767Z" fill="#F6CA12"/>
<path d="M66.0306 117.249C72.8535 117.249 78.3845 114.381 78.3845 110.842C78.3845 107.304 72.8535 104.435 66.0306 104.435C59.2078 104.435 53.6768 107.304 53.6768 110.842C53.6768 114.381 59.2078 117.249 66.0306 117.249Z" fill="#FEEFA3"/>
<path fill-rule="evenodd" clip-rule="evenodd" d="M77.4661 106.167C77.4661 105.975 77.4661 109.668 77.4661 109.668C77.4661 113.206 71.9284 116.074 65.1133 116.074H65.0298C58.251 116.052 52.7568 113.191 52.7568 109.668C52.7568 109.668 52.7568 105.975 52.7568 106.167C52.7568 109.702 58.2946 112.574 65.1133 112.574C71.9284 112.574 77.4661 109.702 77.4661 106.167Z" fill="#F6CA12"/>
<path d="M65.1107 112.535C71.9335 112.535 77.4645 109.666 77.4645 106.128C77.4645 102.589 71.9335 99.7207 65.1107 99.7207C58.2879 99.7207 52.7568 102.589 52.7568 106.128C52.7568 109.666 58.2879 112.535 65.1107 112.535Z" fill="#FEEFA3"/>
<path fill-rule="evenodd" clip-rule="evenodd" d="M78.386 101.338C78.386 101.146 78.386 104.838 78.386 104.838C78.386 108.377 72.8483 111.245 66.0332 111.245H65.9497C59.1709 111.222 53.6768 108.362 53.6768 104.838C53.6768 104.838 53.6768 101.146 53.6768 101.338C53.6768 104.872 59.2145 107.744 66.0332 107.744C72.8483 107.744 78.386 104.872 78.386 101.338Z" fill="#F6CA12"/>
<path d="M66.0306 107.705C72.8535 107.705 78.3845 104.837 78.3845 101.298C78.3845 97.7597 72.8535 94.8911 66.0306 94.8911C59.2078 94.8911 53.6768 97.7597 53.6768 101.298C53.6768 104.837 59.2078 107.705 66.0306 107.705Z" fill="#FEEFA3"/>
<path fill-rule="evenodd" clip-rule="evenodd" d="M55.5385 101.727C55.5239 101.598 55.5166 101.47 55.5166 101.349C55.5166 98.289 60.3027 95.8105 66.196 95.8105C72.0893 95.8105 76.8751 98.289 76.8751 101.349C76.8751 101.47 76.8607 101.598 76.8461 101.727C76.4746 98.8406 71.8416 96.5661 66.196 96.5661C60.5431 96.5661 55.9173 98.8406 55.5385 101.727Z" fill="#F6CA12"/>
<path fill-rule="evenodd" clip-rule="evenodd" d="M47.1086 138.135C47.1086 137.943 47.1086 141.635 47.1086 141.635C47.1086 145.173 41.5709 148.042 34.7558 148.042H34.6724C27.8936 148.019 22.3994 145.158 22.3994 141.635C22.3994 141.635 22.3994 137.943 22.3994 138.135C22.3994 141.669 27.9371 144.541 34.7558 144.541C41.5709 144.541 47.1086 141.669 47.1086 138.135Z" fill="#F6CA12"/>
<path d="M34.7533 144.617C41.5761 144.617 47.1071 141.748 47.1071 138.21C47.1071 134.671 41.5761 131.803 34.7533 131.803C27.9304 131.803 22.3994 134.671 22.3994 138.21C22.3994 141.748 27.9304 144.617 34.7533 144.617Z" fill="#FEEFA3"/>
<path fill-rule="evenodd" clip-rule="evenodd" d="M46.1887 133.995C46.1887 133.803 46.1887 137.496 46.1887 137.496C46.1887 141.034 40.651 143.902 33.8359 143.902H33.7525C26.9737 143.879 21.4795 141.019 21.4795 137.496C21.4795 137.496 21.4795 133.803 21.4795 133.995C21.4795 137.529 27.0172 140.401 33.8359 140.401C40.651 140.401 46.1887 137.529 46.1887 133.995Z" fill="#F6CA12"/>
<path d="M33.8333 140.363C40.6562 140.363 46.1872 137.494 46.1872 133.955C46.1872 130.417 40.6562 127.548 33.8333 127.548C27.0105 127.548 21.4795 130.417 21.4795 133.955C21.4795 137.494 27.0105 140.363 33.8333 140.363Z" fill="#FEEFA3"/>
<path fill-rule="evenodd" clip-rule="evenodd" d="M47.1086 129.74C47.1086 129.548 47.1086 133.241 47.1086 133.241C47.1086 136.779 41.5709 139.647 34.7558 139.647H34.6724C27.8936 139.625 22.3994 136.764 22.3994 133.241C22.3994 133.241 22.3994 129.548 22.3994 129.74C22.3994 133.275 27.9371 136.147 34.7558 136.147C41.5709 136.147 47.1086 133.275 47.1086 129.74Z" fill="#F6CA12"/>
<path d="M34.7533 136.108C41.5761 136.108 47.1071 133.239 47.1071 129.701C47.1071 126.162 41.5761 123.293 34.7533 123.293C27.9304 123.293 22.3994 126.162 22.3994 129.701C22.3994 133.239 27.9304 136.108 34.7533 136.108Z" fill="#FEEFA3"/>
<path fill-rule="evenodd" clip-rule="evenodd" d="M46.1887 125.026C46.1887 124.834 46.1887 128.526 46.1887 128.526C46.1887 132.065 40.651 134.933 33.8359 134.933H33.7525C26.9737 134.91 21.4795 132.05 21.4795 128.526C21.4795 128.526 21.4795 124.834 21.4795 125.026C21.4795 128.56 27.0172 131.432 33.8359 131.432C40.651 131.432 46.1887 128.56 46.1887 125.026Z" fill="#F6CA12"/>
<path d="M33.8333 131.393C40.6562 131.393 46.1872 128.525 46.1872 124.986C46.1872 121.448 40.6562 118.579 33.8333 118.579C27.0105 118.579 21.4795 121.448 21.4795 124.986C21.4795 128.525 27.0105 131.393 33.8333 131.393Z" fill="#FEEFA3"/>
<path fill-rule="evenodd" clip-rule="evenodd" d="M47.1086 120.196C47.1086 120.004 47.1086 123.697 47.1086 123.697C47.1086 127.235 41.5709 130.103 34.7558 130.103H34.6724C27.8936 130.081 22.3994 127.22 22.3994 123.697C22.3994 123.697 22.3994 120.004 22.3994 120.196C22.3994 123.731 27.9371 126.603 34.7558 126.603C41.5709 126.603 47.1086 123.731 47.1086 120.196Z" fill="#F6CA12"/>
<path d="M34.7533 126.564C41.5761 126.564 47.1071 123.695 47.1071 120.157C47.1071 116.618 41.5761 113.75 34.7533 113.75C27.9304 113.75 22.3994 116.618 22.3994 120.157C22.3994 123.695 27.9304 126.564 34.7533 126.564Z" fill="#FEEFA3"/>
<path fill-rule="evenodd" clip-rule="evenodd" d="M24.2612 120.586C24.2466 120.457 24.2393 120.329 24.2393 120.208C24.2393 117.148 29.0254 114.669 34.9187 114.669C40.812 114.669 45.5978 117.148 45.5978 120.208C45.5978 120.329 45.5833 120.457 45.5688 120.586C45.1973 117.699 40.5643 115.425 34.9187 115.425C29.2658 115.425 24.64 117.699 24.2612 120.586Z" fill="#F6CA12"/>
</svg>
