<svg width="118" height="146" viewBox="0 0 118 146" fill="none" xmlns="http://www.w3.org/2000/svg">
<path fill-rule="evenodd" clip-rule="evenodd" d="M72.5799 96.8745C88.0218 96.8745 117.04 97.2264 117.04 110.863C117.04 124.5 88.0218 124.852 72.5799 124.852C57.1374 124.852 57.1374 96.8745 72.5799 96.8745Z" fill="#E4E9EF"/>
<path d="M72.4185 114.62C87.8709 114.62 100.398 108.357 100.398 100.63C100.398 92.904 87.8709 86.6406 72.4185 86.6406C56.9661 86.6406 44.4395 92.904 44.4395 100.63C44.4395 108.357 56.9661 114.62 72.4185 114.62Z" fill="#F7A6A3"/>
<path fill-rule="evenodd" clip-rule="evenodd" d="M44.4395 100.6C44.4946 108.3 57.0065 114.543 72.426 114.543C87.8317 114.543 100.357 108.3 100.399 100.6V100.554V110.666C100.399 118.386 87.873 124.655 72.426 124.655H72.247C56.8826 124.607 44.4395 118.356 44.4395 110.666V100.554V100.6Z" fill="#BC444A"/>
<path fill-rule="evenodd" clip-rule="evenodd" d="M94.2783 31.6753C90.3388 48.9284 75.372 56.0765 75.3724 62.7405C75.3734 70.3174 94.3223 74.9707 95.1532 100.348C94.8697 95.724 84.8537 92.0021 72.5556 92.0021C60.2575 92.0021 50.24 95.724 49.959 100.348C50.7889 74.9707 69.7378 70.3174 69.7383 62.7405C69.7393 56.0765 54.7705 48.9284 50.8319 31.6753C55.9284 34.0482 63.6843 35.5709 72.3748 35.5894H72.5556C81.3194 35.5894 89.1462 34.0629 94.2783 31.6753Z" fill="#BBD8ED"/>
<path d="M72.5615 111.888C85.0445 111.888 95.164 106.828 95.164 100.587C95.164 94.345 85.0445 89.2852 72.5615 89.2852C60.0785 89.2852 49.959 94.345 49.959 100.587C49.959 106.828 60.0785 111.888 72.5615 111.888Z" fill="#A8CBE1"/>
<path fill-rule="evenodd" clip-rule="evenodd" d="M91.6632 30.6401C88.2014 48.3895 74.4987 55.7433 74.4991 62.5989C74.4999 70.3937 91.7018 75.1809 92.432 101.288C90.3918 106.315 83.3816 109.68 72.5749 109.68C61.7683 109.68 54.3435 105.763 52.7188 101.288C53.448 75.1809 70.6499 70.3937 70.6508 62.5989C70.6512 55.7433 56.9467 48.3895 53.4858 30.6401C57.9642 33.0812 64.7795 34.6478 72.416 34.6668H72.5749C80.2759 34.6668 87.1534 33.0965 91.6632 30.6401Z" fill="#CEE4F6"/>
<path fill-rule="evenodd" clip-rule="evenodd" d="M53.2977 94.6812C57.28 91.4444 64.4314 89.2852 72.5752 89.2852C80.719 89.2852 87.8708 91.4444 91.8394 94.6812C92.1563 96.7248 92.3631 98.9281 92.432 101.309C90.3926 106.335 83.3785 109.698 72.5752 109.698C61.772 109.698 54.3448 105.784 52.7188 101.309C52.7876 98.9281 52.9807 96.7248 53.2977 94.6812Z" fill="#BBD8ED"/>
<path fill-rule="evenodd" clip-rule="evenodd" d="M86.72 100.063C86.7423 99.974 86.7538 99.885 86.7557 99.7895C86.8174 95.8871 72.0063 82.041 72.0063 82.041C72.0063 82.041 57.4835 95.8935 57.3167 99.7895C57.297 99.9486 57.2874 100.108 57.2874 100.267C57.2874 104.322 63.8826 107.626 72.0063 107.626C80.1299 107.626 86.7257 104.322 86.7257 100.267C86.7257 100.197 86.7239 100.133 86.72 100.063Z" fill="#FFF9D9"/>
<path fill-rule="evenodd" clip-rule="evenodd" d="M69.1035 107.477C70.042 107.57 71.0127 107.624 72.0064 107.624C80.1303 107.624 86.7259 104.324 86.7259 100.263C86.7259 100.194 86.7239 100.131 86.7205 100.062C86.742 99.9742 86.7542 99.8813 86.7557 99.7885C86.8173 95.888 72.0064 82.041 72.0064 82.041C74.3525 87.7255 84.0434 106.177 69.1035 107.477Z" fill="#F6CA12"/>
<path fill-rule="evenodd" clip-rule="evenodd" d="M68.092 68.0771C60.3683 75.7762 53.5097 84.171 52.2028 99.4777C51.7583 104.688 55.7526 104.636 55.6092 101.758C54.869 86.8185 62.6591 74.6134 68.092 68.0771Z" fill="#F4F8FD"/>
<path fill-rule="evenodd" clip-rule="evenodd" d="M76.5451 56.7193C83.1659 49.712 90.5814 40.3534 91.8882 25.0467C92.3327 19.8367 88.3384 19.8886 88.4819 22.7669C89.222 37.7059 81.702 48.8102 76.5451 56.7193Z" fill="#F4F8FD"/>
<path fill-rule="evenodd" clip-rule="evenodd" d="M72.1977 41.8042L72.1972 41.7944C72.2998 41.7944 72.402 41.7993 72.5041 41.7993C72.5647 41.7993 72.6253 41.7993 72.6859 41.7993V41.8042C77.4085 41.9313 81.5964 43.8815 81.5964 46.257C81.5964 46.301 81.5954 46.3401 81.5929 46.3792C81.6061 46.4329 81.6135 46.4867 81.6144 46.5453C81.6521 48.911 73.8483 56.707 72.6859 60.7199C71.5236 56.707 63.7203 48.911 63.7579 46.5453C63.7584 46.4867 63.7658 46.4329 63.779 46.3792C63.777 46.3401 63.776 46.301 63.776 46.257C63.776 43.8815 67.5059 41.9362 72.1977 41.8042Z" fill="#F6CA12"/>
<path d="M72.6747 50.7115C77.5994 50.7115 81.5916 48.7153 81.5916 46.253C81.5916 43.7906 77.5994 41.7944 72.6747 41.7944C67.75 41.7944 63.7578 43.7906 63.7578 46.253C63.7578 48.7153 67.75 50.7115 72.6747 50.7115Z" fill="#CFA115"/>
<path d="M72.4185 28.0323C87.8709 28.0323 100.398 21.7688 100.398 14.0425C100.398 6.31614 87.8709 0.0527344 72.4185 0.0527344C56.9661 0.0527344 44.4395 6.31614 44.4395 14.0425C44.4395 21.7688 56.9661 28.0323 72.4185 28.0323Z" fill="#F7A6A3"/>
<path fill-rule="evenodd" clip-rule="evenodd" d="M44.4395 14.127C44.4946 21.8271 57.0065 28.072 72.426 28.072C87.873 28.072 100.399 21.8037 100.399 14.0815V24.1931C100.399 31.9138 87.873 38.1836 72.426 38.1836L72.247 38.1822C56.8826 38.134 44.4395 31.8849 44.4395 24.1931V14.0815V14.127Z" fill="#BC444A"/>
<path fill-rule="evenodd" clip-rule="evenodd" d="M53.906 3.50244C49.5516 5.96901 46.9198 9.20722 46.9198 12.7527C46.9198 20.4735 59.4593 26.7419 74.8926 26.7419C81.9891 26.7419 88.4654 25.4204 93.3985 23.2446C88.2725 26.1494 80.7627 27.982 72.4122 27.982C56.979 27.982 44.4395 21.7137 44.4395 13.9929C44.4395 9.81766 48.1047 6.06684 53.906 3.50244Z" fill="#FEF1F2"/>
<path fill-rule="evenodd" clip-rule="evenodd" d="M53.906 90.0903C49.5516 92.5569 46.9198 95.7951 46.9198 99.3406C46.9198 107.061 59.4593 113.33 74.8926 113.33C81.9891 113.33 88.4654 112.008 93.3985 109.833C88.2725 112.737 80.7627 114.57 72.4122 114.57C56.979 114.57 44.4395 108.302 44.4395 100.581C44.4395 96.4056 48.1047 92.6547 53.906 90.0903Z" fill="#FEF1F2"/>
<path fill-rule="evenodd" clip-rule="evenodd" d="M51.7125 109.963C56.2536 114.538 58.7074 118.879 59.1688 122.986C52.8016 120.958 47.4365 118.151 44.4395 113.498V103.659C46.6385 106.57 49.0911 108.572 51.7125 109.963Z" fill="#81292D"/>
<path fill-rule="evenodd" clip-rule="evenodd" d="M11.3184 138.955H42.9484L42.4692 145.143H56.1545C67.6513 145.167 69.6016 123.979 54.9941 123.979L13.1073 120.103L11.3184 138.955Z" fill="#E4E9EF"/>
<path fill-rule="evenodd" clip-rule="evenodd" d="M23.7016 116.201C23.7016 116.018 23.7016 119.529 23.7016 119.529C23.7016 122.893 28.9669 125.62 35.4467 125.62H35.5261C41.9714 125.599 47.1953 122.879 47.1953 119.529C47.1953 119.529 47.1953 116.018 47.1953 116.201C47.1953 119.561 41.93 122.292 35.4467 122.292C28.9669 122.292 23.7016 119.561 23.7016 116.201Z" fill="#E3AF18"/>
<path d="M35.4491 122.398C28.9619 122.398 23.703 119.67 23.703 116.306C23.703 112.941 28.9619 110.214 35.4491 110.214C41.9364 110.214 47.1953 112.941 47.1953 116.306C47.1953 119.67 41.9364 122.398 35.4491 122.398Z" fill="#FEEFA3"/>
<path fill-rule="evenodd" clip-rule="evenodd" d="M22.7816 112.175C22.7816 111.993 22.7816 115.504 22.7816 115.504C22.7816 118.868 28.047 121.595 34.5268 121.595H34.6061C41.0515 121.574 46.2754 118.854 46.2754 115.504C46.2754 115.504 46.2754 111.993 46.2754 112.175C46.2754 115.536 41.0101 118.267 34.5268 118.267C28.047 118.267 22.7816 115.536 22.7816 112.175Z" fill="#E3AF18"/>
<path d="M34.5292 118.258C28.042 118.258 22.7831 115.531 22.7831 112.166C22.7831 108.802 28.042 106.074 34.5292 106.074C41.0164 106.074 46.2754 108.802 46.2754 112.166C46.2754 115.531 41.0164 118.258 34.5292 118.258Z" fill="#FEEFA3"/>
<path fill-rule="evenodd" clip-rule="evenodd" d="M23.7016 107.691C23.7016 107.508 23.7016 111.019 23.7016 111.019C23.7016 114.384 28.9669 117.111 35.4467 117.111H35.5261C41.9714 117.089 47.1953 114.369 47.1953 111.019C47.1953 111.019 47.1953 107.508 47.1953 107.691C47.1953 111.052 41.93 113.782 35.4467 113.782C28.9669 113.782 23.7016 111.052 23.7016 107.691Z" fill="#E3AF18"/>
<path d="M35.4491 113.774C28.9619 113.774 23.703 111.046 23.703 107.682C23.703 104.317 28.9619 101.59 35.4491 101.59C41.9364 101.59 47.1953 104.317 47.1953 107.682C47.1953 111.046 41.9364 113.774 35.4491 113.774Z" fill="#FEEFA3"/>
<path fill-rule="evenodd" clip-rule="evenodd" d="M22.7816 103.666C22.7816 103.484 22.7816 106.994 22.7816 106.994C22.7816 110.359 28.047 113.086 34.5268 113.086H34.6061C41.0515 113.064 46.2754 110.344 46.2754 106.994C46.2754 106.994 46.2754 103.484 46.2754 103.666C46.2754 107.027 41.0101 109.757 34.5268 109.757C28.047 109.757 22.7816 107.027 22.7816 103.666Z" fill="#E3AF18"/>
<path d="M34.5292 109.749C28.042 109.749 22.7831 107.021 22.7831 103.657C22.7831 100.292 28.042 97.5649 34.5292 97.5649C41.0164 97.5649 46.2754 100.292 46.2754 103.657C46.2754 107.021 41.0164 109.749 34.5292 109.749Z" fill="#FEEFA3"/>
<path fill-rule="evenodd" clip-rule="evenodd" d="M24.6215 100.446C24.6215 100.264 24.6215 103.775 24.6215 103.775C24.6215 107.139 29.8868 109.866 36.3666 109.866H36.446C42.8913 109.845 48.1152 107.125 48.1152 103.775C48.1152 103.775 48.1152 100.264 48.1152 100.446C48.1152 103.807 42.8499 106.538 36.3666 106.538C29.8868 106.538 24.6215 103.807 24.6215 100.446Z" fill="#E3AF18"/>
<path d="M36.3691 106.529C29.8818 106.529 24.6229 103.802 24.6229 100.437C24.6229 97.0727 29.8818 94.3452 36.3691 94.3452C42.8563 94.3452 48.1152 97.0727 48.1152 100.437C48.1152 103.802 42.8563 106.529 36.3691 106.529Z" fill="#FEEFA3"/>
<path fill-rule="evenodd" clip-rule="evenodd" d="M23.7016 96.3072C23.7016 96.1246 23.7016 99.6355 23.7016 99.6355C23.7016 103 28.9669 105.727 35.4467 105.727H35.5261C41.9714 105.705 47.1953 102.985 47.1953 99.6355C47.1953 99.6355 47.1953 96.1246 47.1953 96.3072C47.1953 99.6678 41.93 102.398 35.4467 102.398C28.9669 102.398 23.7016 99.6678 23.7016 96.3072Z" fill="#E3AF18"/>
<path d="M35.4491 102.504C28.9619 102.504 23.703 99.7767 23.703 96.4122C23.703 93.0478 28.9619 90.3203 35.4491 90.3203C41.9364 90.3203 47.1953 93.0478 47.1953 96.4122C47.1953 99.7767 41.9364 102.504 35.4491 102.504Z" fill="#FEEFA3"/>
<path fill-rule="evenodd" clip-rule="evenodd" d="M25.5414 91.9371C25.5414 91.7545 25.5414 95.2654 25.5414 95.2654C25.5414 98.6296 30.8067 101.357 37.2866 101.357H37.3659C43.8112 101.335 49.0352 98.6153 49.0352 95.2654C49.0352 95.2654 49.0352 91.7545 49.0352 91.9371C49.0352 95.2977 43.7698 98.0284 37.2866 98.0284C30.8067 98.0284 25.5414 95.2977 25.5414 91.9371Z" fill="#E3AF18"/>
<path d="M37.289 98.0198C30.8018 98.0198 25.5428 95.2924 25.5428 91.9279C25.5428 88.5634 30.8018 85.8359 37.289 85.8359C43.7762 85.8359 49.0352 88.5634 49.0352 91.9279C49.0352 95.2924 43.7762 98.0198 37.289 98.0198Z" fill="#FEEFA3"/>
<path fill-rule="evenodd" clip-rule="evenodd" d="M24.6215 87.9126C24.6215 87.7301 24.6215 91.241 24.6215 91.241C24.6215 94.6052 29.8868 97.3323 36.3666 97.3323H36.446C42.8913 97.3109 48.1152 94.5909 48.1152 91.241C48.1152 91.241 48.1152 87.7301 48.1152 87.9126C48.1152 91.2732 42.8499 94.004 36.3666 94.004C29.8868 94.004 24.6215 91.2732 24.6215 87.9126Z" fill="#E3AF18"/>
<path d="M36.3691 93.9949C29.8818 93.9949 24.6229 91.2675 24.6229 87.903C24.6229 84.5385 29.8818 81.811 36.3691 81.811C42.8563 81.811 48.1152 84.5385 48.1152 87.903C48.1152 91.2675 42.8563 93.9949 36.3691 93.9949Z" fill="#FEEFA3"/>
<path fill-rule="evenodd" clip-rule="evenodd" d="M23.7016 83.773C23.7016 83.5905 23.7016 87.1014 23.7016 87.1014C23.7016 90.4655 28.9669 93.1927 35.4467 93.1927H35.5261C41.9714 93.1712 47.1953 90.4512 47.1953 87.1014C47.1953 87.1014 47.1953 83.5905 47.1953 83.773C47.1953 87.1336 41.93 89.8643 35.4467 89.8643C28.9669 89.8643 23.7016 87.1336 23.7016 83.773Z" fill="#E3AF18"/>
<path d="M35.4491 89.8558C28.9619 89.8558 23.703 87.1283 23.703 83.7638C23.703 80.3993 28.9619 77.6719 35.4491 77.6719C41.9364 77.6719 47.1953 80.3993 47.1953 83.7638C47.1953 87.1283 41.9364 89.8558 35.4491 89.8558Z" fill="#FEEFA3"/>
<path fill-rule="evenodd" clip-rule="evenodd" d="M24.6215 79.2886C24.6215 79.1061 24.6215 82.617 24.6215 82.617C24.6215 85.9812 29.8868 88.7083 36.3666 88.7083H36.446C42.8913 88.6868 48.1152 85.9669 48.1152 82.617C48.1152 82.617 48.1152 79.1061 48.1152 79.2886C48.1152 82.6492 42.8499 85.3799 36.3666 85.3799C29.8868 85.3799 24.6215 82.6492 24.6215 79.2886Z" fill="#E3AF18"/>
<path d="M36.3691 85.4857C29.8818 85.4857 24.6229 82.7582 24.6229 79.3937C24.6229 76.0292 29.8818 73.3018 36.3691 73.3018C42.8563 73.3018 48.1152 76.0292 48.1152 79.3937C48.1152 82.7582 42.8563 85.4857 36.3691 85.4857Z" fill="#FEEFA3"/>
<path fill-rule="evenodd" clip-rule="evenodd" d="M23.7016 74.8038C23.7016 74.6212 23.7016 78.1321 23.7016 78.1321C23.7016 81.4963 28.9669 84.2235 35.4467 84.2235H35.5261C41.9714 84.202 47.1953 81.482 47.1953 78.1321C47.1953 78.1321 47.1953 74.6212 47.1953 74.8038C47.1953 78.1644 41.93 80.8951 35.4467 80.8951C28.9669 80.8951 23.7016 78.1644 23.7016 74.8038Z" fill="#E3AF18"/>
<path d="M35.4491 80.886C28.9619 80.886 23.703 78.1586 23.703 74.7941C23.703 71.4296 28.9619 68.7021 35.4491 68.7021C41.9364 68.7021 47.1953 71.4296 47.1953 74.7941C47.1953 78.1586 41.9364 80.886 35.4491 80.886Z" fill="#FEEFA3"/>
<path fill-rule="evenodd" clip-rule="evenodd" d="M26.2507 70.772C25.5305 71.566 25.124 72.4524 25.124 73.3757C25.124 76.7366 30.3872 79.4696 36.869 79.4696C40.3591 79.4696 43.48 78.6756 45.6405 77.4199C43.757 79.4882 39.7128 80.9102 35.0223 80.9102C28.5406 80.9102 23.2773 78.1771 23.2773 74.8162C23.2773 73.265 24.4041 71.843 26.2507 70.772Z" fill="#FFF9D9"/>
<path fill-rule="evenodd" clip-rule="evenodd" d="M45.3346 75.1327C45.3485 75.0105 45.3555 74.8884 45.3555 74.7735C45.3555 71.8638 40.8048 69.5073 35.2014 69.5073C29.598 69.5073 25.0476 71.8638 25.0476 74.7735C25.0476 74.8884 25.0613 75.0105 25.0752 75.1327C25.4284 72.3883 29.8335 70.2258 35.2014 70.2258C40.5762 70.2258 44.9745 72.3883 45.3346 75.1327Z" fill="#F6CA12"/>
<path fill-rule="evenodd" clip-rule="evenodd" d="M0.703513 129.654C0.703513 129.471 0.703513 132.982 0.703513 132.982C0.703513 136.346 5.96883 139.074 12.4487 139.074H12.528C18.9733 139.052 24.1973 136.332 24.1973 132.982C24.1973 132.982 24.1973 129.471 24.1973 129.654C24.1973 133.014 18.932 135.745 12.4487 135.745C5.96883 135.745 0.703513 133.014 0.703513 129.654Z" fill="#F6CA12"/>
<path d="M12.4511 135.737C5.96388 135.737 0.704948 133.009 0.704948 129.645C0.704948 126.28 5.96388 123.553 12.4511 123.553C18.9383 123.553 24.1973 126.28 24.1973 129.645C24.1973 133.009 18.9383 135.737 12.4511 135.737Z" fill="#FEEFA3"/>
<path fill-rule="evenodd" clip-rule="evenodd" d="M2.54336 126.319C2.54336 126.137 2.54336 129.648 2.54336 129.648C2.54336 133.012 7.80867 135.739 14.2885 135.739H14.3679C20.8132 135.718 26.0371 132.998 26.0371 129.648C26.0371 129.648 26.0371 126.137 26.0371 126.319C26.0371 129.68 20.7718 132.411 14.2885 132.411C7.80867 132.411 2.54336 129.68 2.54336 126.319Z" fill="#F6CA12"/>
<path d="M14.2909 132.402C7.80372 132.402 2.54479 129.674 2.54479 126.31C2.54479 122.945 7.80372 120.218 14.2909 120.218C20.7782 120.218 26.0371 122.945 26.0371 126.31C26.0371 129.674 20.7782 132.402 14.2909 132.402Z" fill="#FEEFA3"/>
<path fill-rule="evenodd" clip-rule="evenodd" d="M1.62343 122.294C1.62343 122.112 1.62343 125.623 1.62343 125.623C1.62343 128.987 6.88875 131.714 13.3686 131.714H13.4479C19.8933 131.693 25.1172 128.973 25.1172 125.623C25.1172 125.623 25.1172 122.112 25.1172 122.294C25.1172 125.655 19.8519 128.386 13.3686 128.386C6.88875 128.386 1.62343 125.655 1.62343 122.294Z" fill="#F6CA12"/>
<path d="M13.371 128.377C6.8838 128.377 1.62487 125.65 1.62487 122.285C1.62487 118.921 6.8838 116.193 13.371 116.193C19.8582 116.193 25.1172 118.921 25.1172 122.285C25.1172 125.65 19.8582 128.377 13.371 128.377Z" fill="#FEEFA3"/>
<path fill-rule="evenodd" clip-rule="evenodd" d="M3.46328 117.81C3.46328 117.628 3.46328 121.138 3.46328 121.138C3.46328 124.503 8.72859 127.23 15.2084 127.23H15.2878C21.7331 127.208 26.957 124.488 26.957 121.138C26.957 121.138 26.957 117.628 26.957 117.81C26.957 121.171 21.6917 123.901 15.2084 123.901C8.72859 123.901 3.46328 121.171 3.46328 117.81Z" fill="#F6CA12"/>
<path d="M15.2109 123.892C8.72364 123.892 3.46471 121.165 3.46471 117.8C3.46471 114.436 8.72364 111.708 15.2109 111.708C21.6981 111.708 26.957 114.436 26.957 117.8C26.957 121.165 21.6981 123.892 15.2109 123.892Z" fill="#FEEFA3"/>
<path fill-rule="evenodd" clip-rule="evenodd" d="M2.54336 113.785C2.54336 113.603 2.54336 117.114 2.54336 117.114C2.54336 120.478 7.80867 123.205 14.2885 123.205H14.3679C20.8132 123.183 26.0371 120.463 26.0371 117.114C26.0371 117.114 26.0371 113.603 26.0371 113.785C26.0371 117.146 20.7718 119.877 14.2885 119.877C7.80867 119.877 2.54336 117.146 2.54336 113.785Z" fill="#F6CA12"/>
<path d="M14.2909 119.868C7.80372 119.868 2.54479 117.141 2.54479 113.776C2.54479 110.412 7.80372 107.684 14.2909 107.684C20.7782 107.684 26.0371 110.412 26.0371 113.776C26.0371 117.141 20.7782 119.868 14.2909 119.868Z" fill="#FEEFA3"/>
<path fill-rule="evenodd" clip-rule="evenodd" d="M1.62343 109.761C1.62343 109.578 1.62343 113.089 1.62343 113.089C1.62343 116.453 6.88875 119.18 13.3686 119.18H13.4479C19.8933 119.159 25.1172 116.439 25.1172 113.089C25.1172 113.089 25.1172 109.578 25.1172 109.761C25.1172 113.121 19.8519 115.852 13.3686 115.852C6.88875 115.852 1.62343 113.121 1.62343 109.761Z" fill="#F6CA12"/>
<path d="M13.371 115.843C6.8838 115.843 1.62487 113.116 1.62487 109.751C1.62487 106.387 6.8838 103.659 13.371 103.659C19.8582 103.659 25.1172 106.387 25.1172 109.751C25.1172 113.116 19.8582 115.843 13.371 115.843Z" fill="#FEEFA3"/>
<path fill-rule="evenodd" clip-rule="evenodd" d="M2.54336 105.276C2.54336 105.093 2.54336 108.604 2.54336 108.604C2.54336 111.968 7.80867 114.696 14.2885 114.696H14.3679C20.8132 114.674 26.0371 111.954 26.0371 108.604C26.0371 108.604 26.0371 105.093 26.0371 105.276C26.0371 108.637 20.7718 111.367 14.2885 111.367C7.80867 111.367 2.54336 108.637 2.54336 105.276Z" fill="#F6CA12"/>
<path d="M14.2909 111.359C7.80372 111.359 2.54479 108.631 2.54479 105.267C2.54479 101.902 7.80372 99.1748 14.2909 99.1748C20.7782 99.1748 26.0371 101.902 26.0371 105.267C26.0371 108.631 20.7782 111.359 14.2909 111.359Z" fill="#FEEFA3"/>
<path fill-rule="evenodd" clip-rule="evenodd" d="M1.62343 100.792C1.62343 100.609 1.62343 104.12 1.62343 104.12C1.62343 107.484 6.88875 110.211 13.3686 110.211H13.4479C19.8933 110.19 25.1172 107.47 25.1172 104.12C25.1172 104.12 25.1172 100.609 25.1172 100.792C25.1172 104.152 19.8519 106.883 13.3686 106.883C6.88875 106.883 1.62343 104.152 1.62343 100.792Z" fill="#F6CA12"/>
<path d="M13.371 106.874C6.8838 106.874 1.62487 104.146 1.62487 100.782C1.62487 97.4174 6.8838 94.6899 13.371 94.6899C19.8582 94.6899 25.1172 97.4174 25.1172 100.782C25.1172 104.146 19.8582 106.874 13.371 106.874Z" fill="#FEEFA3"/>
<path fill-rule="evenodd" clip-rule="evenodd" d="M4.17189 96.645C3.4517 97.4206 3.04587 98.3073 3.04587 99.2491C3.04587 102.61 8.30839 105.324 14.7901 105.324C18.2803 105.324 21.4196 104.549 23.5617 103.293C21.6781 105.343 17.634 106.783 12.9435 106.783C6.46174 106.783 1.19922 104.05 1.19922 100.689C1.19922 99.1381 2.32524 97.7161 4.17189 96.645Z" fill="#FFF9D9"/>
<path fill-rule="evenodd" clip-rule="evenodd" d="M23.2565 101.12C23.2704 100.998 23.2773 100.876 23.2773 100.761C23.2773 97.8516 18.7267 95.4951 13.1233 95.4951C7.51988 95.4951 2.96946 97.8516 2.96946 100.761C2.96946 100.876 2.9832 100.998 2.99706 101.12C3.3503 98.3761 7.75538 96.2135 13.1233 96.2135C18.4981 96.2135 22.8963 98.3761 23.2565 101.12Z" fill="#F6CA12"/>
<path fill-rule="evenodd" clip-rule="evenodd" d="M31.0609 135.749C31.0609 135.566 31.0609 139.077 31.0609 139.077C31.0609 142.441 36.3262 145.168 42.8061 145.168H42.8854C49.3308 145.147 54.5547 142.427 54.5547 139.077C54.5547 139.077 54.5547 135.566 54.5547 135.749C54.5547 139.109 49.2894 141.84 42.8061 141.84C36.3262 141.84 31.0609 139.109 31.0609 135.749Z" fill="#F6CA12"/>
<path d="M42.8085 141.831C36.3213 141.831 31.0624 139.103 31.0624 135.739C31.0624 132.374 36.3213 129.647 42.8085 129.647C49.2957 129.647 54.5547 132.374 54.5547 135.739C54.5547 139.103 49.2957 141.831 42.8085 141.831Z" fill="#FEEFA3"/>
<path fill-rule="evenodd" clip-rule="evenodd" d="M31.9809 131.724C31.9809 131.541 31.9809 135.052 31.9809 135.052C31.9809 138.416 37.2462 141.143 43.726 141.143H43.8054C50.2507 141.122 55.4746 138.402 55.4746 135.052C55.4746 135.052 55.4746 131.541 55.4746 131.724C55.4746 135.084 50.2093 137.815 43.726 137.815C37.2462 137.815 31.9809 135.084 31.9809 131.724Z" fill="#F6CA12"/>
<path d="M43.7284 137.806C37.2412 137.806 31.9823 135.079 31.9823 131.714C31.9823 128.35 37.2412 125.623 43.7284 125.623C50.2157 125.623 55.4746 128.35 55.4746 131.714C55.4746 135.079 50.2157 137.806 43.7284 137.806Z" fill="#FEEFA3"/>
<path fill-rule="evenodd" clip-rule="evenodd" d="M31.0609 127.699C31.0609 127.517 31.0609 131.028 31.0609 131.028C31.0609 134.392 36.3262 137.119 42.8061 137.119H42.8854C49.3308 137.097 54.5547 134.377 54.5547 131.028C54.5547 131.028 54.5547 127.517 54.5547 127.699C54.5547 131.06 49.2894 133.791 42.8061 133.791C36.3262 133.791 31.0609 131.06 31.0609 127.699Z" fill="#F6CA12"/>
<path d="M42.8085 133.782C36.3213 133.782 31.0624 131.054 31.0624 127.69C31.0624 124.325 36.3213 121.598 42.8085 121.598C49.2957 121.598 54.5547 124.325 54.5547 127.69C54.5547 131.054 49.2957 133.782 42.8085 133.782Z" fill="#FEEFA3"/>
<path fill-rule="evenodd" clip-rule="evenodd" d="M31.9809 123.214C31.9809 123.032 31.9809 126.543 31.9809 126.543C31.9809 129.907 37.2462 132.634 43.726 132.634H43.8054C50.2507 132.613 55.4746 129.893 55.4746 126.543C55.4746 126.543 55.4746 123.032 55.4746 123.214C55.4746 126.575 50.2093 129.306 43.726 129.306C37.2462 129.306 31.9809 126.575 31.9809 123.214Z" fill="#F6CA12"/>
<path d="M43.7284 129.297C37.2412 129.297 31.9823 126.57 31.9823 123.205C31.9823 119.841 37.2412 117.113 43.7284 117.113C50.2157 117.113 55.4746 119.841 55.4746 123.205C55.4746 126.57 50.2157 129.297 43.7284 129.297Z" fill="#FEEFA3"/>
<path fill-rule="evenodd" clip-rule="evenodd" d="M31.0609 118.73C31.0609 118.547 31.0609 122.058 31.0609 122.058C31.0609 125.423 36.3262 128.15 42.8061 128.15H42.8854C49.3308 128.128 54.5547 125.408 54.5547 122.058C54.5547 122.058 54.5547 118.547 54.5547 118.73C54.5547 122.091 49.2894 124.821 42.8061 124.821C36.3262 124.821 31.0609 122.091 31.0609 118.73Z" fill="#F6CA12"/>
<path d="M42.8085 124.812C36.3213 124.812 31.0624 122.085 31.0624 118.72C31.0624 115.356 36.3213 112.628 42.8085 112.628C49.2957 112.628 54.5547 115.356 54.5547 118.72C54.5547 122.085 49.2957 124.812 42.8085 124.812Z" fill="#FEEFA3"/>
<path fill-rule="evenodd" clip-rule="evenodd" d="M34.5293 114.584C33.8091 115.36 33.4033 116.246 33.4033 117.188C33.4033 120.549 38.6658 123.263 45.1475 123.263C48.6377 123.263 51.777 122.488 53.9191 121.232C52.0355 123.282 47.9914 124.722 43.3009 124.722C36.8192 124.722 31.5566 121.989 31.5566 118.628C31.5566 117.077 32.6827 115.655 34.5293 114.584Z" fill="#FFF9D9"/>
<path fill-rule="evenodd" clip-rule="evenodd" d="M52.694 119.059C52.7079 118.937 52.7148 118.815 52.7148 118.7C52.7148 115.79 48.1642 113.434 42.5608 113.434C36.9574 113.434 32.407 115.79 32.407 118.7C32.407 118.815 32.4207 118.937 32.4346 119.059C32.7878 116.315 37.1929 114.152 42.5608 114.152C47.9356 114.152 52.3338 116.315 52.694 119.059Z" fill="#F6CA12"/>
</svg>
