<svg width="137" height="131" viewBox="0 0 137 131" fill="none" xmlns="http://www.w3.org/2000/svg">
<path fill-rule="evenodd" clip-rule="evenodd" d="M24.2773 130.97H43.5865L113.023 96.245L75.8123 77.646L24.2773 130.97Z" fill="#E4E9EF"/>
<path d="M2.59485 36.3321L0.359375 35.2144V118.862L2.59485 119.98V36.3321Z" fill="#838B94"/>
<path fill-rule="evenodd" clip-rule="evenodd" d="M2.93396 36.3415L66.5938 4.51172V78.8174L6.15881 118.362L2.93396 119.975V36.3415Z" fill="#943237"/>
<path d="M24.673 47.2564L22.4375 46.1387V129.786L24.673 130.904V47.2564Z" fill="#838B94"/>
<path d="M24.0998 47.262L87.752 15.436V99.0843L24.0998 130.91V47.262Z" fill="#2D343A"/>
<path fill-rule="evenodd" clip-rule="evenodd" d="M15.998 45.6787L22.0701 48.7159V126.619L15.998 120.733V45.6787Z" fill="#F1595F"/>
<path fill-rule="evenodd" clip-rule="evenodd" d="M16.2396 45.684V120.731L5.87891 118.401V40.5039L16.2396 45.684Z" fill="#A93C41"/>
<path d="M85.1698 11.7825L21.5176 43.6084L23.753 44.7261L87.4052 12.9002L85.1698 11.7825Z" fill="#D6EEFA"/>
<path d="M26.9085 48.3741L22.4375 46.1387V82.2844L26.9085 84.5199V48.3741Z" fill="#838B94"/>
<path d="M26.8595 45.9973L90.5117 14.1714V52.7681L26.8595 84.5941V45.9973Z" fill="#373E45"/>
<path d="M64.0116 0.973374L0.359375 32.7993L2.59484 33.917L66.247 2.09111L64.0116 0.973374Z" fill="#D6EEFA"/>
<path d="M64.0116 0.973372L0.359375 32.7993L26.7147 45.977L90.3669 14.1511L64.0116 0.973372Z" fill="#606972"/>
<path d="M26.7149 45.9771L0.359375 32.7993V37.7811L26.7149 50.9588V45.9771Z" fill="#838B94"/>
<path fill-rule="evenodd" clip-rule="evenodd" d="M68.5565 55.8529L58.3145 60.9722V81.4451L68.5565 76.3282V55.8529Z" fill="#CFA115"/>
<path fill-rule="evenodd" clip-rule="evenodd" d="M56.6718 69.7147V59.9375L58.7075 60.9541V81.4373L56.6718 80.4079L54.6348 79.3914V70.7313L56.6718 69.7147Z" fill="#F6CA12"/>
<path fill-rule="evenodd" clip-rule="evenodd" d="M68.7527 55.9206L66.6673 54.8779L56.4746 60.0229L58.5106 61.0418L68.7527 55.9206Z" fill="#F6DD76"/>
<path d="M64.8488 76.3146C66.4254 75.5263 67.7035 73.244 67.7035 71.217C67.7035 69.1899 66.4254 68.1857 64.8488 68.974C63.2722 69.7623 61.9941 72.0446 61.9941 74.0717C61.9941 76.0987 63.2722 77.1029 64.8488 76.3146Z" fill="#4A525A"/>
<path fill-rule="evenodd" clip-rule="evenodd" d="M62.9794 76.4447L62.1785 76.0441C61.5066 75.7088 61.0742 74.8757 61.0742 73.6975C61.0742 71.6722 62.3534 69.3871 63.9288 68.5997C64.5883 68.2704 65.1957 68.2545 65.6793 68.4965L66.4803 68.8972C65.9967 68.6552 65.3893 68.6711 64.73 69.0003C63.1544 69.7878 61.8752 72.0729 61.8752 74.0981C61.8752 75.2764 62.3078 76.1095 62.9794 76.4447Z" fill="#ADB6C1"/>
<path fill-rule="evenodd" clip-rule="evenodd" d="M29.7969 27.8237V19.4279C29.7969 15.7831 32.2371 11.6053 35.2429 10.1039L53.3955 1.02611C54.7102 0.372791 55.9165 0.332652 56.8581 0.802584L60.4886 2.61934C59.547 2.14941 58.3407 2.1837 57.026 2.84276L38.8734 11.9205C35.8676 13.422 33.4274 17.5998 33.4274 21.2389V29.6346L29.7969 27.8237Z" fill="#ADB6C1"/>
<path fill-rule="evenodd" clip-rule="evenodd" d="M54.6348 15.2215V8.41331L56.2021 7.63393C57.3901 7.03792 58.2653 7.53073 58.2653 8.9921V17.0383L54.6348 15.2215Z" fill="#ADB6C1"/>
<path fill-rule="evenodd" clip-rule="evenodd" d="M33.4766 29.6592V21.2634C33.4766 17.6243 35.9168 13.4465 38.9226 11.945L57.0752 2.8673C60.0805 1.36581 62.5207 3.10236 62.5207 6.74147V15.1429L58.6758 17.0628V9.01658C58.6758 7.55521 57.8007 7.0624 56.6127 7.65841L41.454 15.2346C39.2871 16.3177 37.5277 19.3322 37.5277 21.957V27.6362L33.4766 29.6592Z" fill="#23292E"/>
<path d="M24.5216 47.4102L24.2773 47.2881V83.4338L24.5216 83.5559V47.4102Z" fill="#23292E"/>
<path d="M24.7235 47.3964L0.359375 35.2144L0.359375 35.5097L24.7235 47.6918L24.7235 47.3964Z" fill="#23292E"/>
<path fill-rule="evenodd" clip-rule="evenodd" d="M80.3926 125.414C84.8782 126.327 92.5706 127.058 97.4418 125.029L110.351 119.244C115.303 119.812 122.021 120.644 128.882 117.153L135.113 114.048C139.274 110.638 135.701 105.746 129.917 103.595C124.051 101.403 119.545 102.296 116.602 101.119C110.98 98.8862 105.317 94.5833 99.5528 92.5942L80.6362 102.053L80.3926 125.414Z" fill="#E4E9EF"/>
<path fill-rule="evenodd" clip-rule="evenodd" d="M102.1 96.5108C102.1 96.3279 102.1 99.8467 102.1 99.8467C102.1 103.219 96.8226 105.952 90.328 105.952H90.2485C83.7885 105.93 78.5527 103.204 78.5527 99.8467C78.5527 99.8467 78.5527 96.3279 78.5527 96.5108C78.5527 99.879 83.83 102.616 90.328 102.616C96.8226 102.616 102.1 99.879 102.1 96.5108Z" fill="#E3AF18"/>
<path d="M90.3256 102.621C96.8275 102.621 102.098 99.8876 102.098 96.5155C102.098 93.1433 96.8275 90.4097 90.3256 90.4097C83.8236 90.4097 78.5527 93.1433 78.5527 96.5155C78.5527 99.8876 83.8236 102.621 90.3256 102.621Z" fill="#FEEFA3"/>
<path fill-rule="evenodd" clip-rule="evenodd" d="M103.02 92.4864C103.02 92.3034 103.02 95.8223 103.02 95.8223C103.02 99.1941 97.7425 101.927 91.248 101.927H91.1684C84.7084 101.906 79.4727 99.1798 79.4727 95.8223C79.4727 95.8223 79.4727 92.3034 79.4727 92.4864C79.4727 95.8546 84.7499 98.5915 91.248 98.5915C97.7425 98.5915 103.02 95.8546 103.02 92.4864Z" fill="#E3AF18"/>
<path d="M91.2455 98.5964C97.7475 98.5964 103.018 95.8627 103.018 92.4906C103.018 89.1184 97.7475 86.3848 91.2455 86.3848C84.7435 86.3848 79.4727 89.1184 79.4727 92.4906C79.4727 95.8627 84.7435 98.5964 91.2455 98.5964Z" fill="#FEEFA3"/>
<path fill-rule="evenodd" clip-rule="evenodd" d="M102.1 88.0015C102.1 87.8186 102.1 91.3375 102.1 91.3375C102.1 94.7093 96.8226 97.4426 90.328 97.4426H90.2485C83.7885 97.4211 78.5527 94.6949 78.5527 91.3375C78.5527 91.3375 78.5527 87.8186 78.5527 88.0015C78.5527 91.3698 83.83 94.1067 90.328 94.1067C96.8226 94.1067 102.1 91.3698 102.1 88.0015Z" fill="#E3AF18"/>
<path d="M90.3256 94.112C96.8275 94.112 102.098 91.3783 102.098 88.0062C102.098 84.634 96.8275 81.9004 90.3256 81.9004C83.8236 81.9004 78.5527 84.634 78.5527 88.0062C78.5527 91.3783 83.8236 94.112 90.3256 94.112Z" fill="#FEEFA3"/>
<path fill-rule="evenodd" clip-rule="evenodd" d="M103.02 83.9771C103.02 83.7942 103.02 87.313 103.02 87.313C103.02 90.6849 97.7425 93.4182 91.248 93.4182H91.1684C84.7084 93.3967 79.4727 90.6705 79.4727 87.313C79.4727 87.313 79.4727 83.7942 79.4727 83.9771C79.4727 87.3453 84.7499 90.0823 91.248 90.0823C97.7425 90.0823 103.02 87.3453 103.02 83.9771Z" fill="#E3AF18"/>
<path d="M91.2455 90.0871C97.7475 90.0871 103.018 87.3534 103.018 83.9813C103.018 80.6091 97.7475 77.8755 91.2455 77.8755C84.7435 77.8755 79.4727 80.6091 79.4727 83.9813C79.4727 87.3534 84.7435 90.0871 91.2455 90.0871Z" fill="#FEEFA3"/>
<path fill-rule="evenodd" clip-rule="evenodd" d="M101.18 80.6421C101.18 80.4592 101.18 83.9781 101.18 83.9781C101.18 87.3499 95.9027 90.0832 89.4081 90.0832H89.3286C82.8686 90.0617 77.6328 87.3356 77.6328 83.9781C77.6328 83.9781 77.6328 80.4592 77.6328 80.6421C77.6328 84.0104 82.9101 86.7473 89.4081 86.7473C95.9027 86.7473 101.18 84.0104 101.18 80.6421Z" fill="#E3AF18"/>
<path d="M89.4057 86.7526C95.9076 86.7526 101.179 84.0189 101.179 80.6468C101.179 77.2747 95.9076 74.541 89.4057 74.541C82.9037 74.541 77.6328 77.2747 77.6328 80.6468C77.6328 84.0189 82.9037 86.7526 89.4057 86.7526Z" fill="#FEEFA3"/>
<path fill-rule="evenodd" clip-rule="evenodd" d="M102.1 76.6177C102.1 76.4348 102.1 79.9537 102.1 79.9537C102.1 83.3255 96.8226 86.0588 90.328 86.0588H90.2485C83.7885 86.0373 78.5527 83.3111 78.5527 79.9537C78.5527 79.9537 78.5527 76.4348 78.5527 76.6177C78.5527 79.986 83.83 82.7229 90.328 82.7229C96.8226 82.7229 102.1 79.986 102.1 76.6177Z" fill="#E3AF18"/>
<path d="M90.3256 82.7277C96.8275 82.7277 102.098 79.994 102.098 76.6219C102.098 73.2498 96.8275 70.5161 90.3256 70.5161C83.8236 70.5161 78.5527 73.2498 78.5527 76.6219C78.5527 79.994 83.8236 82.7277 90.3256 82.7277Z" fill="#FEEFA3"/>
<path fill-rule="evenodd" clip-rule="evenodd" d="M100.26 72.1329C100.26 71.9499 100.26 75.4688 100.26 75.4688C100.26 78.8406 94.9827 81.574 88.4882 81.574H88.4087C81.9487 81.5524 76.7129 78.8263 76.7129 75.4688C76.7129 75.4688 76.7129 71.9499 76.7129 72.1329C76.7129 75.5011 81.9902 78.238 88.4882 78.238C94.9827 78.238 100.26 75.5011 100.26 72.1329Z" fill="#E3AF18"/>
<path d="M88.4857 78.2433C94.9877 78.2433 100.259 75.5097 100.259 72.1375C100.259 68.7654 94.9877 66.0317 88.4857 66.0317C81.9838 66.0317 76.7129 68.7654 76.7129 72.1375C76.7129 75.5097 81.9838 78.2433 88.4857 78.2433Z" fill="#FEEFA3"/>
<path fill-rule="evenodd" clip-rule="evenodd" d="M101.18 68.1085C101.18 67.9255 101.18 71.4444 101.18 71.4444C101.18 74.8162 95.9027 77.5495 89.4081 77.5495H89.3286C82.8686 77.528 77.6328 74.8019 77.6328 71.4444C77.6328 71.4444 77.6328 67.9255 77.6328 68.1085C77.6328 71.4767 82.9101 74.2136 89.4081 74.2136C95.9027 74.2136 101.18 71.4767 101.18 68.1085Z" fill="#E3AF18"/>
<path d="M89.4057 74.2184C95.9076 74.2184 101.179 71.4848 101.179 68.1126C101.179 64.7405 95.9076 62.0068 89.4057 62.0068C82.9037 62.0068 77.6328 64.7405 77.6328 68.1126C77.6328 71.4848 82.9037 74.2184 89.4057 74.2184Z" fill="#FEEFA3"/>
<path fill-rule="evenodd" clip-rule="evenodd" d="M102.1 64.0836C102.1 63.9006 102.1 67.4195 102.1 67.4195C102.1 70.7913 96.8226 73.5246 90.328 73.5246H90.2485C83.7885 73.5031 78.5527 70.777 78.5527 67.4195C78.5527 67.4195 78.5527 63.9006 78.5527 64.0836C78.5527 67.4518 83.83 70.1887 90.328 70.1887C96.8226 70.1887 102.1 67.4518 102.1 64.0836Z" fill="#E3AF18"/>
<path d="M90.3256 70.194C96.8275 70.194 102.098 67.4603 102.098 64.0882C102.098 60.7161 96.8275 57.9824 90.3256 57.9824C83.8236 57.9824 78.5527 60.7161 78.5527 64.0882C78.5527 67.4603 83.8236 70.194 90.3256 70.194Z" fill="#FEEFA3"/>
<path fill-rule="evenodd" clip-rule="evenodd" d="M101.18 59.5992C101.18 59.4162 101.18 62.9351 101.18 62.9351C101.18 66.3069 95.9027 69.0403 89.4081 69.0403H89.3286C82.8686 69.0187 77.6328 66.2926 77.6328 62.9351C77.6328 62.9351 77.6328 59.4162 77.6328 59.5992C77.6328 62.9674 82.9101 65.7043 89.4081 65.7043C95.9027 65.7043 101.18 62.9674 101.18 59.5992Z" fill="#E3AF18"/>
<path d="M89.4057 65.7092C95.9076 65.7092 101.179 62.9755 101.179 59.6033C101.179 56.2312 95.9076 53.4976 89.4057 53.4976C82.9037 53.4976 77.6328 56.2312 77.6328 59.6033C77.6328 62.9755 82.9037 65.7092 89.4057 65.7092Z" fill="#FEEFA3"/>
<path fill-rule="evenodd" clip-rule="evenodd" d="M102.1 54.9996C102.1 54.8166 102.1 58.3355 102.1 58.3355C102.1 61.7073 96.8226 64.4407 90.328 64.4407H90.2485C83.7885 64.4191 78.5527 61.693 78.5527 58.3355C78.5527 58.3355 78.5527 54.8166 78.5527 54.9996C78.5527 58.3678 83.83 61.1047 90.328 61.1047C96.8226 61.1047 102.1 58.3678 102.1 54.9996Z" fill="#E3AF18"/>
<path d="M90.3256 61.1095C96.8275 61.1095 102.098 58.3759 102.098 55.0037C102.098 51.6316 96.8275 48.8979 90.3256 48.8979C83.8236 48.8979 78.5527 51.6316 78.5527 55.0037C78.5527 58.3759 83.8236 61.1095 90.3256 61.1095Z" fill="#FEEFA3"/>
<path fill-rule="evenodd" clip-rule="evenodd" d="M80.4135 55.3413C80.3996 55.2189 80.3926 55.0965 80.3926 54.9812C80.3926 52.065 84.9536 49.7031 90.5697 49.7031C96.1858 49.7031 100.747 52.065 100.747 54.9812C100.747 55.0965 100.733 55.2189 100.719 55.3413C100.365 52.5906 95.9498 50.4232 90.5697 50.4232C85.1827 50.4232 80.7744 52.5906 80.4135 55.3413Z" fill="#F6CA12"/>
<path fill-rule="evenodd" clip-rule="evenodd" d="M125.098 109.965C125.098 109.782 125.098 113.301 125.098 113.301C125.098 116.673 119.821 119.406 113.326 119.406H113.247C106.787 119.384 101.551 116.658 101.551 113.301C101.551 113.301 101.551 109.782 101.551 109.965C101.551 113.333 106.828 116.07 113.326 116.07C119.821 116.07 125.098 113.333 125.098 109.965Z" fill="#F6CA12"/>
<path d="M113.324 116.075C119.826 116.075 125.096 113.341 125.096 109.969C125.096 106.597 119.826 103.863 113.324 103.863C106.822 103.863 101.551 106.597 101.551 109.969C101.551 113.341 106.822 116.075 113.324 116.075Z" fill="#FEEFA3"/>
<path fill-rule="evenodd" clip-rule="evenodd" d="M123.258 106.63C123.258 106.447 123.258 109.966 123.258 109.966C123.258 113.338 117.981 116.071 111.486 116.071H111.407C104.947 116.049 99.7109 113.323 99.7109 109.966C99.7109 109.966 99.7109 106.447 99.7109 106.63C99.7109 109.998 104.988 112.735 111.486 112.735C117.981 112.735 123.258 109.998 123.258 106.63Z" fill="#F6CA12"/>
<path d="M111.484 112.74C117.986 112.74 123.257 110.007 123.257 106.635C123.257 103.262 117.986 100.529 111.484 100.529C104.982 100.529 99.7109 103.262 99.7109 106.635C99.7109 110.007 104.982 112.74 111.484 112.74Z" fill="#FEEFA3"/>
<path fill-rule="evenodd" clip-rule="evenodd" d="M124.178 102.606C124.178 102.423 124.178 105.941 124.178 105.941C124.178 109.313 118.901 112.047 112.406 112.047H112.327C105.867 112.025 100.631 109.299 100.631 105.941C100.631 105.941 100.631 102.423 100.631 102.606C100.631 105.974 105.908 108.711 112.406 108.711C118.901 108.711 124.178 105.974 124.178 102.606Z" fill="#F6CA12"/>
<path d="M112.404 108.715C118.906 108.715 124.177 105.982 124.177 102.61C124.177 99.2376 118.906 96.5039 112.404 96.5039C105.902 96.5039 100.631 99.2376 100.631 102.61C100.631 105.982 105.902 108.715 112.404 108.715Z" fill="#FEEFA3"/>
<path fill-rule="evenodd" clip-rule="evenodd" d="M122.338 98.1207C122.338 97.9377 122.338 101.457 122.338 101.457C122.338 104.828 117.061 107.562 110.566 107.562H110.487C104.027 107.54 98.791 104.814 98.791 101.457C98.791 101.457 98.791 97.9377 98.791 98.1207C98.791 101.489 104.068 104.226 110.566 104.226C117.061 104.226 122.338 101.489 122.338 98.1207Z" fill="#F6CA12"/>
<path d="M110.564 104.231C117.066 104.231 122.337 101.497 122.337 98.1253C122.337 94.7532 117.066 92.0195 110.564 92.0195C104.062 92.0195 98.791 94.7532 98.791 98.1253C98.791 101.497 104.062 104.231 110.564 104.231Z" fill="#FEEFA3"/>
<path fill-rule="evenodd" clip-rule="evenodd" d="M123.258 94.0962C123.258 93.9133 123.258 97.4322 123.258 97.4322C123.258 100.804 117.981 103.537 111.486 103.537H111.407C104.947 103.516 99.7109 100.79 99.7109 97.4322C99.7109 97.4322 99.7109 93.9133 99.7109 94.0962C99.7109 97.4645 104.988 100.201 111.486 100.201C117.981 100.201 123.258 97.4645 123.258 94.0962Z" fill="#F6CA12"/>
<path d="M111.484 100.206C117.986 100.206 123.257 97.4726 123.257 94.1004C123.257 90.7283 117.986 87.9946 111.484 87.9946C104.982 87.9946 99.7109 90.7283 99.7109 94.1004C99.7109 97.4726 104.982 100.206 111.484 100.206Z" fill="#FEEFA3"/>
<path fill-rule="evenodd" clip-rule="evenodd" d="M124.178 90.0713C124.178 89.8884 124.178 93.4073 124.178 93.4073C124.178 96.7791 118.901 99.5124 112.406 99.5124H112.327C105.867 99.4909 100.631 96.7648 100.631 93.4073C100.631 93.4073 100.631 89.8884 100.631 90.0713C100.631 93.4396 105.908 96.1765 112.406 96.1765C118.901 96.1765 124.178 93.4396 124.178 90.0713Z" fill="#F6CA12"/>
<path d="M112.404 96.1818C118.906 96.1818 124.177 93.4481 124.177 90.076C124.177 86.7039 118.906 83.9702 112.404 83.9702C105.902 83.9702 100.631 86.7039 100.631 90.076C100.631 93.4481 105.902 96.1818 112.404 96.1818Z" fill="#FEEFA3"/>
<path fill-rule="evenodd" clip-rule="evenodd" d="M123.258 85.587C123.258 85.404 123.258 88.9229 123.258 88.9229C123.258 92.2947 117.981 95.0281 111.486 95.0281H111.407C104.947 95.0065 99.7109 92.2804 99.7109 88.9229C99.7109 88.9229 99.7109 85.404 99.7109 85.587C99.7109 88.9552 104.988 91.6921 111.486 91.6921C117.981 91.6921 123.258 88.9552 123.258 85.587Z" fill="#F6CA12"/>
<path d="M111.484 91.6969C117.986 91.6969 123.257 88.9633 123.257 85.5911C123.257 82.219 117.986 79.4854 111.484 79.4854C104.982 79.4854 99.7109 82.219 99.7109 85.5911C99.7109 88.9633 104.982 91.6969 111.484 91.6969Z" fill="#FEEFA3"/>
<path fill-rule="evenodd" clip-rule="evenodd" d="M124.178 80.9874C124.178 80.8044 124.178 84.3233 124.178 84.3233C124.178 87.6951 118.901 90.4285 112.406 90.4285H112.327C105.867 90.4069 100.631 87.6808 100.631 84.3233C100.631 84.3233 100.631 80.8044 100.631 80.9874C100.631 84.3556 105.908 87.0925 112.406 87.0925C118.901 87.0925 124.178 84.3556 124.178 80.9874Z" fill="#F6CA12"/>
<path d="M112.404 87.0973C118.906 87.0973 124.177 84.3637 124.177 80.9915C124.177 77.6194 118.906 74.8857 112.404 74.8857C105.902 74.8857 100.631 77.6194 100.631 80.9915C100.631 84.3637 105.902 87.0973 112.404 87.0973Z" fill="#FEEFA3"/>
<path fill-rule="evenodd" clip-rule="evenodd" d="M102.492 81.3291C102.478 81.2066 102.471 81.0842 102.471 80.969C102.471 78.0528 107.032 75.6909 112.648 75.6909C118.264 75.6909 122.825 78.0528 122.825 80.969C122.825 81.0842 122.811 81.2066 122.797 81.3291C122.443 78.5784 118.028 76.411 112.648 76.411C107.261 76.411 102.853 78.5784 102.492 81.3291Z" fill="#F6CA12"/>
<path fill-rule="evenodd" clip-rule="evenodd" d="M94.7405 116.174C94.7405 115.991 94.7405 119.51 94.7405 119.51C94.7405 122.882 89.4632 125.615 82.9687 125.615H82.8891C76.4291 125.594 71.1934 122.868 71.1934 119.51C71.1934 119.51 71.1934 115.991 71.1934 116.174C71.1934 119.543 76.4706 122.28 82.9687 122.28C89.4632 122.28 94.7405 119.543 94.7405 116.174Z" fill="#F6CA12"/>
<path d="M82.9662 122.284C89.4682 122.284 94.739 119.551 94.739 116.179C94.739 112.806 89.4682 110.073 82.9662 110.073C76.4642 110.073 71.1934 112.806 71.1934 116.179C71.1934 119.551 76.4642 122.284 82.9662 122.284Z" fill="#FEEFA3"/>
<path fill-rule="evenodd" clip-rule="evenodd" d="M93.8206 112.035C93.8206 111.852 93.8206 115.371 93.8206 115.371C93.8206 118.742 88.5433 121.476 82.0487 121.476H81.9692C75.5092 121.454 70.2734 118.728 70.2734 115.371C70.2734 115.371 70.2734 111.852 70.2734 112.035C70.2734 115.403 75.5507 118.14 82.0487 118.14C88.5433 118.14 93.8206 115.403 93.8206 112.035Z" fill="#F6CA12"/>
<path d="M82.0463 118.145C88.5482 118.145 93.8191 115.411 93.8191 112.039C93.8191 108.667 88.5482 105.933 82.0463 105.933C75.5443 105.933 70.2734 108.667 70.2734 112.039C70.2734 115.411 75.5443 118.145 82.0463 118.145Z" fill="#FEEFA3"/>
<path fill-rule="evenodd" clip-rule="evenodd" d="M94.7405 108.01C94.7405 107.827 94.7405 111.346 94.7405 111.346C94.7405 114.718 89.4632 117.451 82.9687 117.451H82.8891C76.4291 117.429 71.1934 114.703 71.1934 111.346C71.1934 111.346 71.1934 107.827 71.1934 108.01C71.1934 111.378 76.4706 114.115 82.9687 114.115C89.4632 114.115 94.7405 111.378 94.7405 108.01Z" fill="#F6CA12"/>
<path d="M82.9662 114.12C89.4682 114.12 94.739 111.387 94.739 108.014C94.739 104.642 89.4682 101.909 82.9662 101.909C76.4642 101.909 71.1934 104.642 71.1934 108.014C71.1934 111.387 76.4642 114.12 82.9662 114.12Z" fill="#FEEFA3"/>
<path fill-rule="evenodd" clip-rule="evenodd" d="M93.8206 103.525C93.8206 103.343 93.8206 106.861 93.8206 106.861C93.8206 110.233 88.5433 112.967 82.0487 112.967H81.9692C75.5092 112.945 70.2734 110.219 70.2734 106.861C70.2734 106.861 70.2734 103.343 70.2734 103.525C70.2734 106.894 75.5507 109.631 82.0487 109.631C88.5433 109.631 93.8206 106.894 93.8206 103.525Z" fill="#F6CA12"/>
<path d="M82.0463 109.635C88.5482 109.635 93.8191 106.902 93.8191 103.53C93.8191 100.157 88.5482 97.4238 82.0463 97.4238C75.5443 97.4238 70.2734 100.157 70.2734 103.53C70.2734 106.902 75.5443 109.635 82.0463 109.635Z" fill="#FEEFA3"/>
<path fill-rule="evenodd" clip-rule="evenodd" d="M94.7405 99.0406C94.7405 98.8576 94.7405 102.377 94.7405 102.377C94.7405 105.748 89.4632 108.482 82.9687 108.482H82.8891C76.4291 108.46 71.1934 105.734 71.1934 102.377C71.1934 102.377 71.1934 98.8576 71.1934 99.0406C71.1934 102.409 76.4706 105.146 82.9687 105.146C89.4632 105.146 94.7405 102.409 94.7405 99.0406Z" fill="#F6CA12"/>
<path d="M82.9662 105.036C89.4682 105.036 94.739 102.302 94.739 98.93C94.739 95.5579 89.4682 92.8242 82.9662 92.8242C76.4642 92.8242 71.1934 95.5579 71.1934 98.93C71.1934 102.302 76.4642 105.036 82.9662 105.036Z" fill="#FEEFA3"/>
<path fill-rule="evenodd" clip-rule="evenodd" d="M73.0541 99.3823C73.0402 99.2599 73.0332 99.1375 73.0332 99.0223C73.0332 96.106 77.5942 93.7441 83.2104 93.7441C88.8265 93.7441 93.3872 96.106 93.3872 99.0223C93.3872 99.1375 93.3735 99.2599 93.3596 99.3823C93.0055 96.6316 88.5904 94.4642 83.2104 94.4642C77.8233 94.4642 73.4151 96.6316 73.0541 99.3823Z" fill="#F6CA12"/>
</svg>
