<svg width="156" height="155" viewBox="0 0 156 155" fill="none" xmlns="http://www.w3.org/2000/svg">
<path d="M103.626 139.907C131.922 139.907 154.861 129.542 154.861 116.755C154.861 103.968 131.922 93.6021 103.626 93.6021C75.3292 93.6021 52.3906 103.968 52.3906 116.755C52.3906 129.542 75.3292 139.907 103.626 139.907Z" fill="#E4E9EF"/>
<path d="M72.9895 127.565C102.659 127.565 126.71 103.513 126.71 73.844C126.71 44.1748 102.659 20.123 72.9895 20.123C43.3203 20.123 19.2686 44.1748 19.2686 73.844C19.2686 103.513 43.3203 127.565 72.9895 127.565Z" fill="#72AADC"/>
<path d="M26.8771 98.382C41.7209 119.457 72.8946 123.061 96.5056 106.431C120.116 89.801 127.224 59.2351 112.38 38.16C97.5363 17.0849 66.3624 13.4812 42.7515 30.111C19.1405 46.7408 12.0333 77.3069 26.8771 98.382Z" fill="#A3D1F0"/>
<path d="M25.1536 82.4648C35.762 97.5264 60.1131 98.6422 79.5433 84.957C98.9735 71.2719 106.125 47.968 95.5168 32.9064C84.9084 17.8447 60.5572 16.7288 41.127 30.414C21.6968 44.0991 14.5452 67.4031 25.1536 82.4648Z" fill="#CEE4F6"/>
<path d="M30.7161 62.9228C37.3083 72.2826 52.4407 72.9759 64.515 64.4716C76.5894 55.9674 81.0336 41.4857 74.4413 32.126C67.849 22.7663 52.7166 22.0728 40.6423 30.5771C28.5679 39.0814 24.1238 53.5631 30.7161 62.9228Z" fill="#E6F6FD"/>
<path fill-rule="evenodd" clip-rule="evenodd" d="M62.1735 18.6857C66.0623 17.7874 70.0568 17.3014 74.1147 17.2485C74.3472 17.2485 74.5902 17.2485 74.8226 17.2485C83.0441 17.2485 91.0119 19.1296 98.0076 22.7331C98.2929 22.881 98.6734 23.0924 98.6734 23.0924C102.499 25.153 106.039 27.7208 109.209 30.891C113.637 34.6424 117.504 39.0808 120.611 44.0264C120.685 44.1003 120.749 44.185 120.812 44.2695C120.812 44.2695 120.971 44.449 121.044 44.6286C121.066 44.6815 121.076 44.745 121.097 44.7979C121.964 46.235 122.767 47.7038 123.507 49.2149C126.888 56.1471 128.769 63.8085 129.097 71.248C129.308 75.8976 128.938 80.4944 128.072 84.8271C127.29 88.7053 126.117 92.4779 124.532 96.1237C124.606 96.3773 124.669 96.6309 124.733 96.8739L124.796 97.0958L124.828 97.4341C124.775 97.7299 124.796 97.825 124.616 98.0786C124.352 98.4696 123.856 98.6281 123.401 98.5542C122.503 100.372 121.51 102.147 120.4 103.891C115.158 112.112 107.719 118.96 99.0961 123.493C93.2629 126.568 86.9858 128.608 80.0748 129.474C78.9652 129.622 77.8556 129.728 76.746 129.802C76.6509 129.865 76.5452 129.908 76.429 129.929C76.1226 130.003 75.9639 129.971 75.668 129.865C69.9299 130.151 64.1391 129.569 58.1579 127.932C48.605 125.311 39.8446 120.133 32.9124 113.053C27.2377 107.251 22.8839 100.34 20.1681 92.7526C19.439 90.7237 18.8367 88.6631 18.3506 86.5602C17.5475 83.8232 17.0085 81.0017 16.7337 78.1696C16.1208 71.9031 16.7761 65.5205 18.5091 59.4548C18.6465 58.9581 18.7944 58.4614 18.9529 57.9753C19.7454 54.5621 20.9924 51.2017 22.6409 47.9681C25.1348 43.0648 28.4318 38.6263 32.4368 34.6424C32.7433 34.336 33.0604 34.0296 33.3668 33.7337C34.2439 32.7826 35.1527 31.8844 36.1144 31.039C38.5132 28.9255 41.1867 27.108 44.0505 25.6814C44.1033 25.6497 44.1456 25.6285 44.1984 25.5968C49.8097 22.2469 55.8331 19.922 62.1735 18.6857ZM93.4107 111.172C92.9563 111.436 92.5019 111.7 92.037 111.954C88.6026 113.856 84.9146 115.43 81.3957 116.551C75.3089 118.506 69.0001 119.456 62.5434 119.266C66.485 122.754 71.0501 125.533 75.9745 127.393C80.1698 127.181 84.3545 126.473 88.4335 125.247C92.2906 124.096 96.0103 122.489 99.4975 120.492C97.4791 117.385 95.4502 114.279 93.4107 111.172ZM31.8979 107.727C32.9124 109.027 34.0008 110.263 35.1315 111.425C36.8223 113.169 38.6505 114.786 40.5632 116.286L40.7956 116.54C40.8696 116.688 40.9331 116.772 40.9649 116.878C41.8419 117.533 42.7402 118.167 43.6595 118.77C51.5111 123.895 60.6942 126.854 70.078 127.382C65.9356 125.184 62.1314 122.341 58.8238 119.034C54.4066 118.601 50.0316 117.618 45.8046 116.011C40.7005 114.078 35.9453 111.214 31.8979 107.727ZM117.621 84.51C116.162 87.7331 114.398 90.84 112.369 93.746C107.878 100.16 102.065 105.677 95.4714 109.904C97.0988 112.376 98.7155 114.849 100.343 117.332C100.671 117.85 101.009 118.357 101.336 118.865C101.41 118.981 101.484 119.118 101.558 119.266C107.391 115.578 112.538 110.791 116.585 105.191C118.688 102.285 120.484 99.1564 121.953 95.8805C120.823 91.9812 119.385 88.1664 117.621 84.51ZM78.4473 88.6736C76.7143 89.7515 74.9177 90.7449 73.079 91.6325C66.4744 94.845 59.2676 96.7894 51.8493 96.9162C51.5851 96.9162 51.2258 96.9267 51.2258 96.9267C50.2324 96.9267 49.239 96.895 48.2456 96.8316C50.5071 103.531 53.8463 109.851 58.5488 115.251C58.9821 115.747 59.4154 116.223 59.8592 116.688C68.3766 117.375 77.1052 115.927 85.073 112.63C87.4824 111.626 89.8284 110.464 92.0793 109.143C87.5776 102.306 83.0336 95.4791 78.4473 88.6736ZM24.1627 84.9433V84.954C24.0464 88.2299 24.4057 91.5373 25.2405 94.7181C25.5047 95.722 25.8217 96.7048 26.181 97.6665C31.5493 105.624 39.7177 111.584 48.9325 114.543C51.3313 115.314 53.783 115.885 56.2663 116.265C54.9982 114.786 53.8253 113.243 52.758 111.637C49.6512 106.976 47.3158 101.851 45.625 96.5674C41.2818 95.9968 37.0442 94.7182 33.2399 92.6364C30.7988 91.3049 28.5693 89.667 26.5403 87.6592C25.6844 86.8033 24.8918 85.8943 24.1627 84.9433ZM100.501 62.3503C99.7194 64.4743 98.779 66.5455 97.68 68.5533C95.3129 72.8965 92.2378 76.9332 88.7611 80.4416C88.7611 80.4416 88.5287 80.6636 88.3596 80.8327C85.9186 83.2421 83.2661 85.4295 80.4551 87.3527C85.0414 94.1687 89.6065 100.995 94.1399 107.885C102.235 102.697 109.04 95.5319 113.616 87.1308C114.567 85.3767 115.433 83.559 116.183 81.6992C115.962 81.2765 115.729 80.8643 115.497 80.4521C111.618 73.6361 106.514 67.4966 100.501 62.3503ZM64.118 67.6127C61.6558 69.145 59.0244 70.3709 56.2769 71.248L55.8754 71.3854C53.3921 72.1357 50.8135 72.6218 48.2456 72.7592C48.2456 72.7592 47.9287 72.7802 47.6857 72.7802C46.5655 72.8225 45.4558 72.8015 44.3357 72.6958C44.3991 77.43 44.8324 82.143 45.6884 86.8667C46.1534 89.3817 46.7347 91.8861 47.4638 94.3377C48.5522 94.4434 49.6512 94.4962 50.7502 94.4962C60.0073 94.5702 69.1691 91.6009 77.0841 86.6553C72.7937 80.2937 68.4612 73.9426 64.118 67.6127ZM29.6683 65.4782C27.1215 70.392 25.2193 75.6757 24.469 81.1813C26.1492 83.8654 28.3051 86.2538 30.8201 88.1876C34.8675 91.2838 39.76 93.1754 44.8535 94.0102C44.2935 92.0129 43.8285 90.0051 43.4375 88.0078C42.4547 82.9038 41.9582 77.7257 41.9159 72.3681C41.1973 72.2307 40.4682 72.0723 39.7496 71.8609C36.5054 70.9416 33.4513 69.2931 31.0102 66.9366C31.0102 66.9366 30.6509 66.5877 30.3339 66.2284C30.1014 65.9854 29.8796 65.7318 29.6683 65.4782ZM119.438 46.7844C120.231 48.8979 120.875 51.0855 121.34 53.3046C123.052 61.4098 122.577 69.906 120.009 78.2014C119.66 79.3321 119.269 80.4522 118.847 81.5512C120.654 85.0279 122.165 88.6313 123.391 92.3405C126.719 83.2314 127.618 73.2136 125.779 63.6079C124.638 57.7007 122.471 51.9942 119.438 46.7844ZM19.3333 75.5278C19.4389 78.7825 19.83 82.0374 20.5169 85.2182C20.8974 86.6131 21.3411 87.9867 21.8589 89.3287C21.6476 86.782 21.6898 84.2143 21.9751 81.6781C20.8655 79.7443 19.9884 77.6835 19.3333 75.5278ZM78.7433 49.4581C78.5214 50.1661 78.2783 50.8634 78.0036 51.5398C76.3656 55.5871 73.8399 59.254 70.7542 62.3503C69.317 63.7875 67.7638 65.0977 66.1153 66.2813C69.8561 71.7235 73.5758 77.1868 77.2849 82.6713C77.8873 83.5695 78.4896 84.4573 79.0919 85.3449C79.6943 84.9328 80.2861 84.5101 80.8673 84.0768C88.8034 78.1696 95.2919 70.0856 98.5044 60.7123C97.7858 60.1311 97.046 59.571 96.3062 59.0321C90.9274 55.101 84.9675 51.9097 78.7433 49.4581ZM98.1555 32.2542C98.9481 33.4695 99.6561 34.7481 100.269 36.069C102.256 40.4122 103.101 45.3685 102.964 49.9759C102.869 53.3363 102.298 56.6544 101.326 59.8775C102.499 60.8497 103.629 61.8431 104.718 62.8681C109.632 67.5072 113.869 72.8225 117.283 78.7085C119.935 70.8041 120.685 62.2975 119.047 54.1606C118.054 49.2467 116.162 44.5231 113.531 40.2644C111.291 38.3729 108.881 36.7455 106.409 35.4563C103.788 34.0931 100.998 33.0362 98.1555 32.2542ZM25.6421 48.6971C24.9024 50.018 24.205 51.3601 23.5815 52.7445C23.0742 53.9175 22.6197 55.1117 22.197 56.3163C21.6792 57.838 21.2249 59.3703 20.8445 60.9237C20.0625 65.7636 20.2738 70.7302 21.7638 75.3482C22.0174 76.1407 22.3028 76.9122 22.6304 77.673C23.6977 72.6535 25.6315 67.803 28.0937 63.2696C25.8534 59.5815 24.9551 55.1645 25.3567 50.8318C25.4201 50.1132 25.5153 49.4051 25.6421 48.6971ZM48.1612 44.6076C46.1217 51.73 44.8641 59.0532 44.4731 66.4926C44.3992 67.7607 44.357 69.0183 44.3464 70.2758C48.7108 70.688 53.3287 69.906 57.5662 68.2152C59.3627 67.5072 61.0957 66.6301 62.7442 65.6157C57.9044 58.5883 53.0434 51.5821 48.1612 44.6076ZM45.4453 45.3368C44.7901 45.9074 44.1456 46.4886 43.5116 47.0909C38.5977 51.7934 34.2968 57.2674 30.9363 63.1428C32.3946 65.1084 34.2756 66.7568 36.4419 67.9298C38.1644 68.8703 40.0137 69.5149 41.9264 69.9165C41.9264 69.8214 41.9264 69.7264 41.937 69.6313C42.0955 61.5155 43.2578 53.3891 45.4453 45.3368ZM50.1585 43.2443C55.0618 50.2505 59.9227 57.2567 64.752 64.284C69.5602 60.8602 73.4702 56.2001 75.6788 50.8318C75.9747 50.1027 76.2388 49.363 76.4818 48.6021C74.7594 47.9892 73.0262 47.4186 71.2826 46.9114C64.3926 44.8824 57.2704 43.7093 50.1585 43.2443ZM45.012 42.5469C43.67 42.4518 42.328 42.3884 40.9859 42.3461L40.8484 42.3356C37.5197 42.2405 34.1698 42.2405 30.9151 42.7583L30.8307 42.7688C30.7461 42.7688 30.7249 42.7688 30.6509 42.7688C30.4818 42.7582 30.3235 42.7054 30.1861 42.6208C29.6155 43.7938 29.1292 45.0091 28.7382 46.2561C27.5019 50.1766 27.2377 54.4775 28.5269 58.4719C28.7911 59.2751 29.1082 60.0572 29.4992 60.8075C31.6655 57.1829 34.1488 53.7907 36.7695 50.7156C39.2845 47.7779 42.0109 45.0091 45.012 42.5469ZM94.5308 31.4194C91.498 30.8487 88.4546 30.574 85.5486 30.5635C85.5486 30.5635 84.8617 30.5634 84.2699 30.574C81.7655 30.6268 79.2611 30.8383 76.7883 31.2188C77.5175 32.3283 78.1303 33.5225 78.6059 34.7588C78.6059 34.7588 78.8807 35.4879 79.0603 36.1008C80.1382 39.662 80.1064 43.5086 79.3561 47.0909C81.9028 48.0843 84.4178 49.1937 86.8695 50.4407C91.2761 52.6704 95.4503 55.3018 99.2651 58.2395C100.903 52.2372 101.083 45.8334 99.1912 39.9684C98.1873 36.8722 96.5915 33.9556 94.5308 31.4194ZM74.1252 31.6836C70.1625 32.455 66.2737 33.6281 62.5434 35.1287C62.5434 35.1287 61.7509 35.4456 61.1063 35.731C57.7247 37.1787 54.4487 38.8907 51.363 40.8985C56.6784 41.2895 61.9517 42.0821 67.1825 43.3184C70.5218 44.111 73.8294 45.0831 77.0736 46.2455C77.7182 43.0647 77.6864 39.7467 76.6614 36.5553C76.1119 34.8011 75.2348 33.1524 74.1252 31.6836ZM38.7878 33.0045C36.5158 34.8855 34.3918 36.9356 32.4474 39.1336C32.1303 39.4929 31.824 39.8522 31.507 40.2221C33.7685 39.9368 36.0298 39.8627 38.3441 39.8733C40.4575 39.8839 42.5711 39.958 44.674 40.0954L38.7878 33.0045ZM72.2549 29.5913C71.2193 28.6086 70.0568 27.7631 68.7887 27.0657C65.6713 25.3643 62.0467 24.6034 58.5278 24.5929C58.475 24.5929 58.4221 24.5929 58.3798 24.5929H58.3693C55.8859 26.4844 53.783 28.8622 52.2402 31.6625C50.9298 34.0402 50.0211 36.6291 49.4188 39.2816L49.4504 39.2605C52.0711 37.5275 54.8715 35.9528 57.7352 34.5896C62.3638 32.3916 67.2459 30.6904 72.2549 29.5913ZM54.2585 24.9204C52.4198 25.2057 50.6128 25.6708 48.8586 26.2837C45.9949 27.7948 43.2578 29.549 40.6899 31.504L46.9883 39.0915C48.1507 33.8078 50.4648 28.767 54.2585 24.9204ZM85.2738 21.486C87.3239 22.3843 89.3 23.515 91.1387 24.8676C92.8718 26.1357 94.4358 27.594 95.8307 29.1897C98.2718 29.6969 100.618 30.3626 102.837 31.208C104.919 31.99 106.948 32.9517 108.871 34.0612C108.385 33.5329 107.888 33.0046 107.381 32.4974C100.998 27.1925 93.3685 23.3987 85.2738 21.486ZM91.8046 28.5346C91.2656 28.0485 90.7055 27.5728 90.1243 27.1396C84.4708 22.7964 77.1476 20.8521 70.0252 20.8204C69.9724 20.8204 69.9088 20.8204 69.8454 20.8204C68.0595 20.8204 66.2842 20.9366 64.5089 21.1585C63.5895 21.5178 62.6913 21.9299 61.8247 22.3843C66.8126 23.0183 71.6419 25.1212 75.1186 29.0312C77.3378 28.6508 79.5885 28.3865 81.85 28.2492C83.0863 28.1752 84.3229 28.1329 85.5593 28.1435C87.6516 28.1435 89.7439 28.281 91.8046 28.5346Z" fill="white"/>
<path fill-rule="evenodd" clip-rule="evenodd" d="M95.6221 153.924C100.362 154.889 108.49 155.661 113.637 153.517L127.277 147.404C132.51 148.005 139.608 148.884 146.857 145.195L153.441 141.914C157.838 138.311 154.063 133.142 147.951 130.869C141.753 128.553 136.992 129.496 133.882 128.253C127.942 125.893 121.958 121.347 115.867 119.245L95.8795 129.239L95.6221 153.924Z" fill="#E4E9EF"/>
<path fill-rule="evenodd" clip-rule="evenodd" d="M119.583 123.507C119.583 123.313 119.583 127.032 119.583 127.032C119.583 130.594 114.007 133.483 107.144 133.483H107.06C100.234 133.46 94.7021 130.579 94.7021 127.032C94.7021 127.032 94.7021 123.313 94.7021 123.507C94.7021 127.066 100.278 129.958 107.144 129.958C114.007 129.958 119.583 127.066 119.583 123.507Z" fill="#E3AF18"/>
<path d="M107.142 129.963C114.012 129.963 119.581 127.075 119.581 123.512C119.581 119.949 114.012 117.06 107.142 117.06C100.272 117.06 94.7021 119.949 94.7021 123.512C94.7021 127.075 100.272 129.963 107.142 129.963Z" fill="#FEEFA3"/>
<path fill-rule="evenodd" clip-rule="evenodd" d="M120.503 119.252C120.503 119.059 120.503 122.777 120.503 122.777C120.503 126.34 114.927 129.228 108.064 129.228H107.98C101.154 129.205 95.6221 126.325 95.6221 122.777C95.6221 122.777 95.6221 119.059 95.6221 119.252C95.6221 122.811 101.198 125.703 108.064 125.703C114.927 125.703 120.503 122.811 120.503 119.252Z" fill="#E3AF18"/>
<path d="M108.062 125.709C114.932 125.709 120.501 122.82 120.501 119.257C120.501 115.694 114.932 112.806 108.062 112.806C101.191 112.806 95.6221 115.694 95.6221 119.257C95.6221 122.82 101.191 125.709 108.062 125.709Z" fill="#FEEFA3"/>
<path fill-rule="evenodd" clip-rule="evenodd" d="M118.663 114.423C118.663 114.23 118.663 117.948 118.663 117.948C118.663 121.51 113.087 124.399 106.224 124.399H106.14C99.3146 124.376 93.7822 121.495 93.7822 117.948C93.7822 117.948 93.7822 114.23 93.7822 114.423C93.7822 117.982 99.3584 120.874 106.224 120.874C113.087 120.874 118.663 117.982 118.663 114.423Z" fill="#E3AF18"/>
<path d="M106.222 120.879C113.092 120.879 118.662 117.991 118.662 114.428C118.662 110.865 113.092 107.976 106.222 107.976C99.3517 107.976 93.7822 110.865 93.7822 114.428C93.7822 117.991 99.3517 120.879 106.222 120.879Z" fill="#FEEFA3"/>
<path fill-rule="evenodd" clip-rule="evenodd" d="M119.583 110.168C119.583 109.975 119.583 113.693 119.583 113.693C119.583 117.256 114.007 120.144 107.144 120.144H107.06C100.234 120.121 94.7021 117.24 94.7021 113.693C94.7021 113.693 94.7021 109.975 94.7021 110.168C94.7021 113.727 100.278 116.619 107.144 116.619C114.007 116.619 119.583 113.727 119.583 110.168Z" fill="#E3AF18"/>
<path d="M107.142 116.624C114.012 116.624 119.581 113.736 119.581 110.173C119.581 106.61 114.012 103.721 107.142 103.721C100.272 103.721 94.7021 106.61 94.7021 110.173C94.7021 113.736 100.272 116.624 107.142 116.624Z" fill="#FEEFA3"/>
<path fill-rule="evenodd" clip-rule="evenodd" d="M117.743 106.718C117.743 106.525 117.743 110.243 117.743 110.243C117.743 113.806 112.167 116.694 105.305 116.694H105.221C98.3946 116.671 92.8623 113.791 92.8623 110.243C92.8623 110.243 92.8623 106.525 92.8623 106.718C92.8623 110.277 98.4385 113.169 105.305 113.169C112.167 113.169 117.743 110.277 117.743 106.718Z" fill="#E3AF18"/>
<path d="M105.302 113.175C112.172 113.175 117.742 110.286 117.742 106.723C117.742 103.16 112.172 100.271 105.302 100.271C98.4317 100.271 92.8623 103.16 92.8623 106.723C92.8623 110.286 98.4317 113.175 105.302 113.175Z" fill="#FEEFA3"/>
<path fill-rule="evenodd" clip-rule="evenodd" d="M118.663 102.464C118.663 102.271 118.663 105.989 118.663 105.989C118.663 109.551 113.087 112.44 106.224 112.44H106.14C99.3146 112.417 93.7822 109.536 93.7822 105.989C93.7822 105.989 93.7822 102.271 93.7822 102.464C93.7822 106.023 99.3584 108.915 106.224 108.915C113.087 108.915 118.663 106.023 118.663 102.464Z" fill="#E3AF18"/>
<path d="M106.222 108.92C113.092 108.92 118.662 106.032 118.662 102.469C118.662 98.9056 113.092 96.0171 106.222 96.0171C99.3517 96.0171 93.7822 98.9056 93.7822 102.469C93.7822 106.032 99.3517 108.92 106.222 108.92Z" fill="#FEEFA3"/>
<path fill-rule="evenodd" clip-rule="evenodd" d="M117.743 97.7485C117.743 97.5552 117.743 101.273 117.743 101.273C117.743 104.836 112.167 107.724 105.305 107.724H105.22C98.3946 107.702 92.8623 104.821 92.8623 101.273C92.8623 101.273 92.8623 97.5552 92.8623 97.7485C92.8623 101.308 98.4385 104.199 105.305 104.199C112.167 104.199 117.743 101.308 117.743 97.7485Z" fill="#E3AF18"/>
<path d="M105.302 104.091C112.172 104.091 117.742 101.202 117.742 97.6391C117.742 94.076 112.172 91.1875 105.302 91.1875C98.4317 91.1875 92.8623 94.076 92.8623 97.6391C92.8623 101.202 98.4317 104.091 105.302 104.091Z" fill="#FEEFA3"/>
<path fill-rule="evenodd" clip-rule="evenodd" d="M118.663 93.3798C118.663 93.1865 118.663 96.9047 118.663 96.9047C118.663 100.468 113.087 103.356 106.224 103.356H106.14C99.3146 103.333 93.7822 100.452 93.7822 96.9047C93.7822 96.9047 93.7822 93.1865 93.7822 93.3798C93.7822 96.9388 99.3584 99.8308 106.224 99.8308C113.087 99.8308 118.663 96.9388 118.663 93.3798Z" fill="#E3AF18"/>
<path d="M106.222 99.8358C113.092 99.8358 118.662 96.9473 118.662 93.3842C118.662 89.8211 113.092 86.9326 106.222 86.9326C99.3517 86.9326 93.7822 89.8211 93.7822 93.3842C93.7822 96.9473 99.3517 99.8358 106.222 99.8358Z" fill="#FEEFA3"/>
<path fill-rule="evenodd" clip-rule="evenodd" d="M119.583 89.125C119.583 88.9317 119.583 92.6498 119.583 92.6498C119.583 96.2126 114.007 99.1008 107.144 99.1008H107.06C100.234 99.078 94.7021 96.1975 94.7021 92.6498C94.7021 92.6498 94.7021 88.9317 94.7021 89.125C94.7021 92.684 100.278 95.5759 107.144 95.5759C114.007 95.5759 119.583 92.684 119.583 89.125Z" fill="#E3AF18"/>
<path d="M107.142 95.5814C114.012 95.5814 119.581 92.6929 119.581 89.1298C119.581 85.5667 114.012 82.6782 107.142 82.6782C100.272 82.6782 94.7021 85.5667 94.7021 89.1298C94.7021 92.6929 100.272 95.5814 107.142 95.5814Z" fill="#FEEFA3"/>
<path fill-rule="evenodd" clip-rule="evenodd" d="M118.663 84.4101C118.663 84.2168 118.663 87.935 118.663 87.935C118.663 91.4978 113.087 94.3859 106.224 94.3859H106.14C99.3146 94.3632 93.7822 91.4826 93.7822 87.935C93.7822 87.935 93.7822 84.2168 93.7822 84.4101C93.7822 87.9691 99.3584 90.8611 106.224 90.8611C113.087 90.8611 118.663 87.9691 118.663 84.4101Z" fill="#E3AF18"/>
<path d="M106.222 90.8666C113.092 90.8666 118.662 87.9781 118.662 84.415C118.662 80.8518 113.092 77.9634 106.222 77.9634C99.3517 77.9634 93.7822 80.8518 93.7822 84.415C93.7822 87.9781 99.3517 90.8666 106.222 90.8666Z" fill="#FEEFA3"/>
<path fill-rule="evenodd" clip-rule="evenodd" d="M119.583 79.5805C119.583 79.3872 119.583 83.1054 119.583 83.1054C119.583 86.6682 114.007 89.5563 107.144 89.5563H107.06C100.234 89.5336 94.7021 86.653 94.7021 83.1054C94.7021 83.1054 94.7021 79.3872 94.7021 79.5805C94.7021 83.1395 100.278 86.0315 107.144 86.0315C114.007 86.0315 119.583 83.1395 119.583 79.5805Z" fill="#E3AF18"/>
<path d="M107.142 86.037C114.012 86.037 119.581 83.1485 119.581 79.5854C119.581 76.0223 114.012 73.1338 107.142 73.1338C100.272 73.1338 94.7021 76.0223 94.7021 79.5854C94.7021 83.1485 100.272 86.037 107.142 86.037Z" fill="#FEEFA3"/>
<path fill-rule="evenodd" clip-rule="evenodd" d="M95.6441 80.0112C95.6295 79.8819 95.6221 79.7525 95.6221 79.6308C95.6221 76.5494 100.441 74.0537 106.376 74.0537C112.31 74.0537 117.129 76.5494 117.129 79.6308C117.129 79.7525 117.114 79.8819 117.1 80.0112C116.726 77.1048 112.06 74.8146 106.376 74.8146C100.683 74.8146 96.0256 77.1048 95.6441 80.0112Z" fill="#F6CA12"/>
<path fill-rule="evenodd" clip-rule="evenodd" d="M143.501 137.651C143.501 137.458 143.501 141.176 143.501 141.176C143.501 144.739 137.925 147.627 131.062 147.627H130.978C124.152 147.604 118.62 144.723 118.62 141.176C118.62 141.176 118.62 137.458 118.62 137.651C118.62 141.21 124.196 144.102 131.062 144.102C137.925 144.102 143.501 141.21 143.501 137.651Z" fill="#F6CA12"/>
<path d="M131.06 144.107C137.93 144.107 143.499 141.219 143.499 137.656C143.499 134.093 137.93 131.204 131.06 131.204C124.19 131.204 118.62 134.093 118.62 137.656C118.62 141.219 124.19 144.107 131.06 144.107Z" fill="#FEEFA3"/>
<path fill-rule="evenodd" clip-rule="evenodd" d="M141.661 134.201C141.661 134.008 141.661 137.726 141.661 137.726C141.661 141.289 136.085 144.177 129.223 144.177H129.138C122.313 144.154 116.78 141.274 116.78 137.726C116.78 137.726 116.78 134.008 116.78 134.201C116.78 137.76 122.356 140.652 129.223 140.652C136.085 140.652 141.661 137.76 141.661 134.201Z" fill="#F6CA12"/>
<path d="M129.22 140.658C136.09 140.658 141.66 137.769 141.66 134.206C141.66 130.643 136.09 127.754 129.22 127.754C122.35 127.754 116.78 130.643 116.78 134.206C116.78 137.769 122.35 140.658 129.22 140.658Z" fill="#FEEFA3"/>
<path fill-rule="evenodd" clip-rule="evenodd" d="M142.581 129.946C142.581 129.753 142.581 133.471 142.581 133.471C142.581 137.034 137.005 139.922 130.142 139.922H130.058C123.233 139.899 117.7 137.019 117.7 133.471C117.7 133.471 117.7 129.753 117.7 129.946C117.7 133.505 123.276 136.397 130.142 136.397C137.005 136.397 142.581 133.505 142.581 129.946Z" fill="#F6CA12"/>
<path d="M130.14 136.403C137.01 136.403 142.579 133.514 142.579 129.951C142.579 126.388 137.01 123.5 130.14 123.5C123.27 123.5 117.7 126.388 117.7 129.951C117.7 133.514 123.27 136.403 130.14 136.403Z" fill="#FEEFA3"/>
<path fill-rule="evenodd" clip-rule="evenodd" d="M140.741 125.117C140.741 124.923 140.741 128.642 140.741 128.642C140.741 132.204 135.165 135.092 128.303 135.092H128.219C121.393 135.07 115.86 132.189 115.86 128.642C115.86 128.642 115.86 124.923 115.86 125.117C115.86 128.676 121.437 131.568 128.303 131.568C135.165 131.568 140.741 128.676 140.741 125.117Z" fill="#F6CA12"/>
<path d="M128.3 131.573C135.17 131.573 140.74 128.685 140.74 125.122C140.74 121.558 135.17 118.67 128.3 118.67C121.43 118.67 115.86 121.558 115.86 125.122C115.86 128.685 121.43 131.573 128.3 131.573Z" fill="#FEEFA3"/>
<path fill-rule="evenodd" clip-rule="evenodd" d="M141.661 120.862C141.661 120.669 141.661 124.387 141.661 124.387C141.661 127.95 136.085 130.838 129.223 130.838H129.138C122.313 130.815 116.78 127.935 116.78 124.387C116.78 124.387 116.78 120.669 116.78 120.862C116.78 124.421 122.356 127.313 129.223 127.313C136.085 127.313 141.661 124.421 141.661 120.862Z" fill="#F6CA12"/>
<path d="M129.22 127.319C136.09 127.319 141.66 124.43 141.66 120.867C141.66 117.304 136.09 114.416 129.22 114.416C122.35 114.416 116.78 117.304 116.78 120.867C116.78 124.43 122.35 127.319 129.22 127.319Z" fill="#FEEFA3"/>
<path fill-rule="evenodd" clip-rule="evenodd" d="M142.581 116.607C142.581 116.414 142.581 120.132 142.581 120.132C142.581 123.695 137.005 126.583 130.142 126.583H130.058C123.233 126.56 117.7 123.68 117.7 120.132C117.7 120.132 117.7 116.414 117.7 116.607C117.7 120.166 123.276 123.058 130.142 123.058C137.005 123.058 142.581 120.166 142.581 116.607Z" fill="#F6CA12"/>
<path d="M130.14 123.064C137.01 123.064 142.579 120.175 142.579 116.612C142.579 113.049 137.01 110.161 130.14 110.161C123.27 110.161 117.7 113.049 117.7 116.612C117.7 120.175 123.27 123.064 130.14 123.064Z" fill="#FEEFA3"/>
<path fill-rule="evenodd" clip-rule="evenodd" d="M141.661 111.893C141.661 111.7 141.661 115.418 141.661 115.418C141.661 118.981 136.085 121.869 129.223 121.869H129.138C122.313 121.846 116.78 118.966 116.78 115.418C116.78 115.418 116.78 111.7 116.78 111.893C116.78 115.452 122.356 118.344 129.223 118.344C136.085 118.344 141.661 115.452 141.661 111.893Z" fill="#F6CA12"/>
<path d="M129.22 118.349C136.09 118.349 141.66 115.461 141.66 111.898C141.66 108.335 136.09 105.446 129.22 105.446C122.35 105.446 116.78 108.335 116.78 111.898C116.78 115.461 122.35 118.349 129.22 118.349Z" fill="#FEEFA3"/>
<path fill-rule="evenodd" clip-rule="evenodd" d="M142.581 107.063C142.581 106.87 142.581 110.588 142.581 110.588C142.581 114.151 137.005 117.039 130.142 117.039H130.058C123.233 117.017 117.7 114.136 117.7 110.588C117.7 110.588 117.7 106.87 117.7 107.063C117.7 110.622 123.276 113.514 130.142 113.514C137.005 113.514 142.581 110.622 142.581 107.063Z" fill="#F6CA12"/>
<path d="M130.14 113.52C137.01 113.52 142.579 110.631 142.579 107.068C142.579 103.505 137.01 100.617 130.14 100.617C123.27 100.617 117.7 103.505 117.7 107.068C117.7 110.631 123.27 113.52 130.14 113.52Z" fill="#FEEFA3"/>
<path fill-rule="evenodd" clip-rule="evenodd" d="M119.562 107.494C119.547 107.365 119.54 107.235 119.54 107.114C119.54 104.032 124.359 101.537 130.294 101.537C136.228 101.537 141.047 104.032 141.047 107.114C141.047 107.235 141.032 107.365 141.018 107.494C140.644 104.588 135.978 102.297 130.294 102.297C124.601 102.297 119.944 104.588 119.562 107.494Z" fill="#F6CA12"/>
<path fill-rule="evenodd" clip-rule="evenodd" d="M111.304 144.205C111.304 144.012 111.304 147.73 111.304 147.73C111.304 151.293 105.728 154.181 98.8651 154.181H98.7811C91.9552 154.158 86.4229 151.278 86.4229 147.73C86.4229 147.73 86.4229 144.012 86.4229 144.205C86.4229 147.764 91.999 150.656 98.8651 150.656C105.728 150.656 111.304 147.764 111.304 144.205Z" fill="#F6CA12"/>
<path d="M98.8625 150.661C105.733 150.661 111.302 147.773 111.302 144.21C111.302 140.647 105.733 137.758 98.8625 137.758C91.9923 137.758 86.4229 140.647 86.4229 144.21C86.4229 147.773 91.9923 150.661 98.8625 150.661Z" fill="#FEEFA3"/>
<path fill-rule="evenodd" clip-rule="evenodd" d="M110.384 139.951C110.384 139.757 110.384 143.476 110.384 143.476C110.384 147.038 104.808 149.926 97.9452 149.926H97.8611C91.0353 149.904 85.5029 147.023 85.5029 143.476C85.5029 143.476 85.5029 139.757 85.5029 139.951C85.5029 143.51 91.0791 146.402 97.9452 146.402C104.808 146.402 110.384 143.51 110.384 139.951Z" fill="#F6CA12"/>
<path d="M97.9426 146.406C104.813 146.406 110.382 143.518 110.382 139.955C110.382 136.391 104.813 133.503 97.9426 133.503C91.0724 133.503 85.5029 136.391 85.5029 139.955C85.5029 143.518 91.0724 146.406 97.9426 146.406Z" fill="#FEEFA3"/>
<path fill-rule="evenodd" clip-rule="evenodd" d="M111.304 135.581C111.304 135.388 111.304 139.106 111.304 139.106C111.304 142.669 105.728 145.557 98.8651 145.557H98.7811C91.9552 145.534 86.4229 142.654 86.4229 139.106C86.4229 139.106 86.4229 135.388 86.4229 135.581C86.4229 139.14 91.999 142.032 98.8651 142.032C105.728 142.032 111.304 139.14 111.304 135.581Z" fill="#F6CA12"/>
<path d="M98.8625 142.037C105.733 142.037 111.302 139.149 111.302 135.586C111.302 132.023 105.733 129.134 98.8625 129.134C91.9923 129.134 86.4229 132.023 86.4229 135.586C86.4229 139.149 91.9923 142.037 98.8625 142.037Z" fill="#FEEFA3"/>
<path fill-rule="evenodd" clip-rule="evenodd" d="M110.384 130.866C110.384 130.673 110.384 134.391 110.384 134.391C110.384 137.954 104.808 140.842 97.9452 140.842H97.8611C91.0353 140.819 85.5029 137.939 85.5029 134.391C85.5029 134.391 85.5029 130.673 85.5029 130.866C85.5029 134.425 91.0791 137.317 97.9452 137.317C104.808 137.317 110.384 134.425 110.384 130.866Z" fill="#F6CA12"/>
<path d="M97.9426 137.323C104.813 137.323 110.382 134.434 110.382 130.871C110.382 127.308 104.813 124.419 97.9426 124.419C91.0724 124.419 85.5029 127.308 85.5029 130.871C85.5029 134.434 91.0724 137.323 97.9426 137.323Z" fill="#FEEFA3"/>
<path fill-rule="evenodd" clip-rule="evenodd" d="M111.304 126.037C111.304 125.843 111.304 129.561 111.304 129.561C111.304 133.124 105.728 136.012 98.8651 136.012H98.7811C91.9552 135.99 86.4229 133.109 86.4229 129.561C86.4229 129.561 86.4229 125.843 86.4229 126.037C86.4229 129.596 91.999 132.488 98.8651 132.488C105.728 132.488 111.304 129.596 111.304 126.037Z" fill="#F6CA12"/>
<path d="M98.8625 132.493C105.733 132.493 111.302 129.605 111.302 126.041C111.302 122.478 105.733 119.59 98.8625 119.59C91.9923 119.59 86.4229 122.478 86.4229 126.041C86.4229 129.605 91.9923 132.493 98.8625 132.493Z" fill="#FEEFA3"/>
<path fill-rule="evenodd" clip-rule="evenodd" d="M88.2848 126.467C88.2701 126.338 88.2627 126.209 88.2627 126.087C88.2627 123.005 93.0821 120.51 99.0163 120.51C104.95 120.51 109.77 123.005 109.77 126.087C109.77 126.209 109.755 126.338 109.74 126.467C109.366 123.561 104.701 121.271 99.0163 121.271C93.3241 121.271 88.6662 123.561 88.2848 126.467Z" fill="#F6CA12"/>
</svg>
