<svg width="146" height="155" viewBox="0 0 146 155" fill="none" xmlns="http://www.w3.org/2000/svg">
<path fill-rule="evenodd" clip-rule="evenodd" d="M96.3688 105.461C96.3688 105.379 96.3688 129.589 96.3688 129.589C96.3688 131.125 93.8734 132.372 90.8024 132.372H90.7648C87.7102 132.363 85.2344 131.118 85.2344 129.589C85.2344 129.589 85.2344 105.379 85.2344 105.461C85.2344 106.998 87.7298 108.244 90.8024 108.244C93.8734 108.244 96.3688 106.998 96.3688 105.461Z" fill="#AD3D75"/>
<path fill-rule="evenodd" clip-rule="evenodd" d="M83.7461 137.436C83.4446 136.804 83.3012 136.316 83.4735 135.454C83.4735 135.454 84.9095 129.524 84.9095 129.61C84.9095 131.146 87.408 132.396 90.4666 132.396C93.5396 132.396 96.0383 131.146 96.0383 129.61C96.0383 129.524 96.8998 135.426 96.8998 135.426C96.8998 137.579 91.6154 140.208 86.6613 138.886L86.3309 133.76L83.7461 137.436Z" fill="#72AADC"/>
<path fill-rule="evenodd" clip-rule="evenodd" d="M83.3994 137.425L86.1996 137.08L85.9842 133.749L83.3994 137.425Z" fill="#5682A7"/>
<path fill-rule="evenodd" clip-rule="evenodd" d="M67.8512 119.72C67.8512 119.638 67.8512 143.848 67.8512 143.848C67.8512 145.383 65.3558 146.631 62.2848 146.631H62.2472C59.1926 146.621 56.7168 145.377 56.7168 143.848C56.7168 143.848 56.7168 119.638 56.7168 119.72C56.7168 121.257 59.2122 122.503 62.2848 122.503C65.3558 122.503 67.8512 121.257 67.8512 119.72Z" fill="#AD3D75"/>
<path fill-rule="evenodd" clip-rule="evenodd" d="M55.2286 151.695C54.927 151.063 54.7836 150.575 54.956 149.713C54.956 149.713 56.3919 143.782 56.3919 143.869C56.3919 145.405 58.8904 146.654 61.949 146.654C65.022 146.654 67.5207 145.405 67.5207 143.869C67.5207 143.782 68.3823 149.684 68.3823 149.684C68.3823 151.838 63.0978 154.466 58.1437 153.145L57.8133 148.019L55.2286 151.695Z" fill="#72AADC"/>
<path d="M126.884 55.2346C127.217 55.3372 127.316 55.3391 127.604 55.5416C128.235 55.9917 128.55 56.8721 128.316 57.6282C128.199 57.9973 128.144 58.0594 127.856 58.3997C126.884 59.5339 126.155 60.8625 125.678 62.2731C125.678 62.2731 125.867 62.2695 126.074 62.2659C129.09 62.22 132.159 62.4108 134.932 63.5982C135.922 64.0221 136.831 64.6189 137.524 65.4669C138.136 66.2104 138.605 67.0683 138.893 67.9802C138.893 67.9802 139.037 68.4618 139.118 68.884C139.118 68.884 139.172 69.235 139.199 69.5213C139.46 72.31 138.1 75.1636 135.976 76.9018C133.789 78.6896 130.701 79.2846 127.982 78.2629C124.103 76.7992 121.78 72.5027 121.33 68.442C121.267 67.8722 121.231 67.2988 121.231 66.7263V66.6344V66.4211C116.379 67.1241 111.671 68.6364 107.278 70.8482L106.909 70.9868C106.783 71.0066 106.648 71.0399 106.522 71.0462C105.604 71.0894 104.722 70.3683 104.578 69.4574C104.479 68.8056 104.749 68.1206 105.262 67.7092C105.433 67.5706 105.631 67.4743 105.829 67.378C110.78 64.9133 116.163 63.2588 121.663 62.5783L121.69 62.5756C121.708 62.5261 121.717 62.4774 121.726 62.4288C122.32 60.0307 123.454 57.7317 125.111 55.8414L125.399 55.574C125.696 55.3967 125.759 55.3246 126.101 55.2463C126.362 55.1887 126.623 55.2112 126.884 55.2346ZM126.596 66.0124C126.065 66.0133 125.543 66.0268 125.012 66.052L124.985 66.0529C124.976 66.2429 124.976 66.5093 124.976 66.5093C124.976 69.0172 125.597 71.6331 127.271 73.402C128.225 74.4075 129.576 75.0853 130.971 75.0376C133.861 74.9377 136.03 71.6106 135.337 69.1927C135.112 68.4096 134.653 67.6759 133.915 67.27C133.059 66.7974 132.078 66.5579 131.097 66.377C129.621 66.1034 128.108 66.0097 126.596 66.0124Z" fill="#F9C4DB"/>
<path fill-rule="evenodd" clip-rule="evenodd" d="M56.6331 47.8928C62.2952 45.14 68.6504 43.5962 75.3657 43.5962C99.0673 43.5962 118.304 62.8374 118.304 86.5372C118.304 103.352 108.618 117.924 94.5214 124.969L68.7584 137.852L68.7494 137.825C62.6282 141.178 55.6068 143.085 48.1533 143.085C24.4517 143.085 5.20605 123.844 5.20605 100.144C5.20605 83.329 14.892 68.7579 28.9888 61.7113L56.6331 47.89V47.8928Z" fill="#F9C4DB"/>
<path fill-rule="evenodd" clip-rule="evenodd" d="M95.1513 48.1958C109.08 55.2895 118.629 69.7783 118.629 86.4786C118.629 103.294 108.951 117.854 94.8501 124.905L69.0885 137.786L69.0744 137.757C62.9572 141.117 55.935 143.027 48.4823 143.027C43.9734 143.027 39.6367 142.323 35.5586 141.045C41.3455 140.241 46.7882 138.389 51.6992 135.689L51.7132 135.718L80.2032 121.473C95.7835 113.69 106.495 97.5788 106.495 78.983C106.495 67.2368 102.231 56.4813 95.1513 48.1958Z" fill="#F38EBA"/>
<path fill-rule="evenodd" clip-rule="evenodd" d="M67.5981 52.2202L41.8335 65.1025L47.5108 67.9411L73.2754 55.0589L67.5981 52.2202Z" fill="#AD3D75"/>
<path fill-rule="evenodd" clip-rule="evenodd" d="M52.6531 58.4525L48.4552 56.3824V56.3807C45.6805 55.0078 43.8428 51.3053 43.8428 46.0929C43.8428 37.683 48.5994 28.5067 54.4732 25.6151C56.6894 24.516 58.7612 24.4823 60.4728 25.3252L64.6711 27.397C62.9594 26.554 60.8873 26.5878 58.6711 27.6869C52.7973 30.5785 48.0407 39.7548 48.0407 48.1647C48.0407 53.377 49.8784 57.0796 52.6531 58.4525Z" fill="#FEEFA3"/>
<path d="M59.0591 58.1391C64.9226 55.2454 69.6759 46.0772 69.6759 37.6613C69.6759 29.2454 64.9226 24.7688 59.0591 27.6624C53.1956 30.5561 48.4424 39.7243 48.4424 48.1402C48.4424 56.5561 53.1956 61.0327 59.0591 58.1391Z" fill="#F6DD76"/>
<path fill-rule="evenodd" clip-rule="evenodd" d="M62.9014 29.9908C65.3792 30.9715 67.0341 34.0994 67.0341 38.5933C67.0341 45.502 63.1239 53.0426 58.3115 55.4175C56.3305 56.3952 54.5049 56.3483 53.042 55.4722C54.3769 56.0061 55.9495 55.9153 57.6319 55.0851C62.4473 52.7087 66.3575 45.1681 66.3575 38.2594C66.3575 34.1892 65.0013 31.2394 62.9014 29.9908Z" fill="#E3AF18"/>
<path fill-rule="evenodd" clip-rule="evenodd" d="M53.7353 55.5309C51.6354 54.2809 50.2822 51.3325 50.2822 47.2614C50.2822 40.3512 54.1894 32.813 59.0048 30.4366C60.6872 29.6063 62.2598 29.5162 63.5947 30.0498C65.6946 31.2987 67.0508 34.2471 67.0508 38.3182C67.0508 45.2268 63.1406 52.7674 58.3282 55.1424C56.6428 55.9741 55.0702 56.0649 53.7353 55.5309Z" fill="#F6CA12"/>
<path fill-rule="evenodd" clip-rule="evenodd" d="M57.6416 28.0178C57.8462 27.8983 58.0508 27.7938 58.2584 27.6893C62.6092 25.5385 66.3521 27.4503 67.9906 32.0355C67.7875 32.1401 67.5814 32.2595 67.3738 32.364C63.0245 34.4998 59.2815 32.5881 57.6416 28.0178Z" fill="#E3AF18"/>
<path fill-rule="evenodd" clip-rule="evenodd" d="M33.3348 36.2596L29.1369 34.1896V34.1878C26.3621 32.8149 24.5244 29.1124 24.5244 23.9C24.5244 15.4902 29.2811 6.31379 35.1548 3.42218C37.371 2.32315 39.4428 2.28938 41.1545 3.13233L45.3527 5.2041C43.6411 4.36116 41.5689 4.39497 39.3527 5.49399C33.479 8.38561 28.7223 17.5619 28.7223 25.9718C28.7223 31.1842 30.56 34.8867 33.3348 36.2596Z" fill="#FEEFA3"/>
<path d="M39.7408 35.9462C45.6042 33.0526 50.3575 23.8843 50.3575 15.4684C50.3575 7.05255 45.6042 2.57591 39.7408 5.46957C33.8773 8.36322 29.124 17.5314 29.124 25.9473C29.124 34.3632 33.8773 38.8399 39.7408 35.9462Z" fill="#F6DD76"/>
<path fill-rule="evenodd" clip-rule="evenodd" d="M43.583 7.79791C46.0608 8.77864 47.7157 11.9065 47.7157 16.4005C47.7157 23.3091 43.8055 30.8497 38.9931 33.2247C37.0121 34.2023 35.1865 34.1555 33.7236 33.2793C35.0585 33.8133 36.6312 33.7225 38.3135 32.8922C43.1289 30.5158 47.0391 22.9752 47.0391 16.0665C47.0391 11.9963 45.6829 9.04651 43.583 7.79791Z" fill="#E3AF18"/>
<path fill-rule="evenodd" clip-rule="evenodd" d="M34.417 33.338C32.3171 32.088 30.9639 29.1396 30.9639 25.0685C30.9639 18.1584 34.8711 10.6201 39.6865 8.24371C41.3688 7.41347 42.9414 7.32328 44.2764 7.85696C46.3762 9.10586 47.7325 12.0542 47.7325 16.1253C47.7325 23.034 43.8222 30.5746 39.0099 32.9495C37.3245 33.7812 35.7519 33.872 34.417 33.338Z" fill="#F6CA12"/>
<path fill-rule="evenodd" clip-rule="evenodd" d="M68.2918 36.0296L64.0939 33.9596V33.9578C61.3192 32.5849 59.4814 28.8824 59.4814 23.67C59.4814 15.2602 64.2381 6.08381 70.1119 3.1922C72.328 2.09317 74.3998 2.0594 76.1115 2.90235L80.3098 4.97412C78.5981 4.13118 76.5259 4.16499 74.3098 5.26401C68.436 8.15562 63.6793 17.3319 63.6793 25.7418C63.6793 30.9542 65.5171 34.6567 68.2918 36.0296Z" fill="#FEEFA3"/>
<path d="M74.6978 35.7162C80.5613 32.8226 85.3146 23.6543 85.3146 15.2385C85.3146 6.82256 80.5613 2.34593 74.6978 5.23958C68.8343 8.13324 64.0811 17.3014 64.0811 25.7173C64.0811 34.1332 68.8343 38.6099 74.6978 35.7162Z" fill="#F6DD76"/>
<path fill-rule="evenodd" clip-rule="evenodd" d="M78.5401 7.56793C81.0179 8.54866 82.6727 11.6765 82.6727 16.1705C82.6727 23.0791 78.7625 30.6198 73.9502 32.9947C71.9692 33.9723 70.1436 33.9255 68.6807 33.0493C70.0156 33.5833 71.5882 33.4925 73.2705 32.6622C78.0859 30.2858 81.9962 22.7452 81.9962 15.8366C81.9962 11.7663 80.6399 8.81653 78.5401 7.56793Z" fill="#E3AF18"/>
<path fill-rule="evenodd" clip-rule="evenodd" d="M69.374 33.1081C67.2741 31.858 65.9209 28.9096 65.9209 24.8385C65.9209 17.9284 69.8281 10.3902 74.6435 8.01373C76.3258 7.18349 77.8985 7.0933 79.2334 7.62698C81.3333 8.87588 82.6895 11.8242 82.6895 15.8953C82.6895 22.804 78.7793 30.3446 73.9669 32.7195C72.2815 33.5513 70.7089 33.642 69.374 33.1081Z" fill="#F6CA12"/>
<path fill-rule="evenodd" clip-rule="evenodd" d="M14.5754 134.272L20.3293 131.395C22.3197 130.401 23.5996 127.935 23.5996 124.449C23.5996 118.453 19.8127 111.692 15.1508 109.36C13.1956 108.384 11.399 108.338 9.96634 109.053L4.2124 111.931C5.64501 111.215 7.44161 111.262 9.3909 112.238C14.0586 114.57 17.8457 121.33 17.8457 127.326C17.8457 130.813 16.5658 133.278 14.5754 134.272Z" fill="#F38EBA"/>
<path d="M8.71527 134.003C4.04859 131.67 0.265498 124.914 0.265498 118.914C0.265498 112.914 4.04859 109.942 8.71527 112.275C13.3819 114.608 17.165 121.364 17.165 127.364C17.165 133.364 13.3819 136.336 8.71527 134.003Z" fill="#F9C4DB"/>
<path d="M11.8206 128.293C10.3931 127.58 9.23596 125.513 9.23596 123.678C9.23596 121.843 10.3931 120.933 11.8206 121.647C13.2481 122.361 14.4053 124.427 14.4053 126.263C14.4053 128.098 13.2481 129.007 11.8206 128.293Z" fill="#AD3D75"/>
<path d="M5.38116 124.958C3.9537 124.245 2.79651 122.178 2.79651 120.343C2.79651 118.508 3.9537 117.598 5.38116 118.312C6.80863 119.026 7.96582 121.092 7.96582 122.928C7.96582 124.763 6.80863 125.672 5.38116 124.958Z" fill="#AD3D75"/>
<path fill-rule="evenodd" clip-rule="evenodd" d="M8.88086 62.5698V83.182C14.1289 77.402 19.2688 75.4792 27.0463 76.8052L8.88086 62.5698Z" fill="#F38EBA"/>
<path fill-rule="evenodd" clip-rule="evenodd" d="M45.6826 78.7832V99.3954C42.1476 89.7814 38.6915 84.1102 33.4466 79.7476L45.6826 78.7832Z" fill="#F38EBA"/>
<path fill-rule="evenodd" clip-rule="evenodd" d="M32.2043 74.2289L27.0463 76.8052L8.88086 62.5698L32.2043 74.2289Z" fill="#AD3D75"/>
<path fill-rule="evenodd" clip-rule="evenodd" d="M45.0369 78.7851L37.9526 77.1738L32.8037 79.7501L45.0369 78.7851Z" fill="#C14A72"/>
<path fill-rule="evenodd" clip-rule="evenodd" d="M45.6826 99.395V78.7837L51.3087 96.5801L45.6826 99.395Z" fill="#AD3D75"/>
<path fill-rule="evenodd" clip-rule="evenodd" d="M22.6846 135.022C30.084 136.022 36.2052 132.583 39.2567 128.459C38.7707 133.779 36.4032 137.562 29.931 139.223C28.2747 138.41 24.2329 136.041 22.6846 135.022Z" fill="#AD3D75"/>
<path d="M11.6403 100.851C15.7018 100.851 18.994 97.5587 18.994 93.4972C18.994 89.4357 15.7018 86.1431 11.6403 86.1431C7.57874 86.1431 4.28613 89.4357 4.28613 93.4972C4.28613 97.5587 7.57874 100.851 11.6403 100.851Z" fill="#F7F8FA"/>
<path d="M6.23959 98.3288C7.31843 98.3288 8.19293 97.4542 8.19293 96.3753C8.19293 95.2965 7.31843 94.4219 6.23959 94.4219C5.16074 94.4219 4.28613 95.2965 4.28613 96.3753C4.28613 97.4542 5.16074 98.3288 6.23959 98.3288Z" fill="#23292E"/>
<path d="M26.3541 107.866C30.4156 107.866 33.7078 104.573 33.7078 100.511C33.7078 96.4498 30.4156 93.1572 26.3541 93.1572C22.2926 93.1572 19 96.4498 19 100.511C19 104.573 22.2926 107.866 26.3541 107.866Z" fill="#F7F8FA"/>
<path d="M20.9544 105.458C22.0333 105.458 22.9078 104.584 22.9078 103.505C22.9078 102.426 22.0333 101.551 20.9544 101.551C19.8756 101.551 19.001 102.426 19.001 103.505C19.001 104.584 19.8756 105.458 20.9544 105.458Z" fill="#23292E"/>
<path fill-rule="evenodd" clip-rule="evenodd" d="M19.9199 96.8774C21.2088 94.7076 23.5582 93.272 26.2501 93.272C30.2472 93.272 33.5104 96.4531 33.6083 100.434C32.6457 100.581 31.6504 100.662 30.6226 100.662C26.2013 100.662 22.2855 99.1615 19.9199 96.8774Z" fill="#F38EBA"/>
<path fill-rule="evenodd" clip-rule="evenodd" d="M5.20605 89.8628C6.49491 87.693 8.84435 86.2573 11.5363 86.2573C15.5333 86.2573 18.7965 89.4384 18.8944 93.4192C17.9319 93.566 16.9365 93.6477 15.9087 93.6477C11.4874 93.6477 7.57168 92.1469 5.20605 89.8628Z" fill="#F38EBA"/>
<path fill-rule="evenodd" clip-rule="evenodd" d="M54.8818 151.683L57.682 151.339L57.4666 148.007L54.8818 151.683Z" fill="#5682A7"/>
<path fill-rule="evenodd" clip-rule="evenodd" d="M109.675 60.4995C115.168 67.7135 118.43 76.7198 118.43 86.4729C118.43 103.291 108.744 117.853 94.6508 124.903L89.2053 127.621C92.5389 109.997 90.0073 91.3718 81.5596 78.4823C81.5596 76.3166 82.9695 73.8523 84.708 72.9861L109.675 60.4995Z" fill="#F38EBA"/>
<path fill-rule="evenodd" clip-rule="evenodd" d="M145.124 47.3212C145.124 45.1661 143.714 44.2537 141.972 45.1247L102.176 65.0229C100.443 65.8894 99.0332 68.2116 99.0332 70.3666V150.102C99.0332 152.257 100.443 153.438 102.176 152.572L141.972 132.673C143.714 131.802 145.124 129.212 145.124 127.057V47.3212Z" fill="#C5CBD2"/>
<path fill-rule="evenodd" clip-rule="evenodd" d="M145.126 106.726V126.984C145.126 129.157 143.716 131.619 141.978 132.484L134.017 136.471L133.99 112.286L145.126 106.726Z" fill="#F1595F"/>
<path fill-rule="evenodd" clip-rule="evenodd" d="M99.0332 92.5463V70.3425C99.0332 68.169 100.444 65.6952 102.182 64.8306L141.978 44.9326C143.716 44.0679 145.125 45.1246 145.125 47.2981V69.5019L99.0332 92.5463Z" fill="#4A525A"/>
<path fill-rule="evenodd" clip-rule="evenodd" d="M100.085 152.557L94.6977 149.855C93.976 149.495 93.5137 148.618 93.5137 147.381V67.6929C93.5137 65.5314 94.9247 63.0578 96.6611 62.1932L136.457 42.2949C137.241 41.8987 137.958 41.8987 138.51 42.211L143.827 44.8768H143.826C143.285 44.5886 142.596 44.6126 141.846 44.9849L102.049 64.8829C100.312 65.7475 98.9007 68.2213 98.9007 70.3948V150.071C98.9007 151.308 99.363 152.197 100.085 152.557Z" fill="#E4E9EF"/>
<path fill-rule="evenodd" clip-rule="evenodd" d="M98.8409 151.705L98.3774 151.465C97.6557 151.105 97.1934 150.228 97.1934 148.991V69.3028C97.1934 67.1413 98.6044 64.6676 100.341 63.803L140.137 43.9048C140.921 43.5085 141.638 43.5086 142.189 43.8208L142.583 44.0249C142.041 43.7367 141.352 43.7607 140.602 44.133L100.805 64.031C99.0679 64.8956 97.6569 67.3694 97.6569 69.543V149.219C97.6569 150.456 98.1192 151.345 98.8409 151.705Z" fill="#C5CBD2"/>
<path fill-rule="evenodd" clip-rule="evenodd" d="M99.3549 92.5923L97.1934 91.5115V69.3077C97.1934 67.1342 98.6044 64.6604 100.342 63.7958L140.138 43.8978C140.855 43.5375 141.516 43.5136 142.046 43.7538L142.157 43.8016H142.158L144.21 44.8345C143.68 44.5944 143.018 44.6183 142.3 44.9785L102.504 64.8766C100.766 65.7412 99.3549 68.215 99.3549 70.3885V92.5923Z" fill="#77818B"/>
<path d="M145.126 81.3795L99.0332 104.426V105.003L145.126 81.9572V81.3795Z" fill="#77818B"/>
<path d="M110.072 86.9465V148.353L110.589 148.094V86.6882L110.072 86.9465Z" fill="#77818B"/>
<path d="M122.031 81.1965V142.603L122.548 142.344V80.9382L122.031 81.1965Z" fill="#77818B"/>
<path d="M133.07 75.3322V136.738L133.587 136.48V75.0739L133.07 75.3322Z" fill="#77818B"/>
<path d="M145.126 106.103L99.0332 129.149V129.727L145.126 106.68V106.103Z" fill="#77818B"/>
<path d="M145.126 93.6837L99.0332 116.73V117.308L145.126 94.2614V93.6837Z" fill="#77818B"/>
<path d="M133.838 124.166L99.0332 141.568V142.146L133.838 124.743V124.166Z" fill="#77818B"/>
<path d="M97.388 103.603L99.0342 104.426V105.003L97.388 104.18V103.603Z" fill="#C5CBD2"/>
<path d="M97.388 115.907L99.0342 116.73V117.308L97.388 116.485V115.907Z" fill="#C5CBD2"/>
<path d="M97.388 140.745L99.0342 141.568V142.146L97.388 141.323V140.745Z" fill="#C5CBD2"/>
<path fill-rule="evenodd" clip-rule="evenodd" d="M97.1934 128.344L98.8397 129.16V129.737L97.1934 128.92V128.344Z" fill="#C5CBD2"/>
<path d="M118.264 138.498C118.264 138.991 118.217 139.438 118.131 139.843C118.038 140.251 117.911 140.607 117.751 140.926C117.592 141.244 117.399 141.518 117.179 141.736C116.96 141.961 116.721 142.142 116.461 142.272C116.202 142.402 115.969 142.456 115.749 142.451C115.53 142.453 115.344 142.369 115.184 142.21C115.024 142.051 114.898 141.821 114.805 141.506C114.718 141.187 114.672 140.787 114.672 140.294C114.672 139.809 114.718 139.362 114.805 138.956C114.898 138.548 115.024 138.192 115.184 137.873C115.344 137.555 115.53 137.292 115.749 137.067C115.969 136.842 116.202 136.664 116.461 136.534C116.721 136.404 116.96 136.346 117.179 136.352C117.399 136.358 117.592 136.431 117.751 136.59C117.911 136.749 118.038 136.978 118.131 137.294C118.217 137.612 118.264 138.013 118.264 138.498ZM117.199 139.03C117.199 138.645 117.179 138.339 117.14 138.113C117.093 137.889 117.04 137.716 116.967 137.614C116.9 137.508 116.82 137.448 116.734 137.437C116.641 137.43 116.554 137.45 116.461 137.497C116.368 137.543 116.282 137.61 116.195 137.707C116.109 137.804 116.029 137.944 115.962 138.116C115.896 138.288 115.836 138.518 115.796 138.784C115.756 139.051 115.736 139.377 115.736 139.762C115.736 140.154 115.756 140.468 115.796 140.687C115.836 140.913 115.896 141.084 115.962 141.189C116.029 141.302 116.109 141.355 116.195 141.365C116.282 141.376 116.368 141.356 116.461 141.309C116.554 141.263 116.641 141.196 116.734 141.096C116.82 140.999 116.9 140.866 116.967 140.687C117.04 140.512 117.093 140.285 117.14 140.015C117.179 139.756 117.199 139.423 117.199 139.03Z" fill="#77818B"/>
<path d="M105.048 121.067V119.604C105.041 119.515 105.048 119.419 105.054 119.308C105.061 119.205 105.067 119.094 105.081 118.971L103.797 121.693L105.048 121.067ZM106.444 120.369V121.039C106.444 121.101 106.424 121.157 106.391 121.22C106.358 121.283 106.305 121.325 106.245 121.355L105.945 121.504V122.798L105.048 123.247V121.953L103.099 122.928C103.032 122.961 102.972 122.968 102.919 122.948C102.866 122.928 102.839 122.888 102.826 122.825L102.713 122.289L104.961 117.676L105.945 117.184V120.618L106.444 120.369Z" fill="#77818B"/>
<path d="M138.707 61.4278V59.0479C138.696 58.903 138.707 58.7473 138.718 58.5665C138.729 58.3982 138.74 58.2175 138.761 58.0187L136.673 62.4447L138.707 61.4278ZM140.979 60.2919V61.3817C140.979 61.4819 140.947 61.5733 140.892 61.6755C140.838 61.7777 140.752 61.846 140.654 61.8947L140.168 62.1381V64.2425L138.707 64.9727V62.8683L135.538 64.4531C135.429 64.5072 135.332 64.5183 135.246 64.4864C135.159 64.4546 135.116 64.3885 135.094 64.2866L134.91 63.414L138.567 55.9115L140.168 55.111V60.6976L140.979 60.2919Z" fill="#72AADC"/>
<path d="M105.872 109.323V110.186L103.112 111.566V110.703L104.043 110.238V107.403C104.043 107.334 104.043 107.265 104.043 107.188C104.043 107.119 104.05 107.038 104.056 106.958L103.504 107.765C103.451 107.838 103.405 107.892 103.358 107.923C103.312 107.954 103.265 107.977 103.225 107.99C103.178 108.005 103.145 107.999 103.112 107.992C103.079 107.986 103.052 107.976 103.039 107.952L102.713 107.614L104.223 105.396L105.074 104.97V109.722L105.872 109.323Z" fill="#77818B"/>
<path d="M135.449 64.8541V66.2571L130.96 68.5018V67.0988L132.474 66.3416V61.732C132.474 61.6193 132.474 61.5065 132.474 61.3813C132.474 61.2686 132.485 61.1379 132.496 61.0072L131.598 62.3205C131.511 62.4389 131.436 62.5268 131.36 62.5772C131.284 62.6276 131.208 62.6655 131.144 62.6854C131.068 62.7108 131.014 62.7002 130.96 62.6897C130.906 62.6792 130.862 62.6632 130.841 62.6239L130.311 62.0748L132.766 58.467L134.151 57.7747V65.5032L135.449 64.8541Z" fill="#72AADC"/>
<path d="M105.137 93.0947V97.4892L104.361 97.877V95.3513C104.361 95.291 104.361 95.2307 104.361 95.1584C104.366 95.0895 104.371 95.0206 104.377 94.9456L103.372 97.7025C103.341 97.7904 103.294 97.8681 103.242 97.9303C103.19 97.9925 103.132 98.0392 103.065 98.0731L102.945 98.1329C102.877 98.1668 102.815 98.1799 102.763 98.1698C102.711 98.1596 102.669 98.1262 102.638 98.0695L101.628 96.314C101.633 96.3837 101.638 96.4534 101.644 96.5171C101.644 96.5895 101.649 96.6471 101.649 96.7074V99.2332L100.873 99.621V95.2266L101.545 94.8908C101.581 94.8726 101.612 94.863 101.644 94.8474C101.67 94.8343 101.696 94.8274 101.722 94.8264C101.742 94.828 101.763 94.8297 101.779 94.846C101.8 94.8537 101.815 94.876 101.836 94.9017L102.81 96.6454C102.846 96.7055 102.877 96.7683 102.909 96.831C102.94 96.8998 102.971 96.9686 103.002 97.0373C103.033 96.9373 103.065 96.8313 103.096 96.7313C103.127 96.6313 103.158 96.5373 103.2 96.4381L104.174 93.733C104.189 93.689 104.205 93.6511 104.226 93.6226C104.241 93.5907 104.262 93.5682 104.288 93.5431C104.309 93.5207 104.335 93.5016 104.361 93.4886C104.392 93.473 104.423 93.4513 104.465 93.4305L105.137 93.0947Z" fill="#77818B"/>
<path d="M108.242 94.9606C108.263 94.9502 108.284 94.9458 108.305 94.9474C108.326 94.943 108.341 94.9533 108.362 94.961L108.711 95.2146C108.56 95.5191 108.367 95.7903 108.138 96.0253C107.909 96.2544 107.633 96.4526 107.321 96.6088C107.034 96.752 106.774 96.8279 106.545 96.8279C106.316 96.8279 106.123 96.7675 105.967 96.6466C105.806 96.5284 105.686 96.3471 105.603 96.1175C105.514 95.8845 105.473 95.6099 105.473 95.2844C105.473 94.9589 105.52 94.6341 105.613 94.316C105.702 93.9944 105.832 93.6943 105.998 93.412C106.165 93.1298 106.363 92.8742 106.597 92.6485C106.831 92.4229 107.087 92.2351 107.368 92.0945C107.508 92.0242 107.644 91.9746 107.768 91.9423C107.893 91.91 108.013 91.8863 108.122 91.8859C108.232 91.8794 108.331 91.8902 108.424 91.9157C108.513 91.9438 108.596 91.9805 108.669 92.0285L108.372 92.641C108.352 92.6816 108.331 92.7161 108.305 92.7532C108.279 92.7903 108.242 92.8146 108.195 92.838C108.164 92.8536 108.133 92.8632 108.107 92.8582C108.076 92.8617 108.05 92.8566 108.018 92.8481C107.987 92.8397 107.951 92.8338 107.914 92.8218C107.878 92.816 107.831 92.8153 107.779 92.8172C107.727 92.8191 107.67 92.8297 107.602 92.8454C107.534 92.8612 107.451 92.8968 107.362 92.941C107.217 93.0139 107.081 93.1117 106.962 93.2319C106.842 93.3581 106.738 93.5005 106.649 93.6654C106.561 93.8302 106.493 94.0087 106.446 94.2069C106.399 94.4052 106.373 94.6171 106.373 94.8341C106.373 95.0632 106.399 95.2491 106.451 95.3979C106.503 95.5467 106.576 95.6549 106.67 95.7286C106.759 95.8049 106.868 95.8407 106.988 95.8411C107.107 95.8475 107.237 95.8126 107.378 95.7423C107.456 95.7033 107.529 95.6608 107.597 95.6209C107.664 95.575 107.727 95.5317 107.784 95.479C107.841 95.4323 107.893 95.3761 107.945 95.3139C107.992 95.2543 108.044 95.1861 108.096 95.1058C108.117 95.0773 108.138 95.0488 108.164 95.0237C108.19 94.9987 108.216 94.9736 108.242 94.9606Z" fill="#77818B"/>
<path d="M115.274 90.9689L114.92 89.9463C114.894 89.8809 114.868 89.8035 114.836 89.7167C114.805 89.6298 114.779 89.5283 114.748 89.4233C114.722 89.5629 114.696 89.6905 114.665 89.8086C114.633 89.9267 114.607 90.0301 114.581 90.1215L114.232 91.4895L115.274 90.9689ZM116.669 91.9531L115.987 92.2941C115.909 92.3331 115.852 92.3437 115.805 92.3249C115.758 92.3061 115.721 92.2701 115.695 92.2168L115.471 91.5632L114.029 92.2842L113.806 93.1617C113.785 93.2324 113.754 93.2962 113.701 93.3705C113.655 93.4361 113.592 93.4915 113.519 93.5279L112.832 93.8715L114.3 88.743L115.201 88.2927L116.669 91.9531Z" fill="#77818B"/>
<path d="M119.281 89.7858C119.302 89.7754 119.323 89.771 119.344 89.7726C119.365 89.7682 119.38 89.7785 119.401 89.7862L119.75 90.0398C119.599 90.3443 119.406 90.6154 119.177 90.8505C118.948 91.0796 118.672 91.2778 118.36 91.434C118.074 91.5772 117.813 91.6531 117.584 91.6531C117.355 91.6531 117.162 91.5927 117.006 91.4718C116.845 91.3536 116.725 91.1723 116.642 90.9427C116.553 90.7097 116.512 90.4351 116.512 90.1096C116.512 89.7841 116.559 89.4593 116.652 89.1412C116.741 88.8196 116.871 88.5195 117.038 88.2372C117.204 87.955 117.402 87.6994 117.636 87.4737C117.87 87.2481 118.126 87.0603 118.407 86.9197C118.547 86.8494 118.683 86.7998 118.808 86.7675C118.932 86.7352 119.052 86.7115 119.162 86.711C119.271 86.7046 119.37 86.7154 119.464 86.7409C119.552 86.769 119.635 86.8057 119.708 86.8537L119.411 87.4662C119.391 87.5068 119.37 87.5413 119.344 87.5784C119.318 87.6155 119.281 87.6398 119.234 87.6632C119.203 87.6788 119.172 87.6884 119.146 87.6833C119.115 87.6869 119.089 87.6818 119.057 87.6733C119.026 87.6648 118.99 87.659 118.953 87.647C118.917 87.6411 118.87 87.6405 118.818 87.6424C118.766 87.6443 118.709 87.6548 118.641 87.6706C118.573 87.6864 118.49 87.722 118.401 87.7662C118.256 87.8391 118.12 87.9369 118.001 88.0571C117.881 88.1833 117.777 88.3257 117.688 88.4905C117.6 88.6554 117.532 88.8339 117.485 89.0321C117.438 89.2304 117.412 89.4423 117.412 89.6593C117.412 89.8884 117.438 90.0743 117.49 90.2231C117.543 90.3718 117.615 90.4801 117.709 90.5538C117.798 90.6301 117.907 90.6659 118.027 90.6663C118.146 90.6727 118.277 90.6378 118.417 90.5675C118.495 90.5284 118.568 90.486 118.636 90.4461C118.703 90.4002 118.766 90.3569 118.823 90.3042C118.88 90.2575 118.932 90.2013 118.985 90.1391C119.031 90.0795 119.083 90.0113 119.136 89.931C119.156 89.9025 119.177 89.874 119.203 89.8489C119.229 89.8239 119.255 89.7988 119.281 89.7858Z" fill="#77818B"/>
<path d="M128.136 81.4809V85.8754L127.36 86.2632V83.7375C127.36 83.6772 127.36 83.6169 127.36 83.5446C127.365 83.4757 127.37 83.4068 127.376 83.3318L126.371 86.0887C126.34 86.1766 126.293 86.2543 126.241 86.3165C126.189 86.3787 126.131 86.4254 126.064 86.4593L125.944 86.5191C125.876 86.553 125.814 86.5661 125.762 86.556C125.71 86.5458 125.668 86.5124 125.637 86.4557L124.627 84.7002C124.632 84.7699 124.637 84.8396 124.643 84.9033C124.643 84.9757 124.648 85.0334 124.648 85.0936V87.6194L123.872 88.0072V83.6128L124.544 83.277C124.58 83.2588 124.611 83.2492 124.643 83.2336C124.669 83.2206 124.695 83.2136 124.721 83.2126C124.741 83.2143 124.762 83.2159 124.778 83.2322C124.799 83.2399 124.814 83.2622 124.835 83.288L125.809 85.0316C125.845 85.0917 125.876 85.1545 125.908 85.2172C125.939 85.286 125.97 85.3548 126.001 85.4235C126.033 85.3235 126.064 85.2175 126.095 85.1175C126.126 85.0175 126.157 84.9235 126.199 84.8243L127.173 82.1192C127.188 82.0752 127.204 82.0373 127.225 82.0088C127.24 81.9769 127.261 81.9544 127.287 81.9293C127.308 81.9069 127.334 81.8878 127.36 81.8748C127.391 81.8592 127.422 81.8376 127.464 81.8167L128.136 81.4809Z" fill="#77818B"/>
<path d="M131.049 75.4482L130.086 75.9298V77.1293L129.43 77.4573V76.2577L128.472 76.7367V76.0676L129.43 75.5886V74.3951L130.086 74.0671V75.2607L131.049 74.7791V75.4482Z" fill="#77818B"/>
<path d="M115.936 114.053C116.029 113.983 116.115 113.932 116.202 113.873C116.282 113.826 116.368 113.782 116.448 113.743C116.701 113.616 116.927 113.549 117.12 113.538C117.313 113.534 117.479 113.574 117.612 113.661C117.745 113.749 117.845 113.884 117.911 114.058C117.978 114.233 118.018 114.444 118.018 114.675C118.018 114.976 117.971 115.276 117.878 115.569C117.785 115.862 117.658 116.141 117.492 116.401C117.326 116.669 117.133 116.904 116.907 117.118C116.681 117.331 116.428 117.503 116.162 117.636C116.002 117.716 115.849 117.777 115.71 117.809C115.563 117.836 115.43 117.856 115.304 117.85C115.177 117.851 115.064 117.831 114.958 117.799C114.851 117.768 114.758 117.722 114.672 117.665L114.991 117.012C115.024 116.942 115.058 116.887 115.104 116.84C115.151 116.786 115.197 116.748 115.251 116.721C115.317 116.688 115.377 116.681 115.437 116.697C115.497 116.706 115.557 116.722 115.63 116.739C115.696 116.752 115.783 116.755 115.876 116.747C115.969 116.747 116.082 116.706 116.222 116.636C116.355 116.569 116.474 116.486 116.574 116.383C116.667 116.282 116.747 116.173 116.807 116.051C116.867 115.928 116.913 115.805 116.94 115.668C116.967 115.532 116.987 115.391 116.987 115.252C116.987 114.983 116.92 114.808 116.787 114.728C116.654 114.656 116.461 114.676 116.222 114.795C116.002 114.905 115.789 115.065 115.583 115.261L114.945 115.38L115.357 112.363L117.838 111.122V111.615C117.838 111.7 117.825 111.783 117.805 111.855C117.778 111.938 117.745 112.016 117.698 112.085C117.652 112.162 117.585 112.234 117.512 112.294C117.432 112.365 117.339 112.419 117.233 112.472L116.075 113.051L115.936 114.053Z" fill="#77818B"/>
<path d="M117.718 103.246C117.831 103.19 117.918 103.185 117.984 103.221C118.044 103.26 118.077 103.336 118.077 103.452V104.145L114.672 105.848V105.462C114.672 105.385 114.685 105.302 114.712 105.204C114.738 105.106 114.785 105.005 114.851 104.903L116.248 102.572C116.368 102.373 116.474 102.189 116.561 102.023C116.647 101.856 116.721 101.696 116.78 101.543C116.84 101.39 116.88 101.247 116.913 101.107C116.94 100.97 116.953 100.841 116.953 100.702C116.953 100.479 116.907 100.332 116.814 100.256C116.721 100.187 116.581 100.195 116.395 100.288C116.242 100.365 116.115 100.474 116.009 100.62C115.902 100.765 115.829 100.917 115.789 101.076C115.743 101.246 115.683 101.368 115.61 101.451C115.53 101.537 115.423 101.598 115.284 101.645L114.738 101.802C114.772 101.508 114.845 101.225 114.945 100.967C115.044 100.709 115.171 100.476 115.317 100.265C115.47 100.05 115.636 99.8663 115.836 99.6972C116.029 99.5314 116.235 99.3898 116.454 99.2801C116.694 99.1604 116.907 99.1002 117.1 99.0807C117.293 99.069 117.459 99.0937 117.592 99.1735C117.725 99.2533 117.831 99.3695 117.904 99.5332C117.978 99.6969 118.011 99.8959 118.011 100.135C118.011 100.343 117.984 100.541 117.938 100.741C117.885 100.945 117.818 101.14 117.732 101.345C117.645 101.542 117.545 101.746 117.432 101.949C117.319 102.152 117.193 102.369 117.066 102.579L116.122 104.175C116.242 104.077 116.361 103.979 116.481 103.896C116.601 103.813 116.714 103.748 116.814 103.698L117.718 103.246Z" fill="#77818B"/>
<path d="M127.427 110.826C127.533 110.773 127.633 110.7 127.726 110.607C127.819 110.515 127.899 110.413 127.966 110.303C128.032 110.185 128.079 110.069 128.119 109.941C128.159 109.814 128.179 109.68 128.179 109.549C128.179 109.411 128.159 109.29 128.125 109.191C128.085 109.103 128.039 109.026 127.972 108.983C127.906 108.939 127.819 108.928 127.726 108.928C127.633 108.937 127.527 108.967 127.414 109.023C127.307 109.076 127.214 109.146 127.128 109.235C127.041 109.317 126.968 109.415 126.902 109.526C126.842 109.64 126.788 109.759 126.755 109.884C126.722 110.016 126.702 110.149 126.702 110.288C126.702 110.426 126.715 110.543 126.749 110.634C126.775 110.736 126.822 110.806 126.882 110.853C126.941 110.907 127.015 110.932 127.108 110.924C127.194 110.927 127.301 110.89 127.427 110.826ZM127.261 108.337C127.414 108.199 127.587 108.074 127.78 107.978C127.952 107.891 128.125 107.843 128.298 107.818C128.471 107.801 128.624 107.825 128.757 107.897C128.89 107.969 129.003 108.09 129.083 108.265C129.17 108.43 129.21 108.664 129.21 108.949C129.21 109.211 129.17 109.478 129.083 109.76C128.997 110.034 128.877 110.302 128.724 110.555C128.571 110.809 128.385 111.041 128.172 111.247C127.952 111.457 127.713 111.631 127.447 111.764C127.174 111.9 126.935 111.974 126.722 111.98C126.502 111.99 126.323 111.941 126.17 111.84C126.024 111.736 125.91 111.577 125.831 111.37C125.751 111.164 125.711 110.914 125.711 110.622C125.711 110.067 125.897 109.419 126.263 108.659L127.354 106.411C127.407 106.308 127.48 106.21 127.573 106.109C127.673 106.005 127.78 105.921 127.906 105.858L128.824 105.399L127.387 108.105L127.261 108.337Z" fill="#77818B"/>
<path d="M116.401 128.866C116.514 128.81 116.614 128.737 116.701 128.655C116.787 128.573 116.854 128.478 116.907 128.382C116.96 128.286 117 128.182 117.026 128.076C117.053 127.963 117.066 127.856 117.066 127.74C117.066 127.625 117.053 127.516 117.033 127.426C117.013 127.336 116.973 127.271 116.927 127.225C116.874 127.182 116.807 127.161 116.721 127.166C116.634 127.171 116.528 127.201 116.401 127.264C116.275 127.327 116.168 127.404 116.082 127.485C115.996 127.567 115.929 127.654 115.882 127.747C115.829 127.843 115.789 127.947 115.769 128.058C115.749 128.168 115.736 128.29 115.736 128.405C115.736 128.521 115.749 128.614 115.776 128.701C115.803 128.78 115.843 128.845 115.896 128.888C115.949 128.93 116.015 128.959 116.102 128.954C116.182 128.953 116.282 128.926 116.401 128.866ZM116.401 124.9C116.295 124.953 116.208 125.019 116.142 125.091C116.069 125.166 116.009 125.25 115.962 125.335C115.916 125.42 115.889 125.502 115.869 125.597C115.849 125.692 115.836 125.783 115.836 125.868C115.836 125.968 115.843 126.057 115.862 126.139C115.876 126.225 115.902 126.297 115.949 126.343C115.989 126.392 116.049 126.424 116.122 126.426C116.195 126.435 116.288 126.412 116.401 126.355C116.514 126.299 116.614 126.226 116.687 126.143C116.754 126.071 116.814 125.98 116.86 125.887C116.9 125.798 116.927 125.7 116.947 125.597C116.96 125.498 116.967 125.403 116.967 125.302C116.967 125.218 116.96 125.136 116.94 125.062C116.92 124.987 116.887 124.934 116.84 124.896C116.794 124.857 116.734 124.833 116.661 124.832C116.588 124.83 116.501 124.85 116.401 124.9ZM117.319 126.32C117.459 126.312 117.585 126.318 117.685 126.353C117.791 126.392 117.871 126.452 117.938 126.527C118.004 126.609 118.051 126.709 118.084 126.831C118.117 126.945 118.131 127.085 118.131 127.231C118.131 127.485 118.091 127.736 118.004 127.98C117.924 128.228 117.805 128.465 117.652 128.688C117.499 128.91 117.319 129.108 117.106 129.291C116.893 129.483 116.661 129.637 116.401 129.767C116.142 129.897 115.909 129.975 115.696 129.996C115.483 130.026 115.304 130.008 115.151 129.938C114.998 129.868 114.878 129.751 114.798 129.583C114.712 129.426 114.672 129.215 114.672 128.961C114.672 128.814 114.685 128.661 114.718 128.514C114.752 128.358 114.798 128.212 114.865 128.063C114.931 127.922 115.011 127.782 115.118 127.636C115.217 127.502 115.344 127.369 115.49 127.235C115.271 127.229 115.104 127.15 114.998 127.003C114.885 126.852 114.832 126.632 114.832 126.347C114.832 126.131 114.871 125.903 114.951 125.679C115.024 125.457 115.131 125.242 115.277 125.03C115.41 124.833 115.576 124.642 115.769 124.469C115.962 124.295 116.175 124.142 116.401 124.029C116.627 123.916 116.84 123.856 117.033 123.837C117.226 123.817 117.392 123.842 117.532 123.903C117.672 123.972 117.778 124.08 117.858 124.225C117.931 124.373 117.971 124.561 117.971 124.777C117.971 125.062 117.918 125.335 117.811 125.596C117.698 125.853 117.532 126.098 117.319 126.32Z" fill="#77818B"/>
<path d="M125.844 96.0189C125.877 95.725 125.95 95.442 126.05 95.1842C126.15 94.9263 126.276 94.6937 126.423 94.4819C126.576 94.2668 126.749 94.0802 126.941 93.9144C127.134 93.7487 127.341 93.6071 127.56 93.4973C127.799 93.3776 128.012 93.3174 128.199 93.3013C128.385 93.2852 128.544 93.3132 128.671 93.3809C128.797 93.4487 128.897 93.5528 128.963 93.6967C129.03 93.8406 129.063 94.0088 129.063 94.2013C129.063 94.3785 129.05 94.5469 129.017 94.6944C128.983 94.8497 128.937 94.9885 128.877 95.1185C128.817 95.2486 128.744 95.3622 128.651 95.4781C128.564 95.5906 128.458 95.6977 128.345 95.8005C128.884 95.7545 129.15 96.045 129.15 96.6689C129.15 96.9692 129.103 97.2544 129.01 97.5166C128.917 97.7865 128.791 98.0345 128.638 98.2574C128.478 98.4835 128.298 98.6811 128.092 98.8612C127.886 99.0336 127.673 99.1786 127.447 99.2917C127.214 99.4081 127.015 99.477 126.835 99.5129C126.655 99.5411 126.489 99.5395 126.356 99.4828C126.21 99.4327 126.09 99.3386 125.984 99.1992C125.877 99.0599 125.791 98.8798 125.711 98.6578L126.17 98.2127C126.29 98.0989 126.403 98.027 126.502 98.0002C126.602 97.9811 126.675 97.9985 126.722 98.0676C126.822 98.2334 126.928 98.3342 127.041 98.3778C127.154 98.4137 127.281 98.3967 127.434 98.3202C127.547 98.2636 127.646 98.1984 127.733 98.1089C127.819 98.0195 127.893 97.9213 127.946 97.8254C128.006 97.7261 128.046 97.6291 128.079 97.5201C128.105 97.4144 128.119 97.3153 128.119 97.2229C128.119 97.1073 128.112 97.0028 128.099 96.9094C128.085 96.8236 128.046 96.7588 127.979 96.7228C127.913 96.6867 127.806 96.686 127.673 96.714C127.54 96.742 127.354 96.8197 127.114 96.9395V96.1154C127.314 96.0156 127.48 95.9171 127.607 95.8154C127.726 95.717 127.826 95.6209 127.893 95.526C127.959 95.4312 128.006 95.3309 128.026 95.2285C128.046 95.1261 128.059 95.027 128.059 94.9115C128.059 94.6958 128.012 94.5497 127.919 94.473C127.826 94.404 127.686 94.4123 127.5 94.5054C127.347 94.5819 127.221 94.6913 127.114 94.8369C127.008 94.9825 126.935 95.1346 126.895 95.2932C126.848 95.4628 126.788 95.5852 126.715 95.668C126.635 95.7541 126.529 95.815 126.389 95.8618L125.844 96.0189Z" fill="#77818B"/>
<path d="M119.488 67.4666C119.542 66.9886 119.661 66.5283 119.823 66.1089C119.985 65.6896 120.191 65.3113 120.429 64.9668C120.678 64.6169 120.959 64.3134 121.273 64.0439C121.587 63.7743 121.922 63.544 122.279 63.3655C122.668 63.1707 123.014 63.0728 123.317 63.0466C123.62 63.0204 123.88 63.066 124.085 63.1761C124.291 63.2863 124.453 63.4557 124.561 63.6897C124.67 63.9237 124.724 64.1973 124.724 64.5105C124.724 64.7986 124.702 65.0724 124.648 65.3124C124.594 65.5649 124.518 65.7907 124.421 66.0022C124.323 66.2137 124.204 66.3985 124.053 66.5869C123.912 66.77 123.739 66.9442 123.555 67.1113C124.432 67.0364 124.864 67.509 124.864 68.5236C124.864 69.0121 124.789 69.4759 124.637 69.9024C124.486 70.3413 124.28 70.7447 124.031 71.1071C123.772 71.4749 123.48 71.7963 123.144 72.0893C122.809 72.3697 122.463 72.6054 122.095 72.7893C121.716 72.9786 121.392 73.0908 121.1 73.1491C120.808 73.195 120.537 73.1924 120.321 73.1002C120.083 73.0188 119.888 72.8656 119.715 72.639C119.542 72.4124 119.401 72.1194 119.271 71.7585L120.018 71.0345C120.213 70.8495 120.397 70.7325 120.559 70.6889C120.721 70.6579 120.84 70.6861 120.916 70.7985C121.078 71.0681 121.251 71.2321 121.435 71.303C121.619 71.3613 121.824 71.3337 122.073 71.2093C122.257 71.1174 122.419 71.0112 122.56 70.8657C122.701 70.7202 122.82 70.5605 122.906 70.4045C123.004 70.2431 123.069 70.0854 123.123 69.908C123.166 69.7361 123.188 69.575 123.188 69.4246C123.188 69.2368 123.177 69.0668 123.155 68.9148C123.133 68.7753 123.069 68.67 122.96 68.6113C122.852 68.5527 122.679 68.5515 122.463 68.5971C122.246 68.6426 121.943 68.769 121.554 68.9637V67.6235C121.879 67.4612 122.149 67.3009 122.355 67.1355C122.549 66.9755 122.712 66.8192 122.82 66.6649C122.928 66.5106 123.004 66.3475 123.036 66.181C123.069 66.0144 123.09 65.8533 123.09 65.6654C123.09 65.3147 123.014 65.077 122.863 64.9523C122.712 64.8401 122.484 64.8535 122.181 65.0049C121.933 65.1293 121.727 65.3073 121.554 65.5441C121.381 65.781 121.262 66.0284 121.197 66.2863C121.121 66.5622 121.024 66.7611 120.905 66.8958C120.775 67.0359 120.602 67.1349 120.375 67.2109L119.488 67.4666Z" fill="#72AADC"/>
<path d="M106.118 129.056V129.557C106.118 129.711 106.098 129.836 106.072 129.942C106.045 130.048 106.019 130.138 105.992 130.213L104.309 135.182C104.263 135.314 104.196 135.439 104.11 135.559C104.023 135.68 103.91 135.775 103.77 135.845L103.019 136.22L104.748 131.335C104.795 131.204 104.848 131.085 104.901 130.966C104.954 130.855 105.008 130.744 105.074 130.626L102.946 131.69C102.912 131.706 102.879 131.723 102.853 131.721C102.826 131.719 102.799 131.709 102.779 131.696C102.759 131.683 102.746 131.659 102.733 131.635C102.72 131.61 102.713 131.583 102.713 131.544V130.759L106.118 129.056Z" fill="#77818B"/>
<path d="M126.742 120.408C126.742 120.97 126.961 121.138 127.414 120.912C127.633 120.802 127.799 120.642 127.919 120.428C128.039 120.214 128.099 119.984 128.099 119.73C128.099 119.591 128.079 119.486 128.046 119.394C128.012 119.311 127.959 119.245 127.899 119.206C127.839 119.166 127.766 119.157 127.68 119.161C127.593 119.166 127.5 119.197 127.4 119.247C127.294 119.3 127.201 119.37 127.121 119.448C127.041 119.535 126.968 119.625 126.915 119.729C126.855 119.836 126.815 119.94 126.782 120.057C126.755 120.17 126.742 120.293 126.742 120.408ZM127.567 121.767C127.593 121.708 127.627 121.653 127.653 121.593C127.68 121.541 127.706 121.489 127.733 121.43C127.527 121.664 127.301 121.839 127.041 121.968C126.882 122.048 126.722 122.097 126.569 122.104C126.409 122.122 126.263 122.096 126.137 122.02C126.01 121.952 125.91 121.833 125.831 121.672C125.751 121.512 125.711 121.293 125.711 121.008C125.711 120.754 125.751 120.495 125.831 120.232C125.91 119.969 126.024 119.712 126.177 119.466C126.323 119.224 126.502 119.003 126.715 118.796C126.922 118.593 127.154 118.423 127.414 118.293C127.673 118.163 127.906 118.093 128.112 118.083C128.318 118.072 128.491 118.116 128.638 118.213C128.777 118.312 128.89 118.448 128.963 118.643C129.043 118.834 129.083 119.068 129.083 119.345C129.083 119.715 129.03 120.065 128.937 120.404C128.844 120.744 128.717 121.076 128.558 121.41L127.513 123.65C127.467 123.75 127.394 123.848 127.301 123.949C127.208 124.049 127.101 124.126 126.981 124.186L126.03 124.661L127.567 121.767Z" fill="#77818B"/>
<path d="M141.69 119.204L137.67 121.214V122.316L141.69 120.305V119.204Z" fill="white"/>
<path d="M141.69 76.773L137.67 78.7832V79.8844L141.69 77.8741V76.773Z" fill="#77818B"/>
<path d="M106.733 143.582L102.713 145.592V146.693L106.733 144.683V143.582Z" fill="#77818B"/>
<path d="M129.731 131.968L125.711 133.979V135.08L129.731 133.069V131.968Z" fill="#77818B"/>
<path d="M127.551 131.553V136.048L128.536 135.556V131.061L127.551 131.553Z" fill="#77818B"/>
<path d="M141.69 121.734L137.67 123.744V124.845L141.69 122.835V121.734Z" fill="white"/>
<path d="M139.21 76.7908C139.551 76.62 139.828 76.1119 139.828 75.656C139.828 75.2001 139.551 74.969 139.21 75.1398C138.868 75.3107 138.591 75.8188 138.591 76.2747C138.591 76.7306 138.868 76.9617 139.21 76.7908Z" fill="#77818B"/>
<path d="M139.21 104.043C139.551 103.872 139.828 103.364 139.828 102.908C139.828 102.452 139.551 102.221 139.21 102.392C138.868 102.563 138.591 103.071 138.591 103.527C138.591 103.983 138.868 104.214 139.21 104.043Z" fill="#77818B"/>
<path d="M128.419 70.7752C128.899 70.5356 129.287 69.8232 129.287 69.1839C129.287 68.5447 128.899 68.2207 128.419 68.4602C127.94 68.6998 127.552 69.4123 127.552 70.0515C127.552 70.6908 127.94 71.0148 128.419 70.7752Z" fill="#72AADC"/>
<path d="M139.21 81.5047C139.551 81.3338 139.828 80.8257 139.828 80.3698C139.828 79.9139 139.551 79.6828 139.21 79.8537C138.868 80.0246 138.591 80.5327 138.591 80.9886C138.591 81.4445 138.868 81.6755 139.21 81.5047Z" fill="#77818B"/>
</svg>
