<svg width="137" height="164" viewBox="0 0 137 164" fill="none" xmlns="http://www.w3.org/2000/svg">
<path d="M43.8776 129.077C68.1105 129.077 87.7552 119.255 87.7552 107.138C87.7552 95.0212 68.1105 85.1987 43.8776 85.1987C19.6447 85.1987 0 95.0212 0 107.138C0 119.255 19.6447 129.077 43.8776 129.077Z" fill="#F7A6A3"/>
<path d="M43.6602 126.214C64.7247 126.214 81.8008 117.676 81.8008 107.144C81.8008 96.6114 64.7247 88.0732 43.6602 88.0732C22.5957 88.0732 5.51953 96.6114 5.51953 107.144C5.51953 117.676 22.5957 126.214 43.6602 126.214Z" fill="#CEE4F6"/>
<path fill-rule="evenodd" clip-rule="evenodd" d="M31.9914 125.169L26.6777 122.51L59.8905 105.897L70.519 111.215L40.7637 126.088C37.723 125.958 34.7852 125.638 31.9914 125.169Z" fill="#97C3E8"/>
<path fill-rule="evenodd" clip-rule="evenodd" d="M7.74801 113.57C6.30664 111.571 5.51953 109.403 5.51953 107.15C5.51953 96.6245 22.6098 88.0732 43.6611 88.0732C64.7123 88.0732 81.8031 96.6245 81.8031 107.15C81.8031 109.403 81.0155 111.571 79.5741 113.57C74.2931 106.205 60.2065 100.936 43.6611 100.936C27.1277 100.936 13.029 106.205 7.74801 113.57Z" fill="#97C3E8"/>
<path fill-rule="evenodd" clip-rule="evenodd" d="M5.79068 109.436C5.61336 108.685 5.51953 107.918 5.51953 107.146C5.51953 96.6213 22.6105 88.0732 43.6599 88.0732C64.7094 88.0732 81.8003 96.6213 81.8003 107.146C81.8003 107.918 81.7064 108.685 81.5291 109.436C79.2656 99.9853 63.1604 92.6523 43.6599 92.6523C24.1595 92.6523 8.05417 99.9853 5.79068 109.436Z" fill="#A93C41"/>
<path fill-rule="evenodd" clip-rule="evenodd" d="M87.7538 120.231C87.7538 132.331 68.0954 142.166 43.8708 142.166H43.5926C38.142 142.154 32.9333 141.633 28.1247 140.676L27.9676 140.652C21.1847 139.344 15.2253 137.212 10.5742 134.487C3.97294 130.659 0 125.681 0 120.231V107.162C0 119.262 19.6582 129.097 43.8708 129.097C68.0954 129.097 87.7538 119.262 87.7538 107.162V120.231Z" fill="#F1595F"/>
<path d="M90.4933 140.164C90.3794 140.164 90.3472 140.164 90.2332 140.148C89.9238 140.115 89.6144 140.05 89.3376 139.936C89.2236 139.887 89.191 139.871 89.0933 139.822L75.4475 132.999C74.2588 132.38 73.526 131.045 73.6563 129.743C73.8191 128.163 75.2523 126.828 76.8481 126.795C77.3855 126.779 77.9063 126.909 78.3785 127.137L92.0244 133.96C93.0991 134.514 93.8152 135.637 93.8315 136.826C93.8641 138.536 92.3824 140.099 90.6237 140.164C90.5749 140.164 90.5422 140.164 90.4933 140.164Z" fill="#A93C41"/>
<path d="M128.695 163.507C128.456 163.507 128.396 163.507 128.157 163.477C127.441 163.417 126.724 163.239 126.068 162.97C125.829 162.88 125.769 162.85 125.56 162.731L87.3195 143.595C85.4686 142.64 84.0354 140.939 83.4981 138.909C82.7518 136.073 83.9158 132.788 86.3936 131.057C88.543 129.564 91.4686 129.385 93.8568 130.519L132.099 149.656C134.845 151.059 136.546 154.193 136.068 157.268C135.591 160.552 132.636 163.298 129.232 163.507C129.053 163.507 128.874 163.507 128.695 163.507Z" fill="#F1595F"/>
<path d="M124.947 162.357L91.9297 145.848C90.0765 144.891 88.6465 143.183 88.1257 141.172C87.3747 138.302 88.5382 135.031 91.0213 133.299C93.1651 131.81 96.0842 131.616 98.4703 132.766L131.549 149.3L131.488 149.276C129.102 148.125 126.183 148.319 124.039 149.809C121.556 151.541 120.381 154.811 121.144 157.682C121.665 159.68 123.094 161.388 124.947 162.357Z" fill="#A93C41"/>
<path fill-rule="evenodd" clip-rule="evenodd" d="M71.0041 113.968C68.9461 115.902 66.2874 117.638 63.0561 119.083C48.7627 125.476 28.6461 123.69 18.1494 115.086C17.4509 114.514 16.8148 113.925 16.2316 113.324C32.0476 120.282 53.9499 120.827 71.0041 113.968Z" fill="#F4F8FD"/>
<path fill-rule="evenodd" clip-rule="evenodd" d="M43.2215 27.3605V20.5091C43.2534 18.0739 44.6975 15.0271 46.7974 13.155C47.4247 12.5956 48.0864 12.1608 48.7602 11.8334C50.9195 10.8577 52.9462 11.4036 53.6794 13.2956C53.8854 13.8258 53.9836 14.4476 53.9922 15.1238V21.9657C58.9786 20.6916 63.6134 21.2848 66.7369 24.1174C69.1263 26.2775 70.5282 29.8198 70.536 34.059L70.4946 34.8168C70.3835 35.5245 70.3826 35.695 70.1611 36.42C69.3383 39.1279 67.1118 41.8287 64.8223 42.8222C63.0189 43.6011 61.3094 43.2746 60.4365 41.9722C60.1091 41.4838 59.8954 40.8724 59.8092 40.1879C59.7265 39.5204 59.7696 38.7901 59.6412 38.155C59.1776 35.8825 57.4181 34.6737 55.432 34.3721C53.4614 34.0722 51.1574 34.5722 48.8533 35.6769C48.7103 35.7484 48.5664 35.8204 48.4233 35.8919C45.2076 37.5376 42.0333 40.3438 39.8119 43.817C38.5039 45.8602 37.5475 48.2096 37.4562 50.2682C37.3364 52.9836 38.7435 54.8221 40.8115 55.4703C42.9544 56.1471 45.6488 55.6693 48.3354 54.3827C48.488 54.3064 48.6138 54.2435 48.6155 54.2427C48.6344 54.2332 48.6542 54.2233 48.6732 54.2138C54.8435 51.1475 61.0362 50.5649 65.3678 53.3133C68.2242 55.1265 70.1319 58.4347 70.4765 62.7796C70.8014 66.8697 69.7295 71.7433 67.5624 76.399C64.5018 82.9662 59.4542 88.9015 53.9922 92.965V99.7976C53.9612 102.166 52.6084 105.12 50.5611 107.013C48.6051 108.832 46.2158 109.46 44.7449 108.542C43.8514 107.977 43.3034 106.881 43.2301 105.519C43.2224 105.371 43.2232 105.333 43.2215 105.183V98.36C41.3664 98.8434 39.5638 99.0642 37.8189 98.9916C37.7827 98.9908 37.7466 98.9805 37.7112 98.9792C33.3254 98.7529 29.7176 96.6255 27.9211 92.6286C27.1077 90.8145 26.682 88.6364 26.6777 86.2477L26.7191 85.4899C26.8302 84.7822 26.8311 84.6117 27.0526 83.8867C27.8754 81.1789 30.102 78.478 32.3914 77.4845C34.1931 76.7065 35.9043 77.0321 36.7772 78.3345C37.1046 78.8229 37.3183 79.4342 37.4045 80.1283C37.4872 80.7862 37.4441 81.5166 37.5725 82.1517C38.1541 84.9984 40.827 86.0906 43.1905 86.0146C44.9181 85.954 46.7982 85.4014 48.6801 84.451C51.4098 83.0673 54.2102 80.7976 56.4057 77.9137C58.2117 75.5365 59.6438 72.6091 59.7575 70.0385C59.8497 67.9606 59.0294 66.3485 57.7611 65.4895C55.5363 63.9653 52.125 64.3668 48.8783 65.924C48.8171 65.9546 48.7602 65.9831 48.7137 66.0063C48.3191 66.2131 47.9244 66.3915 47.5289 66.5704C41.7196 69.2104 35.9681 69.5819 31.8864 67.0205C29.0068 65.2094 27.0836 61.8901 26.7372 57.5271C26.4037 53.3279 27.5515 48.2936 29.8245 43.5471C32.8903 37.1379 37.8784 31.3645 43.2215 27.3605Z" fill="#709447"/>
<path fill-rule="evenodd" clip-rule="evenodd" d="M34.9415 98.5745C35.6885 98.7395 36.4685 98.8426 37.2733 98.9045C37.3084 98.9045 37.3455 98.9045 37.3806 98.9045C39.1263 98.9664 40.9278 98.7602 42.7828 98.2649V105.095C42.7849 105.239 42.7849 105.281 42.7932 105.425C42.8654 106.787 43.4142 107.881 44.3057 108.459C44.3758 108.5 44.4481 108.541 44.5224 108.562L36.6811 104.641C36.6068 104.621 36.5345 104.579 36.4644 104.538C35.5729 103.96 35.0241 102.867 34.9519 101.505C34.9436 101.36 34.9436 101.319 34.9415 101.174V98.5745ZM32.259 97.6046L24.5559 93.7666C24.5147 93.7459 24.4713 93.7253 24.43 93.7047L24.4177 93.6839C22.348 92.6315 20.6869 90.9396 19.6407 88.6078C18.8276 86.8126 18.4026 84.6252 18.3984 82.2315L18.4397 81.4887C18.5512 80.7871 18.5511 80.6015 18.7719 79.8792C19.5953 77.1761 21.8218 74.4729 24.1123 73.4824C25.4164 72.9046 26.671 72.9252 27.5975 73.4824L35.1004 77.2172C34.2173 76.8458 33.105 76.9078 31.9536 77.403C29.6631 78.3935 27.4366 81.0967 26.6132 83.7999C26.3924 84.5221 26.3925 84.7078 26.281 85.4094L26.2397 86.1522C26.2439 88.5458 26.6689 90.7332 27.482 92.5285C28.5282 94.8602 30.1893 96.5522 32.259 97.6046ZM51.4165 64.7536C53.6554 64.2171 55.7767 64.3411 57.3222 65.3934C58.5913 66.2601 59.4105 67.8696 59.3197 69.9537C59.2062 72.5124 57.7741 75.4427 55.9686 77.8157C53.773 80.7046 50.9729 82.9743 48.2408 84.3569C46.3609 85.3061 44.479 85.8633 42.7519 85.9253C40.3891 86.0078 37.7149 84.9141 37.135 82.0665C37.1103 81.9427 37.0917 81.8189 37.0793 81.6951C38.1647 81.4268 39.2811 81.014 40.3995 80.4362C43.1316 79.0537 45.9317 76.784 48.1273 73.8951C49.9328 71.5221 51.3649 68.5918 51.4784 66.033C51.497 65.5791 51.4763 65.1663 51.4165 64.7536ZM35.4388 77.403L35.4368 77.3823L35.4388 77.403ZM32.8966 67.6838H32.8986H32.8966ZM31.7947 67.1474L25.0574 63.7632C24.6777 63.5981 24.3083 63.4331 23.9513 63.2268C23.8358 63.1442 23.7202 63.0822 23.6067 62.9997C20.7261 61.2044 18.805 57.8823 18.4583 53.5283C18.124 49.3188 19.2713 44.2839 21.5453 39.5378C24.6116 33.1204 29.5991 27.3631 34.9415 23.3599V16.5091C34.9725 14.0741 36.4169 11.0201 38.5176 9.14233C39.1449 8.58518 39.8072 8.15197 40.482 7.82181C41.815 7.2234 43.0985 7.20276 44.0581 7.71864L51.8189 11.598C50.8697 11.1234 49.6192 11.1647 48.3233 11.7425C47.6485 12.0726 46.9861 12.5058 46.3588 13.063C44.2582 14.9408 42.8138 17.9948 42.7828 20.4297V27.2806C37.4404 31.2838 32.4529 37.041 29.3866 43.4585C27.1126 48.2045 25.9653 53.2394 26.2996 57.449C26.6463 61.8029 28.5674 65.1251 31.448 66.9203C31.5615 67.0028 31.6791 67.0649 31.7947 67.1474ZM37.0793 51.4648C38.0533 51.2172 39.0562 50.8458 40.057 50.3712C40.2097 50.2887 40.3334 50.2267 40.3355 50.2267C40.3561 50.2267 40.3747 50.206 40.3933 50.206C45.8781 47.4821 51.3814 46.7188 55.5786 48.5141C55.9727 48.6791 56.3565 48.8648 56.7259 49.0918L63.4199 52.4347C59.2227 50.6395 53.7194 51.4028 48.2346 54.1266C48.216 54.1266 48.1974 54.1474 48.1768 54.1474C48.1747 54.1474 48.051 54.2093 47.8983 54.2919C45.2116 55.5712 42.5166 56.0664 40.3726 55.3855C38.6475 54.849 37.3826 53.4664 37.0793 51.4648ZM51.4165 34.5028C52.6752 34.1933 53.8865 34.1108 54.9946 34.2759C56.9797 34.5854 58.7398 35.8028 59.2021 38.0726C59.3321 38.6917 59.2887 39.4345 59.3713 40.0948C59.4559 40.7964 59.6705 41.3949 59.9986 41.8901C60.2607 42.2822 60.5991 42.5711 60.9953 42.7981L53.2964 38.9393C52.8403 38.733 52.4503 38.4028 52.1573 37.9695C51.8292 37.4742 51.6146 36.8758 51.53 36.1742C51.4619 35.6377 51.4784 35.0393 51.4165 34.5028ZM53.5543 17.644C54.2724 17.7884 54.9595 18.0155 55.6137 18.2838H55.6157C56.0078 18.4489 56.3854 18.6552 56.7506 18.8615L63.457 22.2044C60.6424 21.0076 57.1922 20.9456 53.5543 21.8742V17.644Z" fill="#9ECB63"/>
<path fill-rule="evenodd" clip-rule="evenodd" d="M13.4418 91.2935C5.83657 95.2284 1.15857 100.603 1.15857 106.498C1.15857 118.619 20.8194 128.449 45.0363 128.449C56.8506 128.449 67.5791 126.104 75.4723 122.307C67.4887 126.447 56.2803 129.025 43.8778 129.025C19.6609 129.025 0 119.194 0 107.088C0 100.877 5.15653 95.2832 13.4418 91.2935Z" fill="#FBCED0"/>
<path fill-rule="evenodd" clip-rule="evenodd" d="M33.4974 98.0855C31.0542 97.0847 29.0991 95.2612 27.9213 92.6424C27.1083 90.8327 26.6818 88.6527 26.6777 86.2671L26.7189 85.4992C26.8313 84.8 26.8313 84.6355 27.052 83.9088C27.876 81.1941 30.1027 78.4931 32.391 77.506C33.9389 76.8342 35.4196 76.9851 36.3588 77.8625C35.5951 77.7117 34.7148 77.8214 33.8099 78.2053C31.5217 79.2062 29.2937 81.907 28.4711 84.608C28.2503 85.3347 28.249 85.5129 28.138 86.2122L28.0968 86.98C28.1009 89.3657 28.526 91.5456 29.3404 93.3554C30.2795 95.4394 31.715 97.0161 33.4974 98.0855ZM57.8555 65.5642C58.3312 65.715 58.7754 65.9344 59.1813 66.2086C60.4495 67.0724 61.2694 68.6764 61.1775 70.7604C61.0637 73.338 59.631 76.272 57.8253 78.6439C55.6289 81.5231 52.8292 83.7855 50.0994 85.1702C48.217 86.13 46.3372 86.6783 44.6097 86.7331C43.3017 86.788 41.8991 86.4727 40.8078 85.6912C41.577 85.9517 42.4009 86.0614 43.1907 86.034C44.9182 85.9791 46.7979 85.4169 48.6804 84.4709C51.4101 83.0861 54.2112 80.8103 56.4062 77.9311C58.2119 75.5592 59.6447 72.6251 59.7585 70.0475C59.8476 68.0184 59.0702 66.4417 57.8555 65.5642ZM33.5001 67.8675C32.938 67.6344 32.3992 67.3603 31.8864 67.0312C29.0072 65.2214 27.0849 61.9035 26.7381 57.5435C26.4035 53.3481 27.5511 48.3164 29.8243 43.5588C32.8914 37.156 37.8793 31.3839 43.2223 27.3804V20.5251C43.2538 18.0984 44.6975 15.0409 46.7979 13.1762C47.4245 12.6141 48.0867 12.1755 48.7613 11.8464C50.3819 11.1198 51.927 11.2431 52.9073 12.1479C52.0957 11.9834 51.151 12.1205 50.1803 12.5593C49.5058 12.8883 48.8436 13.3271 48.2156 13.8892C46.1165 15.7538 44.6728 18.7976 44.6412 21.2381V28.0934C39.2969 32.0831 34.309 37.869 31.2434 44.2718C28.9702 49.0156 27.8226 54.0611 28.1558 58.2565C28.5026 62.6164 30.4262 65.9343 33.3054 67.7441C33.3699 67.7852 33.4343 67.8264 33.5001 67.8675ZM40.816 55.487C42.959 56.1725 45.6504 55.6789 48.3363 54.3901C48.4884 54.3216 48.6146 54.253 48.616 54.253C48.6351 54.253 48.6543 54.2393 48.6735 54.2256C54.7336 51.223 60.8169 50.606 65.1357 53.1836C60.9567 51.4698 55.5151 52.2513 50.0926 54.9385C50.0734 54.9522 50.0542 54.9523 50.035 54.966C50.0323 54.966 49.9075 55.0345 49.7553 55.1031C47.068 56.3919 44.3739 56.8717 42.2309 56.1999C41.7127 56.0354 41.2369 55.8023 40.816 55.487Z" fill="#BEDC8C"/>
</svg>
