<svg width="171" height="137" viewBox="0 0 171 137" fill="none" xmlns="http://www.w3.org/2000/svg">
<path fill-rule="evenodd" clip-rule="evenodd" d="M64.3945 64.1519L124.829 94.3696V102.639L64.3945 72.4212V64.1519Z" fill="#92D5D8"/>
<path fill-rule="evenodd" clip-rule="evenodd" d="M155.047 79.3306L124.829 94.3694V102.639L155.047 87.6V79.3306Z" fill="#66C8CB"/>
<path fill-rule="evenodd" clip-rule="evenodd" d="M155.187 79.4207L94.7513 49.2031L64.5344 64.2418L124.969 94.4595L155.187 79.4207Z" fill="#4F9FA2"/>
<path fill-rule="evenodd" clip-rule="evenodd" d="M144.344 81.2865C142.449 80.3342 142.853 78.6237 145.188 77.4505L97.8664 53.6689C95.5319 54.8421 92.1019 55.032 90.2333 54.0929L73.813 62.345C75.6816 63.2841 75.3168 65.0013 72.9822 66.1745L120.304 89.9561C122.638 88.7829 126.029 88.5863 127.924 89.5386L144.344 81.2865Z" fill="#C5E7E8"/>
<path fill-rule="evenodd" clip-rule="evenodd" d="M113.832 59.0923L83.7611 74.2045L103.906 84.3284L134.028 69.1904L113.832 59.0923Z" fill="#FBCED0"/>
<path fill-rule="evenodd" clip-rule="evenodd" d="M84.4459 82.4255V74.1562L104.591 84.2802V92.4981L84.4459 82.4255Z" fill="#F1595F"/>
<path d="M109.237 76.8057C103.674 76.8057 99.1646 74.5394 99.1646 71.7437C99.1646 68.948 103.674 66.6816 109.237 66.6816C114.8 66.6816 119.31 68.948 119.31 71.7437C119.31 74.5394 114.8 76.8057 109.237 76.8057Z" fill="#F7A6A3"/>
<path fill-rule="evenodd" clip-rule="evenodd" d="M64.3945 54.4927L124.829 84.7104V92.9798L64.3945 62.7621V54.4927Z" fill="#92D5D8"/>
<path fill-rule="evenodd" clip-rule="evenodd" d="M155.047 69.6714L124.829 84.7102V92.9796L155.047 77.9408V69.6714Z" fill="#66C8CB"/>
<path fill-rule="evenodd" clip-rule="evenodd" d="M155.187 69.6468L94.7513 39.4292L64.5344 54.4678L124.969 84.6856L155.187 69.6468Z" fill="#4F9FA2"/>
<path fill-rule="evenodd" clip-rule="evenodd" d="M144.344 71.5126C142.449 70.5603 142.853 68.8498 145.188 67.6765L97.8664 43.895C95.5319 45.0682 92.1019 45.2581 90.2333 44.319L73.813 52.5711C75.6816 53.5102 75.3168 55.2274 72.9822 56.4006L120.304 80.1822C122.638 79.0089 126.029 78.8124 127.924 79.7647L144.344 71.5126Z" fill="#C5E7E8"/>
<path fill-rule="evenodd" clip-rule="evenodd" d="M113.832 49.3184L83.7611 64.4306L103.906 74.5545L134.028 59.4165L113.832 49.3184Z" fill="#FBCED0"/>
<path fill-rule="evenodd" clip-rule="evenodd" d="M84.4459 72.7663V64.4971L104.591 74.621V82.8389L84.4459 72.7663Z" fill="#F1595F"/>
<path d="M109.237 67.1466C103.674 67.1466 99.1646 64.8802 99.1646 62.0845C99.1646 59.2888 103.674 57.0225 109.237 57.0225C114.8 57.0225 119.31 59.2888 119.31 62.0845C119.31 64.8802 114.8 67.1466 109.237 67.1466Z" fill="#F7A6A3"/>
<path fill-rule="evenodd" clip-rule="evenodd" d="M64.3945 44.7188L124.829 74.9365V83.2059L64.3945 52.9881V44.7188Z" fill="#92D5D8"/>
<path fill-rule="evenodd" clip-rule="evenodd" d="M155.047 59.8975L124.829 74.9363V83.2057L155.047 68.1668V59.8975Z" fill="#66C8CB"/>
<path fill-rule="evenodd" clip-rule="evenodd" d="M155.187 59.8723L94.7513 29.6548L64.5344 44.6934L124.969 74.9112L155.187 59.8723Z" fill="#4F9FA2"/>
<path fill-rule="evenodd" clip-rule="evenodd" d="M144.344 61.8534C142.449 60.9011 142.853 59.1906 145.188 58.0174L97.8664 34.2358C95.5319 35.409 92.1019 35.5989 90.2333 34.6598L73.813 42.9119C75.6816 43.851 75.3168 45.5682 72.9822 46.7414L120.304 70.523C122.638 69.3498 126.029 69.1532 127.924 70.1055L144.344 61.8534Z" fill="#C5E7E8"/>
<path fill-rule="evenodd" clip-rule="evenodd" d="M113.832 39.6592L83.7611 54.7714L103.906 64.8953L134.028 49.7573L113.832 39.6592Z" fill="#FBCED0"/>
<path fill-rule="evenodd" clip-rule="evenodd" d="M84.4459 62.9919V54.7227L104.591 64.8466V73.0645L84.4459 62.9919Z" fill="#F1595F"/>
<path d="M109.237 57.3726C103.674 57.3726 99.1646 55.1063 99.1646 52.3106C99.1646 49.5149 103.674 47.2485 109.237 47.2485C114.8 47.2485 119.31 49.5149 119.31 52.3106C119.31 55.1063 114.8 57.3726 109.237 57.3726Z" fill="#F7A6A3"/>
<path fill-rule="evenodd" clip-rule="evenodd" d="M64.3945 34.9443L124.829 65.1621V73.4315L64.3945 43.2137V34.9443Z" fill="#92D5D8"/>
<path fill-rule="evenodd" clip-rule="evenodd" d="M155.047 50.123L124.829 65.1619V73.4312L155.047 58.3924V50.123Z" fill="#66C8CB"/>
<path fill-rule="evenodd" clip-rule="evenodd" d="M155.187 50.0984L94.7513 19.8809L64.5344 34.9195L124.969 65.1372L155.187 50.0984Z" fill="#4F9FA2"/>
<path fill-rule="evenodd" clip-rule="evenodd" d="M144.344 52.079C142.449 51.1267 142.853 49.4162 145.188 48.243L97.8664 24.4614C95.5319 25.6346 92.1019 25.8245 90.2333 24.8854L73.813 33.1375C75.6816 34.0766 75.3168 35.7938 72.9822 36.967L120.304 60.7486C122.638 59.5753 126.029 59.3788 127.924 60.3311L144.344 52.079Z" fill="#C5E7E8"/>
<path fill-rule="evenodd" clip-rule="evenodd" d="M113.832 29.8848L83.7611 44.997L103.906 55.1209L134.028 39.9829L113.832 29.8848Z" fill="#A93C41"/>
<path fill-rule="evenodd" clip-rule="evenodd" d="M84.4459 53.2179V44.9487L104.591 55.0727V63.2906L84.4459 53.2179Z" fill="#F1595F"/>
<path d="M109.237 47.5982C103.674 47.5982 99.1646 45.3319 99.1646 42.5362C99.1646 39.7405 103.674 37.4741 109.237 37.4741C114.8 37.4741 119.31 39.7405 119.31 42.5362C119.31 45.3319 114.8 47.5982 109.237 47.5982Z" fill="#F7A6A3"/>
<path fill-rule="evenodd" clip-rule="evenodd" d="M124.55 102.665V69.538L64.1143 39.314V72.4413L124.55 102.665Z" fill="#4F9FA2"/>
<path fill-rule="evenodd" clip-rule="evenodd" d="M64.3945 25.1704L124.829 55.3882V63.6575L64.3945 33.4398V25.1704Z" fill="#92D5D8"/>
<path fill-rule="evenodd" clip-rule="evenodd" d="M155.047 40.3491L124.829 55.3879V63.6573L155.047 48.6185V40.3491Z" fill="#66C8CB"/>
<path fill-rule="evenodd" clip-rule="evenodd" d="M155.187 40.4392L94.7513 10.2217L64.5344 25.2603L124.969 55.4781L155.187 40.4392Z" fill="#4F9FA2"/>
<path fill-rule="evenodd" clip-rule="evenodd" d="M144.344 42.3051C142.449 41.3528 142.853 39.6423 145.188 38.469L97.8664 14.6875C95.5319 15.8607 92.1019 16.0506 90.2333 15.1115L73.813 23.3636C75.6816 24.3026 75.3168 26.0199 72.9822 27.1931L120.304 50.9746C122.638 49.8014 126.029 49.6049 127.924 50.5572L144.344 42.3051Z" fill="#C5E7E8"/>
<path fill-rule="evenodd" clip-rule="evenodd" d="M113.832 20.1108L83.7611 35.2231L103.906 45.347L134.028 30.2089L113.832 20.1108Z" fill="#A93C41"/>
<path fill-rule="evenodd" clip-rule="evenodd" d="M84.4459 43.5588V35.2896L104.591 45.4135V53.6314L84.4459 43.5588Z" fill="#F1595F"/>
<path d="M109.237 37.939C103.674 37.939 99.1646 35.6727 99.1646 32.877C99.1646 30.0813 103.674 27.8149 109.237 27.8149C114.8 27.8149 119.31 30.0813 119.31 32.877C119.31 35.6727 114.8 37.939 109.237 37.939Z" fill="#F7A6A3"/>
<path fill-rule="evenodd" clip-rule="evenodd" d="M64.3945 15.5112L124.829 45.729V53.9984L64.3945 23.7806V15.5112Z" fill="#92D5D8"/>
<path fill-rule="evenodd" clip-rule="evenodd" d="M155.047 30.6899L124.829 45.7288V53.9981L155.047 38.9593V30.6899Z" fill="#66C8CB"/>
<path fill-rule="evenodd" clip-rule="evenodd" d="M155.187 30.6648L94.7513 0.447266L64.5344 15.4859L124.969 45.7036L155.187 30.6648Z" fill="#EAF6FA"/>
<path fill-rule="evenodd" clip-rule="evenodd" d="M144.344 32.5307C142.449 31.5784 142.853 29.8679 145.188 28.6946L97.8664 4.91306C95.5319 6.08629 92.1019 6.27616 90.2333 5.33707L73.813 13.5891C75.6816 14.5282 75.3168 16.2455 72.9822 17.4187L120.304 41.2003C122.638 40.027 126.029 39.8305 127.924 40.7828L144.344 32.5307Z" fill="#C5E7E8"/>
<path fill-rule="evenodd" clip-rule="evenodd" d="M113.832 10.4517L83.7611 25.5639L103.906 35.6878L134.028 20.5498L113.832 10.4517Z" fill="#FBCED0"/>
<path fill-rule="evenodd" clip-rule="evenodd" d="M84.4459 33.7843V25.5151L104.591 35.6391V43.857L84.4459 33.7843Z" fill="#F1595F"/>
<path d="M109.237 28.1651C103.674 28.1651 99.1646 25.8988 99.1646 23.1031C99.1646 20.3074 103.674 18.041 109.237 18.041C114.8 18.041 119.31 20.3074 119.31 23.1031C119.31 25.8988 114.8 28.1651 109.237 28.1651Z" fill="#F7A6A3"/>
<path fill-rule="evenodd" clip-rule="evenodd" d="M32.1973 80.251L92.6318 110.469V118.738L32.1973 88.5204V80.251Z" fill="#92D5D8"/>
<path fill-rule="evenodd" clip-rule="evenodd" d="M122.849 95.4297L92.6318 110.468V118.738L122.849 103.699V95.4297Z" fill="#66C8CB"/>
<path fill-rule="evenodd" clip-rule="evenodd" d="M122.989 95.4047L62.554 65.187L32.3371 80.2258L92.7716 110.443L122.989 95.4047Z" fill="#4F9FA2"/>
<path fill-rule="evenodd" clip-rule="evenodd" d="M112.16 97.2646C110.292 96.3256 110.657 94.6081 112.992 93.4349L65.6702 69.6533C63.3356 70.8265 59.9171 71.0096 58.0485 70.0705L41.6287 78.3224C43.4973 79.2614 43.1203 80.9858 40.7858 82.1591L88.1072 105.941C90.4417 104.767 93.872 104.577 95.7406 105.516L112.16 97.2646Z" fill="#C5E7E8"/>
<path fill-rule="evenodd" clip-rule="evenodd" d="M81.6394 75.1914L51.5687 90.3036L71.7137 100.428L101.836 85.2897L81.6394 75.1914Z" fill="#FBCED0"/>
<path fill-rule="evenodd" clip-rule="evenodd" d="M52.2486 98.5243V90.2549L72.3936 100.379V108.597L52.2486 98.5243Z" fill="#F1595F"/>
<path d="M77.0398 92.9049C71.4769 92.9049 66.9673 90.6385 66.9673 87.8428C66.9673 85.0471 71.4769 82.7808 77.0398 82.7808C82.6027 82.7808 87.1123 85.0471 87.1123 87.8428C87.1123 90.6385 82.6027 92.9049 77.0398 92.9049Z" fill="#F7A6A3"/>
<path fill-rule="evenodd" clip-rule="evenodd" d="M32.1973 70.4766L92.6318 100.694V108.964L32.1973 78.746V70.4766Z" fill="#92D5D8"/>
<path fill-rule="evenodd" clip-rule="evenodd" d="M122.849 85.6553L92.6318 100.694V108.963L122.849 93.9245V85.6553Z" fill="#66C8CB"/>
<path fill-rule="evenodd" clip-rule="evenodd" d="M122.989 85.6303L62.554 55.4126L32.3371 70.4514L92.7716 100.669L122.989 85.6303Z" fill="#4F9FA2"/>
<path fill-rule="evenodd" clip-rule="evenodd" d="M112.16 87.4902C110.292 86.5511 110.657 84.8337 112.992 83.6604L65.6702 59.8789C63.3356 61.0521 59.9171 61.2352 58.0485 60.2961L41.6287 68.5479C43.4973 69.487 43.1203 71.2114 40.7858 72.3846L88.1072 96.1662C90.4417 94.993 93.872 94.803 95.7406 95.742L112.16 87.4902Z" fill="#C5E7E8"/>
<path fill-rule="evenodd" clip-rule="evenodd" d="M81.6394 65.417L51.5687 80.5292L71.7137 90.6533L101.836 75.5153L81.6394 65.417Z" fill="#A93C41"/>
<path fill-rule="evenodd" clip-rule="evenodd" d="M52.2486 88.7498V80.4805L72.3936 90.6046V98.8223L52.2486 88.7498Z" fill="#F1595F"/>
<path d="M77.0398 83.1304C71.4769 83.1304 66.9673 80.8641 66.9673 78.0684C66.9673 75.2727 71.4769 73.0063 77.0398 73.0063C82.6027 73.0063 87.1123 75.2727 87.1123 78.0684C87.1123 80.8641 82.6027 83.1304 77.0398 83.1304Z" fill="#F7A6A3"/>
<path fill-rule="evenodd" clip-rule="evenodd" d="M92.3515 118.703V104.839L31.917 74.6157V88.4792L92.3515 118.703Z" fill="#4F9FA2"/>
<path fill-rule="evenodd" clip-rule="evenodd" d="M32.1973 60.7026L92.6318 90.9202V99.1896L32.1973 68.972V60.7026Z" fill="#92D5D8"/>
<path fill-rule="evenodd" clip-rule="evenodd" d="M122.849 75.8813L92.6318 90.92V99.1894L122.849 84.1506V75.8813Z" fill="#66C8CB"/>
<path fill-rule="evenodd" clip-rule="evenodd" d="M122.989 75.8564L62.554 45.6387L32.3371 60.6775L92.7716 90.8951L122.989 75.8564Z" fill="#4F9FA2"/>
<path fill-rule="evenodd" clip-rule="evenodd" d="M112.16 77.7163C110.292 76.7772 110.657 75.0597 112.992 73.8865L65.6702 50.105C63.3356 51.2782 59.9171 51.4613 58.0485 50.5222L41.6287 58.774C43.4973 59.7131 43.1203 61.4375 40.7858 62.6107L88.1072 86.3923C90.4417 85.219 93.872 85.029 95.7406 85.9681L112.16 77.7163Z" fill="#C5E7E8"/>
<path fill-rule="evenodd" clip-rule="evenodd" d="M81.6394 55.6431L51.5687 70.7553L71.7137 80.8794L101.836 65.7413L81.6394 55.6431Z" fill="#A93C41"/>
<path fill-rule="evenodd" clip-rule="evenodd" d="M52.2486 78.9759V70.7065L72.3936 80.8306V89.0484L52.2486 78.9759Z" fill="#F1595F"/>
<path d="M77.0398 73.3565C71.4769 73.3565 66.9673 71.0902 66.9673 68.2945C66.9673 65.4988 71.4769 63.2324 77.0398 63.2324C82.6027 63.2324 87.1123 65.4988 87.1123 68.2945C87.1123 71.0902 82.6027 73.3565 77.0398 73.3565Z" fill="#F7A6A3"/>
<path fill-rule="evenodd" clip-rule="evenodd" d="M1.63761e-05 96.2344L60.4346 126.452V134.721L1.63761e-05 104.504V96.2344Z" fill="#92D5D8"/>
<path fill-rule="evenodd" clip-rule="evenodd" d="M90.6522 111.413L60.4346 126.452V134.721L90.6522 119.682V111.413Z" fill="#66C8CB"/>
<path fill-rule="evenodd" clip-rule="evenodd" d="M90.792 111.388L30.3567 81.1704L0.139783 96.2092L60.5743 126.427L90.792 111.388Z" fill="#4F9FA2"/>
<path fill-rule="evenodd" clip-rule="evenodd" d="M79.9631 113.248C78.0945 112.309 78.4598 110.591 80.7944 109.418L33.4729 85.6367C31.1384 86.8099 27.7198 86.993 25.8512 86.0539L9.43142 94.3058C11.3001 95.2448 10.923 96.9692 8.58848 98.1425L55.9099 121.924C58.2445 120.751 61.6747 120.561 63.5433 121.5L79.9631 113.248Z" fill="#C5E7E8"/>
<path fill-rule="evenodd" clip-rule="evenodd" d="M49.4421 91.1748L19.3714 106.287L39.5164 116.411L69.6387 101.273L49.4421 91.1748Z" fill="#A93C41"/>
<path fill-rule="evenodd" clip-rule="evenodd" d="M20.0513 114.508V106.238L40.1963 116.362V124.58L20.0513 114.508Z" fill="#F1595F"/>
<path d="M44.8426 108.888C39.2797 108.888 34.7701 106.622 34.7701 103.826C34.7701 101.031 39.2797 98.7642 44.8426 98.7642C50.4054 98.7642 54.915 101.031 54.915 103.826C54.915 106.622 50.4054 108.888 44.8426 108.888Z" fill="#F7A6A3"/>
<path fill-rule="evenodd" clip-rule="evenodd" d="M32.1973 51.0435L92.6318 81.261V89.5304L32.1973 59.3128V51.0435Z" fill="#92D5D8"/>
<path fill-rule="evenodd" clip-rule="evenodd" d="M122.849 66.2222L92.6318 81.2608V89.5302L122.849 74.4914V66.2222Z" fill="#66C8CB"/>
<path fill-rule="evenodd" clip-rule="evenodd" d="M122.989 66.1972L62.554 35.9795L32.3371 51.0183L92.7716 81.2359L122.989 66.1972Z" fill="#EAF6FA"/>
<path fill-rule="evenodd" clip-rule="evenodd" d="M112.16 68.0571C110.292 67.118 110.657 65.4006 112.992 64.2273L65.6702 40.4458C63.3356 41.619 59.9171 41.8021 58.0485 40.863L41.6287 49.1148C43.4973 50.0539 43.1203 51.7783 40.7858 52.9515L88.1072 76.7331C90.4417 75.5598 93.872 75.3698 95.7406 76.3089L112.16 68.0571Z" fill="#C5E7E8"/>
<path fill-rule="evenodd" clip-rule="evenodd" d="M81.6394 45.9839L51.5687 61.0961L71.7137 71.2202L101.836 56.0822L81.6394 45.9839Z" fill="#FBCED0"/>
<path fill-rule="evenodd" clip-rule="evenodd" d="M52.2486 69.3167V61.0474L72.3936 71.1715V79.3892L52.2486 69.3167Z" fill="#F1595F"/>
<path d="M77.0398 63.6973C71.4769 63.6973 66.9673 61.431 66.9673 58.6353C66.9673 55.8396 71.4769 53.5732 77.0398 53.5732C82.6027 53.5732 87.1123 55.8396 87.1123 58.6353C87.1123 61.431 82.6027 63.6973 77.0398 63.6973Z" fill="#F7A6A3"/>
<path fill-rule="evenodd" clip-rule="evenodd" d="M1.63761e-05 86.5752L60.4346 116.793V125.062L1.63761e-05 94.8446V86.5752Z" fill="#92D5D8"/>
<path fill-rule="evenodd" clip-rule="evenodd" d="M90.6522 101.754L60.4346 116.793V125.062L90.6522 110.023V101.754Z" fill="#66C8CB"/>
<path fill-rule="evenodd" clip-rule="evenodd" d="M90.792 101.729L30.3567 71.5112L0.139783 86.5501L60.5743 116.768L90.792 101.729Z" fill="#EAF6FA"/>
<path fill-rule="evenodd" clip-rule="evenodd" d="M79.9631 103.589C78.0945 102.65 78.4598 100.932 80.7944 99.7591L33.4729 75.9775C31.1384 77.1508 27.7198 77.3338 25.8512 76.3948L9.43142 84.6466C11.3001 85.5857 10.923 87.31 8.58848 88.4833L55.9099 112.265C58.2445 111.092 61.6747 110.902 63.5433 111.841L79.9631 103.589Z" fill="#C5E7E8"/>
<path fill-rule="evenodd" clip-rule="evenodd" d="M49.4421 81.5156L19.3714 96.6279L39.5164 106.752L69.6387 91.6139L49.4421 81.5156Z" fill="#FBCED0"/>
<path fill-rule="evenodd" clip-rule="evenodd" d="M20.0513 104.848V96.5791L40.1963 106.703V114.921L20.0513 104.848Z" fill="#F1595F"/>
<path d="M44.8426 99.2291C39.2797 99.2291 34.7701 96.9627 34.7701 94.167C34.7701 91.3713 39.2797 89.105 44.8426 89.105C50.4054 89.105 54.915 91.3713 54.915 94.167C54.915 96.9627 50.4054 99.2291 44.8426 99.2291Z" fill="#F7A6A3"/>
<path fill-rule="evenodd" clip-rule="evenodd" d="M104.488 94.7393V112.809L80.9444 124.581C78.4564 121.396 76.9922 116.69 76.9922 110.819C76.9922 110.037 77.0206 109.241 77.0633 108.445L104.488 94.7393Z" fill="#4F9FA2"/>
<path d="M143.132 108.423C143.335 108.423 143.386 108.423 143.589 108.448C144.199 108.499 144.809 108.652 145.368 108.88C145.571 108.957 145.597 108.982 145.8 109.083L167.069 119.731C168.645 120.544 169.865 121.992 170.322 123.72C170.957 126.134 169.966 128.93 167.857 130.404C166.028 131.674 163.537 131.827 161.504 130.861L140.209 120.214C137.897 118.994 136.449 116.351 136.855 113.734C137.262 110.939 139.752 108.575 142.674 108.423C142.827 108.423 142.979 108.423 143.132 108.423Z" fill="#606972"/>
<path d="M147.006 109.458L163.832 117.871C165.409 118.686 166.626 120.139 167.07 121.851C167.709 124.294 166.718 127.078 164.605 128.553C162.78 129.821 160.295 129.986 158.264 129.006L141.387 120.572L141.438 120.593C143.469 121.573 145.954 121.408 147.779 120.139C149.893 118.665 150.882 115.881 150.243 113.438C149.8 111.726 148.583 110.273 147.006 109.458Z" fill="#F1595F"/>
<path d="M128.59 104.398C128.687 104.398 128.714 104.398 128.811 104.412C129.075 104.44 129.338 104.496 129.574 104.593C129.671 104.634 129.699 104.648 129.782 104.689L141.397 110.497C142.409 111.024 143.033 112.161 142.922 113.269C142.783 114.614 141.563 115.751 140.205 115.778C139.748 115.792 139.304 115.681 138.902 115.487L127.287 109.679C126.372 109.208 125.762 108.252 125.748 107.24C125.721 105.785 126.982 104.454 128.479 104.398C128.521 104.398 128.548 104.398 128.59 104.398Z" fill="#2D343A"/>
<path fill-rule="evenodd" clip-rule="evenodd" d="M98.2899 133.839L89.6498 129.519C83.6286 126.508 79.752 119.043 79.752 108.475C79.752 90.3088 91.217 69.8326 105.352 62.7598C111.26 59.811 116.704 59.6667 121.044 61.8318L129.685 66.1519C125.344 63.9867 119.9 64.1207 113.982 67.0798C99.8569 74.1423 88.3815 94.6288 88.3815 112.795C88.3815 123.363 92.2584 130.828 98.2899 133.839Z" fill="#ADB6C1"/>
<path fill-rule="evenodd" clip-rule="evenodd" d="M122.532 70.5913C130.161 70.9522 135.513 78.0148 135.513 89.3354C135.513 104.471 125.955 121.534 114.18 127.421C107.272 130.875 101.128 129.721 97.2305 125.112C99.7977 125.236 102.612 124.607 105.582 123.122C117.346 117.235 126.903 100.171 126.903 85.0359C126.903 78.7879 125.274 73.8287 122.532 70.5913Z" fill="#2D343A"/>
<path d="M110.274 125.885C122.051 119.997 131.597 102.904 131.597 87.7081C131.597 72.5117 122.051 64.9659 110.274 70.8541C98.4978 76.7423 88.9512 93.8347 88.9512 109.031C88.9512 124.227 98.4978 131.773 110.274 125.885Z" fill="#CEE4F6"/>
<path fill-rule="evenodd" clip-rule="evenodd" d="M121.166 69.2114C127.744 70.6136 132.198 77.4288 132.198 87.8009C132.198 102.988 122.651 120.092 110.877 125.98C104.784 129.021 99.2776 128.464 95.3906 125.103C98.4425 125.753 101.948 125.248 105.681 123.382C117.445 117.494 127.002 100.39 127.002 85.2026C127.002 77.8823 124.785 72.3354 121.166 69.2114Z" fill="#97C3E8"/>
<path fill-rule="evenodd" clip-rule="evenodd" d="M113.632 67.133C127.767 60.0705 139.232 69.0816 139.232 87.2483C139.232 105.415 127.767 125.901 113.632 132.964C99.5066 140.026 88.0312 131.015 88.0312 112.849C88.0312 94.6821 99.5066 74.1956 113.632 67.133ZM113.632 72.6285C125.406 66.7413 134.964 74.2472 134.964 89.3826C134.964 104.518 125.406 121.581 113.632 127.469C101.857 133.356 92.31 125.85 92.31 110.714C92.31 95.5789 101.857 78.5156 113.632 72.6285Z" fill="#606972"/>
<path fill-rule="evenodd" clip-rule="evenodd" d="M98.4117 134.114C92.1087 131.276 88.0312 123.689 88.0312 112.845C88.0312 94.6835 99.502 74.1913 113.631 67.1266C119.755 64.0648 125.386 64.0349 129.792 66.4545C125.535 64.5278 120.278 64.7669 114.587 67.6047C100.458 74.6694 88.9872 95.1613 88.9872 113.323C88.9872 123.614 92.6614 130.962 98.4117 134.114ZM127.178 72.1004C132.465 74.4453 135.916 80.7781 135.916 89.8591C135.916 104.989 126.357 122.061 114.587 127.946C109.434 130.515 104.715 130.529 101.025 128.468C104.565 130.037 108.912 129.827 113.631 127.467C125.401 121.583 134.96 104.511 134.96 89.381C134.96 80.8676 131.928 74.7589 127.178 72.1004Z" fill="#E4E9EF"/>
<path fill-rule="evenodd" clip-rule="evenodd" d="M97.1482 116.012C96.4035 113.864 96.0013 111.338 96.0013 108.488C96.0013 95.8793 103.928 81.6785 113.703 76.7908C114.353 76.4655 114.995 76.1915 115.629 75.9604C105.314 85.2992 97.7132 101.221 97.1482 116.012Z" fill="#F4F8FD"/>
<path fill-rule="evenodd" clip-rule="evenodd" d="M109.433 85.0526V82.2849C109.446 81.3012 110.029 80.0704 110.877 79.3142C111.131 79.0882 111.398 78.9126 111.67 78.7803C112.543 78.3862 113.361 78.6067 113.657 79.371C113.741 79.5852 113.78 79.8364 113.784 80.1095V82.8733C115.798 82.3587 117.67 82.5983 118.932 83.7425C119.897 84.6151 120.464 86.0461 120.467 87.7585L120.45 88.0646C120.405 88.3505 120.405 88.4194 120.315 88.7123C119.983 89.8061 119.084 90.8971 118.159 91.2985C117.43 91.6131 116.74 91.4812 116.387 90.9551C116.255 90.7578 116.168 90.5108 116.134 90.2343C116.1 89.9647 116.118 89.6697 116.066 89.4131C115.879 88.4951 115.168 88.0068 114.365 87.885C113.569 87.7638 112.639 87.9658 111.708 88.4121C111.65 88.441 111.592 88.47 111.534 88.4989C110.235 89.1637 108.953 90.2973 108.056 91.7003C107.527 92.5257 107.141 93.4747 107.104 94.3063C107.056 95.4032 107.624 96.1459 108.459 96.4077C109.325 96.6811 110.413 96.4881 111.499 95.9684C111.56 95.9376 111.611 95.9122 111.612 95.9118C111.62 95.908 111.628 95.904 111.635 95.9002C114.128 94.6615 116.629 94.4262 118.379 95.5364C119.533 96.2689 120.304 97.6052 120.443 99.3604C120.574 101.013 120.141 102.981 119.266 104.862C118.029 107.515 115.99 109.912 113.784 111.554V114.314C113.771 115.271 113.225 116.464 112.398 117.229C111.608 117.964 110.642 118.217 110.048 117.846C109.687 117.618 109.466 117.175 109.436 116.625C109.433 116.566 109.434 116.55 109.433 116.489V113.733C108.684 113.929 107.955 114.018 107.251 113.988C107.236 113.988 107.221 113.984 107.207 113.983C105.435 113.892 103.978 113.033 103.252 111.418C102.924 110.685 102.752 109.805 102.75 108.84L102.767 108.534C102.812 108.248 102.812 108.18 102.901 107.887C103.234 106.793 104.133 105.702 105.058 105.3C105.786 104.986 106.477 105.118 106.83 105.644C106.962 105.841 107.048 106.088 107.083 106.368C107.117 106.634 107.099 106.929 107.151 107.186C107.386 108.336 108.466 108.777 109.42 108.746C110.118 108.722 110.878 108.499 111.638 108.115C112.741 107.556 113.872 106.639 114.759 105.474C115.488 104.514 116.067 103.331 116.113 102.293C116.15 101.453 115.819 100.802 115.306 100.455C114.408 99.8394 113.03 100.002 111.718 100.631C111.693 100.643 111.67 100.654 111.652 100.664C111.492 100.747 111.333 100.819 111.173 100.892C108.826 101.958 106.503 102.108 104.854 101.073C103.691 100.342 102.914 99.001 102.774 97.2386C102.639 95.5423 103.103 93.5086 104.021 91.5912C105.26 89.0022 107.275 86.67 109.433 85.0526Z" fill="#5682A7"/>
<path fill-rule="evenodd" clip-rule="evenodd" d="M114.029 87.4671V84.6995C114.042 83.7157 114.625 82.485 115.473 81.7287C115.727 81.5028 115.994 81.3271 116.266 81.1948C117.138 80.8007 117.957 81.0212 118.253 81.7855C118.336 81.9997 118.376 82.2509 118.38 82.524V85.2879C120.394 84.7732 122.266 85.0128 123.528 86.157C124.493 87.0296 125.059 88.4606 125.062 90.173L125.046 90.4792C125.001 90.765 125.001 90.8339 124.911 91.1268C124.579 92.2206 123.679 93.3117 122.754 93.713C122.026 94.0276 121.335 93.8957 120.983 93.3696C120.85 93.1723 120.764 92.9254 120.729 92.6488C120.696 92.3792 120.713 92.0842 120.661 91.8276C120.474 90.9096 119.763 90.4214 118.961 90.2995C118.165 90.1784 117.234 90.3803 116.304 90.8266C116.246 90.8555 116.188 90.8846 116.13 90.9134C114.831 91.5782 113.549 92.7118 112.651 94.1148C112.123 94.9402 111.737 95.8893 111.7 96.7208C111.651 97.8177 112.22 98.5604 113.055 98.8222C113.921 99.0957 115.009 98.9026 116.094 98.3829C116.156 98.3521 116.207 98.3267 116.208 98.3263C116.215 98.3225 116.223 98.3185 116.231 98.3147C118.723 97.0761 121.225 96.8407 122.975 97.9509C124.129 98.6834 124.899 100.02 125.038 101.775C125.17 103.427 124.737 105.396 123.861 107.277C122.625 109.929 120.586 112.327 118.38 113.968V116.729C118.367 117.685 117.821 118.879 116.994 119.643C116.203 120.378 115.238 120.632 114.644 120.261C114.283 120.033 114.062 119.59 114.032 119.04C114.029 118.98 114.029 118.965 114.029 118.904V116.148C113.279 116.343 112.551 116.432 111.846 116.403C111.832 116.403 111.817 116.398 111.803 116.398C110.031 116.307 108.574 115.447 107.848 113.833C107.519 113.1 107.347 112.22 107.346 111.255L107.362 110.949C107.407 110.663 107.408 110.594 107.497 110.301C107.83 109.207 108.729 108.116 109.654 107.715C110.382 107.401 111.073 107.532 111.425 108.058C111.558 108.256 111.644 108.503 111.679 108.783C111.712 109.049 111.695 109.344 111.747 109.6C111.982 110.75 113.061 111.192 114.016 111.161C114.714 111.136 115.474 110.913 116.234 110.529C117.336 109.97 118.468 109.053 119.354 107.888C120.084 106.928 120.663 105.746 120.708 104.707C120.746 103.868 120.414 103.217 119.902 102.87C119.003 102.254 117.625 102.416 116.314 103.045C116.289 103.057 116.266 103.069 116.247 103.078C116.088 103.162 115.928 103.234 115.769 103.306C113.422 104.373 111.099 104.523 109.45 103.488C108.287 102.756 107.51 101.416 107.37 99.6531C107.235 97.9568 107.699 95.9232 108.617 94.0058C109.855 91.4168 111.87 89.0846 114.029 87.4671Z" fill="#F1595F"/>
<path fill-rule="evenodd" clip-rule="evenodd" d="M111.269 116.296C111.57 116.362 111.885 116.404 112.211 116.429C112.225 116.429 112.24 116.429 112.254 116.429C112.959 116.454 113.687 116.371 114.436 116.171V118.93C114.437 118.988 114.437 119.005 114.44 119.063C114.47 119.613 114.691 120.055 115.051 120.288C115.08 120.305 115.109 120.322 115.139 120.33L111.971 118.746C111.941 118.738 111.912 118.721 111.884 118.705C111.524 118.471 111.302 118.029 111.273 117.479C111.269 117.421 111.269 117.404 111.269 117.346V116.296ZM110.185 115.904L107.073 114.353C107.057 114.345 107.039 114.337 107.022 114.328L107.017 114.32C106.181 113.895 105.51 113.211 105.088 112.269C104.759 111.544 104.588 110.661 104.586 109.694L104.603 109.394C104.648 109.11 104.648 109.035 104.737 108.744C105.069 107.652 105.969 106.56 106.894 106.159C107.421 105.926 107.928 105.934 108.302 106.159L111.333 107.668C110.976 107.518 110.527 107.543 110.062 107.743C109.136 108.143 108.237 109.235 107.904 110.327C107.815 110.619 107.815 110.694 107.77 110.977L107.753 111.278C107.755 112.244 107.927 113.128 108.255 113.853C108.678 114.795 109.349 115.479 110.185 115.904ZM117.924 102.633C118.828 102.417 119.685 102.467 120.309 102.892C120.822 103.242 121.153 103.892 121.116 104.734C121.07 105.768 120.492 106.951 119.763 107.91C118.876 109.077 117.745 109.994 116.641 110.552C115.882 110.936 115.121 111.161 114.424 111.186C113.469 111.219 112.389 110.777 112.155 109.627C112.145 109.577 112.137 109.527 112.132 109.477C112.571 109.369 113.022 109.202 113.473 108.969C114.577 108.41 115.708 107.493 116.595 106.326C117.324 105.368 117.903 104.184 117.949 103.15C117.956 102.967 117.948 102.8 117.924 102.633ZM111.47 107.743L111.469 107.735L111.47 107.743ZM110.443 103.817H110.443H110.443ZM109.997 103.6L107.276 102.233C107.122 102.167 106.973 102.1 106.829 102.017C106.782 101.983 106.736 101.958 106.69 101.925C105.526 101.2 104.75 99.8577 104.61 98.0989C104.475 96.3984 104.939 94.3646 105.857 92.4474C107.096 89.855 109.111 87.5293 111.269 85.9122V83.1447C111.281 82.1611 111.865 80.9274 112.713 80.1689C112.967 79.9438 113.234 79.7688 113.507 79.6355C114.045 79.3937 114.564 79.3854 114.951 79.5938L118.086 81.1609C117.703 80.9692 117.198 80.9858 116.674 81.2192C116.402 81.3526 116.134 81.5276 115.881 81.7527C115.032 82.5112 114.449 83.7449 114.436 84.7285V87.496C112.278 89.1131 110.263 91.4387 109.025 94.0311C108.106 95.9483 107.643 97.9822 107.778 99.6827C107.918 101.441 108.694 102.783 109.857 103.509C109.903 103.542 109.951 103.567 109.997 103.6ZM112.132 97.2653C112.526 97.1653 112.931 97.0153 113.335 96.8236C113.397 96.7902 113.447 96.7652 113.448 96.7652C113.456 96.7652 113.463 96.7568 113.471 96.7568C115.687 95.6565 117.91 95.3482 119.605 96.0734C119.764 96.14 119.919 96.215 120.069 96.3067L122.773 97.6571C121.077 96.9319 118.854 97.2403 116.638 98.3406C116.631 98.3406 116.623 98.349 116.615 98.349C116.614 98.349 116.564 98.374 116.503 98.4073C115.417 98.9241 114.329 99.1242 113.463 98.8491C112.766 98.6324 112.255 98.0739 112.132 97.2653ZM117.924 90.4134C118.432 90.2884 118.922 90.2551 119.369 90.3218C120.171 90.4468 120.882 90.9386 121.069 91.8555C121.121 92.1055 121.104 92.4056 121.137 92.6724C121.171 92.9558 121.258 93.1975 121.391 93.3976C121.496 93.5559 121.633 93.6727 121.793 93.7644L118.683 92.2056C118.499 92.1222 118.341 91.9888 118.223 91.8138C118.091 91.6137 118.004 91.372 117.97 91.0886C117.942 90.8719 117.949 90.6302 117.924 90.4134ZM118.787 83.6032C119.077 83.6615 119.355 83.7533 119.619 83.8617H119.62C119.778 83.9283 119.931 84.0117 120.079 84.095L122.788 85.4454C121.651 84.962 120.257 84.9369 118.787 85.312V83.6032Z" fill="#F7A6A3"/>
<path fill-rule="evenodd" clip-rule="evenodd" d="M110.104 116.082C109.117 115.678 108.328 114.941 107.852 113.884C107.524 113.153 107.351 112.272 107.35 111.308L107.366 110.998C107.412 110.716 107.412 110.649 107.501 110.356C107.834 109.259 108.733 108.168 109.657 107.769C110.283 107.498 110.881 107.559 111.26 107.913C110.952 107.852 110.596 107.897 110.231 108.052C109.306 108.456 108.406 109.547 108.074 110.638C107.985 110.932 107.984 111.004 107.939 111.286L107.923 111.596C107.925 112.56 108.096 113.441 108.425 114.172C108.805 115.013 109.384 115.65 110.104 116.082ZM119.944 102.945C120.136 103.006 120.316 103.095 120.48 103.205C120.992 103.554 121.323 104.202 121.286 105.044C121.24 106.085 120.661 107.271 119.932 108.229C119.045 109.392 117.914 110.306 116.811 110.865C116.05 111.253 115.291 111.474 114.593 111.496C114.065 111.519 113.498 111.391 113.058 111.076C113.368 111.181 113.701 111.225 114.02 111.214C114.718 111.192 115.477 110.965 116.238 110.583C117.34 110.023 118.472 109.104 119.359 107.941C120.088 106.983 120.667 105.797 120.713 104.756C120.749 103.937 120.435 103.3 119.944 102.945ZM110.106 103.876C109.878 103.781 109.661 103.671 109.454 103.538C108.291 102.807 107.514 101.466 107.374 99.7052C107.239 98.0104 107.702 95.9778 108.621 94.056C109.86 91.4695 111.875 89.1379 114.033 87.5206V84.7514C114.046 83.7711 114.629 82.536 115.477 81.7828C115.73 81.5557 115.998 81.3785 116.27 81.2456C116.925 80.9521 117.549 81.0019 117.945 81.3674C117.617 81.3009 117.236 81.3563 116.844 81.5336C116.571 81.6665 116.304 81.8437 116.05 82.0708C115.202 82.824 114.619 84.0536 114.606 85.0394V87.8087C112.447 89.4203 110.432 91.7576 109.194 94.344C108.276 96.2603 107.812 98.2984 107.947 99.9932C108.087 101.754 108.864 103.095 110.027 103.826C110.053 103.842 110.079 103.859 110.106 103.876ZM113.061 98.8744C113.926 99.1514 115.014 98.952 116.099 98.4314C116.16 98.4037 116.211 98.376 116.212 98.376C116.219 98.376 116.227 98.3704 116.235 98.3649C118.683 97.152 121.14 96.9028 122.885 97.944C121.197 97.2517 118.999 97.5674 116.808 98.6529C116.8 98.6584 116.793 98.6584 116.785 98.664C116.784 98.664 116.733 98.6917 116.672 98.7194C115.586 99.24 114.498 99.4338 113.632 99.1624C113.423 99.096 113.231 99.0018 113.061 98.8744Z" fill="#FBCED0"/>
</svg>
