<svg width="164" height="126" viewBox="0 0 164 126" fill="none" xmlns="http://www.w3.org/2000/svg">
<path fill-rule="evenodd" clip-rule="evenodd" d="M47.833 125.386H71.9957L117.833 102.433L85.7859 86.3862L47.833 125.386Z" fill="#E4E9EF"/>
<path d="M47.4157 74.2757L0.829102 50.9824V101.804L47.4157 125.097V74.2757Z" fill="#DFA991"/>
<path d="M41.4039 77.9387L9.1084 61.791V65.3004L41.4039 81.4481V77.9387Z" fill="#955D4C"/>
<path d="M47.4157 74.2757L0.829102 50.9824V57.5571L47.4157 80.8504V74.2757Z" fill="#F6CA12"/>
<path d="M47.4157 74.2758L0.829102 50.9824V50.2156L47.4157 73.5089V74.2758Z" fill="#986809"/>
<path d="M47.4157 118.547L0.829102 95.2534V101.828L47.4157 125.121V118.547Z" fill="#F6CA12"/>
<path d="M6.64998 53.8929L0.829102 50.9824V101.804L6.64998 104.714V53.8929Z" fill="#F6CA12"/>
<path d="M6.45902 60.4663L9.1084 61.791V99.4492L6.45902 98.1245V60.4663Z" fill="#CFA115"/>
<path d="M47.1265 74.2459L41.3057 71.3354V122.157L47.1265 125.067V74.2459Z" fill="#F6CA12"/>
<path d="M47.1368 74.2845L114.899 40.4033V91.2247L47.1368 125.106V74.2845Z" fill="#D19685"/>
<path d="M47.1368 74.2845L114.899 40.4033V46.978L47.1368 80.8591V74.2845Z" fill="#CFA115"/>
<path d="M47.1368 118.556L114.899 84.6743V91.2489L47.1368 125.13V118.556Z" fill="#CFA115"/>
<path d="M53.1488 77.9475L106.62 51.2119V54.7213L53.1488 81.4568V77.9475Z" fill="#955D4C"/>
<path fill-rule="evenodd" clip-rule="evenodd" d="M86.1789 61.6763V72.7369L74.4229 78.6187V67.558L86.1789 61.6763Z" fill="#955D4C"/>
<path d="M109.079 43.3138L114.899 40.4033V91.2247L109.079 94.1352V43.3138Z" fill="#CFA115"/>
<path d="M109.269 49.8872L106.62 51.2119V88.8701L109.269 87.5454V49.8872Z" fill="#F6CA12"/>
<path d="M47.4438 74.2459L53.2646 71.3354V122.157L47.4438 125.067V74.2459Z" fill="#CFA115"/>
<path fill-rule="evenodd" clip-rule="evenodd" d="M53.2608 115.608L109.38 87.5488L106.73 86.2241L53.238 112.97L53.2608 115.608Z" fill="#AC820F"/>
<path fill-rule="evenodd" clip-rule="evenodd" d="M0.829102 50.278C0.829102 36.2505 11.2687 30.0802 24.1198 36.5094C36.9783 42.9387 47.4174 59.5408 47.4174 73.5683L0.829102 50.278Z" fill="#F6CA12"/>
<path fill-rule="evenodd" clip-rule="evenodd" d="M6.34863 50.4135C6.34863 40.9481 13.2979 36.7396 21.9746 41.0779C30.6463 45.4112 41.3748 58.3064 41.3748 67.7669L6.34863 50.4135Z" fill="#CFA115"/>
<path fill-rule="evenodd" clip-rule="evenodd" d="M9.45786 49.3089L9.1084 49.1092C9.78735 40.9817 14.4903 37.3024 22.0736 41.0966C27.3006 43.7075 32.5124 48.8097 37.0155 55.3496C32.3876 49.6834 27.7799 45.6496 22.9024 43.3381C15.6236 39.8834 11.1503 42.8189 9.45786 49.3089Z" fill="#955D4C"/>
<path fill-rule="evenodd" clip-rule="evenodd" d="M10.0283 49.3304C11.7181 42.8454 16.1872 39.9049 23.4728 43.3596C28.3473 45.671 32.6956 49.3903 37.3227 55.0566C40.2969 59.37 42.039 64.0478 42.039 67.807L10.0283 49.3304Z" fill="#DFA991"/>
<path fill-rule="evenodd" clip-rule="evenodd" d="M41.3767 67.7659L6.34863 50.4072L8.99817 49.0825L41.0426 64.9496C41.2552 65.8772 41.3729 66.8148 41.3767 67.7659Z" fill="#F6DD76"/>
<path fill-rule="evenodd" clip-rule="evenodd" d="M41.2925 115.6L6.34863 98.1279L8.99817 96.8032L41.2901 112.949L41.2925 115.6Z" fill="#F6DD76"/>
<path fill-rule="evenodd" clip-rule="evenodd" d="M71.2383 3.7687L75.9508 1.40119C80.0939 -0.67777 85.6207 -0.44102 91.68 2.58495C104.539 9.0142 114.978 25.6163 114.978 39.6438L114.208 40.0285L78.5998 57.8292L48.695 72.7814L48.584 72.8406L47.2153 73.5213C47.2153 59.5012 36.7762 42.8917 23.9177 36.4698C17.8584 33.4365 12.3316 33.2072 8.18848 35.2787L15.7424 31.5055C16.6006 31.3132 17.5991 31.1726 18.4573 31.106L70.1135 5.27801L71.2383 3.7687Z" fill="#EF4989"/>
<path fill-rule="evenodd" clip-rule="evenodd" d="M71.2383 3.7687L75.9508 1.40119C80.0939 -0.67777 85.6207 -0.44102 91.68 2.58495C104.539 9.0142 114.978 25.6163 114.978 39.6438L114.208 40.0285L78.5998 57.8292L48.695 72.7814L48.584 72.8406L47.2153 73.5213C47.2153 59.5012 36.7762 42.8917 23.9177 36.4698C17.8584 33.4365 12.3316 33.2072 8.18848 35.2787L15.7424 31.5055C16.6006 31.3132 17.5991 31.1726 18.4573 31.106L70.1135 5.27801L71.2383 3.7687Z" fill="#F6DD76"/>
<path fill-rule="evenodd" clip-rule="evenodd" d="M108.148 18.3358C110.967 22.6269 113.016 27.4359 114.244 33.2288C114.673 35.3818 114.91 37.52 114.91 39.599L114.141 39.9836L78.5323 57.7843L48.6275 72.7366L48.5165 72.7957L47.1478 73.4764C47.1478 66.5071 44.5659 58.8941 40.3857 52.2133C41.4215 49.8754 43.3154 48.847 46.186 49.3131L102.547 21.1398C103.716 19.6157 105.277 18.1878 108.148 18.3358Z" fill="#CFA115"/>
<path fill-rule="evenodd" clip-rule="evenodd" d="M71.0886 3.77973C71.0886 3.77973 79.7078 2.4554 85.7745 5.48137C97.612 11.4001 107.4 25.9529 108.872 39.1665L52.6665 67.2732C51.1942 54.0521 41.4058 39.5068 29.5683 33.588C25.4843 31.5461 21.6443 30.7766 18.3076 31.1244L69.9638 5.29641L71.0886 3.77973Z" fill="#DFA991"/>
<path fill-rule="evenodd" clip-rule="evenodd" d="M93.2819 14.0061L39.4237 40.9402C33.1532 34.6797 25.5846 30.4825 18.3076 31.167L69.9609 5.32998C77.9827 2.66274 86.2464 6.91021 93.2819 14.0061Z" fill="#F4D6BD"/>
<path fill-rule="evenodd" clip-rule="evenodd" d="M102.644 25.9141L48.665 52.9085C50.4466 56.381 52.0867 60.427 52.8114 64.9563L106.74 37.7807C106.227 33.6842 104.687 29.769 102.644 25.9141Z" fill="#D19685"/>
<path fill-rule="evenodd" clip-rule="evenodd" d="M103.944 24.3047C104.055 24.5044 104.158 24.7042 104.262 24.9114L48.0636 53.0107C47.96 52.8109 47.8487 52.6037 47.7451 52.404L103.944 24.3047Z" fill="#955D4C"/>
<path fill-rule="evenodd" clip-rule="evenodd" d="M95.6714 12.8057C95.8416 12.9758 96.0047 13.146 96.1749 13.3162L39.9687 41.4229C39.8059 41.2453 39.636 41.0751 39.4658 40.905L95.6714 12.8057Z" fill="#955D4C"/>
<path fill-rule="evenodd" clip-rule="evenodd" d="M84.581 4.87109C84.8695 4.97467 85.1506 5.09302 85.4243 5.21139L29.2331 33.3108C28.9667 33.185 28.6931 33.0592 28.4268 32.9482L84.581 4.87109Z" fill="#955D4C"/>
<path d="M47.1368 74.2845L114.899 40.4033V39.6365L47.1368 73.5177V74.2845Z" fill="#986809"/>
<path d="M53.1439 89.7943L106.62 63.0562V62.2893L53.1439 89.0274V89.7943Z" fill="#955D4C"/>
<path d="M53.1439 102.328L106.62 75.5898V74.823L53.1439 101.561V102.328Z" fill="#955D4C"/>
<path fill-rule="evenodd" clip-rule="evenodd" d="M41.4026 101.931L9.1084 85.7877V85.0183L41.4026 101.162V101.931ZM41.4026 89.3982L9.1084 73.2547V72.4854L41.4026 88.6362V89.3982Z" fill="#955D4C"/>
<path fill-rule="evenodd" clip-rule="evenodd" d="M38.9637 58.9084L10.0283 44.4444C10.1393 44.2299 10.265 44.0375 10.3907 43.8525L38.3424 57.8282C38.5569 58.1834 38.764 58.5459 38.9637 58.9084Z" fill="#955D4C"/>
<path fill-rule="evenodd" clip-rule="evenodd" d="M107.004 37.8298C105.879 27.7827 96.091 12.5419 84.2535 6.62313C76.6626 2.82772 70.7438 5.28404 70.7438 5.28404C70.6624 2.87214 78.8007 1.30361 86.9464 5.6687C98.8653 12.0536 108.024 24.9713 109.652 39.1541L107.004 37.8298Z" fill="#F6CA12"/>
<path fill-rule="evenodd" clip-rule="evenodd" d="M53.1767 67.2397L109.38 39.1382L106.73 37.8134L52.8136 64.7717C52.9635 65.6473 53.0595 66.3272 53.1767 67.2397Z" fill="#F6DD76"/>
<path fill-rule="evenodd" clip-rule="evenodd" d="M89.9823 49.839C90.0822 49.7889 90.1453 49.6868 90.1453 49.5755C90.1453 49.4636 90.0822 49.3615 89.9823 49.312C89.8015 49.2211 89.6437 49.1426 89.6437 49.1426L79.0225 54.4529C79.0225 54.4529 79.1648 54.524 79.3341 54.6088C79.683 54.7832 80.0937 54.7832 80.4426 54.6088C82.2838 53.6885 88.1815 50.7395 89.9823 49.839Z" fill="#ADB6C1"/>
<path fill-rule="evenodd" clip-rule="evenodd" d="M89.833 49.3862V60.2061C89.833 60.3172 89.7733 60.4184 89.6738 60.4689C87.8919 61.3681 82.0583 64.328 80.2366 65.2574C79.8981 65.4292 79.49 65.4292 79.1416 65.2574L78.8629 65.1161L78.833 65.0958L78.8629 65.0858L78.833 54.2759C78.833 54.2759 78.9723 54.3466 79.1416 54.4375C79.49 54.6093 79.8981 54.6093 80.2366 54.4375C82.0583 53.5081 87.8919 50.548 89.6738 49.6489C89.7733 49.5983 89.833 49.4974 89.833 49.3862Z" fill="#4A525A"/>
<path fill-rule="evenodd" clip-rule="evenodd" d="M85.6812 52.937C85.7182 52.9518 85.7552 52.974 85.7922 52.9888C87.6566 53.921 89.166 56.6289 89.166 59.026C89.166 60.4169 88.6554 61.4009 87.8638 61.8004L86.717 62.37C87.5161 61.9705 88.0262 60.9865 88.0262 59.5956C88.0262 57.1985 86.5174 54.4907 84.653 53.5585C84.616 53.5437 84.579 53.5289 84.542 53.5067L85.6812 52.937Z" fill="#D6EEFA"/>
<path fill-rule="evenodd" clip-rule="evenodd" d="M84.542 53.5117C84.579 53.5265 84.6161 53.5487 84.6605 53.5635C86.5248 54.4957 88.0336 57.2035 88.0336 59.6006C88.0336 61.9977 86.5248 63.1815 84.6605 62.2493C84.6161 62.2345 84.579 62.2123 84.542 62.1901V60.9176C84.579 60.9398 84.6161 60.962 84.6605 60.9768C85.9774 61.6352 87.0424 60.7992 87.0424 59.105C87.0424 57.4107 85.9774 55.4945 84.6605 54.8361C84.6161 54.8213 84.579 54.7991 84.542 54.7843V53.5117Z" fill="#77818B"/>
<path fill-rule="evenodd" clip-rule="evenodd" d="M85.5627 60.4111C85.5997 60.4333 85.6367 60.4555 85.6737 60.4703C85.9918 60.6257 86.2953 60.6997 86.569 60.6923C86.1399 61.2323 85.4372 61.3803 84.653 60.9808C84.616 60.966 84.579 60.9438 84.542 60.9217L85.5627 60.4111Z" fill="#4B93C2"/>
<path fill-rule="evenodd" clip-rule="evenodd" d="M94.3686 65.8159V76.7127C94.3686 76.8911 94.2109 77.0852 93.9009 77.2389L83.5238 82.4282C82.9854 82.6969 82.2022 82.7404 81.7725 82.5256L80.2143 81.7473C80.0321 81.6557 79.9424 81.5314 79.9424 81.3981V70.5016C79.9424 70.6346 80.0321 70.7589 80.2143 70.8508L81.7725 71.6291C82.2022 71.8439 82.9854 71.8001 83.5238 71.5317L93.9009 66.3424C94.2109 66.1887 94.3686 65.9943 94.3686 65.8159Z" fill="#23292E"/>
<path fill-rule="evenodd" clip-rule="evenodd" d="M81.7861 71.7332C82.2185 71.8143 82.7896 71.7417 83.2111 71.5317L93.5881 66.3424C93.8981 66.1887 94.0558 65.9943 94.0558 65.8159V76.7127C94.0558 76.8911 93.8981 77.0852 93.5881 77.2389L83.2111 82.4282C82.7896 82.6384 82.2185 82.7108 81.7861 82.6297V71.7332Z" fill="#77818B"/>
<path fill-rule="evenodd" clip-rule="evenodd" d="M93.1241 66.3628C93.6609 66.0944 93.7492 65.7022 93.3196 65.4874L91.764 64.7096C91.3343 64.4948 90.55 64.539 90.0132 64.8074L79.6356 69.9962C79.0973 70.2653 79.0104 70.6568 79.4401 70.8716L80.9957 71.6494C81.4253 71.8642 82.2083 71.8207 82.7465 71.5516L93.1241 66.3628Z" fill="#ADB6C1"/>
<path d="M83.1096 70.7043C83.8405 70.7043 84.433 70.4081 84.433 70.0426C84.433 69.6771 83.8405 69.3809 83.1096 69.3809C82.3787 69.3809 81.7861 69.6771 81.7861 70.0426C81.7861 70.4081 82.3787 70.7043 83.1096 70.7043Z" fill="#4A525A"/>
<path d="M90.469 66.7947C91.1999 66.7947 91.7924 66.4984 91.7924 66.1329C91.7924 65.7675 91.1999 65.4712 90.469 65.4712C89.738 65.4712 89.1455 65.7675 89.1455 66.1329C89.1455 66.4984 89.738 66.7947 90.469 66.7947Z" fill="#4A525A"/>
<path fill-rule="evenodd" clip-rule="evenodd" d="M81.7898 70.0167C81.7816 68.0906 81.7898 66.8443 81.7898 64.9181C81.7979 62.6347 82.7714 60.3877 84.2399 58.7414C85.2597 57.599 86.6167 56.6758 88.1205 56.6192C88.1721 56.6173 88.2265 56.6165 88.2809 56.6168C89.336 56.6263 90.3557 57.15 90.9866 58.0335C91.2259 58.3661 91.4082 58.7376 91.5414 59.1226C91.5441 59.1327 91.5469 59.1428 91.5523 59.1528C91.7508 59.7552 91.8351 60.3891 91.8378 61.0246C91.8433 62.573 91.846 64.541 91.8405 66.0894L89.5726 66.1247C89.578 64.2005 89.578 62.9564 89.5726 61.0322C89.5699 60.4837 89.4964 59.9123 89.2027 59.4392C89.0042 59.1186 88.6589 58.888 88.2727 58.8828C88.2646 58.8828 88.2591 58.8828 88.2537 58.8828C87.6445 58.8855 87.0681 59.2303 86.5976 59.6091C85.8743 60.193 85.3032 60.9737 84.8844 61.7838C84.3841 62.7546 84.0632 63.8288 84.055 64.91C84.0496 66.4617 84.0577 68.465 84.0604 70.0167H81.7898Z" fill="#E4E9EF"/>
<path d="M82.9215 70.631C83.5486 70.631 84.0569 70.3769 84.0569 70.0633C84.0569 69.7498 83.5486 69.4956 82.9215 69.4956C82.2945 69.4956 81.7861 69.7498 81.7861 70.0633C81.7861 70.3769 82.2945 70.631 82.9215 70.631Z" fill="#E4E9EF"/>
<path d="M91.2008 66.7214C91.8279 66.7214 92.3362 66.4672 92.3362 66.1536C92.3362 65.8401 91.8279 65.5859 91.2008 65.5859C90.5738 65.5859 90.0654 65.8401 90.0654 66.1536C90.0654 66.4672 90.5738 66.7214 91.2008 66.7214Z" fill="#E4E9EF"/>
<path fill-rule="evenodd" clip-rule="evenodd" d="M84.4549 59.0978C81.9667 61.8844 81.8579 65.7538 81.8062 65.0921C81.624 62.8158 82.7036 60.501 84.1748 58.8547C85.1945 57.7123 86.5515 56.7888 88.0554 56.7325C88.107 56.7306 88.3518 56.7334 88.4198 56.7383C86.9567 57.0396 85.4774 57.9495 84.4549 59.0978Z" fill="#F7F8FA"/>
<path fill-rule="evenodd" clip-rule="evenodd" d="M91.5267 66.2159C91.5294 64.2264 91.5294 63.3809 91.5294 61.9022C91.5294 57.0769 87.5674 57.3325 85.71 58.8736C84.1192 60.1952 82.8249 61.7213 82.7079 67.8695C82.7025 68.1678 82.7106 70.3265 82.7106 70.6471C83.1811 70.6256 83.7277 70.4317 83.7467 70.0812C83.7331 69.7451 83.7412 68.2434 83.7358 67.9226C83.695 65.7802 83.7983 63.9583 84.4184 62.1624C85.2342 60.3856 85.9467 59.8112 86.98 59.2092C88.5518 58.2936 90.7844 58.9163 90.7599 61.9976C90.7572 62.3859 90.749 66.0359 90.7354 66.7274C91.1161 66.667 91.4968 66.4952 91.5267 66.2159Z" fill="#D6DBE1"/>
<path fill-rule="evenodd" clip-rule="evenodd" d="M88.1932 75.1615C87.6767 75.1963 87.3066 74.7877 87.3066 74.0915C87.3066 73.2049 87.907 72.184 88.6463 71.8147C89.3856 71.4454 89.9852 71.8653 89.9852 72.7526C89.9852 73.4488 89.6159 74.2266 89.0994 74.7084V76.5132C89.0994 76.7639 88.8963 77.0751 88.6463 77.208C88.3963 77.3409 88.1932 77.2457 88.1932 76.9958V75.1615Z" fill="#23292E"/>
<path fill-rule="evenodd" clip-rule="evenodd" d="M85.6861 52.937C85.7231 52.9518 85.7601 52.974 85.7971 52.9888C87.6615 53.921 89.1709 56.6289 89.1709 59.026C89.1709 60.4169 88.6603 61.4009 87.8687 61.8004L86.7219 62.37C87.5209 61.9705 88.0311 60.9865 88.0311 59.5956C88.0311 57.1985 86.5223 54.4907 84.6579 53.5585C84.6209 53.5437 84.5839 53.5289 84.5469 53.5067L85.6861 52.937Z" fill="#ADB6C1"/>
<path fill-rule="evenodd" clip-rule="evenodd" d="M87.4169 56.3862C87.6359 57.1526 87.7819 57.9737 87.833 58.7729C87.5775 58.9043 87.3294 59.1344 87.1177 59.3862C87.1323 59.222 87.1396 59.0467 87.1396 58.8715C87.1396 58.1598 87.0228 57.4263 86.833 56.7365C87.0228 56.5942 87.2199 56.4738 87.4169 56.3862Z" fill="#77818B"/>
<path fill-rule="evenodd" clip-rule="evenodd" d="M106.833 116.464C111.356 117.385 119.113 118.122 124.025 116.076L137.042 110.246C142.036 110.819 148.811 111.657 155.729 108.139L162.012 105.009C166.208 101.572 162.605 96.6419 156.772 94.4735C150.857 92.2642 146.314 93.1645 143.346 91.978C137.677 89.7278 131.966 85.391 126.154 83.3862L107.079 92.9193L106.833 116.464Z" fill="#E4E9EF"/>
<path fill-rule="evenodd" clip-rule="evenodd" d="M128.695 87.2111C128.695 87.0253 128.695 90.5991 128.695 90.5991C128.695 94.0235 123.335 96.7995 116.739 96.7995H116.659C110.098 96.7777 104.78 94.009 104.78 90.5991C104.78 90.5991 104.78 87.0253 104.78 87.2111C104.78 90.6319 110.14 93.4115 116.739 93.4115C123.335 93.4115 128.695 90.6319 128.695 87.2111Z" fill="#E3AF18"/>
<path d="M116.737 93.3963C123.34 93.3963 128.693 90.62 128.693 87.1952C128.693 83.7704 123.34 80.9941 116.737 80.9941C110.133 80.9941 104.78 83.7704 104.78 87.1952C104.78 90.62 110.133 93.3963 116.737 93.3963Z" fill="#FEEFA3"/>
<path fill-rule="evenodd" clip-rule="evenodd" d="M129.615 83.0715C129.615 82.8857 129.615 86.4594 129.615 86.4594C129.615 89.8839 124.255 92.6599 117.659 92.6599H117.578C111.018 92.638 105.7 89.8693 105.7 86.4594C105.7 86.4594 105.7 82.8857 105.7 83.0715C105.7 86.4923 111.06 89.2719 117.659 89.2719C124.255 89.2719 129.615 86.4923 129.615 83.0715Z" fill="#E3AF18"/>
<path d="M117.657 89.2571C124.26 89.2571 129.613 86.4808 129.613 83.056C129.613 79.6313 124.26 76.855 117.657 76.855C111.053 76.855 105.7 79.6313 105.7 83.056C105.7 86.4808 111.053 89.2571 117.657 89.2571Z" fill="#FEEFA3"/>
<path fill-rule="evenodd" clip-rule="evenodd" d="M128.695 78.4718C128.695 78.2861 128.695 81.8598 128.695 81.8598C128.695 85.2843 123.335 88.0603 116.739 88.0603H116.659C110.098 88.0384 104.78 85.2697 104.78 81.8598C104.78 81.8598 104.78 78.2861 104.78 78.4718C104.78 81.8926 110.14 84.6723 116.739 84.6723C123.335 84.6723 128.695 81.8926 128.695 78.4718Z" fill="#E3AF18"/>
<path d="M116.737 84.7723C123.34 84.7723 128.693 81.9959 128.693 78.5712C128.693 75.1464 123.34 72.3701 116.737 72.3701C110.133 72.3701 104.78 75.1464 104.78 78.5712C104.78 81.9959 110.133 84.7723 116.737 84.7723Z" fill="#FEEFA3"/>
<path fill-rule="evenodd" clip-rule="evenodd" d="M129.615 74.4469C129.615 74.2611 129.615 77.8349 129.615 77.8349C129.615 81.2594 124.255 84.0354 117.659 84.0354H117.578C111.018 84.0135 105.7 81.2448 105.7 77.8349C105.7 77.8349 105.7 74.2611 105.7 74.4469C105.7 77.8677 111.06 80.6474 117.659 80.6474C124.255 80.6474 129.615 77.8677 129.615 74.4469Z" fill="#E3AF18"/>
<path d="M117.657 80.6326C124.26 80.6326 129.613 77.8563 129.613 74.4315C129.613 71.0068 124.26 68.2305 117.657 68.2305C111.053 68.2305 105.7 71.0068 105.7 74.4315C105.7 77.8563 111.053 80.6326 117.657 80.6326Z" fill="#FEEFA3"/>
<path fill-rule="evenodd" clip-rule="evenodd" d="M127.775 71.112C127.775 70.9262 127.775 74.5 127.775 74.5C127.775 77.9244 122.415 80.7004 115.819 80.7004H115.739C109.178 80.6785 103.86 77.9098 103.86 74.5C103.86 74.5 103.86 70.9262 103.86 71.112C103.86 74.5328 109.22 77.3124 115.819 77.3124C122.415 77.3124 127.775 74.5328 127.775 71.112Z" fill="#E3AF18"/>
<path d="M115.817 77.2982C122.42 77.2982 127.774 74.5218 127.774 71.0971C127.774 67.6723 122.42 64.896 115.817 64.896C109.214 64.896 103.86 67.6723 103.86 71.0971C103.86 74.5218 109.214 77.2982 115.817 77.2982Z" fill="#FEEFA3"/>
<path fill-rule="evenodd" clip-rule="evenodd" d="M128.695 66.9728C128.695 66.787 128.695 70.3608 128.695 70.3608C128.695 73.7853 123.335 76.5612 116.739 76.5612H116.659C110.098 76.5394 104.78 73.7707 104.78 70.3608C104.78 70.3608 104.78 66.787 104.78 66.9728C104.78 70.3936 110.14 73.1733 116.739 73.1733C123.335 73.1733 128.695 70.3936 128.695 66.9728Z" fill="#E3AF18"/>
<path d="M116.737 73.1585C123.34 73.1585 128.693 70.3822 128.693 66.9574C128.693 63.5327 123.34 60.7563 116.737 60.7563C110.133 60.7563 104.78 63.5327 104.78 66.9574C104.78 70.3822 110.133 73.1585 116.737 73.1585Z" fill="#FEEFA3"/>
<path fill-rule="evenodd" clip-rule="evenodd" d="M127.775 62.3732C127.775 62.1874 127.775 65.7612 127.775 65.7612C127.775 69.1856 122.415 71.9616 115.819 71.9616H115.739C109.178 71.9398 103.86 69.1711 103.86 65.7612C103.86 65.7612 103.86 62.1874 103.86 62.3732C103.86 65.794 109.22 68.5736 115.819 68.5736C122.415 68.5736 127.775 65.794 127.775 62.3732Z" fill="#E3AF18"/>
<path d="M115.817 68.5584C122.42 68.5584 127.774 65.7821 127.774 62.3573C127.774 58.9326 122.42 56.1562 115.817 56.1562C109.214 56.1562 103.86 58.9326 103.86 62.3573C103.86 65.7821 109.214 68.5584 115.817 68.5584Z" fill="#FEEFA3"/>
<path fill-rule="evenodd" clip-rule="evenodd" d="M127.775 58.3483C127.775 58.1625 127.775 61.7363 127.775 61.7363C127.775 65.1607 122.415 67.9367 115.819 67.9367H115.739C109.178 67.9149 103.86 65.1462 103.86 61.7363C103.86 61.7363 103.86 58.1625 103.86 58.3483C103.86 61.7691 109.22 64.5487 115.819 64.5487C122.415 64.5487 127.775 61.7691 127.775 58.3483Z" fill="#E3AF18"/>
<path d="M115.817 64.534C122.42 64.534 127.774 61.7577 127.774 58.3329C127.774 54.9081 122.42 52.1318 115.817 52.1318C109.214 52.1318 103.86 54.9081 103.86 58.3329C103.86 61.7577 109.214 64.534 115.817 64.534Z" fill="#FEEFA3"/>
<path fill-rule="evenodd" clip-rule="evenodd" d="M128.695 54.2087C128.695 54.0229 128.695 57.5966 128.695 57.5966C128.695 61.0211 123.335 63.7971 116.739 63.7971H116.659C110.098 63.7752 104.78 61.0065 104.78 57.5966C104.78 57.5966 104.78 54.0229 104.78 54.2087C104.78 57.6295 110.14 60.4091 116.739 60.4091C123.335 60.4091 128.695 57.6295 128.695 54.2087Z" fill="#E3AF18"/>
<path d="M116.737 60.3943C123.34 60.3943 128.693 57.618 128.693 54.1933C128.693 50.7685 123.34 47.9922 116.737 47.9922C110.133 47.9922 104.78 50.7685 104.78 54.1933C104.78 57.618 110.133 60.3943 116.737 60.3943Z" fill="#FEEFA3"/>
<path fill-rule="evenodd" clip-rule="evenodd" d="M127.775 49.6091C127.775 49.4233 127.775 52.997 127.775 52.997C127.775 56.4215 122.415 59.1975 115.819 59.1975H115.739C109.178 59.1756 103.86 56.4069 103.86 52.997C103.86 52.997 103.86 49.4233 103.86 49.6091C103.86 53.0299 109.22 55.8095 115.819 55.8095C122.415 55.8095 127.775 53.0299 127.775 49.6091Z" fill="#E3AF18"/>
<path d="M115.817 55.7947C122.42 55.7947 127.774 53.0184 127.774 49.5936C127.774 46.1689 122.42 43.3926 115.817 43.3926C109.214 43.3926 103.86 46.1689 103.86 49.5936C103.86 53.0184 109.214 55.7947 115.817 55.7947Z" fill="#FEEFA3"/>
<path fill-rule="evenodd" clip-rule="evenodd" d="M128.695 45.0094C128.695 44.8236 128.695 48.3974 128.695 48.3974C128.695 51.8219 123.335 54.5979 116.739 54.5979H116.659C110.098 54.576 104.78 51.8073 104.78 48.3974C104.78 48.3974 104.78 44.8236 104.78 45.0094C104.78 48.4302 110.14 51.2099 116.739 51.2099C123.335 51.2099 128.695 48.4302 128.695 45.0094Z" fill="#E3AF18"/>
<path d="M116.737 51.1951C123.34 51.1951 128.693 48.4188 128.693 44.994C128.693 41.5693 123.34 38.793 116.737 38.793C110.133 38.793 104.78 41.5693 104.78 44.994C104.78 48.4188 110.133 51.1951 116.737 51.1951Z" fill="#FEEFA3"/>
<path fill-rule="evenodd" clip-rule="evenodd" d="M106.641 45.3238C106.627 45.1995 106.62 45.0752 106.62 44.9581C106.62 41.9964 111.252 39.5977 116.956 39.5977C122.66 39.5977 127.292 41.9964 127.292 44.9581C127.292 45.0752 127.278 45.1995 127.264 45.3238C126.904 42.5302 122.42 40.329 116.956 40.329C111.485 40.329 107.008 42.5302 106.641 45.3238Z" fill="#F6CA12"/>
<path fill-rule="evenodd" clip-rule="evenodd" d="M151.693 100.895C151.693 100.709 151.693 104.283 151.693 104.283C151.693 107.707 146.333 110.483 139.737 110.483H139.657C133.096 110.461 127.778 107.693 127.778 104.283C127.778 104.283 127.778 100.709 127.778 100.895C127.778 104.316 133.138 107.095 139.737 107.095C146.333 107.095 151.693 104.316 151.693 100.895Z" fill="#F6CA12"/>
<path d="M139.735 107.08C146.338 107.08 151.691 104.304 151.691 100.879C151.691 97.4545 146.338 94.6782 139.735 94.6782C133.131 94.6782 127.778 97.4545 127.778 100.879C127.778 104.304 133.131 107.08 139.735 107.08Z" fill="#FEEFA3"/>
<path fill-rule="evenodd" clip-rule="evenodd" d="M150.773 97.445C150.773 97.2592 150.773 100.833 150.773 100.833C150.773 104.257 145.413 107.033 138.817 107.033H138.737C132.176 107.012 126.858 104.243 126.858 100.833C126.858 100.833 126.858 97.2592 126.858 97.445C126.858 100.866 132.218 103.645 138.817 103.645C145.413 103.645 150.773 100.866 150.773 97.445Z" fill="#F6CA12"/>
<path d="M138.815 103.631C145.418 103.631 150.772 100.854 150.772 97.4296C150.772 94.0048 145.418 91.2285 138.815 91.2285C132.212 91.2285 126.858 94.0048 126.858 97.4296C126.858 100.854 132.212 103.631 138.815 103.631Z" fill="#FEEFA3"/>
<path fill-rule="evenodd" clip-rule="evenodd" d="M150.773 93.3053C150.773 93.1195 150.773 96.6933 150.773 96.6933C150.773 100.118 145.413 102.894 138.817 102.894H138.737C132.176 102.872 126.858 100.103 126.858 96.6933C126.858 96.6933 126.858 93.1195 126.858 93.3053C126.858 96.7261 132.218 99.5058 138.817 99.5058C145.413 99.5058 150.773 96.7261 150.773 93.3053Z" fill="#F6CA12"/>
<path d="M138.815 99.6063C145.418 99.6063 150.772 96.8299 150.772 93.4052C150.772 89.9804 145.418 87.2041 138.815 87.2041C132.212 87.2041 126.858 89.9804 126.858 93.4052C126.858 96.8299 132.212 99.6063 138.815 99.6063Z" fill="#FEEFA3"/>
<path fill-rule="evenodd" clip-rule="evenodd" d="M149.853 88.821C149.853 88.6352 149.853 92.209 149.853 92.209C149.853 95.6334 144.493 98.4094 137.898 98.4094H137.817C131.256 98.3875 125.938 95.6188 125.938 92.209C125.938 92.209 125.938 88.6352 125.938 88.821C125.938 92.2418 131.298 95.0214 137.898 95.0214C144.493 95.0214 149.853 92.2418 149.853 88.821Z" fill="#F6CA12"/>
<path d="M137.895 95.0062C144.498 95.0062 149.852 92.2298 149.852 88.8051C149.852 85.3803 144.498 82.604 137.895 82.604C131.292 82.604 125.938 85.3803 125.938 88.8051C125.938 92.2298 131.292 95.0062 137.895 95.0062Z" fill="#FEEFA3"/>
<path fill-rule="evenodd" clip-rule="evenodd" d="M150.773 84.6813C150.773 84.4955 150.773 88.0693 150.773 88.0693C150.773 91.4937 145.413 94.2697 138.817 94.2697H138.737C132.176 94.2479 126.858 91.4792 126.858 88.0693C126.858 88.0693 126.858 84.4955 126.858 84.6813C126.858 88.1021 132.218 90.8818 138.817 90.8818C145.413 90.8818 150.773 88.1021 150.773 84.6813Z" fill="#F6CA12"/>
<path d="M138.815 90.867C145.418 90.867 150.772 88.0907 150.772 84.6659C150.772 81.2411 145.418 78.4648 138.815 78.4648C132.212 78.4648 126.858 81.2411 126.858 84.6659C126.858 88.0907 132.212 90.867 138.815 90.867Z" fill="#FEEFA3"/>
<path fill-rule="evenodd" clip-rule="evenodd" d="M151.693 80.5417C151.693 80.3559 151.693 83.9297 151.693 83.9297C151.693 87.3541 146.333 90.1301 139.737 90.1301H139.657C133.096 90.1082 127.778 87.3395 127.778 83.9297C127.778 83.9297 127.778 80.3559 127.778 80.5417C127.778 83.9625 133.138 86.7421 139.737 86.7421C146.333 86.7421 151.693 83.9625 151.693 80.5417Z" fill="#F6CA12"/>
<path d="M139.735 86.8416C146.338 86.8416 151.691 84.0653 151.691 80.6405C151.691 77.2158 146.338 74.4395 139.735 74.4395C133.131 74.4395 127.778 77.2158 127.778 80.6405C127.778 84.0653 133.131 86.8416 139.735 86.8416Z" fill="#FEEFA3"/>
<path fill-rule="evenodd" clip-rule="evenodd" d="M150.773 76.0568C150.773 75.871 150.773 79.4448 150.773 79.4448C150.773 82.8692 145.413 85.6452 138.817 85.6452H138.737C132.176 85.6234 126.858 82.8547 126.858 79.4448C126.858 79.4448 126.858 75.871 126.858 76.0568C126.858 79.4776 132.218 82.2572 138.817 82.2572C145.413 82.2572 150.773 79.4776 150.773 76.0568Z" fill="#F6CA12"/>
<path d="M138.815 82.2425C145.418 82.2425 150.772 79.4662 150.772 76.0414C150.772 72.6166 145.418 69.8403 138.815 69.8403C132.212 69.8403 126.858 72.6166 126.858 76.0414C126.858 79.4662 132.212 82.2425 138.815 82.2425Z" fill="#FEEFA3"/>
<path fill-rule="evenodd" clip-rule="evenodd" d="M151.693 71.4572C151.693 71.2714 151.693 74.8452 151.693 74.8452C151.693 78.2696 146.333 81.0456 139.737 81.0456H139.657C133.096 81.0238 127.778 78.2551 127.778 74.8452C127.778 74.8452 127.778 71.2714 127.778 71.4572C127.778 74.878 133.138 77.6576 139.737 77.6576C146.333 77.6576 151.693 74.878 151.693 71.4572Z" fill="#F6CA12"/>
<path d="M139.735 77.6429C146.338 77.6429 151.691 74.8665 151.691 71.4418C151.691 68.017 146.338 65.2407 139.735 65.2407C133.131 65.2407 127.778 68.017 127.778 71.4418C127.778 74.8665 133.131 77.6429 139.735 77.6429Z" fill="#FEEFA3"/>
<path fill-rule="evenodd" clip-rule="evenodd" d="M128.719 71.772C128.705 71.6477 128.698 71.5234 128.698 71.4064C128.698 68.4446 133.33 66.0459 139.034 66.0459C144.738 66.0459 149.37 68.4446 149.37 71.4064C149.37 71.5234 149.356 71.6477 149.342 71.772C148.982 68.9785 144.498 66.7772 139.034 66.7772C133.563 66.7772 129.086 68.9785 128.719 71.772Z" fill="#F6CA12"/>
<path fill-rule="evenodd" clip-rule="evenodd" d="M121.335 107.104C121.335 106.918 121.335 110.492 121.335 110.492C121.335 113.917 115.976 116.693 109.38 116.693H109.299C102.738 116.671 97.4209 113.902 97.4209 110.492C97.4209 110.492 97.4209 106.918 97.4209 107.104C97.4209 110.525 102.781 113.305 109.38 113.305C115.976 113.305 121.335 110.525 121.335 107.104Z" fill="#F6CA12"/>
<path d="M109.377 113.29C115.981 113.29 121.334 110.514 121.334 107.089C121.334 103.664 115.981 100.888 109.377 100.888C102.774 100.888 97.4209 103.664 97.4209 107.089C97.4209 110.514 102.774 113.29 109.377 113.29Z" fill="#FEEFA3"/>
<path fill-rule="evenodd" clip-rule="evenodd" d="M120.416 102.965C120.416 102.779 120.416 106.353 120.416 106.353C120.416 109.777 115.056 112.553 108.46 112.553H108.379C101.818 112.531 96.501 109.762 96.501 106.353C96.501 106.353 96.501 102.779 96.501 102.965C96.501 106.385 101.861 109.165 108.46 109.165C115.056 109.165 120.416 106.385 120.416 102.965Z" fill="#F6CA12"/>
<path d="M108.458 109.15C115.061 109.15 120.414 106.374 120.414 102.949C120.414 99.5244 115.061 96.748 108.458 96.748C101.854 96.748 96.501 99.5244 96.501 102.949C96.501 106.374 101.854 109.15 108.458 109.15Z" fill="#FEEFA3"/>
<path fill-rule="evenodd" clip-rule="evenodd" d="M121.335 98.8249C121.335 98.6391 121.335 102.213 121.335 102.213C121.335 105.637 115.976 108.413 109.38 108.413H109.299C102.738 108.391 97.4209 105.623 97.4209 102.213C97.4209 102.213 97.4209 98.6391 97.4209 98.8249C97.4209 102.246 102.781 105.025 109.38 105.025C115.976 105.025 121.335 102.246 121.335 98.8249Z" fill="#F6CA12"/>
<path d="M109.377 105.011C115.981 105.011 121.334 102.234 121.334 98.8095C121.334 95.3847 115.981 92.6084 109.377 92.6084C102.774 92.6084 97.4209 95.3847 97.4209 98.8095C97.4209 102.234 102.774 105.011 109.377 105.011Z" fill="#FEEFA3"/>
<path fill-rule="evenodd" clip-rule="evenodd" d="M120.416 94.3405C120.416 94.1547 120.416 97.7285 120.416 97.7285C120.416 101.153 115.056 103.929 108.46 103.929H108.379C101.818 103.907 96.501 101.138 96.501 97.7285C96.501 97.7285 96.501 94.1547 96.501 94.3405C96.501 97.7613 101.861 100.541 108.46 100.541C115.056 100.541 120.416 97.7613 120.416 94.3405Z" fill="#F6CA12"/>
<path d="M108.458 100.526C115.061 100.526 120.414 97.7499 120.414 94.3251C120.414 90.9003 115.061 88.124 108.458 88.124C101.854 88.124 96.501 90.9003 96.501 94.3251C96.501 97.7499 101.854 100.526 108.458 100.526Z" fill="#FEEFA3"/>
<path fill-rule="evenodd" clip-rule="evenodd" d="M121.335 89.6257C121.335 89.4399 121.335 93.0136 121.335 93.0136C121.335 96.4381 115.976 99.2141 109.38 99.2141H109.299C102.738 99.1922 97.4209 96.4235 97.4209 93.0136C97.4209 93.0136 97.4209 89.4399 97.4209 89.6257C97.4209 93.0465 102.781 95.8261 109.38 95.8261C115.976 95.8261 121.335 93.0465 121.335 89.6257Z" fill="#F6CA12"/>
<path d="M109.377 95.8113C115.981 95.8113 121.334 93.035 121.334 89.6102C121.334 86.1855 115.981 83.4092 109.377 83.4092C102.774 83.4092 97.4209 86.1855 97.4209 89.6102C97.4209 93.035 102.774 95.8113 109.377 95.8113Z" fill="#FEEFA3"/>
<path fill-rule="evenodd" clip-rule="evenodd" d="M99.2819 90.0552C99.2678 89.9309 99.2607 89.8066 99.2607 89.6896C99.2607 86.7278 103.893 84.3291 109.597 84.3291C115.3 84.3291 119.932 86.7278 119.932 89.6896C119.932 89.8066 119.918 89.9309 119.904 90.0552C119.545 87.2617 115.061 85.0604 109.597 85.0604C104.126 85.0604 99.6486 87.2617 99.2819 90.0552Z" fill="#F6CA12"/>
</svg>
