<svg width="152" height="129" viewBox="0 0 152 129" fill="none" xmlns="http://www.w3.org/2000/svg">
<path fill-rule="evenodd" clip-rule="evenodd" d="M86.4323 9.82623L18.5977 43.7397V111.574L86.4323 77.6528V9.82623Z" fill="#4A525A"/>
<path fill-rule="evenodd" clip-rule="evenodd" d="M0.199219 102.146L18.9786 111.535V43.7004L0.199219 34.311V102.146Z" fill="#77818B"/>
<path fill-rule="evenodd" clip-rule="evenodd" d="M86.8131 9.77798L68.0337 0.388672L0.199219 34.3079L18.9786 43.6972L86.8131 9.77798Z" fill="#ADB6C1"/>
<path d="M76.2945 4.41357L78.8666 5.69979L11.0318 39.6186L8.47852 38.3434C8.54476 38.3047 8.611 38.2661 8.67669 38.222L76.2945 4.41357Z" fill="#4A525A"/>
<path d="M8.47852 106.288V38.4507L10.7785 39.6045V107.436L8.47852 106.288Z" fill="#4A525A"/>
<path fill-rule="evenodd" clip-rule="evenodd" d="M52.7279 4.97681V16.0089L48.3068 18.2123V7.72103L36.8037 13.4726L34.9742 27.4568L32.3965 26.1813C32.3965 26.1813 32.3965 17.4086 32.3965 13.1261C32.3965 11.7125 33.2004 10.4239 34.4616 9.78637C38.0234 8.0124 45.3687 4.33972 49.568 2.23313C50.2471 1.88665 51.051 1.92812 51.6885 2.33003L54.1138 3.52159L52.7279 4.97681Z" fill="#77818B"/>
<path fill-rule="evenodd" clip-rule="evenodd" d="M48.9551 18.2234L51.524 19.5075V9.01318L48.9551 10.2973V18.2234Z" fill="#77818B"/>
<path d="M56.6536 65.0843C56.6536 63.9204 56.3755 63.1888 55.8184 62.8631C55.2622 62.5459 54.2023 62.445 52.6403 62.5774C49.1849 63.0878 46.65 63.0225 45.0374 62.3895C43.4257 61.7471 42.6189 60.0535 42.6189 57.3081C42.6189 54.8292 43.4576 52.3842 45.1351 49.9639C46.8126 47.5436 49.0836 45.4929 51.9464 43.8305V39.2548L55.3742 37.5409V42.1878C58.0779 41.2002 60.204 41.15 61.7509 42.0558C63.2987 42.9612 64.0503 44.7444 64.0068 47.4139L63.9642 47.5417L56.8055 51.121C56.8055 49.6728 56.491 48.764 55.8619 48.3855C55.2329 48.007 54.3471 48.1034 53.2045 48.6747C52.0192 49.2674 51.1805 49.9887 50.6882 50.8478C50.1969 51.7155 49.9508 52.6559 49.9508 53.6866C49.9508 54.6551 50.2147 55.2873 50.7425 55.6009C51.2702 55.9057 52.3373 56.0386 53.9419 56.0003C57.2826 55.4051 59.7882 55.4672 61.4586 56.1958C63.129 56.9243 63.9642 58.648 63.9642 61.3846C63.9642 63.9168 63.161 66.3443 61.5563 68.6837C59.9508 71.0147 57.7527 73.0111 54.9619 74.6731V79.0266L51.5128 80.7512V76.3976C48.5914 77.6096 46.1907 77.8769 44.3106 77.2087C42.4314 76.5312 41.5269 74.6023 41.5998 71.4117L41.6433 71.2656L48.7797 67.6974C48.7797 69.3589 49.1805 70.3402 49.9837 70.6494C50.786 70.9591 51.8673 70.7738 53.2267 70.0941C54.427 69.4939 55.2978 68.7564 55.8406 67.8808C56.3826 67.0145 56.6536 66.0795 56.6536 65.0843Z" fill="#77818B"/>
<path fill-rule="evenodd" clip-rule="evenodd" d="M39.5656 25.2399L35.1562 27.4426V14.3864C35.1562 12.9731 35.9534 11.6868 37.2149 11.0574C40.7796 9.27424 48.1237 5.59753 52.3326 3.49416C53.0072 3.15741 53.8077 3.19049 54.4492 3.58797C55.0907 3.98546 55.481 4.68663 55.481 5.43744V17.2792L51.0722 19.4819V8.98717L39.5656 14.7451V25.2399Z" fill="#4A525A"/>
<path d="M96.3199 66.2834L54.4746 87.2061L75.3974 97.6675L117.243 76.7448L96.3199 66.2834Z" fill="#F6DD76"/>
<path fill-rule="evenodd" clip-rule="evenodd" d="M49.875 101.677L54.2475 87.2065L75.1709 97.6672L73.7134 113.596L49.875 101.677Z" fill="#F6CA12"/>
<path fill-rule="evenodd" clip-rule="evenodd" d="M117.095 76.7422L121.468 89.7556L73.793 113.592L75.2505 97.6635L117.095 76.7422Z" fill="#CFA115"/>
<path fill-rule="evenodd" clip-rule="evenodd" d="M75.1786 96.7938L54.2586 87.2123L74.4177 98.1975C74.2355 102.002 73.646 113.973 73.7211 113.598C73.8068 113.223 75.3715 101.82 75.8752 98.1653L117.029 76.7417L75.1786 96.7938Z" fill="#FEEFA3"/>
<path d="M126.677 81.5773L84.832 102.5L105.755 112.961L147.6 92.0387L126.677 81.5773Z" fill="#F6DD76"/>
<path fill-rule="evenodd" clip-rule="evenodd" d="M80.2324 116.971L84.6049 102.5L105.528 112.961L104.071 128.889L80.2324 116.971Z" fill="#F6CA12"/>
<path fill-rule="evenodd" clip-rule="evenodd" d="M147.453 92.0356L151.825 105.049L104.15 128.885L105.608 112.957L147.453 92.0356Z" fill="#CFA115"/>
<path fill-rule="evenodd" clip-rule="evenodd" d="M105.536 112.088L84.6161 102.506L104.775 113.491C104.593 117.296 104.003 129.267 104.078 128.892C104.164 128.517 105.729 117.114 106.233 113.459L147.387 92.0356L105.536 112.088Z" fill="#FEEFA3"/>
<path d="M91.7426 59.4992L133.588 80.4219L112.665 90.8833L70.8198 69.9606L91.7426 59.4992Z" fill="#F6DD76"/>
<path fill-rule="evenodd" clip-rule="evenodd" d="M138.188 94.8928L133.815 80.4219L112.892 90.8826L114.349 106.811L138.188 94.8928Z" fill="#CFA115"/>
<path fill-rule="evenodd" clip-rule="evenodd" d="M70.9672 69.9575L66.5947 82.9709L114.27 106.807L112.812 90.8789L70.9672 69.9575Z" fill="#F6CA12"/>
<path fill-rule="evenodd" clip-rule="evenodd" d="M112.884 90.0096L133.804 80.4282L113.645 91.4133C113.827 95.2179 114.416 107.189 114.341 106.814C114.256 106.439 112.691 95.0357 112.187 91.3811L71.0332 69.9575L112.884 90.0096Z" fill="#FEEFA3"/>
</svg>
