<svg width="170" height="133" viewBox="0 0 170 133" fill="none" xmlns="http://www.w3.org/2000/svg">
<path fill-rule="evenodd" clip-rule="evenodd" d="M108.551 38.1768V104.252L60.6244 128.214V62.1393L108.551 38.1768Z" fill="#9ECB63"/>
<path fill-rule="evenodd" clip-rule="evenodd" d="M60.7148 62.0824V128.157L11.9835 103.792V37.7168L60.7148 62.0824Z" fill="#BEDC8C"/>
<path fill-rule="evenodd" clip-rule="evenodd" d="M36.7969 66.6952V110.787L16.3274 100.553V56.4604L36.7969 66.6952Z" fill="#97C3E8"/>
<path fill-rule="evenodd" clip-rule="evenodd" d="M57.0352 76.8657V120.958L40.3711 112.626V68.5342L57.0352 76.8657Z" fill="#97C3E8"/>
<path fill-rule="evenodd" clip-rule="evenodd" d="M37.028 74.7549L16.5586 92.0024V95.4124L37.028 78.1572V74.7549ZM37.028 67.7295L16.5586 84.9847V90.2366L37.028 72.9814V67.7295Z" fill="#B3D8F2"/>
<path fill-rule="evenodd" clip-rule="evenodd" d="M57.141 90.1549L40.4766 104.198V107.608L57.141 93.5649V90.1549ZM57.141 83.1372L40.4766 97.1804V102.432L57.141 88.3815V83.1372Z" fill="#B3D8F2"/>
<path fill-rule="evenodd" clip-rule="evenodd" d="M36.7969 66.6952V110.787L16.3274 100.553V56.4604C23.1502 59.8724 29.9741 63.2833 36.7969 66.6952ZM17.6279 99.749L35.4963 108.683V67.4987L17.6279 58.5646V99.749Z" fill="#709447"/>
<path fill-rule="evenodd" clip-rule="evenodd" d="M57.0352 76.8657V120.958L40.3711 112.626V68.5342C45.9264 71.3114 51.4808 74.0885 57.0352 76.8657ZM41.6717 111.822L55.7346 118.854V77.6693L41.6717 70.6383V111.822Z" fill="#709447"/>
<path fill-rule="evenodd" clip-rule="evenodd" d="M59.8854 13.7988L108.617 38.1645L60.6902 62.1271L11.959 37.7614L59.8854 13.7988Z" fill="#DDEAB4"/>
<path fill-rule="evenodd" clip-rule="evenodd" d="M27.9595 28.1729L56.7568 42.5721L50.8765 45.5122L22.0781 31.113L27.9595 28.1729Z" fill="#FBCED0"/>
<path d="M26.2747 52.1251L19.3184 48.7559L7.05842 68.8132L14.0148 72.1824L26.2747 52.1251Z" fill="#FEF1F2"/>
<path d="M40.0735 58.9097L33.1172 55.5405L20.8572 75.5979L27.8136 78.9671L40.0735 58.9097Z" fill="#FEF1F2"/>
<path d="M53.8724 65.5792L46.916 62.21L34.6561 82.2673L41.6124 85.6365L53.8724 65.5792Z" fill="#FEF1F2"/>
<path fill-rule="evenodd" clip-rule="evenodd" d="M60.9524 69.0092L53.9963 65.6373L41.7365 85.6935L48.6926 89.0654L60.9524 69.0092ZM47.0402 62.2655L40.0841 58.9012L27.8244 78.9573L34.7804 82.3293L47.0402 62.2655ZM33.128 55.5294L26.1719 52.1651L13.9122 72.2212L20.8683 75.5855L33.128 55.5294ZM19.2158 48.7932L12.2597 45.4214L0 65.4775L6.95608 68.8494L19.2158 48.7932Z" fill="#F1595F"/>
<path fill-rule="evenodd" clip-rule="evenodd" d="M6.95605 68.8328C6.94387 71.6675 5.39038 73.2125 3.4784 72.2865C1.55881 71.3568 0 68.2816 0 65.4297L6.95605 68.7988V68.8328Z" fill="#A93C41"/>
<path fill-rule="evenodd" clip-rule="evenodd" d="M14.3154 72.1672C14.3032 75.002 12.7498 76.547 10.8378 75.621C8.91819 74.6912 7.35938 71.6274 7.35938 68.7642L14.3154 72.1332V72.1672Z" fill="#FBCED0"/>
<path fill-rule="evenodd" clip-rule="evenodd" d="M20.7549 75.6169C20.7427 78.4517 19.1892 79.9966 17.2772 79.0705C15.3576 78.1408 13.7988 75.0658 13.7988 72.2139L20.7549 75.583V75.6169Z" fill="#A93C41"/>
<path fill-rule="evenodd" clip-rule="evenodd" d="M28.1142 78.9519C28.1021 81.7866 26.5486 83.3315 24.6366 82.4055C22.717 81.4758 21.1582 78.4008 21.1582 75.5488L28.1142 78.9179V78.9519Z" fill="#FBCED0"/>
<path fill-rule="evenodd" clip-rule="evenodd" d="M34.5537 82.2864C34.5415 85.1211 32.988 86.666 31.0761 85.74C29.1565 84.8102 27.5977 81.7353 27.5977 78.8833L34.5537 82.2524V82.2864Z" fill="#A93C41"/>
<path fill-rule="evenodd" clip-rule="evenodd" d="M41.9131 85.7361C41.9009 88.5708 40.3474 90.1157 38.4354 89.1897C36.5158 88.2599 34.957 85.185 34.957 82.333L41.9131 85.7021V85.7361Z" fill="#FBCED0"/>
<path fill-rule="evenodd" clip-rule="evenodd" d="M48.3525 89.071C48.3404 91.9058 46.7869 93.4507 44.8749 92.5246C42.9553 91.5949 41.3965 88.5199 41.3965 85.668L48.3525 89.0371V89.071Z" fill="#A93C41"/>
<path fill-rule="evenodd" clip-rule="evenodd" d="M50.5957 45.4466V57.1528L21.7973 42.7536V31.0474L50.5957 45.4466Z" fill="#F1595F"/>
<path fill-rule="evenodd" clip-rule="evenodd" d="M51.5156 45.4876V57.1938L57.3959 54.2537V42.5464L51.5156 45.4876Z" fill="#F7A6A3"/>
<path d="M28.4108 41.6228C28.4108 41.4134 28.3429 41.2049 28.2204 41.0041C28.098 40.8033 27.9483 40.6061 27.7578 40.4061C27.5673 40.1888 27.3632 39.9821 27.1456 39.7511C26.9279 39.5201 26.7238 39.2785 26.5333 39.0088C26.3429 38.7391 26.1933 38.455 26.0708 38.1321C25.9348 37.8024 25.8803 37.4438 25.8803 37.0425C25.8803 36.6935 25.9211 36.417 26.0164 36.2204C26.098 35.9995 26.234 35.8583 26.3973 35.7654C26.5605 35.6726 26.7647 35.6523 26.996 35.6981C27.2136 35.7197 27.4721 35.8142 27.7578 35.957C28.0707 36.1135 28.3837 36.3051 28.6694 36.5178C28.9551 36.7304 29.1864 36.9506 29.3769 37.168L29.0367 38.1845C28.9143 38.0186 28.7374 37.8429 28.5061 37.6575C28.2748 37.4546 28.0163 37.2899 27.7578 37.1606C27.4993 37.0314 27.3089 37.0062 27.1728 37.0603C27.0368 37.1144 26.9687 37.2549 26.9687 37.4817C26.9687 37.6736 27.0232 37.8751 27.1593 38.0827C27.2817 38.2835 27.4313 38.481 27.6217 38.6983C27.8122 38.8982 28.0163 39.1224 28.234 39.3534C28.4517 39.5844 28.6557 39.826 28.8462 40.0957C29.0367 40.3654 29.1864 40.6495 29.3088 40.9724C29.4313 41.2954 29.4992 41.6434 29.4992 42.0272C29.4992 42.3936 29.4449 42.6976 29.3496 42.9291C29.2544 43.1606 29.1183 43.3198 28.9415 43.4059C28.7646 43.5094 28.5469 43.5398 28.302 43.5046C28.0435 43.4626 27.7715 43.3613 27.4721 43.2117C27.064 43.0076 26.7238 42.7857 26.4245 42.5488C26.1116 42.3051 25.8939 42.0913 25.7578 41.936L26.0979 40.9025C26.166 40.9889 26.234 41.0572 26.3293 41.1572C26.4245 41.2572 26.5197 41.3398 26.6421 41.4534C26.751 41.5427 26.8871 41.6456 27.0095 41.7243C27.1456 41.8272 27.268 41.906 27.4177 41.9808C27.7306 42.1373 27.9755 42.1901 28.1524 42.139C28.3293 42.0878 28.4108 41.9194 28.4108 41.6228Z" fill="white"/>
<path d="M33.7775 40.5505L32.1585 39.741V45.6213L31.0701 45.0771V39.1968L29.4375 38.3805V37.1421L33.7775 39.3121V40.5505Z" fill="white"/>
<path d="M34.0371 42.9107C34.0371 41.7242 34.2412 40.9017 34.6493 40.4776C35.0575 40.0362 35.6289 40.0078 36.3907 40.3887C36.7853 40.586 37.1391 40.8502 37.4248 41.1675C37.7241 41.4916 37.969 41.8585 38.1731 42.292C38.3635 42.7187 38.5131 43.1772 38.6083 43.6785C38.7036 44.1797 38.7444 44.706 38.7444 45.2643C38.7444 46.4507 38.5403 47.2558 38.1322 47.6973C37.724 48.1388 37.139 48.1603 36.3907 47.7862C35.9826 47.5821 35.6424 47.3248 35.3431 47.0007C35.0438 46.6766 34.799 46.3104 34.6085 45.8837C34.4181 45.457 34.2684 44.9977 34.1732 44.4965C34.0779 43.9952 34.0371 43.469 34.0371 42.9107ZM35.18 43.4821C35.18 43.831 35.2072 44.176 35.248 44.5105C35.3024 44.8343 35.3704 45.1304 35.4656 45.3874C35.5609 45.6618 35.6833 45.8975 35.8465 46.1013C35.9962 46.2982 36.1731 46.439 36.3907 46.5478C36.7717 46.7383 37.0711 46.696 37.2888 46.4209C37.4928 46.1391 37.6016 45.5653 37.6016 44.6929C37.6016 44.344 37.588 44.0235 37.5336 43.6823C37.4928 43.3652 37.4248 43.0691 37.3295 42.8121C37.2343 42.5377 37.1119 42.3024 36.9486 42.0812C36.799 41.8842 36.6084 41.7366 36.3907 41.6278C36.0098 41.4373 35.7105 41.4793 35.4929 41.7718C35.2888 42.071 35.18 42.6272 35.18 43.4821Z" fill="white"/>
<path d="M39.5566 42.1462C39.6791 42.1725 39.8152 42.2231 39.9512 42.2562C40.1009 42.3136 40.2369 42.364 40.3729 42.4146C40.5226 42.472 40.6586 42.5401 40.7811 42.5839C40.9171 42.6519 41.0396 42.7132 41.1484 42.7676C41.4069 42.8968 41.6654 43.061 41.9103 43.2357C42.1688 43.4348 42.3864 43.6484 42.5905 43.8901C42.7946 44.1491 42.9442 44.4333 43.0667 44.7388C43.1891 45.0618 43.2437 45.4204 43.2437 45.8217C43.2437 46.3975 43.1347 46.8143 42.9306 47.0787C42.713 47.3363 42.4273 47.4549 42.0735 47.4176L42.4681 47.9291L43.7334 51.2838L42.4817 50.6579L41.2165 47.2337L40.645 46.8253V49.7396L39.5566 49.1954V42.1462ZM41.23 44.0474C41.1212 43.993 41.0124 43.9382 40.9036 43.9012C40.7947 43.8468 40.7131 43.824 40.645 43.8074V45.8657L41.1077 46.097C41.407 46.2467 41.6518 46.2818 41.8287 46.1958C42.0056 46.1098 42.1008 45.8608 42.1008 45.4595C42.1008 45.1629 42.0328 44.885 41.8832 44.6357C41.7335 44.3864 41.5157 44.1903 41.23 44.0474Z" fill="white"/>
<path d="M44.1562 44.5015L47.4487 46.1477V47.386L45.2447 46.284V47.9415L47.2447 48.9415V50.1806L45.2447 49.1806V50.9253L47.4895 52.0477V53.2868L44.1562 51.6202V44.5015Z" fill="white"/>
<path fill-rule="evenodd" clip-rule="evenodd" d="M80.1903 52.6155L72.6738 48.8574L93.5751 38.4067L100.717 41.9776L80.1903 52.6155Z" fill="#9ECB63"/>
<path fill-rule="evenodd" clip-rule="evenodd" d="M80.0332 118.686V52.6108L93.4928 45.8809V111.931L80.0332 118.686Z" fill="#709447"/>
<path d="M169.266 98.2796L163.986 95.6399C152.332 89.7797 150.606 77.9761 150.788 74.4068V25.9643C150.755 15.0075 143.849 5.81042 136.245 2.45696L131.332 0L68.4129 31.4427L68.4622 31.4925L73.3103 33.9164C80.9136 37.2698 87.8194 46.4836 87.8526 57.4404V105.866C87.6866 109.436 89.3965 121.256 101.051 127.116L106.33 129.756L169.266 98.2796Z" fill="#E4E9EF"/>
<path fill-rule="evenodd" clip-rule="evenodd" d="M121.358 74.2093C121.358 73.1749 120.679 72.6692 119.852 73.0829L117.427 74.2897C116.588 74.7149 115.91 75.8986 115.91 76.933C115.91 77.9788 116.588 78.4846 117.427 78.0708L119.852 76.8526C120.679 76.4389 121.358 75.2551 121.358 74.2093ZM128.46 63.3372C128.46 62.3028 127.782 61.797 126.954 62.2108L119.657 65.8656C118.818 66.2793 118.14 67.4631 118.14 68.4975C118.14 69.5433 118.818 70.0488 119.657 69.6351L126.954 65.9805C127.782 65.5668 128.46 64.383 128.46 63.3372ZM132.23 54.0509C132.23 53.0165 131.552 52.511 130.724 52.9247L124.506 56.0278C123.667 56.453 123.001 57.6253 123.001 58.6711C123.001 59.717 123.667 60.2225 124.506 59.7973L130.724 56.6942C131.552 56.2805 132.23 55.0967 132.23 54.0509Z" fill="#77818B"/>
<path d="M106.331 129.784L169.266 98.3164V101.024L106.331 132.491V129.784Z" fill="#BCC2C8"/>
<path d="M106.711 129.701L101.44 127.051C89.7925 121.198 88.0742 109.375 88.2489 105.793V57.3671C88.1907 46.4181 81.2893 37.2165 73.6891 33.8678L68.7678 31.3926V34.1004L72.6119 36.0227C79.2803 39.2259 85.7737 46.8839 85.8028 57.3961V105.822C85.9193 115.781 91.3646 124.605 100.363 129.206L106.711 132.409V129.701Z" fill="#CBD0D6"/>
<path fill-rule="evenodd" clip-rule="evenodd" d="M112.869 56.1859C112.869 55.1454 112.194 54.6383 111.362 55.0545L99.9392 60.7657C99.1068 61.1819 98.4316 62.3643 98.4316 63.4048C98.4316 64.4452 99.1068 64.9524 99.9392 64.5362L111.362 58.8249C112.194 58.4087 112.869 57.2263 112.869 56.1859Z" fill="#77818B"/>
<path fill-rule="evenodd" clip-rule="evenodd" d="M129.563 28.2739C129.005 26.8887 127.488 26.4091 126.156 27.0749L108.449 35.9283C107.456 36.4249 107.17 37.9369 107.729 39.3221C108.287 40.7073 109.594 41.3871 110.472 40.9479L128.744 31.812C130.076 31.1463 130.122 29.6591 129.563 28.2739Z" fill="#77818B"/>
<path fill-rule="evenodd" clip-rule="evenodd" d="M124.437 50.5174C124.437 49.4769 123.762 48.9696 122.929 49.3862L117.418 52.1415C116.585 52.558 115.91 53.7403 115.91 54.7807C115.91 55.8212 116.585 56.3285 117.418 55.9119L122.929 53.1566C123.762 52.74 124.437 51.5578 124.437 50.5174Z" fill="#77818B"/>
<path fill-rule="evenodd" clip-rule="evenodd" d="M112.869 78.264C112.869 77.2236 112.194 76.7164 111.362 77.1326L99.9392 82.8439C99.1068 83.2601 98.4316 84.4424 98.4316 85.4829C98.4316 86.5233 99.1068 87.0305 99.9392 86.6143L111.362 80.903C112.194 80.4868 112.869 79.3044 112.869 78.264Z" fill="#77818B"/>
<path fill-rule="evenodd" clip-rule="evenodd" d="M134.34 45.6809C134.34 44.6405 133.665 44.1334 132.832 44.5496L128.457 46.7373C127.625 47.1535 126.949 48.336 126.949 49.3764C126.949 50.4169 127.625 50.9239 128.457 50.5077L132.832 48.32C133.665 47.9038 134.34 46.7213 134.34 45.6809Z" fill="#77818B"/>
<path fill-rule="evenodd" clip-rule="evenodd" d="M120.821 60.0293C120.821 58.9888 120.146 58.4819 119.314 58.8976L110.978 63.0658C110.146 63.4815 109.471 64.6641 109.471 65.7046C109.471 66.745 110.146 67.2519 110.978 66.8362L119.314 62.668C120.146 62.2523 120.821 61.0697 120.821 60.0293Z" fill="#77818B"/>
<path fill-rule="evenodd" clip-rule="evenodd" d="M105.853 67.0535C105.853 66.013 105.178 65.5058 104.345 65.9222L99.9396 68.1249C99.1068 68.5413 98.4316 69.7237 98.4316 70.7641C98.4316 71.8045 99.1068 72.3117 99.9396 71.8953L104.345 69.6926C105.178 69.2762 105.853 68.0939 105.853 67.0535Z" fill="#77818B"/>
<path fill-rule="evenodd" clip-rule="evenodd" d="M115.09 69.9096C115.09 68.8691 114.414 68.3624 113.583 68.7777L99.9383 75.6002C99.1077 76.0155 98.4316 77.1983 98.4316 78.2387C98.4316 79.2792 99.1077 79.7859 99.9383 79.3706L113.583 72.5481C114.414 72.1328 115.09 70.95 115.09 69.9096Z" fill="#77818B"/>
<path fill-rule="evenodd" clip-rule="evenodd" d="M146.308 93.3199C145.831 92.6243 144.837 92.3625 144.091 92.7359L134.741 97.4105C133.995 97.784 133.776 98.6517 134.253 99.3473C134.73 100.043 135.723 100.305 136.47 99.9314L145.819 95.2567C146.566 94.8833 146.785 94.0155 146.308 93.3199Z" fill="#5682A7"/>
<path fill-rule="evenodd" clip-rule="evenodd" d="M132.502 100.452C132.025 99.7567 131.031 99.4952 130.284 99.8686L125.543 102.239C124.796 102.613 124.577 103.481 125.054 104.176C125.531 104.872 126.525 105.134 127.271 104.76L132.013 102.389C132.76 102.016 132.979 101.148 132.502 100.452Z" fill="#77818B"/>
<path fill-rule="evenodd" clip-rule="evenodd" d="M108.359 117.326C102.094 114.119 99.4749 107.426 100.481 96.5302L113.269 90.1461V83.4732L126.146 77.0295V67.6575L139.572 60.9448V90.3254L108.359 117.326Z" fill="#BBC0C7"/>
<path d="M106.551 129.444L169.266 98.0869V100.785L106.551 132.142V129.444Z" fill="#BBC0C7"/>
<path fill-rule="evenodd" clip-rule="evenodd" d="M133.991 97.7465C133.991 97.6189 133.991 100.074 133.991 100.074C133.991 102.426 137.567 104.333 141.968 104.333H142.022C146.399 104.318 149.947 102.416 149.947 100.074C149.947 100.074 149.947 97.6189 149.947 97.7465C149.947 100.096 146.371 102.005 141.968 102.005C137.567 102.005 133.991 100.096 133.991 97.7465Z" fill="#F6CA12"/>
<path d="M141.97 102.006C137.564 102.006 133.992 100.099 133.992 97.7466C133.992 95.3943 137.564 93.4873 141.97 93.4873C146.376 93.4873 149.947 95.3943 149.947 97.7466C149.947 100.099 146.376 102.006 141.97 102.006Z" fill="#FEEFA3"/>
<path fill-rule="evenodd" clip-rule="evenodd" d="M133.986 94.872C133.986 94.7444 133.986 97.1991 133.986 97.1991C133.986 99.5513 137.562 101.458 141.963 101.458H142.017C146.394 101.443 149.942 99.5413 149.942 97.1991C149.942 97.1991 149.942 94.7444 149.942 94.872C149.942 97.2217 146.366 99.1309 141.963 99.1309C137.562 99.1309 133.986 97.2217 133.986 94.872Z" fill="#F6CA12"/>
<path d="M141.965 99.1315C137.559 99.1315 133.987 97.2245 133.987 94.8721C133.987 92.5198 137.559 90.6128 141.965 90.6128C146.371 90.6128 149.942 92.5198 149.942 94.8721C149.942 97.2245 146.371 99.1315 141.965 99.1315Z" fill="#FEEFA3"/>
<path fill-rule="evenodd" clip-rule="evenodd" d="M133.991 91.767C133.991 91.6394 133.991 94.0941 133.991 94.0941C133.991 96.4463 137.567 98.3531 141.968 98.3531H142.022C146.399 98.338 149.947 96.4363 149.947 94.0941C149.947 94.0941 149.947 91.6394 149.947 91.767C149.947 94.1167 146.371 96.0259 141.968 96.0259C137.567 96.0259 133.991 94.1167 133.991 91.767Z" fill="#F6CA12"/>
<path d="M141.97 96.0265C137.564 96.0265 133.992 94.1195 133.992 91.7671C133.992 89.4148 137.564 87.5078 141.97 87.5078C146.376 87.5078 149.947 89.4148 149.947 91.7671C149.947 94.1195 146.376 96.0265 141.97 96.0265Z" fill="#FEEFA3"/>
<path fill-rule="evenodd" clip-rule="evenodd" d="M133.991 89.0077C133.991 88.8801 133.991 91.3349 133.991 91.3349C133.991 93.687 137.567 95.5938 141.968 95.5938H142.022C146.399 95.5788 149.947 93.677 149.947 91.3349C149.947 91.3349 149.947 88.8801 149.947 89.0077C149.947 91.3574 146.371 93.2667 141.968 93.2667C137.567 93.2667 133.991 91.3574 133.991 89.0077Z" fill="#F6CA12"/>
<path d="M141.97 93.2667C137.564 93.2667 133.992 91.3598 133.992 89.0074C133.992 86.655 137.564 84.748 141.97 84.748C146.376 84.748 149.947 86.655 149.947 89.0074C149.947 91.3598 146.376 93.2667 141.97 93.2667Z" fill="#FEEFA3"/>
<path fill-rule="evenodd" clip-rule="evenodd" d="M134.911 86.7079C134.911 86.5803 134.911 89.0351 134.911 89.0351C134.911 91.3872 138.487 93.294 142.888 93.294H142.942C147.319 93.279 150.867 91.3772 150.867 89.0351C150.867 89.0351 150.867 86.5803 150.867 86.7079C150.867 89.0576 147.291 90.9669 142.888 90.9669C138.487 90.9669 134.911 89.0576 134.911 86.7079Z" fill="#F6CA12"/>
<path d="M142.89 90.9669C138.484 90.9669 134.912 89.0599 134.912 86.7076C134.912 84.3552 138.484 82.4482 142.89 82.4482C147.295 82.4482 150.867 84.3552 150.867 86.7076C150.867 89.0599 147.295 90.9669 142.89 90.9669Z" fill="#FEEFA3"/>
<path fill-rule="evenodd" clip-rule="evenodd" d="M133.991 83.8329C133.991 83.7053 133.991 86.1601 133.991 86.1601C133.991 88.5122 137.567 90.419 141.968 90.419H142.022C146.399 90.404 149.947 88.5022 149.947 86.1601C149.947 86.1601 149.947 83.7053 149.947 83.8329C149.947 86.1826 146.371 88.0919 141.968 88.0919C137.567 88.0919 133.991 86.1826 133.991 83.8329Z" fill="#F6CA12"/>
<path d="M141.97 88.0924C137.564 88.0924 133.992 86.1854 133.992 83.8331C133.992 81.4807 137.564 79.5737 141.97 79.5737C146.376 79.5737 149.947 81.4807 149.947 83.8331C149.947 86.1854 146.376 88.0924 141.97 88.0924Z" fill="#FEEFA3"/>
<path fill-rule="evenodd" clip-rule="evenodd" d="M134.911 80.7284C134.911 80.6008 134.911 83.0556 134.911 83.0556C134.911 85.4077 138.487 87.3145 142.888 87.3145H142.942C147.319 87.2995 150.867 85.3977 150.867 83.0556C150.867 83.0556 150.867 80.6008 150.867 80.7284C150.867 83.0781 147.291 84.9874 142.888 84.9874C138.487 84.9874 134.911 83.0781 134.911 80.7284Z" fill="#F6CA12"/>
<path d="M142.89 84.9874C138.484 84.9874 134.912 83.0805 134.912 80.7281C134.912 78.3757 138.484 76.4688 142.89 76.4688C147.295 76.4688 150.867 78.3757 150.867 80.7281C150.867 83.0805 147.295 84.9874 142.89 84.9874Z" fill="#FEEFA3"/>
<path fill-rule="evenodd" clip-rule="evenodd" d="M134.906 77.8539C134.906 77.7263 134.906 80.181 134.906 80.181C134.906 82.5332 138.482 84.44 142.883 84.44H142.937C147.314 84.425 150.862 82.5232 150.862 80.181C150.862 80.181 150.862 77.7263 150.862 77.8539C150.862 80.2036 147.286 82.1128 142.883 82.1128C138.482 82.1128 134.906 80.2036 134.906 77.8539Z" fill="#F6CA12"/>
<path d="M142.885 82.1129C138.479 82.1129 134.907 80.2059 134.907 77.8536C134.907 75.5012 138.479 73.5942 142.885 73.5942C147.291 73.5942 150.862 75.5012 150.862 77.8536C150.862 80.2059 147.291 82.1129 142.885 82.1129Z" fill="#FEEFA3"/>
<path fill-rule="evenodd" clip-rule="evenodd" d="M133.991 75.0937C133.991 74.9661 133.991 77.4208 133.991 77.4208C133.991 79.773 137.567 81.6797 141.968 81.6797H142.022C146.399 81.6647 149.947 79.7629 149.947 77.4208C149.947 77.4208 149.947 74.9661 149.947 75.0937C149.947 77.4433 146.371 79.3526 141.968 79.3526C137.567 79.3526 133.991 77.4433 133.991 75.0937Z" fill="#F6CA12"/>
<path d="M141.97 79.3527C137.564 79.3527 133.992 77.4457 133.992 75.0933C133.992 72.741 137.564 70.834 141.97 70.834C146.376 70.834 149.947 72.741 149.947 75.0933C149.947 77.4457 146.376 79.3527 141.97 79.3527Z" fill="#FEEFA3"/>
<path fill-rule="evenodd" clip-rule="evenodd" d="M134.906 71.9892C134.906 71.8616 134.906 74.3163 134.906 74.3163C134.906 76.6685 138.482 78.5752 142.883 78.5752H142.937C147.314 78.5602 150.862 76.6585 150.862 74.3163C150.862 74.3163 150.862 71.8616 150.862 71.9892C150.862 74.3388 147.286 76.2481 142.883 76.2481C138.482 76.2481 134.906 74.3388 134.906 71.9892Z" fill="#F6CA12"/>
<path d="M142.885 76.2482C138.479 76.2482 134.907 74.3412 134.907 71.9888C134.907 69.6365 138.479 67.7295 142.885 67.7295C147.291 67.7295 150.862 69.6365 150.862 71.9888C150.862 74.3412 147.291 76.2482 142.885 76.2482Z" fill="#FEEFA3"/>
<path fill-rule="evenodd" clip-rule="evenodd" d="M133.991 68.7695C133.991 68.6418 133.991 71.0966 133.991 71.0966C133.991 73.4487 137.567 75.3555 141.968 75.3555H142.022C146.399 75.3405 149.947 73.4387 149.947 71.0966C149.947 71.0966 149.947 68.6418 149.947 68.7695C149.947 71.1191 146.371 73.0284 141.968 73.0284C137.567 73.0284 133.991 71.1191 133.991 68.7695Z" fill="#F6CA12"/>
<path d="M141.97 73.0285C137.564 73.0285 133.992 71.1215 133.992 68.7691C133.992 66.4167 137.564 64.5098 141.97 64.5098C146.376 64.5098 149.947 66.4167 149.947 68.7691C149.947 71.1215 146.376 73.0285 141.97 73.0285Z" fill="#FEEFA3"/>
<path fill-rule="evenodd" clip-rule="evenodd" d="M149.013 69.0181C149.023 68.9327 149.027 68.8473 149.027 68.7669C149.027 66.7326 145.937 65.085 142.131 65.085C138.325 65.085 135.235 66.7326 135.235 68.7669C135.235 68.8473 135.244 68.9327 135.254 69.0181C135.494 67.0993 138.485 65.5873 142.131 65.5873C145.781 65.5873 148.769 67.0993 149.013 69.0181Z" fill="#F6CA12"/>
<path fill-rule="evenodd" clip-rule="evenodd" d="M119.267 105.336C119.267 105.209 119.267 107.663 119.267 107.663C119.267 110.016 122.843 111.922 127.244 111.922H127.298C131.676 111.907 135.224 110.006 135.224 107.663C135.224 107.663 135.224 105.209 135.224 105.336C135.224 107.686 131.648 109.595 127.244 109.595C122.843 109.595 119.267 107.686 119.267 105.336Z" fill="#F6CA12"/>
<path d="M127.246 109.595C122.84 109.595 119.268 107.688 119.268 105.336C119.268 102.984 122.84 101.077 127.246 101.077C131.652 101.077 135.224 102.984 135.224 105.336C135.224 107.688 131.652 109.595 127.246 109.595Z" fill="#FEEFA3"/>
<path fill-rule="evenodd" clip-rule="evenodd" d="M120.187 103.036C120.187 102.908 120.187 105.363 120.187 105.363C120.187 107.715 123.763 109.622 128.164 109.622H128.218C132.596 109.607 136.144 107.705 136.144 105.363C136.144 105.363 136.144 102.908 136.144 103.036C136.144 105.386 132.568 107.295 128.164 107.295C123.763 107.295 120.187 105.386 120.187 103.036Z" fill="#F6CA12"/>
<path d="M128.166 107.296C123.76 107.296 120.188 105.389 120.188 103.036C120.188 100.684 123.76 98.7769 128.166 98.7769C132.572 98.7769 136.144 100.684 136.144 103.036C136.144 105.389 132.572 107.296 128.166 107.296Z" fill="#FEEFA3"/>
<path fill-rule="evenodd" clip-rule="evenodd" d="M119.272 100.162C119.272 100.034 119.272 102.489 119.272 102.489C119.272 104.841 122.848 106.748 127.249 106.748H127.303C131.681 106.733 135.229 104.831 135.229 102.489C135.229 102.489 135.229 100.034 135.229 100.162C135.229 102.511 131.652 104.42 127.249 104.42C122.848 104.42 119.272 102.511 119.272 100.162Z" fill="#F6CA12"/>
<path d="M127.251 104.421C122.845 104.421 119.273 102.514 119.273 100.161C119.273 97.8088 122.845 95.9019 127.251 95.9019C131.657 95.9019 135.229 97.8088 135.229 100.161C135.229 102.514 131.657 104.421 127.251 104.421Z" fill="#FEEFA3"/>
<path fill-rule="evenodd" clip-rule="evenodd" d="M120.192 97.0571C120.192 96.9294 120.192 99.3842 120.192 99.3842C120.192 101.736 123.768 103.643 128.169 103.643H128.223C132.601 103.628 136.148 101.726 136.148 99.3842C136.148 99.3842 136.148 96.9294 136.148 97.0571C136.148 99.4067 132.572 101.316 128.169 101.316C123.768 101.316 120.192 99.4067 120.192 97.0571Z" fill="#F6CA12"/>
<path d="M128.171 101.316C123.765 101.316 120.193 99.4091 120.193 97.0567C120.193 94.7043 123.765 92.7974 128.171 92.7974C132.577 92.7974 136.148 94.7043 136.148 97.0567C136.148 99.4091 132.577 101.316 128.171 101.316Z" fill="#FEEFA3"/>
<path fill-rule="evenodd" clip-rule="evenodd" d="M119.272 94.1821C119.272 94.0544 119.272 96.5092 119.272 96.5092C119.272 98.8613 122.848 100.768 127.249 100.768H127.303C131.681 100.753 135.229 98.8513 135.229 96.5092C135.229 96.5092 135.229 94.0544 135.229 94.1821C135.229 96.5317 131.652 98.441 127.249 98.441C122.848 98.441 119.272 96.5317 119.272 94.1821Z" fill="#F6CA12"/>
<path d="M127.251 98.4415C122.845 98.4415 119.273 96.5346 119.273 94.1822C119.273 91.8298 122.845 89.9229 127.251 89.9229C131.657 89.9229 135.229 91.8298 135.229 94.1822C135.229 96.5346 131.657 98.4415 127.251 98.4415Z" fill="#FEEFA3"/>
<path fill-rule="evenodd" clip-rule="evenodd" d="M119.272 91.4223C119.272 91.2947 119.272 93.7494 119.272 93.7494C119.272 96.1016 122.848 98.0083 127.249 98.0083H127.303C131.681 97.9933 135.229 96.0916 135.229 93.7494C135.229 93.7494 135.229 91.2947 135.229 91.4223C135.229 93.7719 131.652 95.6812 127.249 95.6812C122.848 95.6812 119.272 93.7719 119.272 91.4223Z" fill="#F6CA12"/>
<path d="M127.251 95.6813C122.845 95.6813 119.273 93.7743 119.273 91.4219C119.273 89.0696 122.845 87.1626 127.251 87.1626C131.657 87.1626 135.229 89.0696 135.229 91.4219C135.229 93.7743 131.657 95.6813 127.251 95.6813Z" fill="#FEEFA3"/>
<path fill-rule="evenodd" clip-rule="evenodd" d="M119.272 88.2031C119.272 88.0754 119.272 90.5302 119.272 90.5302C119.272 92.8823 122.848 94.7891 127.249 94.7891H127.303C131.681 94.7741 135.229 92.8723 135.229 90.5302C135.229 90.5302 135.229 88.0754 135.229 88.2031C135.229 90.5527 131.652 92.462 127.249 92.462C122.848 92.462 119.272 90.5527 119.272 88.2031Z" fill="#F6CA12"/>
<path d="M127.251 92.4621C122.845 92.4621 119.273 90.5551 119.273 88.2027C119.273 85.8503 122.845 83.9434 127.251 83.9434C131.657 83.9434 135.229 85.8503 135.229 88.2027C135.229 90.5551 131.657 92.4621 127.251 92.4621Z" fill="#FEEFA3"/>
<path fill-rule="evenodd" clip-rule="evenodd" d="M119.272 85.0981C119.272 84.9705 119.272 87.4252 119.272 87.4252C119.272 89.7774 122.848 91.6841 127.249 91.6841H127.303C131.681 91.6691 135.229 89.7673 135.229 87.4252C135.229 87.4252 135.229 84.9705 135.229 85.0981C135.229 87.4477 131.652 89.357 127.249 89.357C122.848 89.357 119.272 87.4477 119.272 85.0981Z" fill="#F6CA12"/>
<path d="M127.251 89.3571C122.845 89.3571 119.273 87.4501 119.273 85.0977C119.273 82.7453 122.845 80.8384 127.251 80.8384C131.657 80.8384 135.229 82.7453 135.229 85.0977C135.229 87.4501 131.657 89.3571 127.251 89.3571Z" fill="#FEEFA3"/>
<path fill-rule="evenodd" clip-rule="evenodd" d="M134.29 85.3467C134.299 85.2613 134.304 85.1759 134.304 85.0956C134.304 83.0612 131.213 81.4136 127.407 81.4136C123.602 81.4136 120.511 83.0612 120.511 85.0956C120.511 85.1759 120.521 85.2613 120.53 85.3467C120.77 83.4279 123.762 81.9159 127.407 81.9159C131.058 81.9159 134.045 83.4279 134.29 85.3467Z" fill="#F6CA12"/>
<path fill-rule="evenodd" clip-rule="evenodd" d="M105.473 111.891C105.473 111.763 105.473 114.218 105.473 114.218C105.473 116.57 109.05 118.477 113.45 118.477H113.504C117.882 118.462 121.43 116.56 121.43 114.218C121.43 114.218 121.43 111.763 121.43 111.891C121.43 114.24 117.854 116.149 113.45 116.149C109.05 116.149 105.473 114.24 105.473 111.891Z" fill="#F6CA12"/>
<path d="M113.452 116.15C109.046 116.15 105.475 114.243 105.475 111.89C105.475 109.538 109.046 107.631 113.452 107.631C117.858 107.631 121.43 109.538 121.43 111.89C121.43 114.243 117.858 116.15 113.452 116.15Z" fill="#FEEFA3"/>
<path fill-rule="evenodd" clip-rule="evenodd" d="M106.393 109.017C106.393 108.889 106.393 111.344 106.393 111.344C106.393 113.696 109.969 115.603 114.37 115.603H114.424C118.802 115.588 122.35 113.686 122.35 111.344C122.35 111.344 122.35 108.889 122.35 109.017C122.35 111.366 118.774 113.275 114.37 113.275C109.969 113.275 106.393 111.366 106.393 109.017Z" fill="#F6CA12"/>
<path d="M114.372 113.275C109.966 113.275 106.394 111.368 106.394 109.016C106.394 106.663 109.966 104.756 114.372 104.756C118.778 104.756 122.35 106.663 122.35 109.016C122.35 111.368 118.778 113.275 114.372 113.275Z" fill="#FEEFA3"/>
<path fill-rule="evenodd" clip-rule="evenodd" d="M105.473 106.256C105.473 106.128 105.473 108.583 105.473 108.583C105.473 110.935 109.05 112.842 113.45 112.842H113.504C117.882 112.827 121.43 110.925 121.43 108.583C121.43 108.583 121.43 106.128 121.43 106.256C121.43 108.605 117.854 110.515 113.45 110.515C109.05 110.515 105.473 108.605 105.473 106.256Z" fill="#F6CA12"/>
<path d="M113.452 110.515C109.046 110.515 105.475 108.608 105.475 106.256C105.475 103.904 109.046 101.997 113.452 101.997C117.858 101.997 121.43 103.904 121.43 106.256C121.43 108.608 117.858 110.515 113.452 110.515Z" fill="#FEEFA3"/>
<path fill-rule="evenodd" clip-rule="evenodd" d="M106.393 103.151C106.393 103.024 106.393 105.478 106.393 105.478C106.393 107.831 109.969 109.737 114.37 109.737H114.424C118.802 109.722 122.35 107.821 122.35 105.478C122.35 105.478 122.35 103.024 122.35 103.151C122.35 105.501 118.774 107.41 114.37 107.41C109.969 107.41 106.393 105.501 106.393 103.151Z" fill="#F6CA12"/>
<path d="M114.372 107.41C109.966 107.41 106.394 105.503 106.394 103.151C106.394 100.799 109.966 98.8916 114.372 98.8916C118.778 98.8916 122.35 100.799 122.35 103.151C122.35 105.503 118.778 107.41 114.372 107.41Z" fill="#FEEFA3"/>
<path fill-rule="evenodd" clip-rule="evenodd" d="M105.473 99.9316C105.473 99.8039 105.473 102.259 105.473 102.259C105.473 104.611 109.05 106.518 113.45 106.518H113.504C117.882 106.503 121.43 104.601 121.43 102.259C121.43 102.259 121.43 99.8039 121.43 99.9316C121.43 102.281 117.854 104.19 113.45 104.19C109.05 104.19 105.473 102.281 105.473 99.9316Z" fill="#F6CA12"/>
<path d="M113.452 104.191C109.046 104.191 105.475 102.284 105.475 99.9312C105.475 97.5788 109.046 95.6719 113.452 95.6719C117.858 95.6719 121.43 97.5788 121.43 99.9312C121.43 102.284 117.858 104.191 113.452 104.191Z" fill="#FEEFA3"/>
<path fill-rule="evenodd" clip-rule="evenodd" d="M120.496 100.18C120.505 100.095 120.51 100.009 120.51 99.929C120.51 97.8947 117.419 96.2471 113.613 96.2471C109.808 96.2471 106.717 97.8947 106.717 99.929C106.717 100.009 106.727 100.095 106.736 100.18C106.976 98.2614 109.968 96.7494 113.613 96.7494C117.264 96.7494 120.251 98.2614 120.496 100.18Z" fill="#F6CA12"/>
</svg>
