<?xml version="1.0" standalone="no"?>
<svg width="600" height="600" viewBox="0 0 600 600" xmlns="http://www.w3.org/2000/svg">
	<g transform="translate(300,300)">
		<path d="M121,-176.5C159.6,-163.6,195.3,-134.6,215.7,-96.5C236.2,-58.5,241.3,-11.5,220.7,21.5C200.1,54.6,153.7,73.8,125.3,111.1C96.9,148.3,86.5,203.7,55.2,233.9C23.9,264.2,-28.4,269.3,-68.5,249.9C-108.6,230.5,-136.7,186.6,-147,144.3C-157.3,102,-149.9,61.2,-161,19.9C-172,-21.5,-201.5,-63.5,-204.5,-108.4C-207.4,-153.3,-183.7,-201.2,-145.2,-214.1C-106.7,-227,-53.3,-205,-6,-195.6C41.3,-186.2,82.5,-189.4,121,-176.5Z" fill="#663399" fill-opacity="0.7" />
	</g>
</svg>
