<?xml version="1.0" standalone="no"?>
<svg width="600" height="600" viewBox="0 0 600 600" xmlns="http://www.w3.org/2000/svg">
	<g transform="translate(300,300)">
		<path d="M111.1,-168C145.1,-151,174.4,-122,195.4,-86.3C216.3,-50.5,228.9,-7.9,218,27.6C207.1,63.1,172.7,91.5,143.3,122.6C113.9,153.8,89.5,187.7,53.4,212.2C17.3,236.7,-30.5,251.7,-64.2,234.5C-97.8,217.3,-117.3,167.9,-138.7,128.4C-160.2,88.9,-183.5,59.3,-199.4,21.9C-215.2,-15.5,-223.6,-60.7,-206.1,-92C-188.5,-123.3,-145.1,-140.7,-106.4,-155.6C-67.8,-170.4,-33.9,-182.7,2.3,-186.4C38.6,-190,77.1,-185,111.1,-168Z" fill="#663399" fill-opacity="0.7" />
	</g>
</svg>
