<svg id="eua7cmrp6boj1" xmlns="http://www.w3.org/2000/svg" xmlns:xlink="http://www.w3.org/1999/xlink" viewBox="0 0 646.512000 706.977000" shape-rendering="geometricPrecision" text-rendering="geometricPrecision" width="646.512000" height="706.977000"><style><![CDATA[#eua7cmrp6boj47 {animation: eua7cmrp6boj47_c_o 9000ms linear infinite normal forwards}@keyframes eua7cmrp6boj47_c_o { 0% {opacity: 0} 5.555556% {opacity: 0} 27.777778% {opacity: 0} 44.444444% {opacity: 1} 61.111111% {opacity: 1} 88.888889% {opacity: 1} 100% {opacity: 0} }#eua7cmrp6boj62 {animation: eua7cmrp6boj62_c_o 9000ms linear infinite normal forwards}@keyframes eua7cmrp6boj62_c_o { 0% {opacity: 0} 5.555556% {opacity: 0} 22.222222% {opacity: 0} 38.888889% {opacity: 1} 61.111111% {opacity: 1} 88.888889% {opacity: 1} 100% {opacity: 0} }#eua7cmrp6boj75 {animation: eua7cmrp6boj75_c_o 9000ms linear infinite normal forwards}@keyframes eua7cmrp6boj75_c_o { 0% {opacity: 0} 5.555556% {opacity: 0} 16.666667% {opacity: 0} 33.333333% {opacity: 1} 61.111111% {opacity: 1} 88.888889% {opacity: 1} 100% {opacity: 0} }#eua7cmrp6boj105 {animation: eua7cmrp6boj105_c_o 9000ms linear infinite normal forwards}@keyframes eua7cmrp6boj105_c_o { 0% {opacity: 0} 5.555556% {opacity: 0} 22.222222% {opacity: 1} 61.111111% {opacity: 1} 88.888889% {opacity: 1} 100% {opacity: 0} }#eua7cmrp6boj146 {animation: eua7cmrp6boj146_c_o 9000ms linear infinite normal forwards}@keyframes eua7cmrp6boj146_c_o { 0% {opacity: 0} 5.555556% {opacity: 0} 44.444444% {opacity: 0} 61.111111% {opacity: 1} 88.888889% {opacity: 1} 100% {opacity: 0} }]]></style><defs><clipPath id="eua7cmrp6boj2"><use id="eua7cmrp6boj3" width="36.082001" height="30.769012" xlink:href="#null"/></clipPath><clipPath id="eua7cmrp6boj4"><use id="eua7cmrp6boj5" width="39.623993" height="13.857269" xlink:href="#null"/></clipPath><clipPath id="eua7cmrp6boj6"><use id="eua7cmrp6boj7" width="27.662811" height="74.770630" xlink:href="#null"/></clipPath><clipPath id="eua7cmrp6boj8"><use id="eua7cmrp6boj9" width="39.875000" height="13.794922" xlink:href="#null"/></clipPath><clipPath id="eua7cmrp6boj10"><use id="eua7cmrp6boj11" width="47.532990" height="16.576813" xlink:href="#null"/></clipPath><clipPath id="eua7cmrp6boj12"><use id="eua7cmrp6boj13" width="44.706482" height="97.270020" xlink:href="#null"/></clipPath><clipPath id="eua7cmrp6boj14"><use id="eua7cmrp6boj15" width="53.765289" height="124.410004" xlink:href="#null"/></clipPath><path id="eua7cmrp6boj16" d="M407.315000,438.539000C414.514000,447.099000,421.719000,455.653000,428.930000,464.202000C427.996000,463.097000,425.693000,463.171000,422.741000,464.628000C415.538000,456.079000,408.342000,447.524000,401.146000,438.969000C404.088000,437.511000,406.387000,437.434000,407.315000,438.539000Z" fill="rgb(0,0,0)" stroke="none" stroke-width="1"/><clipPath id="eua7cmrp6boj17"><use id="eua7cmrp6boj18" width="27.783997" height="26.844543" xlink:href="#null"/></clipPath><clipPath id="eua7cmrp6boj19"><use id="eua7cmrp6boj20" width="30.734467" height="37.450012" xlink:href="#null"/></clipPath></defs><g id="eua7cmrp6boj21"><g id="eua7cmrp6boj22"><g id="eua7cmrp6boj23"><g id="eua7cmrp6boj24"><g id="eua7cmrp6boj25"><path id="eua7cmrp6boj26" d="M333.760000,427.191000L265.985000,387.807000C269.722000,389.915000,271.870000,394.586000,271.889000,400.609000C271.897000,404.559000,269.103000,409.399000,265.649000,411.394000L228.688000,432.736000C226.803000,433.820000,225.295000,436.462000,225.301000,438.622000C225.301000,439.705000,225.682000,440.470000,226.296000,440.825000L294.069000,480.209000C293.456000,479.853000,293.074000,479.090000,293.074000,478.007000C293.069000,475.846000,294.577000,473.203000,296.460000,472.121000L333.414000,450.779000C336.877000,448.782000,339.669000,443.941000,339.658000,439.994000C339.645000,433.978000,337.499000,429.300000,333.760000,427.191000Z" fill="rgb(160,159,156)" stroke="none" stroke-width="1"/><g id="eua7cmrp6boj27"><polygon id="eua7cmrp6boj28" points="307.896000,405.263000 240.122000,365.878000 235.326000,374.203000 303.101000,413.590000" fill="rgb(33,37,37)" stroke="none" stroke-width="1"/></g><g id="eua7cmrp6boj29"><polygon id="eua7cmrp6boj30" points="355.794000,432.558000 288.018000,393.174000 240.122000,365.878000 307.896000,405.263000" fill="rgb(28,30,31)" stroke="none" stroke-width="1"/></g><g id="eua7cmrp6boj31"><path id="eua7cmrp6boj32" d="M290.676000,391.558000L285.881000,399.885000L333.759000,427.192000C337.498000,429.300000,339.644000,433.978000,339.657000,439.995000C339.668000,443.942000,336.876000,448.783000,333.413000,450.780000L296.459000,472.122000C294.576000,473.204000,293.067000,475.847000,293.073000,478.008000C293.080000,480.173000,294.594000,481.063000,296.479000,479.974000L333.439000,458.638000C340.639000,454.474000,346.499000,444.339000,346.473000,436.063000C346.449000,427.975000,343.562000,421.702000,338.572000,418.852000L290.676000,391.558000Z" fill="rgb(135,135,135)" stroke="none" stroke-width="1"/></g><path id="eua7cmrp6boj33" d="M162.312000,75.422000L155.531000,79.360000C157.861000,78.007000,161.078000,78.195000,164.635000,80.249000L171.409000,76.311000C167.859000,74.258000,164.635000,74.069000,162.312000,75.422000Z" fill="rgb(105,110,112)" stroke="none" stroke-width="1"/><polygon id="eua7cmrp6boj34" points="173.223000,274.877000 173.750000,91.292000 166.969000,95.229000 166.450000,278.815000 461.819000,449.348000 468.593000,445.411000" fill="rgb(70,73,73)" stroke="none" stroke-width="1"/><path id="eua7cmrp6boj35" d="M482.423000,495.143000L482.423000,471.792000L475.612000,475.799000L475.649000,499.105000L475.695000,499.075000C475.680000,503.105000,474.256000,505.943000,471.962000,507.273000L478.743000,503.335000C481.038000,501.995000,482.461000,499.153000,482.473000,495.118000L482.423000,495.143000Z" fill="rgb(183,183,183)" stroke="none" stroke-width="1"/><g id="eua7cmrp6boj36"><path id="eua7cmrp6boj37" d="M475.579000,475.809000L151.293000,288.582000L151.225000,311.796000C151.205000,319.927000,156.933000,329.832000,164.015000,333.918000L279.066000,400.315000L348.633000,440.463000L462.847000,506.378000C469.929000,510.464000,475.674000,507.186000,475.700000,499.053000L475.579000,475.809000Z" fill="rgb(206,206,206)" stroke="none" stroke-width="1"/></g><g id="eua7cmrp6boj38"><polygon id="eua7cmrp6boj39" points="170.908000,92.756000 170.388000,276.349000 465.757000,446.874000 466.277000,263.289000" fill="rgb(182,214,211)" stroke="none" stroke-width="1"/></g><g id="eua7cmrp6boj40"><polygon id="eua7cmrp6boj41" points="461.819000,449.348000 468.593000,445.411000 469.113000,261.825000 462.339000,265.763000" fill="rgb(170,170,170)" stroke="none" stroke-width="1"/></g><g id="eua7cmrp6boj42"><polygon id="eua7cmrp6boj43" points="462.339000,265.763000 469.113000,261.825000 173.750000,91.292000 166.969000,95.229000" fill="rgb(242,242,242)" stroke="none" stroke-width="1"/></g><path id="eua7cmrp6boj44" d="M482.866000,270.846000C482.889000,263.315000,477.483000,253.029000,470.095000,248.753000L171.409000,76.311000C167.859000,74.258000,164.635000,74.069000,162.312000,75.422000L155.531000,79.360000C157.861000,78.007000,161.078000,78.195000,164.635000,80.249000L463.317000,252.691000C470.056000,256.580000,476.113000,266.532000,476.088000,274.784000L475.631000,457.419000L475.561000,475.849000L482.442000,471.811000L482.412000,453.479000L482.866000,270.846000Z" fill="rgb(43,47,48)" stroke="none" stroke-width="1"/><g id="eua7cmrp6boj45"><path id="eua7cmrp6boj46" d="M463.316000,252.691000C470.396000,256.780000,476.112000,266.670000,476.087000,274.784000L475.630000,457.419000L475.623000,460.617000L475.611000,475.899000L151.293000,288.582000C151.304000,285.790000,151.181000,307.707000,151.801000,87.561000C151.825000,79.447000,157.573000,76.174000,164.635000,80.249000L463.316000,252.691000ZM166.450000,278.815000L461.820000,449.348000L462.340000,265.764000L166.969000,95.229000L166.450000,278.815000L166.450000,278.815000Z" fill="rgb(80,85,86)" stroke="none" stroke-width="1"/></g></g><g id="eua7cmrp6boj47" opacity="0"><g id="eua7cmrp6boj48"><path id="eua7cmrp6boj49" d="M222.302000,233.380000C225.263000,245.738000,233.922000,258.440000,244.170000,264.355000C246.660000,265.793000,249.059000,266.724000,251.305000,267.179000L262.239000,312.841000L265.007000,324.402000C257.965000,322.951000,250.824000,320.071000,243.810000,316.021000C214.990000,299.383000,188.251000,262.971000,178.682000,224.404000L182.595000,225.209000L222.302000,233.380000Z" fill="rgb(33,121,170)" stroke="none" stroke-width="1"/></g><g id="eua7cmrp6boj50"><path id="eua7cmrp6boj51" d="M186.333000,170.781000L192.102000,177.517000L223.593000,214.275000C222.080000,216.924000,221.223000,220.393000,221.212000,224.577000C221.205000,227.425000,221.587000,230.393000,222.303000,233.380000L182.595000,225.210000C177.536000,204.250000,178.396000,184.488000,186.333000,170.781000Z" fill="rgb(214,58,58)" stroke="none" stroke-width="1"/></g><g id="eua7cmrp6boj52"><path id="eua7cmrp6boj53" d="M260.450000,266.020000L285.705000,309.763000C279.209000,313.519000,271.192000,314.655000,262.239000,312.842000L251.305000,267.180000C254.789000,267.888000,257.910000,267.458000,260.450000,266.020000Z" fill="rgb(33,121,170)" stroke="none" stroke-width="1"/></g><g id="eua7cmrp6boj54"><path id="eua7cmrp6boj55" d="M244.320000,211.409000C250.698000,215.091000,256.460000,221.400000,260.616000,228.618000C264.750000,235.801000,267.298000,243.883000,267.279000,251.175000C267.258000,258.502000,264.651000,263.642000,260.449000,266.020000C257.909000,267.459000,254.788000,267.889000,251.304000,267.180000C249.058000,266.724000,246.659000,265.794000,244.169000,264.356000C233.921000,258.441000,225.263000,245.739000,222.301000,233.381000C221.584000,230.394000,221.203000,227.426000,221.210000,224.578000C221.222000,220.394000,222.079000,216.926000,223.591000,214.276000C227.369000,207.667000,235.237000,206.165000,244.320000,211.409000Z" fill="rgb(199,229,216)" stroke="none" stroke-width="1"/></g><g id="eua7cmrp6boj56"><path id="eua7cmrp6boj57" d="M244.423000,170.938000L244.320000,211.408000C235.237000,206.164000,227.368000,207.667000,223.592000,214.275000L192.101000,177.517000C201.869000,161.319000,221.651000,157.791000,244.423000,170.938000Z" fill="rgb(239,204,58)" stroke="none" stroke-width="1"/></g><g id="eua7cmrp6boj58"><path id="eua7cmrp6boj59" d="M244.453000,164.360000C262.165000,174.586000,278.198000,191.976000,289.899000,211.930000L260.617000,228.617000C256.460000,221.399000,250.699000,215.090000,244.321000,211.408000L244.434000,170.944000L244.453000,164.360000Z" fill="rgb(33,121,170)" stroke="none" stroke-width="1"/></g><g id="eua7cmrp6boj60"><path id="eua7cmrp6boj61" d="M293.745000,209.738000C321.039000,257.015000,321.084000,307.980000,294.027000,324.177000L285.704000,309.762000L260.450000,266.020000C264.651000,263.642000,267.259000,258.502000,267.280000,251.175000C267.300000,243.883000,264.752000,235.800000,260.617000,228.618000L289.899000,211.931000L293.745000,209.738000Z" fill="rgb(247,139,11)" stroke="none" stroke-width="1"/></g></g><g id="eua7cmrp6boj62" opacity="0"><g id="eua7cmrp6boj63"><path id="eua7cmrp6boj64" d="M398.380000,381.971000C401.082000,386.082000,404.536000,389.608000,408.312000,391.786000C409.401000,392.414000,410.465000,392.900000,411.492000,393.254000L413.746000,402.527000C411.944000,401.998000,410.097000,401.189000,408.226000,400.109000C402.627000,396.877000,397.336000,391.536000,393.164000,384.944000L398.380000,381.971000Z" fill="rgb(45,62,80)" stroke="none" stroke-width="1"/></g><g id="eua7cmrp6boj65"><path id="eua7cmrp6boj66" d="M392.720000,366.638000C393.038000,370.348000,394.243000,374.266000,396.069000,377.942000L390.843000,380.920000C387.598000,374.734000,385.681000,368.278000,385.333000,362.373000L392.720000,366.638000Z" fill="rgb(53,152,219)" stroke="none" stroke-width="1"/></g><g id="eua7cmrp6boj67"><path id="eua7cmrp6boj68" d="M406.646000,346.242000L406.623000,354.711000C399.296000,351.442000,393.478000,354.824000,392.720000,362.845000L385.330000,358.580000C385.717000,352.394000,388.076000,347.798000,392.074000,345.520000C396.019000,343.267000,401.144000,343.536000,406.646000,346.242000Z" fill="rgb(232,76,61)" stroke="none" stroke-width="1"/></g><g id="eua7cmrp6boj69"><path id="eua7cmrp6boj70" d="M421.443000,391.278000L427.912000,398.829000C426.963000,400.052000,425.835000,401.034000,424.551000,401.772000C422.331000,403.036000,419.761000,403.511000,416.886000,403.181000L414.630000,393.913000C417.411000,394.119000,419.772000,393.185000,421.443000,391.278000Z" fill="rgb(249,153,31)" stroke="none" stroke-width="1"/></g><g id="eua7cmrp6boj71"><path id="eua7cmrp6boj72" d="M420.278000,357.821000C421.879000,359.858000,423.358000,362.045000,424.688000,364.345000C431.415000,375.996000,433.247000,388.598000,429.475000,396.367000L422.986000,388.791000C423.696000,387.145000,424.092000,385.134000,424.099000,382.790000C424.118000,376.408000,421.248000,369.135000,416.911000,363.409000L420.278000,357.821000Z" fill="rgb(20,167,151)" stroke="none" stroke-width="1"/></g><g id="eua7cmrp6boj73"><path id="eua7cmrp6boj74" d="M409.938000,348.135000C412.477000,349.802000,414.979000,351.927000,417.312000,354.403000L413.956000,359.986000C412.682000,358.696000,411.326000,357.547000,409.915000,356.577000L409.938000,348.135000Z" fill="rgb(45,62,80)" stroke="none" stroke-width="1"/></g></g><g id="eua7cmrp6boj75" opacity="0"><g id="eua7cmrp6boj76"><g id="eua7cmrp6boj77"><polygon id="eua7cmrp6boj78" points="365.567000,284.166000 365.517000,302.133000 353.650000,295.282000 353.702000,277.315000" fill="rgb(45,62,80)" stroke="none" stroke-width="1"/></g><g id="eua7cmrp6boj79"><polygon id="eua7cmrp6boj80" points="350.598000,230.518000 350.420000,293.417000 349.477000,292.872000 349.471000,294.907000 350.413000,295.451000 348.718000,294.471000 348.900000,229.539000" fill="rgb(24,33,43)" stroke="none" stroke-width="1"/></g><g id="eua7cmrp6boj81"><polygon id="eua7cmrp6boj82" points="383.041000,268.951000 382.918000,312.180000 371.051000,305.328000 371.173000,262.099000" fill="rgb(249,153,31)" stroke="none" stroke-width="1"/></g><g id="eua7cmrp6boj83"><polygon id="eua7cmrp6boj84" points="400.425000,286.959000 400.325000,322.229000 388.450000,315.375000 388.550000,280.103000" fill="rgb(53,152,219)" stroke="none" stroke-width="1"/></g><g id="eua7cmrp6boj85"><polygon id="eua7cmrp6boj86" points="438.559000,344.303000 438.553000,346.338000 350.413000,295.451000 349.471000,294.907000 349.477000,292.872000 350.420000,293.417000 353.650000,295.282000 365.517000,302.133000 371.051000,305.328000 382.918000,312.180000 388.450000,315.375000 400.325000,322.229000 405.859000,325.424000 417.725000,332.275000 423.259000,335.470000 435.125000,342.322000" fill="rgb(24,33,43)" stroke="none" stroke-width="1"/></g><g id="eua7cmrp6boj87"><polygon id="eua7cmrp6boj88" points="417.885000,275.913000 417.725000,332.275000 405.859000,325.424000 406.019000,269.061000" fill="rgb(235,75,72)" stroke="none" stroke-width="1"/></g><g id="eua7cmrp6boj89"><polygon id="eua7cmrp6boj90" points="435.328000,270.900000 435.125000,342.322000 423.259000,335.470000 423.461000,264.048000" fill="rgb(126,40,39)" stroke="none" stroke-width="1"/></g></g><g id="eua7cmrp6boj91"><polygon id="eua7cmrp6boj92" points="345.723000,228.284000 345.716000,230.458000 341.470000,228.006000 341.475000,225.832000" fill="rgb(111,111,111)" stroke="none" stroke-width="1"/></g><g id="eua7cmrp6boj93"><polygon id="eua7cmrp6boj94" points="345.694000,238.648000 345.687000,240.822000 341.440000,238.370000 341.446000,236.196000" fill="rgb(111,111,111)" stroke="none" stroke-width="1"/></g><g id="eua7cmrp6boj95"><polygon id="eua7cmrp6boj96" points="345.663000,249.006000 345.657000,251.188000 341.410000,248.735000 341.416000,246.553000" fill="rgb(111,111,111)" stroke="none" stroke-width="1"/></g><g id="eua7cmrp6boj97"><polygon id="eua7cmrp6boj98" points="345.634000,259.370000 345.628000,261.551000 341.382000,259.099000 341.388000,256.918000" fill="rgb(111,111,111)" stroke="none" stroke-width="1"/></g><g id="eua7cmrp6boj99"><polygon id="eua7cmrp6boj100" points="345.605000,269.735000 345.599000,271.916000 341.352000,269.465000 341.357000,267.283000" fill="rgb(111,111,111)" stroke="none" stroke-width="1"/></g><g id="eua7cmrp6boj101"><polygon id="eua7cmrp6boj102" points="345.576000,280.099000 345.569000,282.272000 341.321000,279.821000 341.327000,277.646000" fill="rgb(111,111,111)" stroke="none" stroke-width="1"/></g><g id="eua7cmrp6boj103"><polygon id="eua7cmrp6boj104" points="345.545000,290.463000 345.541000,292.638000 341.293000,290.185000 341.299000,288.011000" fill="rgb(111,111,111)" stroke="none" stroke-width="1"/></g></g><g id="eua7cmrp6boj105" opacity="0"><g id="eua7cmrp6boj106"><g id="eua7cmrp6boj107"><path id="eua7cmrp6boj108" d="M340.968000,318.179000L340.908000,338.602000L358.762000,348.908000C358.731000,360.195000,350.741000,364.747000,340.919000,359.077000C331.105000,353.409000,323.166000,339.660000,323.198000,328.375000C323.230000,317.127000,331.177000,312.570000,340.968000,318.179000Z" fill="rgb(221,98,88)" stroke="none" stroke-width="1"/></g></g><g id="eua7cmrp6boj109"><g id="eua7cmrp6boj110"><path id="eua7cmrp6boj111" d="M343.986000,316.536000C353.806000,322.206000,361.740000,335.945000,361.708000,347.229000L343.855000,336.921000L343.913000,316.499000L343.986000,316.536000Z" fill="rgb(106,194,206)" stroke="none" stroke-width="1"/></g></g></g></g></g><g id="eua7cmrp6boj112"><path id="eua7cmrp6boj113" d="M119.735000,608.707000C119.735000,608.707000,113.277000,616.714000,121.544000,618.005000C129.811000,619.296000,133.685000,619.813000,140.919000,621.364000C148.152000,622.915000,180.546000,614.172000,172.176000,610.257000C144.018000,597.082000,120.510000,605.865000,119.735000,608.707000Z" opacity="0.3" fill="rgb(0,0,0)" stroke="none" stroke-width="1"/><g id="eua7cmrp6boj114"><g id="eua7cmrp6boj115"><path id="eua7cmrp6boj116" d="M153.275000,605.779000C153.275000,605.779000,154.132000,607.085000,156.183000,607.470000C157.449000,607.704000,161.614000,608.139000,161.614000,608.139000C163.680000,608.349000,166.194000,608.955000,166.630000,610.975000C166.630000,610.975000,166.792000,611.991000,166.725000,612.319000C166.490000,613.460000,165.397000,613.928000,164.068000,614.432000C164.068000,614.432000,161.652000,615.346000,159.573000,615.773000C156.891000,616.324000,155.400000,616.277000,153.451000,616.020000C153.451000,616.020000,150.990000,615.650000,150.001000,615.666000C148.905000,615.685000,149.106000,616.480000,149,617.513000L145.531000,618.493000C142.051000,619.010000,139.678000,615.917000,139.758000,615.124000L140.546000,607.434000L153.275000,605.779000Z" fill="rgb(84,84,84)" stroke="none" stroke-width="1"/><g id="eua7cmrp6boj117"><path id="eua7cmrp6boj118" d="M151.221000,615.483000C152.161000,615.558000,154.888000,615.991000,157.655000,615.616000C160.272000,615.261000,164.459000,613.639000,164.459000,613.639000C165.636000,613.195000,166.631000,612.448000,166.703000,611.764000C166.728000,612.025000,166.743000,612.292000,166.711000,612.435000C166.479000,613.574000,165.386000,614.044000,164.059000,614.548000C164.059000,614.548000,161.640000,615.462000,159.565000,615.889000C156.879000,616.440000,155.388000,616.389000,153.441000,616.134000C153.441000,616.134000,150.617000,615.791000,150.514000,615.779000C149.864000,615.693000,149.226000,615.879000,149.217000,615.996000C149.236000,615.938000,149.485000,615.341000,151.221000,615.483000Z" fill="rgb(56,55,54)" stroke="none" stroke-width="1"/><path id="eua7cmrp6boj119" d="M145.680000,617.132000L149.119000,616.157000C149.088000,616.501000,149.020000,617.301000,148.988000,617.626000L145.518000,618.612000C142.039000,619.125000,139.668000,616.030000,139.748000,615.238000L139.907000,613.763000C139.826000,614.556000,142.199000,617.648000,145.680000,617.132000Z" fill="rgb(56,55,54)" stroke="none" stroke-width="1"/></g></g><g id="eua7cmrp6boj120"><path id="eua7cmrp6boj121" d="M130.351000,602.440000C130.351000,602.440000,130.634000,604.467000,132.596000,604.639000C133.805000,604.743000,135.554000,604.791000,135.554000,604.791000C137.626000,604.404000,140.219000,604.442000,140.697000,605.984000C140.697000,605.984000,140.916000,606.588000,140.884000,606.917000C140.776000,608.053000,141.178000,607.103000,139.625000,608.489000C139.625000,608.489000,136.674000,610.713000,134.853000,611.570000C132.560000,612.649000,131.376000,612.689000,130.637000,612.612000C130.637000,612.612000,129.154000,612.318000,128.227000,612.432000C127.200000,612.557000,127.463000,613.856000,127.463000,614.872000L124.302000,616.180000C121.083000,617.033000,118.560000,614.245000,118.560000,613.462000L118.560000,605.329000L130.351000,602.440000Z" fill="rgb(84,84,84)" stroke="none" stroke-width="1"/><g id="eua7cmrp6boj122"><path id="eua7cmrp6boj123" d="M129.353000,612.132000C130.241000,612.113000,131.270000,611.961000,133.927000,611.225000C136.146000,610.611000,139.403000,608.338000,139.403000,608.338000C140.179000,607.759000,140.812000,607.051000,140.809000,606.379000C140.857000,606.630000,140.874000,606.890000,140.883000,607.032000C140.954000,608.068000,140.049000,608.636000,139.302000,609.155000C139.302000,609.155000,136.760000,611.063000,134.852000,611.687000C132.385000,612.497000,132.005000,612.417000,130.893000,612.458000C130.893000,612.458000,129.486000,612.523000,128.554000,612.566000C128.135000,612.585000,127.553000,612.830000,127.553000,612.944000C127.572000,612.889000,127.710000,612.165000,129.353000,612.132000Z" fill="rgb(56,55,54)" stroke="none" stroke-width="1"/><path id="eua7cmrp6boj124" d="M124.301000,615.273000L127.435000,613.976000C127.439000,614.310000,127.462000,614.663000,127.462000,614.988000L124.301000,616.295000C121.082000,617.145000,118.559000,614.361000,118.559000,613.578000L118.559000,612.555000C118.559000,613.338000,121.083000,616.122000,124.301000,615.273000Z" fill="rgb(56,55,54)" stroke="none" stroke-width="1"/></g></g><g id="eua7cmrp6boj125"><path id="eua7cmrp6boj126" d="M119.711000,555.335000C119.782000,556.750000,121.735000,557.583000,123.023000,557.518000C123.473000,557.497000,123.873000,560.137000,124.582000,561.094000C125.328000,562.102000,126.369000,561.424000,126.529000,561.106000C126.654000,560.859000,125.278000,557.043000,124.967000,556.070000C123.932000,552.826000,122.603000,552.773000,121.314000,552.837000C120.028000,552.896000,119.642000,553.921000,119.711000,555.335000Z" fill="rgb(255,232,217)" stroke="none" stroke-width="1"/><path id="eua7cmrp6boj127" d="M119.936000,552.432000C118.485000,552.445000,115.678000,549.676000,115.678000,549.676000C115.678000,549.676000,115.617000,549.318000,115.512000,548.693000C114.920000,545.163000,110.319000,533.849000,110.178000,529.400000C110.025000,524.518000,113.893000,510.851000,113.893000,510.851000C113.893000,510.851000,114.760000,499.931000,122.159000,500.235000C126.629000,500.421000,124.312000,506.837000,124.354000,510.752000C124.389000,513.834000,122.807000,529.482000,122.807000,529.482000L123.794000,548.706000C123.793000,548.705000,122.767000,552.405000,119.936000,552.432000Z" fill="rgb(33,33,32)" stroke="none" stroke-width="1"/><path id="eua7cmrp6boj128" d="M117.977000,553.042000L121.689000,552.817000L123.311000,557.144000L123.345000,557.866000L123.063000,563.647000C123.063000,563.647000,123.147000,566.437000,120.188000,566.621000C118.253000,566.736000,119.978000,566.632000,119.978000,566.632000C117.328000,566.793000,116.949000,563.955000,116.949000,563.955000L115.895000,556.560000C115.766000,554.986000,116.274000,553.146000,117.977000,553.042000Z" fill="rgb(255,232,217)" stroke="none" stroke-width="1"/><path id="eua7cmrp6boj129" d="M124.553000,552.946000C124.562000,553.594000,123.141000,554.880000,121.238000,555.074000C118.764000,555.328000,117.595000,554.870000,117.595000,554.870000C116.447000,554.482000,115.817000,554.037000,115.718000,553.227000C115.718000,553.227000,115.339000,550.247000,115.265000,549.304000C115.218000,548.695000,115.512000,548.692000,115.512000,548.692000C115.512000,548.692000,115.567000,549.173000,115.670000,549.341000C116.049000,549.975000,117.111000,550.818000,119.543000,550.875000C123.367000,550.964000,123.794000,548.704000,123.794000,548.704000C124.351000,548.700000,124.535000,548.945000,124.515000,549.588000L124.553000,552.946000Z" fill="rgb(228,239,244)" stroke="none" stroke-width="1"/></g><path id="eua7cmrp6boj130" d="M116.839000,553.126000C116.839000,553.126000,115.104000,544.980000,125.195000,544.980000C133.188000,544.980000,133.188000,553.465000,133.188000,553.465000L129.146000,607.498000L119.165000,607.498000L116.839000,553.126000Z" fill="rgb(232,197,172)" stroke="none" stroke-width="1"/><path id="eua7cmrp6boj131" d="M128.241000,474.549000L134.954000,472.912000L138.496000,490.429000C139.610000,495.428000,137.752000,496.767000,136.267000,497.205000C133.182000,498.117000,129.250000,497.358000,127.230000,496.830000C123.314000,495.808000,121.739000,490.043000,121.578000,489.585000L117.226000,478.452000L128.241000,474.549000Z" fill="rgb(255,225,204)" stroke="none" stroke-width="1"/><path id="eua7cmrp6boj132" d="M123.699000,500.620000L125.548000,489.988000L134.486000,492.068000L133.331000,502.392000C133.331000,503.863000,138.916000,516.558000,138.916000,521.127000L122.026000,515.698000C122.026000,513.753000,123.699000,500.620000,123.699000,500.620000Z" fill="rgb(255,225,204)" stroke="none" stroke-width="1"/><path id="eua7cmrp6boj133" d="M135.817000,540.305000L135.817000,544.981000C135.817000,548.455000,134.988000,554.344000,134.988000,554.344000L119.014000,554.953000C117.002000,554.548000,116.241000,551.802000,116.241000,549.035000L116.241000,540.305000L135.817000,540.305000Z" fill="rgb(20,84,109)" stroke="none" stroke-width="1"/><path id="eua7cmrp6boj134" d="M116.839000,553.126000C116.839000,553.126000,117.502000,547.465000,124.544000,547.465000C125.483000,547.465000,124.544000,547.455000,127.318000,547.463000C134.049000,547.484000,134.989000,554.344000,134.989000,554.344000L130.794000,607.300000L120.107000,607.499000L116.839000,553.126000Z" fill="rgb(255,225,204)" stroke="none" stroke-width="1"/><path id="eua7cmrp6boj135" d="M132.766000,471.057000C137.082000,472.020000,137.792000,475.136000,135.892000,478.029000C135.028000,479.343000,134.771000,482.158000,135.105000,484.132000L135.399000,485.999000C135.614000,486.646000,135.019000,487.861000,134.267000,487.042000C133.426000,486.125000,133.973000,485.082000,133.333000,484.677000C132.688000,484.264000,131.277000,484.464000,131.069000,488.495000L131.223000,491.526000C130.960000,495.084000,128.365000,496.061000,126.323000,496.214000C126.323000,496.214000,124.241000,496.260000,123.007000,495.612000C122.404000,495.297000,118.225000,491.523000,117.173000,490.075000C111.864000,482.772000,112.367000,471.342000,125.973000,470.406000C129.639000,470.154000,132.766000,471.057000,132.766000,471.057000Z" fill="rgb(99,58,17)" stroke="none" stroke-width="1"/><path id="eua7cmrp6boj136" d="M132.321000,549.727000L131.804000,605.266000C131.804000,605.266000,130.951000,610.755000,124.893000,610.755000C121.504000,610.755000,118.267000,609.566000,118.177000,608.625000C118.177000,608.625000,117.062000,570.394000,116.683000,567.550000C116.304000,564.710000,116.175000,564.578000,115.530000,561.737000C114.884000,558.895000,116.821000,547.790000,116.821000,547.790000L132.321000,549.727000Z" fill="rgb(58,57,56)" stroke="none" stroke-width="1"/><path id="eua7cmrp6boj137" d="M139.807000,553.868000L147.820000,579.304000L151.501000,603.004000C151.521000,602.969000,151.744000,604.992000,153.730000,605.440000C154.304000,605.570000,154.575000,606.578000,154.521000,607.316000C154.448000,608.301000,151.597000,612.973000,144.957000,614.562000C142.935000,615.041000,139.603000,614.680000,139.603000,613.453000C139.603000,613.453000,137.667000,597.019000,132.903000,584.728000C129.186000,575.141000,123.736000,567.744000,123.453000,567.378000C122.807000,566.538000,121.559000,565.826000,120.784000,564.794000C117.219000,560.039000,117.942000,553.815000,117.942000,553.815000L139.807000,553.868000Z" fill="rgb(71,70,69)" stroke="none" stroke-width="1"/><path id="eua7cmrp6boj138" d="M139.417000,510.019000C141.391000,512.056000,142.152000,514.315000,142.152000,521.475000L143.512000,553.293000C143.512000,554.537000,143.614000,558.244000,139.568000,558.709000C137.554000,558.936000,133.178000,561.042000,127.244000,559.484000C125.358000,558.990000,112.685000,556.944000,112.685000,554.323000L113.891000,514.026000C114.194000,501.585000,123.007000,499.926000,123.007000,499.926000L131.526000,502.903000L139.417000,510.019000Z" fill="rgb(51,51,51)" stroke="none" stroke-width="1"/><g id="eua7cmrp6boj139"><path id="eua7cmrp6boj140" d="M124.663000,497.461000C123.464000,497.177000,123.161000,497.385000,122.930000,498.117000C122.703000,498.838000,122.708000,498.883000,122.428000,499.580000C122.197000,500.157000,122.468000,500.198000,122.468000,500.198000C122.468000,500.198000,128.478000,501.852000,132.945000,504.896000C136.122000,507.060000,136.365000,507.266000,136.365000,507.266000L135.623000,504.828000C135.045000,502.749000,132.638000,500.695000,129.056000,499.118000C129.056000,499.119000,126.126000,497.808000,124.663000,497.461000Z" fill="rgb(255,255,255)" stroke="none" stroke-width="1"/></g><path id="eua7cmrp6boj141" d="M172.495000,504.361000L168.985000,501.673000L168.694000,500.545000L172.127000,495.078000L177.479000,490.728000C177.479000,490.728000,178.564000,489.834000,179.213000,490.624000C179.566000,491.052000,178.602000,491.958000,176.311000,493.728000C175.231000,494.562000,176.189000,494.986000,176.189000,494.986000C177.859000,496.427000,179.178000,497.768000,179.353000,498.831000C179.613000,500.429000,178.503000,501.349000,177.974000,501.510000C177.838000,501.551000,177.522000,501.163000,177.522000,501.163000C175.834000,503.599000,173.998000,505.622000,172.495000,504.361000Z" fill="rgb(255,232,217)" stroke="none" stroke-width="1"/><g id="eua7cmrp6boj142"><path id="eua7cmrp6boj143" d="M132.535000,482.872000C132.535000,482.872000,131.233000,483.547000,131.306000,485.286000C131.360000,486.513000,132.066000,487.313000,132.374000,487.515000C133.200000,488.053000,133.863000,488.003000,133.863000,488.003000C133.863000,488.003000,132.943000,485.328000,132.803000,484.826000C132.664000,484.324000,132.535000,482.872000,132.535000,482.872000Z" fill="rgb(239,207,189)" stroke="none" stroke-width="1"/><path id="eua7cmrp6boj144" d="M132.989000,482.070000C132.989000,482.070000,133.760000,481.765000,133.584000,483.079000C133.404000,484.390000,133.498000,485.112000,133.692000,485.754000C133.868000,486.339000,134.590000,488.029000,134.590000,488.029000C134.590000,488.029000,134.339000,488.911000,133.504000,488.013000C133.108000,487.586000,132.638000,486.674000,132.250000,485.429000C132.091000,484.928000,132.051000,482.104000,132.989000,482.070000Z" fill="rgb(255,232,217)" stroke="none" stroke-width="1"/></g><path id="eua7cmrp6boj145" d="M173.128000,501.118000C174.906000,503.097000,175.236000,504.771000,175.236000,504.771000C175.236000,504.771000,166.345000,515.429000,165.112000,516.841000C163.336000,518.875000,162.152000,519.426000,159.634000,520.249000C154.992000,521.768000,142.030000,521.165000,142.030000,521.165000C142.030000,521.165000,133.151000,521.286000,131.248000,515.520000C129.848000,511.267000,133.960000,507.966000,137.848000,508.440000C141.475000,508.882000,149.985000,510.180000,154.486000,510.578000C156.152000,510.724000,157.813000,510.123000,158.964000,508.913000L168.295000,500.154000C168.295000,500.154000,168.896000,499.069000,170.357000,499.204000C171.149000,499.278000,172.464000,500.378000,173.128000,501.118000Z" fill="rgb(63,63,63)" stroke="none" stroke-width="1"/></g></g><g id="eua7cmrp6boj146" opacity="0"><path id="eua7cmrp6boj147" d="M326.163000,582.755000C322.122000,583.105000,322.473000,584.598000,313.247000,590.134000C306.538000,594.158000,298.750000,597.514000,299.279000,592.241000C299.805000,586.970000,309.821000,573.265000,319.836000,570.365000C333.782000,566.328000,352.344000,576.252000,350.236000,579.152000C348.127000,582.052000,336.650000,581.840000,326.163000,582.755000Z" opacity="0.3" fill="rgb(0,0,0)" stroke="none" stroke-width="1"/><path id="eua7cmrp6boj148" d="M522.322000,615.251000C522.322000,615.251000,550.500000,622.197000,542.090000,628.692000C521.269000,644.770000,487.795000,638.444000,488.321000,630.538000C488.848000,622.630000,508.617000,623.949000,514.678000,620.785000C520.741000,617.623000,516.787000,615.777000,522.322000,615.251000Z" opacity="0.3" fill="rgb(0,0,0)" stroke="none" stroke-width="1"/><path id="eua7cmrp6boj149" d="M344.369000,436.200000C345.674000,436.584000,346.364000,437.230000,346.364000,437.230000C346.364000,437.230000,347.358000,438.077000,347.263000,439.001000C346.778000,443.803000,343.463000,456.479000,340.309000,464.189000C338.392000,468.867000,331.887000,482.468000,331.887000,482.468000C331.887000,482.468000,329.204000,488.436000,324.214000,485.521000C320.554000,483.386000,320.001000,473.642000,322.751000,470.669000C323.843000,469.489000,329.648000,463.382000,332.187000,457.475000C334.416000,452.286000,339.130000,437.241000,339.130000,437.241000C339.130000,437.241000,340.470000,435.051000,344.369000,436.200000Z" fill="rgb(56,55,54)" stroke="none" stroke-width="1"/><path id="eua7cmrp6boj150" d="M341.987000,518.537000C341.987000,518.537000,339.253000,516.089000,333.851000,516.089000C328.452000,516.089000,327.444000,515.873000,327.444000,515.873000L329.604000,494.133000C329.604000,494.133000,340.475000,508.674000,341.339000,512.130000C342.203000,515.587000,341.987000,518.537000,341.987000,518.537000Z" fill="rgb(20,20,19)" stroke="none" stroke-width="1"/><path id="eua7cmrp6boj151" d="M312.938000,581.505000C312.938000,581.505000,313.631000,583.086000,312.690000,585.469000C312.690000,585.469000,311.552000,586.356000,311.371000,586.539000C310.309000,587.600000,306.781000,593.185000,303.615000,593.330000C300.158000,593.487000,299.947000,590.786000,300.324000,589.111000C300.516000,588.257000,304.531000,579.131000,304.531000,579.131000L312.938000,581.505000Z" fill="rgb(40,40,39)" stroke="none" stroke-width="1"/><path id="eua7cmrp6boj152" d="M336.971000,569.394000L337.908000,570.737000C337.908000,570.737000,348.149000,575.550000,348.743000,575.767000C349.134000,575.910000,349.789000,576.397000,349.769000,577.116000C349.765000,577.399000,349.749000,577.577000,349.573000,577.838000C348.938000,578.750000,347.620000,579.093000,346.421000,579.385000C343.147000,580.176000,333.537000,578.074000,333.234000,577.840000C333.234000,577.840000,332.254000,577.630000,332.012000,578.113000C331.926000,578.287000,331.978000,578.966000,331.959000,578.972000L328.497000,577.829000C328.322000,577.743000,327.972000,576.087000,327.877000,575.350000L327.255000,570.454000L336.971000,569.394000Z" fill="rgb(35,31,32)" stroke="none" stroke-width="1"/><g id="eua7cmrp6boj153"><path id="eua7cmrp6boj154" d="M349.588000,577.438000C348.762000,578.484000,347.522000,578.870000,346.314000,579.115000C342.364000,579.913000,333.128000,577.673000,333.128000,577.673000C332.336000,577.569000,332.008000,577.846000,331.954000,578.316000L331.959000,578.973000C331.993000,578.966000,333.064000,578.248000,333.050000,578.244000C333.050000,578.244000,341.722000,580.464000,345.610000,580.031000C346.837000,579.894000,348.907000,579.164000,349.627000,578.034000C349.752000,577.838000,349.898000,577.348000,349.745000,577.008000C349.729000,577.068000,349.628000,577.391000,349.588000,577.438000Z" fill="rgb(40,40,39)" stroke="none" stroke-width="1"/></g><path id="eua7cmrp6boj155" d="M336.544000,513.159000L337.737000,569.716000C337.799000,571.599000,336.958000,572.196000,336.795000,572.352000C335.031000,574.043000,328.022000,576.487000,326.991000,574.078000L321.325000,514.291000L336.544000,513.159000Z" fill="rgb(20,20,19)" stroke="none" stroke-width="1"/><path id="eua7cmrp6boj156" d="M329.533000,515.154000L313.884000,581.452000C313.740000,582.569000,313.179000,582.898000,312.189000,583.146000C306.476000,584.592000,304.156000,582.582000,304.156000,582.582000C303.073000,582.043000,303.137000,581.158000,303.086000,580.636000L312.109000,514.865000L329.533000,515.154000Z" fill="rgb(56,55,54)" stroke="none" stroke-width="1"/><path id="eua7cmrp6boj157" d="M312.246000,477.224000C312.246000,477.224000,314.267000,472.656000,316.421000,471.572000C318.577000,470.488000,325.822000,470.167000,325.822000,470.167000C325.822000,470.167000,330.497000,478.153000,330.592000,478.721000C330.684000,479.289000,338.532000,488.804000,336.589000,515.011000C336.220000,519.981000,318.411000,519.361000,318.411000,519.361000L312.246000,477.224000Z" fill="rgb(218,222,224)" stroke="none" stroke-width="1"/><path id="eua7cmrp6boj158" d="M315.893000,456.418000C317.879000,456.091000,318.416000,457.958000,318.416000,457.958000L319.073000,461.944000C319.073000,461.944000,319.121000,462.828000,318.394000,463.105000C317.306000,463.520000,316.653000,462.615000,315.969000,461.611000C315.927000,461.553000,315.021000,460.058000,314.968000,459.968000C314.191000,458.703000,314.016000,456.729000,315.893000,456.418000Z" fill="rgb(255,232,217)" stroke="none" stroke-width="1"/><path id="eua7cmrp6boj159" d="M305.053000,522.642000L307.042000,502.426000L303.816000,485.192000L314.966000,472.395000L314.983000,472.386000C314.841000,472.538000,314.574000,472.826000,314.087000,473.342000C314.017000,473.354000,315.793000,475.415000,318.051000,479.032000C319.039000,480.614000,321.906000,492.789000,323.433000,498.392000L325.385000,520.509000C325.859000,524.872000,322.990000,525.521000,321.973000,525.880000C320.748000,526.313000,316.141000,525.665000,316.141000,525.665000C309.518000,524.658000,304.935000,522.254000,305.053000,522.642000Z" fill="rgb(40,40,39)" stroke="none" stroke-width="1"/><path id="eua7cmrp6boj160" d="M329.821000,479.155000C326.801000,473.544000,324.929000,469.961000,323.707000,468.848000C324.715000,468.462000,328.344000,467.094000,328.387000,467.050000C328.512000,466.924000,335.307000,474.212000,337.299000,482.588000C339.811000,493.178000,343.107000,514.795000,343.107000,514.795000C343.295000,515.941000,343.412000,517.316000,342.344000,518.477000C342.344000,518.477000,339.323000,520.915000,338.028000,521.490000C338.027000,521.490000,338.027000,494.419000,329.821000,479.155000Z" fill="rgb(40,40,39)" stroke="none" stroke-width="1"/><path id="eua7cmrp6boj161" d="M324.544000,470.377000L323.483000,468.724000C323.483000,468.724000,323.903000,468.894000,324.564000,469.149000C325.675000,469.578000,327.732000,471.525000,327.732000,471.525000L330.972000,474.475000C331.399000,475.283000,332.340000,475.773000,331.908000,477.356000L331.189000,480.381000L333.420000,481.964000C334.386000,482.486000,335.291000,483.619000,335.436000,485.995000L335.581000,496.579000C335.581000,496.579000,332.168000,484.322000,330.759000,481.244000C327.589000,474.332000,324.544000,470.377000,324.544000,470.377000Z" fill="rgb(122,121,122)" stroke="none" stroke-width="1"/><path id="eua7cmrp6boj162" d="M314.018000,470.830000L312.905000,472.709000C312.905000,472.709000,312.575000,473.287000,312.520000,473.485000C312.343000,474.153000,312.641000,475.765000,312.641000,475.765000L314.532000,481.581000C315.044000,482.700000,315.535000,483.020000,316.433000,482.945000L319.571000,483.267000L317.729000,485.047000C317.117000,485.642000,316.637000,486.049000,317.914000,488.136000L323.434000,498.391000C323.434000,498.391000,321.930000,487.162000,319.284000,481.181000C317.078000,476.204000,314.018000,470.830000,314.018000,470.830000Z" fill="rgb(122,121,122)" stroke="none" stroke-width="1"/><path id="eua7cmrp6boj163" d="M322.765000,476.420000C319.672000,480.384000,317.056000,474.748000,314.413000,472.316000L314.054000,461.012000L323.416000,462.667000L323.631000,468.500000L322.765000,476.420000Z" fill="rgb(232,197,172)" stroke="none" stroke-width="1"/><path id="eua7cmrp6boj164" d="M309.445000,450.337000L309.448000,450.338000L304.340000,456.199000L314.790000,465.549000C315.582000,466.106000,316.584000,466.886000,317.839000,466.894000C318.750000,466.902000,319.280000,466.749000,320.735000,466.309000C320.735000,466.309000,325.862000,464.180000,326.986000,461.341000C327.451000,460.171000,326.654000,458.904000,326.234000,458.041000C325.760000,457.069000,323.876000,454.572000,323.314000,453.981000L318.981000,448.752000L315.188000,444.940000L309.445000,450.337000Z" fill="rgb(232,197,172)" stroke="none" stroke-width="1"/><path id="eua7cmrp6boj165" d="M310.013000,443.388000C310.600000,443.180000,312.630000,443.385000,313.158000,443.442000C315.316000,443.683000,316.165000,445.201000,317.851000,447.270000C318.473000,448.030000,319.257000,449.143000,319.312000,449.140000C319.361000,449.136000,317.960000,447.871000,317.186000,447.082000C315.275000,445.128000,313.934000,446.609000,313.705000,447.446000C313.693000,447.484000,311.172000,452.437000,311.182000,452.478000C311.210000,452.601000,310.009000,449.925000,309.909000,450.278000C309.481000,451.792000,309.417000,452.450000,309.893000,453.973000C310.405000,455.615000,312.512000,458.289000,313.481000,459.044000L314.400000,459.851000C314.875000,460.274000,315.257000,460.564000,315.154000,460.670000C314.806000,461.036000,313.855000,461.165000,313.221000,460.856000C313.221000,460.856000,311.505000,460.252000,310.536000,461.734000C309.710000,462.999000,313.075000,464.464000,313.265000,464.515000L313.925000,465.277000C314.352000,465.844000,315.180000,467.654000,314.320000,467.327000C312.864000,466.774000,309.652000,465.589000,308.729000,465.290000C298.621000,462.012000,297.846000,450.840000,306.475000,445.569000C306.525000,445.537000,307.032000,444.951000,306.059000,445.059000C305.683000,445.104000,308.645000,444.172000,310.710000,443.999000C311.572000,443.930000,310.013000,443.388000,310.013000,443.388000Z" fill="rgb(119,84,28)" stroke="none" stroke-width="1"/><path id="eua7cmrp6boj166" d="M310.250000,461.289000C311.578000,459.777000,313.178000,460.886000,313.178000,460.886000L315.957000,462.506000C315.957000,462.506000,316.663000,463.439000,316.278000,464.106000C315.697000,465.122000,315.521000,465.156000,314.317000,465.284000C313.601000,465.361000,312.115000,465.028000,312.018000,464.994000C310.617000,464.492000,308.991000,462.720000,310.250000,461.289000Z" fill="rgb(232,197,172)" stroke="none" stroke-width="1"/><path id="eua7cmrp6boj167" d="M322.849000,474.620000C322.514000,475.175000,322.883000,475.589000,323.210000,475.924000L325.270000,478.011000C325.917000,478.629000,326.036000,477.797000,325.935000,477.053000L325.046000,471.679000C324.188000,468.367000,323.602000,468.806000,323.602000,468.806000C323.602000,468.806000,323.576000,469.483000,323.537000,470.397000C323.484000,471.568000,323.332000,473.828000,322.849000,474.620000Z" fill="rgb(255,255,255)" stroke="none" stroke-width="1"/><path id="eua7cmrp6boj168" d="M314.340000,468.801000C314.340000,468.801000,314.486000,469.858000,314.846000,470.372000C316.879000,473.295000,322.178000,474.854000,322.178000,474.854000C322.771000,474.974000,322.793000,475.255000,322.854000,476.221000L322.853000,479.785000C322.908000,480.712000,322.416000,480.694000,321.995000,480.376000C321.995000,480.376000,317.821000,477.792000,316.620000,476.892000C313.799000,474.775000,313.823000,472.994000,313.908000,469.665000C313.931000,468.730000,314.340000,468.801000,314.340000,468.801000Z" fill="rgb(255,255,255)" stroke="none" stroke-width="1"/><g id="eua7cmrp6boj169"><path id="eua7cmrp6boj170" d="M339.462000,438.112000C339.462000,438.112000,339.140000,437.125000,339.626000,436.815000C340.111000,436.503000,341.246000,435.945000,343.937000,436.545000C344.896000,436.761000,345.750000,437.339000,345.986000,437.500000C346.327000,437.734000,347.032000,438.415000,346.862000,438.894000C346.740000,439.245000,346.451000,439.576000,345.518000,439.894000C343.549000,440.574000,341.065000,439.841000,340.631000,439.430000C340.198000,439.018000,339.462000,438.112000,339.462000,438.112000Z" fill="rgb(202,222,224)" stroke="none" stroke-width="1"/><polygon id="eua7cmrp6boj171" points="344.345000,440.964000 344.631000,436.689000 339.678000,436.671000 339.562000,438.994000" fill="rgb(232,197,172)" stroke="none" stroke-width="1"/><path id="eua7cmrp6boj172" d="M339.352000,437.485000C339.352000,437.485000,339.562000,439.025000,342.645000,439.629000C344.281000,439.949000,345.013000,439.857000,345.867000,439.565000C346.518000,439.345000,346.869000,438.874000,346.869000,438.874000L346.640000,440.215000C346.640000,440.215000,345.841000,441.271000,343.457000,441.116000C339.929000,440.891000,339.279000,438.628000,339.279000,438.628000L339.352000,437.485000Z" fill="rgb(245,245,245)" stroke="none" stroke-width="1"/><path id="eua7cmrp6boj173" d="M342.335000,435.782000C342.758000,434.412000,341.411000,432.899000,340.316000,432.487000C339.934000,432.340000,340.355000,428.778000,338.749000,428.304000C338.749000,428.304000,338.477000,429.198000,338.048000,430.782000C338.014000,430.908000,337.434000,432.178000,337.859000,433.391000C338.991000,436.596000,339.062000,437.153000,340.156000,437.565000C341.250000,437.980000,341.915000,437.149000,342.335000,435.782000Z" fill="rgb(232,197,172)" stroke="none" stroke-width="1"/></g><path id="eua7cmrp6boj174" d="M339.979000,433.824000C339.979000,433.824000,339.827000,431.625000,342.227000,428.688000C344.626000,425.750000,346.098000,421.352000,348.294000,425.908000C350.490000,430.465000,347.096000,437.462000,341.740000,438.446000C339.062000,438.938000,339.979000,433.824000,339.979000,433.824000Z" fill="rgb(232,197,172)" stroke="none" stroke-width="1"/><g id="eua7cmrp6boj175"><g id="eua7cmrp6boj176"><path id="eua7cmrp6boj177" d="M480.071000,552.607000C479.045000,553.117000,477.685000,552.064000,477.225000,551.128000C477.061000,550.801000,475.039000,551.558000,474.083000,551.438000C473.078000,551.305000,473.146000,550.302000,473.310000,550.067000C473.435000,549.878000,476.673000,549.347000,477.483000,549.184000C480.184000,548.637000,480.744000,549.553000,481.207000,550.492000C481.670000,551.424000,481.099000,552.100000,480.071000,552.607000Z" fill="rgb(255,232,217)" stroke="none" stroke-width="1"/><path id="eua7cmrp6boj178" d="M482.035000,551.306000C482.599000,552.336000,485.661000,553.228000,485.661000,553.228000C485.661000,553.228000,485.938000,553.130000,486.419000,552.958000C489.148000,551.983000,498.715000,549.125000,501.912000,547.473000C505.421000,545.658000,513.794000,539.191000,513.794000,539.191000C513.794000,539.191000,521.167000,534.275000,518.034000,529.166000C516.145000,526.083000,512.525000,530.249000,509.739000,531.759000C507.551000,532.950000,497.117000,540.235000,497.117000,540.235000L483.147000,547.112000C483.147000,547.110000,480.939000,549.295000,482.035000,551.306000Z" fill="rgb(56,85,109)" stroke="none" stroke-width="1"/><path id="eua7cmrp6boj179" d="M482.377000,552.932000L481.072000,550.217000L477.376000,550.778000L476.852000,551.040000L472.879000,553.517000C472.879000,553.517000,470.874000,554.557000,471.914000,556.717000C472.593000,558.131000,471.985000,556.870000,471.985000,556.870000C472.917000,558.808000,475.072000,557.957000,475.072000,557.957000L480.710000,555.788000C481.872000,555.260000,482.975000,554.174000,482.377000,552.932000Z" fill="rgb(255,232,217)" stroke="none" stroke-width="1"/><path id="eua7cmrp6boj180" d="M479.852000,548.246000C479.391000,548.495000,479.042000,550.007000,479.655000,551.427000C480.453000,553.273000,481.237000,553.921000,481.237000,553.921000C481.964000,554.580000,482.525000,554.848000,483.134000,554.601000C483.134000,554.601000,485.390000,553.693000,486.086000,553.374000C486.532000,553.168000,486.419000,552.958000,486.419000,552.958000C486.419000,552.958000,486.061000,553.107000,485.898000,553.104000C485.303000,553.085000,484.285000,552.666000,483.291000,550.970000C481.720000,548.304000,483.147000,547.111000,483.147000,547.111000C482.931000,546.718000,482.684000,546.684000,482.237000,546.950000L479.852000,548.246000Z" fill="rgb(228,239,244)" stroke="none" stroke-width="1"/></g><g id="eua7cmrp6boj181"><g id="eua7cmrp6boj182"><g id="eua7cmrp6boj183"><g id="eua7cmrp6boj184"><g id="eua7cmrp6boj185"><g id="eua7cmrp6boj186" clip-path="url(#eua7cmrp6boj2)"><path id="eua7cmrp6boj187" d="M318.246000,396.482000C323.736000,394.542000,326.485000,393.588000,331.987000,391.705000C334.872000,400.683000,338.957000,409.265000,344.110000,417.162000C338.612000,418.997000,335.865000,419.925000,330.380000,421.808000C325.226000,413.957000,321.137000,405.419000,318.246000,396.482000L318.246000,396.482000Z" fill="rgb(70,116,130)" stroke="none" stroke-width="1"/><path id="eua7cmrp6boj188" d="M330.380000,421.808000C335.865000,419.925000,338.612000,418.997000,344.110000,417.162000C348.430000,423.759000,353.424000,429.672000,358.861000,434.341000C353.362000,436.132000,350.616000,437.036000,345.130000,438.865000C339.698000,434.234000,334.704000,428.365000,330.380000,421.808000L330.380000,421.808000Z" fill="rgb(70,116,130)" stroke="none" stroke-width="1"/></g></g><g id="eua7cmrp6boj189"><g id="eua7cmrp6boj190" clip-path="url(#eua7cmrp6boj4)"><path id="eua7cmrp6boj191" d="M345.130000,438.865000C350.616000,437.036000,353.362000,436.132000,358.861000,434.341000C367.009000,439.935000,374.246000,445.715000,384.758000,443.195000C379.238000,444.931000,376.485000,445.804000,370.979000,447.565000C360.510000,450.134000,353.277000,444.410000,345.130000,438.865000L345.130000,438.865000Z" fill="rgb(70,116,130)" stroke="none" stroke-width="1"/></g></g><g id="eua7cmrp6boj192"><g id="eua7cmrp6boj193" clip-path="url(#eua7cmrp6boj6)"><path id="eua7cmrp6boj194" d="M327.340000,346.407000C332.861000,344.493000,335.626000,343.553000,341.159000,341.694000C334.163000,344.044000,329.195000,351.388000,328.185000,362.848000C327.332000,372.519000,328.959000,382.432000,331.987000,391.705000C326.485000,393.589000,323.736000,394.542000,318.246000,396.482000C315.207000,387.232000,313.575000,377.342000,314.413000,367.686000C315.409000,356.219000,320.357000,348.824000,327.340000,346.407000L327.340000,346.407000Z" fill="rgb(70,116,130)" stroke="none" stroke-width="1"/><path id="eua7cmrp6boj195" d="M318.246000,396.482000C323.736000,394.542000,326.485000,393.588000,331.987000,391.705000C334.872000,400.683000,338.957000,409.265000,344.110000,417.162000C338.612000,418.997000,335.865000,419.925000,330.380000,421.808000C325.226000,413.957000,321.137000,405.419000,318.246000,396.482000L318.246000,396.482000Z" fill="rgb(74,119,142)" stroke="none" stroke-width="1"/></g></g><g id="eua7cmrp6boj196"><g id="eua7cmrp6boj197" clip-path="url(#eua7cmrp6boj8)"><path id="eua7cmrp6boj198" d="M327.340000,346.407000C332.861000,344.494000,335.626000,343.554000,341.159000,341.696000C351.703000,338.935000,359,344.714000,367.215000,350.295000C361.673000,352.070000,358.903000,352.965000,353.370000,354.779000C345.145000,349.251000,337.842000,343.540000,327.340000,346.407000L327.340000,346.407000Z" fill="rgb(176,206,234)" stroke="none" stroke-width="1"/></g></g><g id="eua7cmrp6boj199"><g id="eua7cmrp6boj200" clip-path="url(#eua7cmrp6boj10)"><path id="eua7cmrp6boj201" d="M320.911000,331.764000C326.436000,329.819000,329.201000,328.863000,334.738000,326.977000C347.761000,323.055000,358.480000,330.826000,368.444000,338.023000C362.895000,339.795000,360.126000,340.689000,354.587000,342.500000C344.607000,335.373000,333.872000,327.695000,320.911000,331.764000L320.911000,331.764000Z" fill="rgb(70,116,130)" stroke="none" stroke-width="1"/></g></g><g id="eua7cmrp6boj202"><g id="eua7cmrp6boj203" clip-path="url(#eua7cmrp6boj12)"><path id="eua7cmrp6boj204" d="M353.370000,354.779000C358.903000,352.965000,361.673000,352.070000,367.215000,350.295000C372.690000,354.981000,377.717000,360.953000,382.051000,367.630000C376.509000,369.372000,373.739000,370.249000,368.204000,372.020000C363.869000,365.367000,358.844000,359.426000,353.370000,354.779000L353.370000,354.779000Z" fill="rgb(176,206,234)" stroke="none" stroke-width="1"/><path id="eua7cmrp6boj205" d="M368.204000,372.020000C373.738000,370.249000,376.509000,369.372000,382.051000,367.630000C387.217000,375.624000,391.289000,384.311000,394.151000,393.387000C388.608000,395.111000,385.840000,395.975000,380.308000,397.720000C377.448000,388.660000,373.373000,379.992000,368.204000,372.020000L368.204000,372.020000Z" fill="rgb(223,235,247)" stroke="none" stroke-width="1"/><path id="eua7cmrp6boj206" d="M380.308000,397.720000C385.840000,395.975000,388.608000,395.111000,394.151000,393.387000C397.140000,402.716000,398.729000,412.683000,397.820000,422.390000C396.749000,433.824000,391.738000,440.999000,384.759000,443.196000C379.239000,444.932000,376.486000,445.805000,370.980000,447.566000C377.940000,445.340000,382.931000,438.151000,383.993000,426.711000C384.894000,417.004000,383.299000,407.044000,380.308000,397.720000L380.308000,397.720000Z" fill="rgb(176,206,234)" stroke="none" stroke-width="1"/></g></g><g id="eua7cmrp6boj207"><g id="eua7cmrp6boj208" clip-path="url(#eua7cmrp6boj14)"><path id="eua7cmrp6boj209" d="M354.587000,342.500000C360.126000,340.688000,362.896000,339.795000,368.444000,338.023000C375.908000,344.492000,382.284000,352.151000,387.624000,360.446000C382.077000,362.178000,379.306000,363.049000,373.766000,364.807000C368.431000,356.543000,362.049000,348.927000,354.587000,342.500000L354.587000,342.500000Z" fill="rgb(70,116,130)" stroke="none" stroke-width="1"/><path id="eua7cmrp6boj210" d="M373.766000,364.808000C379.306000,363.049000,382.078000,362.179000,387.624000,360.447000C394.302000,370.775000,399.577000,382.020000,403.260000,393.755000C397.714000,395.469000,394.942000,396.328000,389.406000,398.058000C385.721000,386.341000,380.451000,375.111000,373.766000,364.808000L373.766000,364.808000Z" fill="rgb(70,116,130)" stroke="none" stroke-width="1"/><path id="eua7cmrp6boj211" d="M389.405000,398.057000C394.941000,396.328000,397.714000,395.468000,403.259000,393.754000C407.070000,405.791000,409.038000,418.704000,407.991000,431.230000C407.091000,442.003000,402.263000,454.327000,391.094000,458.087000C385.573000,459.816000,382.817000,460.685000,377.311000,462.434000C388.452000,458.616000,393.258000,446.305000,394.149000,435.527000C395.185000,422.996000,393.219000,410.095000,389.405000,398.057000L389.405000,398.057000Z" fill="rgb(70,116,130)" stroke="none" stroke-width="1"/></g></g><g id="eua7cmrp6boj212" opacity="0.71"><path id="eua7cmrp6boj213" d="M359.243000,349.958000C378.692000,366.834000,391.823000,396.296000,389.859000,421.964000C388.060000,445.460000,366.362000,447.723000,350.948000,434.028000C332.022000,417.216000,318.416000,388.257000,320.243000,362.712000C321.920000,339.269000,343.515000,335.739000,359.243000,349.958000Z" fill="rgb(173,218,224)" stroke="none" stroke-width="1"/></g><g id="eua7cmrp6boj214"><path id="eua7cmrp6boj215" d="M354.587000,342.500000C379.716000,364.112000,396.992000,402.336000,394.149000,435.526000C391.537000,466.023000,364.253000,468.890000,343.935000,451.149000C319.353000,429.683000,301.632000,392.333000,304.223000,359.378000C306.614000,328.977000,333.730000,324.154000,354.587000,342.500000ZM345.130000,438.865000C360.586000,452.844000,382.209000,450.156000,383.992000,426.710000C385.943000,401.057000,372.471000,371.643000,353.370000,354.779000C337.605000,340.861000,316.070000,344.294000,314.413000,367.686000C312.607000,393.205000,325.827000,422.132000,345.130000,438.865000L345.130000,438.865000Z" fill="rgb(237,237,237)" stroke="none" stroke-width="1"/></g></g></g><path id="eua7cmrp6boj216" d="M354.258000,426.532000C337.428000,411.960000,325.529000,386.678000,327.507000,364.269000C327.866000,360.199000,328.844000,356.706000,330.228000,353.882000C324.676000,356.298000,320.775000,362.553000,319.946000,372.001000C317.983000,394.366000,330.122000,421.623000,346.702000,434.118000C355.093000,440.442000,370.686000,448.640000,377.818000,433.830000C371.545000,436.390000,363.027000,434.125000,354.258000,426.532000Z" opacity="0.43" fill="rgb(255,255,255)" stroke="none" stroke-width="1"/><g id="eua7cmrp6boj217"><g id="eua7cmrp6boj218"><g id="eua7cmrp6boj219"><use id="eua7cmrp6boj220" width="27.783997" height="26.844543" xlink:href="#eua7cmrp6boj16"/><g id="eua7cmrp6boj221" clip-path="url(#eua7cmrp6boj17)"><path id="eua7cmrp6boj222" d="M422.741000,464.628000C415.538000,456.079000,408.342000,447.524000,401.146000,438.969000C404.087000,437.511000,406.386000,437.434000,407.315000,438.539000C414.514000,447.099000,421.719000,455.653000,428.930000,464.202000C427.997000,463.097000,425.693000,463.171000,422.741000,464.628000L422.741000,464.628000Z" fill="rgb(55,99,109)" stroke="none" stroke-width="1"/></g></g><g id="eua7cmrp6boj223"><g id="eua7cmrp6boj224" clip-path="url(#eua7cmrp6boj19)"><path id="eua7cmrp6boj225" d="M414.012000,476.418000C407.241000,468.369000,400.473000,460.316000,393.704000,452.265000C393.277000,451.757000,393.405000,451.061000,393.360000,450.007000C393.250000,447.410000,395.139000,441.895000,401.146000,438.969000C408.341000,447.525000,415.538000,456.079000,422.741000,464.628000C418.429000,466.753000,414.368000,471.022000,413.667000,474.159000C413.444000,475.150000,413.583000,475.909000,414.012000,476.418000L414.012000,476.418000Z" fill="rgb(55,99,109)" stroke="none" stroke-width="1"/></g></g><g id="eua7cmrp6boj226"><path id="eua7cmrp6boj227" d="M422.741000,464.628000C427.053000,462.502000,429.980000,463.320000,429.276000,466.457000C428.570000,469.596000,424.501000,473.865000,420.190000,475.991000C415.882000,478.117000,412.962000,477.299000,413.667000,474.159000C414.369000,471.021000,418.429000,466.753000,422.741000,464.628000Z" fill="rgb(83,76,66)" stroke="none" stroke-width="1"/></g></g></g><g id="eua7cmrp6boj228"><g id="eua7cmrp6boj229"><path id="eua7cmrp6boj230" d="M430.568000,453.013000C428.855000,450.985000,424.618000,451.120000,419.199000,453.792000C411.285000,457.696000,403.846000,465.541000,402.560000,471.303000C402.154000,473.121000,402.407000,474.520000,403.192000,475.451000C426.515000,502.762000,449.906000,530.007000,473.746000,556.867000C473.808000,556.826000,473.837000,556.809000,473.899000,556.768000C473.090000,555.844000,472.459000,554.698000,473,552.923000C474.582000,547.732000,481.593000,539.215000,489.710000,535.153000C495.270000,532.373000,499.635000,532.126000,501.417000,534.104000C477.353000,507.462000,453.870000,480.324000,430.568000,453.013000Z" fill="rgb(214,58,58)" stroke="none" stroke-width="1"/><g id="eua7cmrp6boj231"><path id="eua7cmrp6boj232" d="M489.710000,535.154000C497.830000,531.092000,501.545000,531.861000,503.200000,537.927000C505.269000,545.508000,504.253000,554.544000,498.241000,558.928000C491.042000,564.177000,472.607000,560.261000,472.679000,552.910000C472.721000,548.722000,481.591000,539.216000,489.710000,535.154000Z" fill="rgb(235,75,72)" stroke="none" stroke-width="1"/></g></g></g><path id="eua7cmrp6boj233" d="M479.648000,542.506000C481.230000,542.561000,485.429000,538.047000,485.429000,538.047000C461.499000,511.138000,438.060000,483.812000,414.730000,456.380000C414.730000,456.380000,408.622000,460.804000,408.584000,461.590000C407.993000,474.242000,471.609000,542.238000,479.648000,542.506000Z" fill="rgb(235,75,72)" stroke="none" stroke-width="1"/></g></g><g id="eua7cmrp6boj234"><path id="eua7cmrp6boj235" d="M530.011000,617.353000C530.011000,617.353000,529.168000,618.457000,527.326000,618.661000C526.189000,618.787000,522.472000,618.899000,522.472000,618.899000C520.626000,618.952000,518.360000,619.323000,517.842000,621.084000C517.842000,621.084000,517.631000,621.972000,517.668000,622.268000C517.802000,623.291000,518.740000,623.779000,519.885000,624.312000C519.885000,624.312000,521.965000,625.283000,523.778000,625.798000C526.120000,626.461000,527.442000,626.515000,529.186000,626.414000C529.186000,626.414000,531.390000,626.249000,532.265000,626.327000C533.235000,626.414000,533.005000,627.108000,533.032000,628.028000L536.041000,629.127000C539.089000,629.813000,541.393000,627.227000,541.374000,626.519000L541.183000,621.764000L530.011000,617.353000Z" fill="rgb(84,84,84)" stroke="none" stroke-width="1"/><g id="eua7cmrp6boj236"><path id="eua7cmrp6boj237" d="M531.198000,626.083000C530.359000,626.091000,527.915000,626.297000,525.489000,625.781000C523.194000,625.296000,519.591000,623.584000,519.591000,623.584000C518.577000,623.110000,517.745000,622.387000,517.726000,621.776000C517.688000,622.005000,517.658000,622.242000,517.676000,622.370000C517.805000,623.392000,518.743000,623.882000,519.888000,624.414000C519.888000,624.414000,521.969000,625.385000,523.780000,625.897000C526.123000,626.562000,527.448000,626.615000,529.191000,626.515000C529.191000,626.515000,531.712000,626.395000,531.805000,626.394000C532.387000,626.360000,532.939000,626.566000,532.942000,626.669000C532.924000,626.619000,532.744000,626.073000,531.198000,626.083000Z" fill="rgb(56,55,54)" stroke="none" stroke-width="1"/><path id="eua7cmrp6boj238" d="M535.997000,627.908000L533.015000,626.821000C533.021000,627.125000,533.028000,627.837000,533.035000,628.131000L536.045000,629.229000C539.094000,629.913000,541.396000,627.328000,541.376000,626.622000L541.334000,625.303000C541.353000,626.012000,539.048000,628.594000,535.997000,627.908000Z" fill="rgb(56,55,54)" stroke="none" stroke-width="1"/></g></g><path id="eua7cmrp6boj239" d="M518.843000,572.333000L518.472000,597.725000C518.443000,599.695000,518.823000,601.654000,519.585000,603.469000L525.455000,617.057000C525.427000,617.036000,526.115000,617.756000,525.631000,618.680000C525.389000,619.142000,525.097000,620.298000,525.411000,620.877000C525.831000,621.648000,531.261000,625.227000,537.261000,624.339000C540.896000,623.801000,541.688000,621.956000,541.336000,621.165000L531.957000,597.903000C531.521000,597.018000,531.273000,596.053000,531.229000,595.068000L532.089000,582.179000C532.089000,582.179000,532.939000,580.158000,533.186000,578.924000C533.889000,575.410000,532.835000,570.315000,532.835000,570.315000L518.843000,572.333000Z" fill="rgb(48,47,47)" stroke="none" stroke-width="1"/><g id="eua7cmrp6boj240"><path id="eua7cmrp6boj241" d="M504.166000,624.588000C504.166000,624.588000,503.325000,625.693000,501.482000,625.901000C500.346000,626.028000,496.628000,626.146000,496.628000,626.146000C494.784000,626.201000,492.519000,626.574000,492.004000,628.334000C492.004000,628.334000,491.793000,629.224000,491.831000,629.520000C491.967000,630.543000,492.905000,631.031000,494.052000,631.564000C494.052000,631.564000,496.132000,632.529000,497.946000,633.041000C500.288000,633.700000,501.611000,633.755000,503.355000,633.651000C503.355000,633.651000,505.558000,633.483000,506.433000,633.559000C507.405000,633.644000,507.175000,634.338000,507.203000,635.258000L510.214000,636.353000C513.262000,637.035000,515.566000,634.446000,515.544000,633.738000L515.342000,626.876000L504.166000,624.588000Z" fill="rgb(84,84,84)" stroke="none" stroke-width="1"/><g id="eua7cmrp6boj242"><path id="eua7cmrp6boj243" d="M505.365000,633.320000C504.526000,633.326000,502.084000,633.535000,499.655000,633.024000C497.360000,632.543000,493.755000,630.834000,493.755000,630.834000C492.742000,630.365000,491.906000,629.641000,491.888000,629.030000C491.850000,629.259000,491.820000,629.496000,491.837000,629.624000C491.970000,630.646000,492.907000,631.132000,494.053000,631.666000C494.053000,631.666000,496.136000,632.633000,497.947000,633.143000C500.292000,633.804000,501.616000,633.856000,503.358000,633.755000C503.358000,633.755000,505.880000,633.631000,505.973000,633.625000C506.555000,633.594000,507.108000,633.798000,507.110000,633.900000C507.094000,633.853000,506.913000,633.305000,505.365000,633.320000Z" fill="rgb(56,55,54)" stroke="none" stroke-width="1"/><path id="eua7cmrp6boj244" d="M510.168000,635.138000L507.184000,634.053000C507.190000,634.355000,507.197000,635.069000,507.206000,635.363000L510.218000,636.457000C513.266000,637.138000,515.566000,634.548000,515.545000,633.842000L515.498000,632.525000C515.521000,633.232000,513.220000,635.815000,510.168000,635.138000Z" fill="rgb(56,55,54)" stroke="none" stroke-width="1"/></g></g><path id="eua7cmrp6boj245" d="M509.720000,576.805000L501.710000,596.206000C500.962000,598.018000,500.657000,599.990000,500.829000,601.944000L502.643000,622.741000C502.625000,622.711000,502.700000,624.172000,501.205000,624.700000C500.713000,624.873000,500.496000,625.738000,500.571000,626.394000C500.670000,627.263000,504.946000,632.019000,511,632.368000C514.229000,632.554000,515.752000,630.999000,516.032000,630.250000L514.389000,604.970000C514.326000,603.999000,514.556000,603.029000,515.049000,602.190000L524.429000,586.258000C524.429000,586.258000,525.984000,585.569000,527.281000,584.079000C531.543000,579.191000,531.956000,571.720000,531.956000,571.720000L509.720000,576.805000Z" fill="rgb(56,55,54)" stroke="none" stroke-width="1"/><g id="eua7cmrp6boj246"><path id="eua7cmrp6boj247" d="M508.210000,506.577000L502.153000,505.603000L500.248000,521.362000C499.614000,525.866000,501.353000,526.921000,502.701000,527.206000C505.496000,527.796000,508.925000,526.848000,510.677000,526.237000C514.072000,525.056000,515.061000,519.840000,515.171000,519.424000L518.241000,509.257000L508.210000,506.577000Z" fill="rgb(255,225,204)" stroke="none" stroke-width="1"/><path id="eua7cmrp6boj248" d="M517.711000,536.764000L515.523000,528.692000L512.002000,519.774000L504.601000,523.193000L507.466000,531.966000C507.732000,533.245000,506.900000,533.783000,506.448000,535.009000L503.980000,541.659000C503.390000,543.263000,502.009000,545.902000,502.832000,549.876000L507.357000,571.737000L525.703000,570.524000L519.695000,541.503000C519.343000,539.813000,518.670000,538.201000,517.711000,536.764000Z" fill="rgb(255,225,204)" stroke="none" stroke-width="1"/><path id="eua7cmrp6boj249" d="M503.958000,503.803000C500.204000,504.963000,499.796000,507.769000,501.681000,510.199000C502.539000,511.301000,502.964000,513.773000,502.808000,515.547000L502.680000,517.221000C502.534000,517.811000,503.148000,518.843000,503.755000,518.066000C504.435000,517.195000,503.878000,516.308000,504.414000,515.906000C504.957000,515.494000,506.222000,515.572000,506.688000,519.129000L506.764000,521.820000C507.247000,524.955000,509.615000,525.638000,511.434000,525.629000C511.434000,525.629000,513.282000,525.523000,514.327000,524.863000C514.840000,524.541000,518.276000,520.904000,519.106000,519.548000C523.292000,512.706000,522.040000,502.620000,509.927000,502.751000C506.663000,502.785000,503.958000,503.803000,503.958000,503.803000Z" fill="rgb(66,32,2)" stroke="none" stroke-width="1"/><path id="eua7cmrp6boj250" d="M503.546000,539.697000C502.195000,541.824000,500.674000,544.336000,501.962000,550.565000L504.235000,579.091000C504.458000,580.174000,504.994000,583.074000,510.728000,582.781000C512.528000,582.688000,518.837000,580.846000,522.499000,578.718000C523.996000,577.849000,533.265000,572.235000,532.794000,569.956000L525.145000,539.732000C522.640000,528.963000,516.003000,527.961000,516.003000,527.961000L509.129000,532.084000L503.546000,539.697000Z" fill="rgb(40,40,39)" stroke="none" stroke-width="1"/><g id="eua7cmrp6boj251"><path id="eua7cmrp6boj252" d="M514.116000,526.117000C515.108000,525.654000,515.410000,525.778000,515.743000,526.374000C516.070000,526.960000,516.075000,527.002000,516.442000,527.556000C516.749000,528.019000,516.519000,528.100000,516.519000,528.100000C516.519000,528.100000,511.589000,530.623000,508.253000,534.076000C505.878000,536.530000,505.703000,536.754000,505.703000,536.754000L505.910000,534.500000C506.038000,532.587000,507.762000,530.367000,510.594000,528.350000C510.595000,528.349000,512.907000,526.681000,514.116000,526.117000Z" fill="rgb(239,243,244)" stroke="none" stroke-width="1"/></g><g id="eua7cmrp6boj253"><path id="eua7cmrp6boj254" d="M504.526000,515.728000C504.526000,515.728000,505.723000,516.236000,505.781000,517.779000C505.821000,518.870000,505.252000,519.629000,504.993000,519.829000C504.300000,520.361000,503.710000,520.368000,503.710000,520.368000C503.710000,520.368000,504.338000,517.935000,504.425000,517.477000C504.512000,517.023000,504.526000,515.728000,504.526000,515.728000Z" fill="rgb(239,207,189)" stroke="none" stroke-width="1"/><path id="eua7cmrp6boj255" d="M504.067000,515.051000C504.067000,515.051000,503.359000,514.836000,503.610000,515.984000C503.862000,517.132000,503.828000,517.781000,503.705000,518.362000C503.589000,518.892000,503.068000,520.439000,503.068000,520.439000C503.068000,520.439000,503.352000,521.202000,504.028000,520.349000C504.349000,519.945000,504.702000,519.106000,504.958000,517.976000C505.063000,517.517000,504.898000,515.014000,504.067000,515.051000Z" fill="rgb(255,232,217)" stroke="none" stroke-width="1"/></g></g><g id="eua7cmrp6boj256"><path id="eua7cmrp6boj257" d="M470.179000,556.257000C468.957000,556.559000,467.747000,555.107000,467.471000,553.997000C467.377000,553.609000,465.027000,553.947000,464.033000,553.589000C462.985000,553.213000,463.295000,552.152000,463.526000,551.937000C463.704000,551.769000,467.301000,551.956000,468.207000,551.973000C471.235000,552.023000,471.619000,553.142000,471.895000,554.252000C472.170000,555.361000,471.399000,555.951000,470.179000,556.257000Z" fill="rgb(255,232,217)" stroke="none" stroke-width="1"/><path id="eua7cmrp6boj258" d="M473.188000,559.706000C476.338000,559.273000,488.857000,562.323000,492.663000,561.267000C496.846000,560.105000,508.628000,551.506000,508.628000,551.506000C508.628000,551.506000,515.482000,546.408000,512.318000,541.665000C510.115000,538.360000,505.711000,538.270000,503.404000,540.576000C501.469000,542.510000,489.183000,552.770000,489.183000,552.770000L474.806000,552.635000C474.806000,552.636000,472.631000,559.781000,473.188000,559.706000Z" fill="rgb(56,55,54)" stroke="none" stroke-width="1"/><path id="eua7cmrp6boj259" d="M472.575000,557.145000L471.814000,553.928000L467.716000,553.658000L467.095000,553.815000L462.680000,555.269000C462.680000,555.269000,460.034000,552.572000,460.637000,555.138000C461.035000,556.811000,462.205000,558.884000,462.205000,558.884000C462.748000,561.183000,465.119000,560.475000,465.119000,560.475000L470.113000,559.816000C471.484000,559.521000,472.923000,558.617000,472.575000,557.145000Z" fill="rgb(255,232,217)" stroke="none" stroke-width="1"/><path id="eua7cmrp6boj260" d="M472.329000,552.228000C471.754000,552.257000,470.693000,553.587000,470.633000,555.289000C470.550000,557.492000,471.022000,558.506000,471.022000,558.506000C471.432000,559.503000,471.864000,560.033000,472.584000,560.078000C472.584000,560.078000,475.251000,560.242000,476.089000,560.254000C476.630000,560.262000,476.618000,559.999000,476.618000,559.999000C476.618000,559.999000,476.190000,559.978000,476.032000,559.895000C475.450000,559.596000,474.640000,558.701000,474.453000,556.549000C474.155000,553.164000,476.131000,552.656000,476.131000,552.656000C476.108000,552.160000,475.875000,552.010000,475.307000,552.068000L472.329000,552.228000Z" fill="rgb(239,243,244)" stroke="none" stroke-width="1"/></g></g><g id="eua7cmrp6boj261"><path id="eua7cmrp6boj262" d="M339.489000,451.419000C340.515000,452.313000,340.997000,453.271000,340.997000,453.271000C340.997000,453.271000,341.760000,454.587000,340.935000,455.891000C338.905000,459.103000,332.969000,468.337000,324.520000,475.210000C317.112000,481.235000,309,486.597000,309,486.597000C309,486.597000,304.607000,487.915000,303.290000,485.280000C301.722000,482.143000,299.727000,476.186000,307.419000,471.574000C308.239000,471.083000,314.375000,468.230000,317.992000,465.419000C327.156000,458.286000,334.312000,449.945000,334.312000,449.945000C334.312000,449.945000,336.290000,448.625000,339.489000,451.419000Z" fill="rgb(56,55,54)" stroke="none" stroke-width="1"/><path id="eua7cmrp6boj263" d="M334.593000,450.353000C334.593000,450.353000,334.846000,449.315000,335.443000,449.315000C336.039000,449.315000,337.340000,449.456000,339.382000,451.466000C340.109000,452.182000,340.549000,453.158000,340.667000,453.427000C340.840000,453.819000,341.092000,454.799000,340.683000,455.121000C340.386000,455.358000,339.952000,455.484000,338.956000,455.248000C336.854000,454.745000,335.065000,452.736000,334.909000,452.141000C334.751000,451.544000,334.593000,450.353000,334.593000,450.353000Z" fill="rgb(202,222,224)" stroke="none" stroke-width="1"/><polygon id="eua7cmrp6boj264" points="337.858000,455.780000 339.650000,451.877000 335.508000,449.196000 334.106000,451.573000" fill="rgb(232,197,172)" stroke="none" stroke-width="1"/><path id="eua7cmrp6boj265" d="M334.837000,449.745000C334.837000,449.745000,334.187000,451.199000,336.571000,453.427000C337.838000,454.612000,338.533000,454.935000,339.443000,455.155000C340.133000,455.320000,340.699000,455.108000,340.699000,455.108000L339.769000,456.141000C339.769000,456.141000,338.494000,456.616000,336.481000,455.170000C333.496000,453.019000,334.155000,450.697000,334.155000,450.697000L334.837000,449.745000Z" fill="rgb(245,245,245)" stroke="none" stroke-width="1"/><path id="eua7cmrp6boj266" d="M338.389000,449.916000C339.502000,448.963000,339.140000,446.905000,338.400000,445.943000C338.144000,445.604000,340.447000,442.749000,339.291000,441.448000C339.291000,441.448000,338.565000,442.073000,337.328000,443.212000C337.230000,443.301000,336.029000,444.080000,335.744000,445.368000C335.002000,448.774000,334.761000,449.296000,335.499000,450.260000C336.237000,451.224000,337.274000,450.872000,338.389000,449.916000Z" fill="rgb(232,197,172)" stroke="none" stroke-width="1"/><path id="eua7cmrp6boj267" d="M337.642000,449.082000C337.642000,449.082000,337.820000,446.886000,340.630000,444.337000C343.441000,441.790000,345.549000,437.660000,347.042000,442.492000C348.537000,447.324000,344.139000,453.737000,338.696000,453.914000C335.972000,454.002000,337.642000,449.082000,337.642000,449.082000Z" fill="rgb(232,197,172)" stroke="none" stroke-width="1"/></g></g></g></g></svg>