<svg xmlns="http://www.w3.org/2000/svg" viewBox="0 0 101.73 82.56"><defs><style>.cls-1,.cls-2{fill:none;}.cls-2{stroke:#fff;stroke-linecap:round;stroke-linejoin:round;stroke-width:0.8px;}</style></defs><g id="background"><rect class="cls-1" width="101.73" height="82.56"/></g><g id="Layer_1" data-name="Layer 1"><g id="performance-lines"><path class="cls-2" d="M47.46,20.93V17.45H46.35a.93.93,0,0,1-.93-.92V15a.93.93,0,0,1,.93-.93h9.06a.92.92,0,0,1,.93.93v1.53a.92.92,0,0,1-.93.92h-1.1v3.48"/><circle class="cls-2" cx="50.87" cy="44.59" r="23.9"/><circle class="cls-2" cx="50.87" cy="44.59" r="17.98"/><path id="turn" class="cls-2" d="M48.23,44.73a2.51,2.51,0,1,0,5,0c0-1.39-2.44-9.14-2.44-9.14S48.24,43.35,48.23,44.73Z"/><path class="cls-2" d="M50.84,29.9v0Z"/><path class="cls-2" d="M50.84,57.25v0Z"/><path class="cls-2" d="M36.18,44.6h0Z"/><path class="cls-2" d="M63.53,44.6h0Z"/><path class="cls-2" d="M61.23,34.18,59.8,35.61Z"/><path class="cls-2" d="M41.89,53.52,40.46,55Z"/><path class="cls-2" d="M40.47,34.21l1.43,1.43Z"/><path class="cls-2" d="M59.81,53.55,61.24,55Z"/></g></g></svg>