<svg id="Layer_1" data-name="Layer 1" xmlns="http://www.w3.org/2000/svg" viewBox="0 0 101.73 82.56"><defs><style>.cls-1,.cls-3,.cls-4{fill:none;}.cls-2{fill:#222;stroke-miterlimit:10;}.cls-2,.cls-3,.cls-4{stroke:#fff;}.cls-3,.cls-4{stroke-linecap:round;stroke-linejoin:round;}.cls-3{stroke-width:0.8px;}.cls-4{stroke-width:0.8px;}</style></defs><g id="background"><rect class="cls-1" width="101.73" height="82.56"/></g><g id="_11" data-name="11"><circle class="cls-2" cx="53.05" cy="51.23" r="1.37"/><line class="cls-3" x1="71.45" y1="55.94" x2="39.03" y2="55.94"/><path class="cls-3" d="M27.25,32V22a3.12,3.12,0,0,1,3.13-3.12H75.73A3.12,3.12,0,0,1,78.85,22V37.36"/><polygon class="cls-4" points="59.68 63.67 46.42 63.67 47.84 56.04 58.27 56.04 59.68 63.67"/><line class="cls-4" x1="44.16" y1="63.67" x2="61.95" y2="63.67"/><line class="cls-4" x1="71.45" y1="46.86" x2="39.03" y2="46.86"/><rect class="cls-4" x="15.48" y="31.98" width="23.55" height="31.69" rx="2.2"/><rect class="cls-4" x="71.45" y="37.36" width="14.81" height="26.31" rx="2.2"/><circle class="cls-2" cx="78.85" cy="61.31" r="0.83"/><circle class="cls-2" cx="27.25" cy="60.8" r="0.94"/><line class="cls-4" x1="77.14" y1="40.43" x2="80.35" y2="40.43"/><line class="cls-4" x1="71.6" y1="59.02" x2="86.1" y2="59.02"/><line class="cls-4" x1="15.72" y1="58.07" x2="38.78" y2="58.07"/></g></svg>